<svg width="51" height="51" viewBox="0 0 51 51" fill="none" xmlns="http://www.w3.org/2000/svg">
<path fill-rule="evenodd" clip-rule="evenodd" d="M36.4402 26.1532C31.996 26.1532 28.3934 29.8403 28.3934 34.3887C28.3934 38.9369 31.996 42.624 36.4402 42.624C40.8843 42.624 44.4869 38.9369 44.4869 34.3887C44.4869 29.8403 40.8843 26.1532 36.4402 26.1532ZM15.5338 26.1539C11.0897 26.1539 7.48694 29.8403 7.48694 34.3887C7.48694 38.9369 11.0897 42.624 15.5338 42.624C19.9781 42.624 23.581 38.9369 23.581 34.3887C23.581 29.8403 19.9781 26.1539 15.5338 26.1539ZM34.0336 15.859C34.0336 20.4075 30.431 24.0949 25.987 24.0949C21.5427 24.0949 17.9401 20.4075 17.9401 15.859C17.9401 11.3114 21.5427 7.62402 25.987 7.62402C30.431 7.62402 34.0336 11.3114 34.0336 15.859Z" fill="#F06A6A"/>
</svg>
