<svg width="51" height="51" viewBox="0 0 51 51" fill="none" xmlns="http://www.w3.org/2000/svg">
<path d="M37.6852 42.624H14.2887C11.0844 42.624 8.48694 40.0265 8.48694 36.8223V13.4258C8.48694 10.2216 11.0845 7.62401 14.2887 7.62401H37.6851C40.8894 7.62401 43.4868 10.2216 43.4868 13.4258V36.8221C43.4868 40.0265 40.8892 42.6239 37.6851 42.6239" fill="#00AEEF"/>
<path d="M26.3998 22.3604C24.5788 22.3604 22.9943 23.3847 22.1963 24.8885C21.398 23.3848 19.8142 22.3604 17.9921 22.3604C16.962 22.3593 15.9596 22.6933 15.1361 23.3121V19.3031C15.1266 18.7845 14.7029 18.3694 14.1844 18.3704C13.6646 18.3704 13.2462 18.7851 13.2343 19.3031V27.1976H13.2353C13.2773 29.7897 15.3896 31.8778 17.9922 31.8778C19.8145 31.8778 21.3982 30.8525 22.1964 29.3502C22.9944 30.8524 24.5791 31.8778 26.3999 31.8778C29.0272 31.8778 31.1583 29.7474 31.1583 27.1182C31.1583 24.489 29.027 22.3606 26.3999 22.3606M17.9921 29.9726C16.4156 29.9726 15.1361 28.6956 15.1361 27.1189C15.1361 25.5422 16.4157 24.2655 17.9921 24.2655C19.5685 24.2655 20.8453 25.5428 20.8453 27.1182C20.8453 28.6936 19.5685 29.9726 17.9921 29.9726ZM26.3999 29.9726C24.823 29.9726 23.5445 28.6951 23.5445 27.1182C23.5445 25.5412 24.8231 24.2655 26.3999 24.2655C27.9768 24.2655 29.2541 25.5428 29.2541 27.1182C29.2541 28.6936 27.9762 29.9726 26.3999 29.9726Z" fill="white"/>
<path d="M38.5418 30.2844L35.9553 27.1119L38.5449 23.9332C38.8724 23.5139 38.7784 22.9283 38.3264 22.6173C37.8739 22.3036 37.2388 22.3839 36.8887 22.7908V22.7902L34.6608 25.5208L32.4349 22.7902V22.7908C32.0882 22.3839 31.4494 22.3036 30.9982 22.6173C30.547 22.9287 30.4528 23.5139 30.7818 23.9332H30.7808L33.3659 27.1119L30.7808 30.2844H30.7818C30.4526 30.7051 30.547 31.2888 30.9982 31.6011C31.4494 31.9135 32.0882 31.8339 32.4349 31.4265L34.6608 28.6998L36.8856 31.4265C37.2362 31.8339 37.8708 31.9136 38.3234 31.6011C38.7755 31.2888 38.8699 30.7051 38.5418 30.2844Z" fill="white"/>
</svg>
