<svg width="51" height="51" viewBox="0 0 51 51" fill="none" xmlns="http://www.w3.org/2000/svg">
<path d="M20.0844 7.83013C20.5916 8.11696 20.9057 8.66023 20.9057 9.24908L20.9207 23.5336H25.986C28.7544 23.5336 31.2501 25.2223 32.3094 27.8133C33.3688 30.4043 32.7838 33.3865 30.8263 35.3697C28.8688 37.3528 25.9251 37.9464 23.3676 36.8732C20.8101 35.7999 19.1423 33.2716 19.1423 30.467L19.1357 25.3429H15.7719V30.467C15.7719 36.1827 20.3451 40.8156 25.9869 40.8156C31.6288 40.8156 36.2019 36.1827 36.2019 30.467C36.2019 24.7512 31.6288 20.1183 25.9869 20.1183H24.4382C23.9451 20.1183 23.5457 19.7137 23.5457 19.2141C23.5457 18.7145 23.9451 18.3099 24.4382 18.3099H25.9869C32.6141 18.3099 37.9869 23.753 37.9869 30.467C37.9869 37.1809 32.6141 42.624 25.9869 42.624C19.3626 42.6174 13.9944 37.179 13.9869 30.4679V24.4397C13.9869 23.9401 14.3863 23.5355 14.8794 23.5346H19.1357L19.1216 9.5777L15.7719 11.6662V19.613C15.7719 20.1126 15.3726 20.5172 14.8794 20.5172C14.3863 20.5172 13.9869 20.1126 13.9869 19.613V11.5627C13.9879 10.9986 14.2776 10.4752 14.751 10.1789L18.4616 7.86527C18.9566 7.55659 19.5773 7.5433 20.0854 7.83013H20.0844ZM25.9813 25.3429H20.9235V30.466C20.9235 32.5384 22.1554 34.4075 24.0454 35.2016C25.9354 35.9946 28.1113 35.5568 29.5579 34.0913C31.0044 32.6258 31.4376 30.4214 30.6548 28.5066C29.8719 26.5919 28.0269 25.3429 25.9813 25.3429ZM25.986 29.0176C26.7763 29.0176 27.4176 29.6663 27.4176 30.4679C27.4176 31.2695 26.7773 31.9182 25.986 31.9182C25.1948 31.9182 24.5544 31.2695 24.5544 30.4679C24.5544 29.6663 25.1948 29.0176 25.986 29.0176Z" fill="#000D47"/>
</svg>
