<svg width="51" height="51" viewBox="0 0 51 51" fill="none" xmlns="http://www.w3.org/2000/svg">
<path fill-rule="evenodd" clip-rule="evenodd" d="M31.1249 19.6537L39.1518 11.6126L41.4495 13.9126L33.4225 21.9537L31.1249 19.6537ZM27.8724 27.8711C26.3016 27.8711 25.0289 26.5913 25.0289 25.0112C25.0289 23.4327 26.3016 22.1512 27.8724 22.1512C29.4433 22.1512 30.7159 23.4327 30.7159 25.0112C30.7159 26.5913 29.4433 27.8711 27.8724 27.8711ZM41.4869 36.1767L39.1894 38.4784L31.1624 30.4372L33.46 28.1355L41.4869 36.1767Z" fill="#222222"/>
<path fill-rule="evenodd" clip-rule="evenodd" d="M27.9553 37.3791C29.5733 37.3791 31.1148 37.0559 32.5276 36.4813L36.4482 40.4105C33.9339 41.8159 31.0399 42.624 27.9553 42.624C18.3086 42.624 10.4869 34.7886 10.4869 25.1248C10.4869 15.4595 18.3086 7.62401 27.9553 7.62401C31.0089 7.62401 33.8769 8.41246 36.3732 9.79183L32.5179 13.6557C31.1066 13.0843 29.57 12.7611 27.9553 12.7611C21.1993 12.7611 15.7225 18.2721 15.7225 25.071C15.7225 31.8681 21.1993 37.3791 27.9553 37.3791Z" fill="#03A9F4"/>
</svg>
