<svg width="51" height="51" viewBox="0 0 51 51" fill="none" xmlns="http://www.w3.org/2000/svg">
<mask id="mask0_115_1549" style="mask-type:luminance" maskUnits="userSpaceOnUse" x="3" y="7" width="46" height="36">
<path d="M48.4869 7.62402H3.48694V42.624H48.4869V7.62402Z" fill="white"/>
</mask>
<g mask="url(#mask0_115_1549)">
<path d="M41.5813 10.7408C38.7132 9.41946 35.6375 8.44595 32.4217 7.88838C32.3632 7.87762 32.3047 7.90451 32.2745 7.9583C31.879 8.66467 31.4408 9.58618 31.134 10.3105C27.6752 9.79058 24.2342 9.79058 20.8463 10.3105C20.5394 9.57008 20.0853 8.66467 19.688 7.9583C19.6578 7.9063 19.5993 7.87941 19.5408 7.88838C16.3268 8.44417 13.2511 9.41768 10.3812 10.7408C10.3563 10.7516 10.3351 10.7695 10.3209 10.7928C4.48705 19.5437 2.88891 28.0795 3.6729 36.5095C3.67645 36.5507 3.69951 36.5901 3.73143 36.6152C7.58046 39.4533 11.3089 41.1762 14.9681 42.3183C15.0267 42.3362 15.0887 42.3147 15.126 42.2663C15.9916 41.0794 16.7631 39.828 17.4247 38.512C17.4637 38.435 17.4265 38.3435 17.3467 38.313C16.1228 37.8469 14.9574 37.2786 13.8364 36.6332C13.7478 36.5812 13.7407 36.4538 13.8222 36.3929C14.0581 36.2154 14.2941 36.0307 14.5194 35.8443C14.5601 35.8102 14.6169 35.803 14.6648 35.8245C22.0293 39.2005 30.0023 39.2005 37.28 35.8245C37.3279 35.8013 37.3847 35.8084 37.4272 35.8425C37.6525 36.0289 37.8884 36.2154 38.1261 36.3929C38.2077 36.4538 38.2023 36.5812 38.1137 36.6332C36.9927 37.2911 35.8273 37.8469 34.6017 38.3113C34.5219 38.3417 34.4864 38.435 34.5254 38.512C35.2012 39.8262 35.9728 41.0776 36.8224 42.2645C36.8579 42.3147 36.9217 42.3362 36.9803 42.3183C40.6572 41.1762 44.3856 39.4533 48.2346 36.6152C48.2683 36.5901 48.2896 36.5525 48.2932 36.5112C49.2315 26.7653 46.7216 18.2995 41.6398 10.7946C41.6274 10.7695 41.6062 10.7516 41.5813 10.7408ZM18.5245 31.3765C16.3072 31.3765 14.4803 29.3327 14.4803 26.8227C14.4803 24.3127 16.2718 22.2688 18.5245 22.2688C20.7948 22.2688 22.6041 24.3306 22.5686 26.8227C22.5686 29.3327 20.7771 31.3765 18.5245 31.3765ZM33.4771 31.3765C31.2599 31.3765 29.433 29.3327 29.433 26.8227C29.433 24.3127 31.2244 22.2688 33.4771 22.2688C35.7475 22.2688 37.5567 24.3306 37.5213 26.8227C37.5213 29.3327 35.7475 31.3765 33.4771 31.3765Z" fill="#5865F2"/>
</g>
</svg>
