<svg width="51" height="51" viewBox="0 0 51 51" fill="none" xmlns="http://www.w3.org/2000/svg">
<path d="M20.3867 15.4864C20.3867 15.8354 20.3578 16.4157 20.0078 16.7926C19.6298 17.1407 19.0479 17.1704 18.6996 17.1704H14.9737C13.8974 17.1704 13.2568 17.1704 12.8202 17.228C12.5874 17.2568 12.2969 17.3728 12.1507 17.4313C12.093 17.4601 12.093 17.4313 12.1219 17.4025L20.6204 8.78357C20.6483 8.75479 20.6781 8.75479 20.6483 8.81236C20.5906 8.95719 20.4742 9.24776 20.4453 9.47985C20.3867 9.91525 20.3867 10.554 20.3867 11.6272V15.4864ZM28.3024 41.5456C27.3136 40.9069 26.7894 40.0658 26.5856 39.5431C26.3763 39.0368 26.2675 38.4948 26.2653 37.9472C26.2653 35.539 28.2447 33.5663 30.6886 33.5663C31.4167 33.5663 31.9986 34.1456 31.9986 34.8706C31.9986 35.3654 31.737 35.7702 31.3292 36.0032C31.1745 36.0865 31.0077 36.1451 30.8348 36.1768C30.6886 36.2065 30.1365 36.2641 29.874 36.4962C29.5835 36.7283 29.3507 37.1061 29.3507 37.5127C29.3507 37.9472 29.5248 38.3538 29.8162 38.6435C30.3395 39.1662 31.0387 39.4567 31.7947 39.4567C32.2649 39.4571 32.7306 39.365 33.1651 39.1857C33.5996 39.0065 33.9943 38.7436 34.3268 38.412C34.6593 38.0805 34.923 37.6868 35.1028 37.2536C35.2826 36.8204 35.3749 36.356 35.3745 35.8872C35.3745 34.1168 34.181 32.5497 32.6103 31.8534C32.3766 31.7374 31.9986 31.6501 31.6495 31.5629C31.3602 31.5042 31.0689 31.4562 30.7762 31.4189C29.5537 31.2732 26.498 30.3152 26.2951 27.6164C26.2951 27.6164 25.3929 31.6789 23.5885 32.7818C23.3755 32.8855 23.1507 32.9634 22.9191 33.0139C22.6575 33.0724 22.3661 33.1012 22.2786 33.1012C19.3393 33.2757 16.225 32.3464 14.0715 30.1415C14.0715 30.1415 12.6163 28.9514 11.8602 25.6148C11.6843 24.8016 11.3361 23.3506 11.1322 21.9859C11.0447 21.4929 11.0158 21.116 10.9869 20.767C10.9869 19.3456 11.8602 18.3875 12.9654 18.2427H18.9026C19.9212 18.2427 20.5031 17.9818 20.882 17.6337C21.3764 17.1686 21.4928 16.502 21.4928 15.7176V9.77132V9.5968C21.638 8.52359 22.5988 7.62401 24.0243 7.62401H24.7235C25.014 7.62401 25.364 7.65279 25.6834 7.68158C25.9161 7.71037 26.12 7.76884 26.4692 7.8561C28.2447 8.2906 28.6227 10.0898 28.6227 10.0898C28.6227 10.0898 31.9697 10.6709 33.6568 10.9606C35.2582 11.2511 39.216 11.512 39.972 15.4873C41.7484 24.9482 40.6712 34.1177 40.5837 34.1177C39.3324 43.056 31.8822 42.6206 31.8822 42.6206C30.2818 42.6206 29.0882 42.0979 28.3024 41.5456ZM34.9965 22.5382C34.0357 22.451 33.2211 22.8288 32.9306 23.5548C32.8719 23.6987 32.8133 23.8732 32.843 23.9596C32.8719 24.0477 32.9297 24.0765 32.9874 24.1053C33.3374 24.2798 33.9193 24.3662 34.7638 24.4535C35.6082 24.5407 36.1892 24.5992 36.5681 24.5407C36.6259 24.5407 36.6845 24.5119 36.7422 24.4247C36.8 24.3374 36.7711 24.1638 36.7711 24.0181C36.6547 23.2057 35.9564 22.6543 34.9965 22.5382Z" fill="#00A82D"/>
</svg>
