<svg width="51" height="51" viewBox="0 0 51 51" fill="none" xmlns="http://www.w3.org/2000/svg">
<path d="M40.9404 7.77875C40.8428 7.68027 40.7174 7.62402 40.5781 7.62402H29.1923C29.0808 7.62402 28.9554 7.66621 28.8718 7.75062L26.3075 9.59337C26.1264 9.76217 25.8476 9.76217 25.6665 9.59337L23.0883 7.75062C23.0047 7.66621 22.8793 7.62401 22.7678 7.62401H11.382C11.2427 7.62401 11.1172 7.68027 11.0197 7.77874C7.60536 11.4642 5.51496 16.4017 5.48708 21.8455C5.44528 33.1411 14.5037 42.4533 25.6944 42.6221C37.1498 42.7768 46.4869 33.4646 46.4869 21.9299C46.4869 16.4579 44.3826 11.4783 40.9404 7.77875ZM36.1325 13.1663C38.2089 15.5717 39.4353 18.7086 39.4353 22.1409C39.4353 29.9198 32.955 36.278 25.1508 35.856C18.1968 35.4903 12.8453 29.6666 12.6084 22.6332C12.483 19.0181 13.6536 15.6702 15.8276 13.1663C15.9949 12.9694 15.9809 12.688 15.7998 12.5052L11.7862 8.52429L25.4156 18.371C25.778 18.6664 26.2797 18.6664 26.6281 18.371L40.2436 8.52429L36.1464 12.5052C35.9792 12.688 35.9652 12.9694 36.1325 13.1663Z" fill="#DF696A"/>
</svg>
