<svg width="51" height="51" viewBox="0 0 51 51" fill="none" xmlns="http://www.w3.org/2000/svg">
<path d="M33.4934 20.7396H43.3085C44.2389 20.7396 44.9869 21.4855 44.9869 22.395V31.2358C44.9869 34.6194 42.2139 37.3298 38.8206 37.3298H38.7841C35.3725 37.3298 32.6177 34.6012 32.6177 31.2358V21.5946C32.6177 21.1216 33.0009 20.7214 33.4934 20.7214V20.7396Z" fill="#5059C9"/>
<path d="M40.1186 18.9939C42.3078 18.9939 44.0957 17.2294 44.0957 15.0646C44.0957 12.8999 42.3078 11.1354 40.1186 11.1354C37.9294 11.1354 36.1415 12.8999 36.1415 15.0646C36.1415 17.2294 37.9294 18.9939 40.1186 18.9939Z" fill="#5059C9"/>
<path d="M27.7462 18.9934C30.9206 18.9934 33.4929 16.4467 33.4929 13.3178C33.4929 10.189 30.9206 7.62402 27.7462 7.62402C24.5718 7.62402 21.9995 10.1708 21.9995 13.2996C21.9995 16.4285 24.5718 18.9752 27.7462 18.9752V18.9934Z" fill="#7B83EB"/>
<path d="M35.4086 20.7402H19.2082C18.296 20.7584 17.5663 21.5043 17.5845 22.432V32.528C17.4568 37.9671 21.7988 42.4967 27.3084 42.624C32.7997 42.4967 37.16 37.9671 37.0323 32.528V22.432C37.0505 21.5224 36.3208 20.7766 35.4086 20.7402Z" fill="#7B83EB"/>
<path opacity="0.1" d="M28.2052 20.7402V34.8746C28.2052 35.5295 27.8038 36.1116 27.2018 36.3481C27.0011 36.4209 26.8004 36.4754 26.5997 36.4754H18.3901C18.2806 36.1844 18.1712 35.8933 18.08 35.6023C17.7698 34.6018 17.6056 33.5649 17.6056 32.5098V22.432C17.5874 21.5224 18.2989 20.7766 19.2293 20.7402H28.2052Z" fill="black"/>
<path opacity="0.1" d="M27.3101 20.7402V35.7478C27.3101 35.9661 27.2736 36.1662 27.1824 36.3481C26.927 36.9484 26.3432 37.3486 25.6864 37.3486H18.7721C18.6261 37.0576 18.4802 36.7665 18.3525 36.4754C18.2248 36.1844 18.1336 35.8933 18.0423 35.6023C17.7322 34.6018 17.568 33.5649 17.568 32.5098V22.432C17.5498 21.5224 18.2613 20.7766 19.1917 20.7402H27.2919H27.3101Z" fill="black"/>
<path opacity="0.1" d="M27.3101 20.7396V34.0009C27.3101 34.874 26.5804 35.6017 25.6864 35.6017H18.0423C17.7322 34.6012 17.568 33.5643 17.568 32.5092V22.4132C17.5498 21.5036 18.2613 20.7578 19.1917 20.7214H27.2919L27.3101 20.7396Z" fill="black"/>
<path opacity="0.1" d="M26.4162 20.7396V34.0009C26.4162 34.874 25.6864 35.6017 24.7925 35.6017H18.0423C17.7322 34.6012 17.568 33.5643 17.568 32.5092V22.4132C17.5498 21.5036 18.2613 20.7578 19.1917 20.7214H26.4162V20.7396Z" fill="black"/>
<path opacity="0.1" d="M28.2033 16.2286V18.9755C28.0573 18.9755 27.9114 18.9936 27.7654 18.9936C27.6195 18.9936 27.4735 18.9936 27.3276 18.9755C27.0357 18.9573 26.7255 18.9027 26.4519 18.8299C24.664 18.4115 23.1863 17.1745 22.4748 15.501C22.3471 15.2281 22.2558 14.9371 22.1829 14.6278H26.5796C27.4735 14.6278 28.2033 15.3373 28.2033 16.2286Z" fill="black"/>
<path opacity="0.1" d="M27.3085 17.1017V18.9936C27.0166 18.9754 26.7065 18.9208 26.4328 18.8481C24.645 18.4297 23.1672 17.1927 22.4557 15.5191H25.7031C26.597 15.5191 27.3085 16.2286 27.3268 17.1199L27.3085 17.1017Z" fill="black"/>
<path opacity="0.1" d="M27.3085 17.1017V18.9936C27.0166 18.9754 26.7065 18.9208 26.4328 18.8481C24.645 18.4297 23.1672 17.1927 22.4557 15.5191H25.7031C26.597 15.5191 27.3085 16.2286 27.3268 17.1199L27.3085 17.1017Z" fill="black"/>
<path opacity="0.1" d="M26.414 17.1017V18.8481C24.6262 18.4297 23.1484 17.1927 22.4369 15.5191H24.7904C25.6843 15.5191 26.414 16.2286 26.414 17.1199V17.1017Z" fill="black"/>
<path d="M8.61062 15.4827H24.811C25.7049 15.4827 26.4347 16.2104 26.4347 17.0835V33.1098C26.4347 33.983 25.7049 34.7106 24.811 34.7106H8.61062C7.71668 34.7106 6.98694 33.983 6.98694 33.1098V17.1017C6.98694 16.2286 7.69844 15.5009 8.61062 15.5009V15.4827Z" fill="url(#paint0_linear_115_1577)"/>
<path d="M20.9635 21.5946H17.7161V30.3263H15.6546V21.5946H12.4254V19.9028H20.9452V21.5946H20.9635Z" fill="white"/>
<defs>
<linearGradient id="paint0_linear_115_1577" x1="10.435" y1="14.1912" x2="22.9321" y2="36.0515" gradientUnits="userSpaceOnUse">
<stop stop-color="#5A62C3"/>
<stop offset="0.5" stop-color="#4D55BD"/>
<stop offset="1" stop-color="#3940AB"/>
</linearGradient>
</defs>
</svg>
