<svg width="51" height="51" viewBox="0 0 51 51" fill="none" xmlns="http://www.w3.org/2000/svg">
<g clip-path="url(#clip0_115_1581)">
<path d="M7.20671 39.9782C6.10143 39.9806 5.01531 39.6908 4.05932 39.1383C3.10332 38.5859 2.31173 37.7906 1.76539 36.8337C1.22741 35.8836 0.95911 34.8056 0.989221 33.7153C1.01933 32.6249 1.34672 31.5633 1.93632 30.644L13.1418 13.12C13.7154 12.1782 14.5296 11.4049 15.5014 10.879C16.4733 10.3531 17.5679 10.0936 18.6734 10.1269C19.778 10.1532 20.8559 10.4714 21.7965 11.0488C22.7371 11.6263 23.5069 12.4422 24.0269 13.4132C25.0714 15.3803 24.9409 17.7469 23.6897 19.5934L12.4913 37.1174C11.9235 37.9987 11.1414 38.7229 10.2176 39.223C9.29378 39.7231 8.25816 39.9829 7.20671 39.9782Z" fill="#F62B54"/>
<path d="M26.4289 39.9774C24.1688 39.9774 22.0891 38.774 20.9971 36.84C20.4603 35.8925 20.1926 34.8174 20.2227 33.7299C20.2528 32.6424 20.5796 31.5835 21.168 30.6669L32.3521 13.1831C32.9172 12.228 33.7286 11.4409 34.7021 10.9034C35.6755 10.3659 36.7757 10.0975 37.8884 10.1261C40.1675 10.1757 42.2329 11.4454 43.2775 13.4313C44.315 15.4173 44.163 17.7982 42.8739 19.6399L31.6922 37.1237C31.126 38.0013 30.3471 38.7227 29.4273 39.2214C28.5074 39.7201 27.4762 39.9801 26.4289 39.9774Z" fill="#FFCC00"/>
<path d="M45.218 40.124C48.4041 40.124 50.9869 37.6058 50.9869 34.4994C50.9869 31.393 48.4041 28.8748 45.218 28.8748C42.0319 28.8748 39.4491 31.393 39.4491 34.4994C39.4491 37.6058 42.0319 40.124 45.218 40.124Z" fill="#00CA72"/>
</g>
<defs>
<clipPath id="clip0_115_1581">
<rect width="50" height="50" fill="white" transform="translate(0.986938 0.124023)"/>
</clipPath>
</defs>
</svg>
