<svg width="51" height="51" viewBox="0 0 51 51" fill="none" xmlns="http://www.w3.org/2000/svg">
<g clip-path="url(#clip0_115_1582)">
<path fill-rule="evenodd" clip-rule="evenodd" d="M50.9869 17.324C50.9869 20.1959 48.691 22.524 45.8587 22.524C43.4692 22.524 41.4614 20.8668 40.8921 18.624H33.7323C32.4789 18.624 31.4092 19.5429 31.2031 20.7966L30.9923 22.0789C30.7922 23.2964 30.1848 24.356 29.3259 25.124C30.1848 25.892 30.7922 26.9516 30.9923 28.1691L31.2031 29.4515C31.4092 30.7051 32.4789 31.624 33.7323 31.624H35.7639C36.3332 29.3812 38.341 27.724 40.7305 27.724C43.5628 27.724 45.8587 30.0521 45.8587 32.924C45.8587 35.7959 43.5628 38.124 40.7305 38.124C38.341 38.124 36.3332 36.4668 35.7639 34.224H33.7323C31.2255 34.224 29.086 32.3863 28.6739 29.8789L28.4631 28.5966C28.2571 27.3429 27.1873 26.424 25.9339 26.424H23.8423C23.2022 28.5561 21.2476 30.1074 18.9356 30.1074C16.6237 30.1074 14.6692 28.5561 14.029 26.424H11.0218C10.3817 28.5561 8.42705 30.1074 6.11514 30.1074C3.28292 30.1074 0.986938 27.7792 0.986938 24.9074C0.986938 22.0355 3.28292 19.7074 6.11514 19.7074C8.58102 19.7074 10.6404 21.4721 11.1319 23.824H13.9189C14.4104 21.4721 16.4698 19.7074 18.9356 19.7074C21.4015 19.7074 23.4609 21.4721 23.9524 23.824H25.9339C27.1873 23.824 28.2571 22.9051 28.4631 21.6515L28.6739 20.3691C29.086 17.8618 31.2255 16.024 33.7323 16.024H40.8921C41.4614 13.7812 43.4692 12.124 45.8587 12.124C48.691 12.124 50.9869 14.4521 50.9869 17.324ZM48.4228 17.324C48.4228 18.7599 47.2749 19.924 45.8587 19.924C44.4426 19.924 43.2946 18.7599 43.2946 17.324C43.2946 15.8881 44.4426 14.724 45.8587 14.724C47.2749 14.724 48.4228 15.8881 48.4228 17.324ZM6.11514 27.5074C7.53128 27.5074 8.67923 26.3433 8.67923 24.9074C8.67923 23.4714 7.53128 22.3074 6.11514 22.3074C4.69903 22.3074 3.55104 23.4714 3.55104 24.9074C3.55104 26.3433 4.69903 27.5074 6.11514 27.5074ZM18.9356 27.5074C20.3518 27.5074 21.4997 26.3433 21.4997 24.9074C21.4997 23.4714 20.3518 22.3074 18.9356 22.3074C17.5196 22.3074 16.3715 23.4714 16.3715 24.9074C16.3715 26.3433 17.5196 27.5074 18.9356 27.5074ZM40.7305 35.524C42.1467 35.524 43.2946 34.3599 43.2946 32.924C43.2946 31.4881 42.1467 30.324 40.7305 30.324C39.3144 30.324 38.1664 31.4881 38.1664 32.924C38.1664 34.3599 39.3144 35.524 40.7305 35.524Z" fill="#EA4B71"/>
</g>
<defs>
<clipPath id="clip0_115_1582">
<rect width="50" height="50" fill="white" transform="translate(0.986938 0.124023)"/>
</clipPath>
</defs>
</svg>
