<svg width="51" height="51" viewBox="0 0 51 51" fill="none" xmlns="http://www.w3.org/2000/svg">
<path d="M30.2693 15.0403V21.886L32.6086 23.396C32.6745 23.396 32.8062 23.396 32.8721 23.396L42.9868 16.4497C42.9868 15.6444 42.229 15.0403 41.8007 15.0403H30.2693Z" fill="#0072C6"/>
<path d="M30.2695 24.4354L32.4111 25.9454C32.7076 26.1803 33.07 25.9454 33.07 25.9454C32.7076 26.1803 42.9869 19.234 42.9869 19.234V31.8179C42.9869 33.1937 42.1303 33.7642 41.1419 33.7642H30.2366V24.4689L30.2695 24.4354Z" fill="#0072C6"/>
<path d="M19.1668 21.2814C18.4421 21.2814 17.8491 21.6169 17.4209 22.3216C16.9927 23.0263 16.7621 23.9324 16.7621 25.1069C16.7621 26.2814 16.9927 27.1874 17.4209 27.8921C17.8491 28.5633 18.4091 28.8988 19.1009 28.8988C19.7927 28.8988 20.3856 28.5633 20.8139 27.8921C21.2421 27.221 21.4397 26.3149 21.4397 25.1404C21.4397 23.9659 21.2421 22.9592 20.8139 22.2881C20.4186 21.6169 19.8586 21.2814 19.1338 21.2814H19.1668Z" fill="#0072C6"/>
<path d="M8.98694 11.5838V38.3623L28.9856 42.624V7.62402L8.98694 11.5838ZM22.3633 29.5032C21.5067 30.6442 20.4194 31.2146 19.0686 31.2146C17.7178 31.2146 16.6635 30.6777 15.8398 29.5703C15.0162 28.4629 14.5879 27.0536 14.5879 25.275C14.5879 23.4965 15.0162 21.9193 15.8728 20.7448C16.7294 19.6039 17.8496 19.0334 19.2334 19.0334C20.6171 19.0334 21.6385 19.5703 22.4292 20.6777C23.2528 21.7851 23.6482 23.2281 23.6482 25.0401C23.6482 26.8858 23.2199 28.3958 22.3962 29.5032H22.3633Z" fill="#0072C6"/>
</svg>
