<svg width="51" height="51" viewBox="0 0 51 51" fill="none" xmlns="http://www.w3.org/2000/svg">
<path d="M32.5162 20.4945C34.8846 22.8736 35.032 25.8144 35.1815 26.5144H16.9522C16.9522 25.9548 17.1006 22.7342 19.9134 20.2157C22.4292 17.976 25.3915 17.8366 26.1308 17.8366C26.5741 17.8366 29.9798 17.977 32.4966 20.4965L32.5162 20.4945ZM44.4869 25.124C44.4869 34.7837 36.1971 42.624 25.9813 42.624C15.7654 42.624 7.48694 34.7837 7.48694 25.124C7.48694 15.4643 15.7768 7.62402 25.9926 7.62402C36.2085 7.62402 44.4869 15.4643 44.4869 25.124ZM39.8987 29.7438C39.8987 29.0437 40.0471 28.0638 39.8987 26.9434H37.2334V26.103H39.7492C39.6007 23.8633 39.0089 20.5033 36.3446 17.5616C36.3446 17.4212 36.1961 17.4212 36.1961 17.2818L34.2711 19.2319L33.5308 18.5318L35.5929 16.5817C32.1883 13.642 28.0424 13.0716 26.5607 13.0716V15.7315H25.6719V13.0725C24.1913 13.0725 19.8979 13.6322 16.4933 16.7124L18.4184 18.5328L17.678 19.2328L15.753 17.4124C12.9403 20.3522 12.3484 23.8526 12.2 26.0922H14.7158V26.9327H12.0649V27.0741C11.9164 28.1954 12.0649 29.1743 12.0649 29.8744L39.8987 29.7438Z" fill="#B7111D"/>
</svg>
