<svg xmlns="http://www.w3.org/2000/svg" xmlns:xlink="http://www.w3.org/1999/xlink" id="Layer_1" x="0px" y="0px" width="208px" height="52px" viewBox="0 0 208 52" xml:space="preserve"><g>	<g>		<defs>			<rect id="SVGID_1_" x="28.5" y="-10.499" width="146" height="73"></rect>		</defs>		<clipPath id="SVGID_2_">			<use xlink:href="#SVGID_1_"></use>		</clipPath>		<g clip-path="url(#SVGID_2_)">			<defs>				<path id="SVGID_3_" d="M159.609,2.9h4.768c1.231,0,2.293,0.418,3.174,1.253c0.881,0.836,1.322,1.875,1.322,3.107v41.175h-9.264     V2.9z M148.654,46.979c-1.854,0.972-3.818,1.569-5.886,1.784c-2.078,0.227-3.908,0.339-5.501,0.339     c-3.174,0-5.953-0.87-8.337-2.586c-2.384-1.718-3.569-4.564-3.569-8.54c0-3.706,1.073-6.349,3.242-7.941     c2.157-1.593,4.914-2.644,8.269-3.175c0.44,0,0.972-0.067,1.593-0.203c0.621-0.125,1.322-0.237,2.112-0.328     c3.886-0.531,5.829-1.672,5.829-3.445c0-1.322-0.689-2.18-2.056-2.575c-1.367-0.396-2.621-0.599-3.773-0.599     c-1.231,0-2.338,0.181-3.31,0.531s-1.672,1.017-2.112,1.988h-8.868c0.351-2.745,1.582-4.993,3.705-6.755     c2.384-2.033,5.784-3.05,10.189-3.05c4.948,0,8.653,0.848,11.127,2.52c2.553,1.762,3.829,4.236,3.829,7.41v12.053     c0,3.524-0.632,6.281-1.92,8.27C151.941,44.662,150.417,46.097,148.654,46.979z M146.541,30.7     c-1.242,0.609-2.959,1.186-5.162,1.718c-2.033,0.44-3.05,0.666-3.05,0.666c-1.581,0.44-2.733,1.006-3.445,1.717     c-0.61,0.972-0.926,1.943-0.926,2.914c0,1.321,0.406,2.384,1.197,3.175c0.79,0.712,1.942,1.062,3.444,1.062     c2.464,0,4.406-0.712,5.818-2.124c1.412-1.411,2.123-3.354,2.123-5.817V30.7z M102.624,48.436v-17.08     c0-3.434,0.508-6.326,1.525-8.665c1.016-2.338,2.406-4.213,4.168-5.625c1.672-1.333,3.638-2.293,5.886-2.915     c2.259-0.622,4.574-0.927,6.958-0.927c0.169,0,0.396,0,0.655,0c0.271,0,0.485,0,0.666,0v9.399h-3.05     c-2.553,0-4.45,0.621-5.693,1.853c-1.231,1.231-1.853,3.174-1.853,5.83v18.13H102.624z M92.063,46.979     c-1.853,0.972-3.818,1.569-5.885,1.784c-2.079,0.227-3.908,0.339-5.5,0.339c-3.175,0-5.954-0.87-8.337-2.586     c-2.383-1.718-3.57-4.564-3.57-8.54c0-3.706,1.073-6.349,3.242-7.941c2.158-1.593,4.914-2.644,8.269-3.175     c0.44,0,0.972-0.067,1.593-0.203c0.621-0.125,1.321-0.237,2.112-0.328c3.886-0.531,5.829-1.672,5.829-3.445     c0-1.322-0.688-2.18-2.055-2.575c-1.367-0.396-2.621-0.599-3.773-0.599c-1.231,0-2.338,0.181-3.309,0.531     c-0.972,0.35-1.672,1.017-2.113,1.988h-8.868c0.35-2.745,1.582-4.993,3.706-6.755c2.383-2.033,5.783-3.05,10.189-3.05     c4.947,0,8.652,0.848,11.126,2.52c2.553,1.762,3.829,4.236,3.829,7.41v12.053c0,3.524-0.632,6.281-1.92,8.27     C95.352,44.662,93.826,46.097,92.063,46.979z M89.951,30.7c-1.243,0.609-2.959,1.186-5.163,1.718     c-2.033,0.44-3.049,0.666-3.049,0.666c-1.582,0.44-2.733,1.006-3.446,1.717c-0.609,0.972-0.926,1.943-0.926,2.914     c0,1.321,0.407,2.384,1.198,3.175c0.791,0.712,1.943,1.062,3.445,1.062c2.462,0,4.405-0.712,5.818-2.124     c1.412-1.411,2.123-3.354,2.123-5.817V30.7z M34.127,36.789v0.396c0,3.886,1.276,6.834,3.841,8.867     c2.462,2.033,6.213,3.05,11.251,3.05c5.287,0,9.263-0.972,11.906-2.914c2.824-2.123,4.236-5.117,4.236-9.003     c0-2.644-0.835-4.767-2.507-6.36c-1.774-1.491-4.903-2.824-9.398-3.965c-0.362,0-0.734-0.044-1.13-0.135     c-0.396-0.09-0.858-0.215-1.39-0.396c-4.586-0.971-6.879-2.158-6.879-3.569c0-1.062,0.395-1.864,1.186-2.384     c0.881-0.53,2.203-0.802,3.976-0.802c1.853,0,3.31,0.396,4.361,1.198c0.361,0.35,0.711,0.7,1.062,1.062     c0.881,1.492,2.169,2.248,3.841,2.248h5.693c-0.181-3.536-1.547-6.405-4.101-8.608c-2.745-2.033-6.405-3.05-10.991-3.05     c-4.236,0-7.682,1.017-10.325,3.05c-2.564,2.203-3.841,4.982-3.841,8.337c0,2.655,0.881,4.768,2.644,6.359     c1.593,1.582,4.722,2.96,9.399,4.101c0.802,0.271,1.988,0.531,3.581,0.791c3.705,0.803,5.558,1.988,5.558,3.581     c0,1.062-0.531,1.897-1.593,2.508c-1.141,0.621-2.508,0.926-4.1,0.926c-2.203,0-3.965-0.44-5.298-1.321     c-1.231-0.881-1.898-2.203-1.977-3.965H34.127z"></path>			</defs>			<clipPath id="SVGID_4_">				<use xlink:href="#SVGID_3_"></use>			</clipPath>			<linearGradient id="SVGID_5_" gradientUnits="userSpaceOnUse" x1="41.3613" y1="26.001" x2="160.7319" y2="26.001">				<stop offset="0" style="stop-color:#2F2483"></stop>				<stop offset="0.35" style="stop-color:#009EE3"></stop>				<stop offset="0.54" style="stop-color:#00963F"></stop>				<stop offset="0.68" style="stop-color:#79AB2A"></stop>				<stop offset="0.81" style="stop-color:#F6BD00"></stop>				<stop offset="1" style="stop-color:#E3000F"></stop>			</linearGradient>			<rect x="34.127" y="2.9" clip-path="url(#SVGID_4_)" fill="url(#SVGID_5_)" width="134.746" height="46.201"></rect>		</g>	</g></g></svg>