<svg width="51" height="51" viewBox="0 0 51 51" fill="none" xmlns="http://www.w3.org/2000/svg">
<path d="M21.1066 42.624C19.3878 42.624 17.628 41.9669 16.3184 40.6528C13.6583 37.9834 13.6174 33.6713 16.2775 31.043L37.3948 9.64672C40.0549 6.97733 44.352 6.93626 46.9712 9.60566C49.6314 12.2751 49.6723 16.5871 47.0122 19.2155L25.8949 40.6117C24.5853 41.9669 22.8255 42.624 21.1066 42.624Z" fill="#21C58E"/>
<path d="M21.1065 42.6238C19.3467 42.6238 17.6279 41.9668 16.2773 40.6526L4.98203 29.3179C2.32191 26.6485 2.32191 22.3364 4.98203 19.7081C7.64216 17.0798 11.9393 17.0387 14.5585 19.7081L25.8538 31.0428C28.5139 33.7122 28.5139 38.0243 25.8538 40.6526C24.5851 41.9668 22.8253 42.6238 21.1065 42.6238Z" fill="#407BFF"/>
<path d="M21.1887 42.624C24.9129 42.624 27.9414 39.5439 27.9414 35.7657C27.9414 31.9875 24.9129 28.9074 21.1069 28.9074C17.3418 28.9074 14.3133 31.9875 14.3133 35.7657C14.3952 39.585 17.4236 42.624 21.1887 42.624Z" fill="#1C38D6"/>
</svg>
