<svg width="51" height="51" viewBox="0 0 51 51" fill="none" xmlns="http://www.w3.org/2000/svg">
<path d="M13.6126 12.7502C6.7784 19.584 6.7784 30.6642 13.6126 37.4988C20.4467 44.3325 31.5275 44.3325 38.3624 37.4988L13.6126 12.7502Z" fill="url(#paint0_linear_115_1593)"/>
<path d="M38.3613 12.7494C31.5271 5.91557 20.4463 5.91557 13.6115 12.7494L38.3613 37.4979C45.1955 30.6641 45.1955 19.5838 38.3613 12.7494Z" fill="url(#paint1_linear_115_1593)"/>
<path d="M38.3626 37.4972C41.78 34.08 41.78 28.5401 38.3626 25.1229L32.1751 18.9358C31.5742 18.335 30.9077 17.8407 30.1987 17.4511C29.5773 17.11 28.9238 16.8495 28.2532 16.6704C25.3341 15.8912 22.0903 16.6458 19.8002 18.9358L32.1751 31.3101C34.5637 33.6985 34.7264 37.4686 32.6645 40.0456C32.5135 40.235 32.3501 40.4175 32.1751 40.5932C31.633 41.1353 31.0198 41.5618 30.3655 41.8748C29.8043 42.1428 29.2136 42.3274 28.6114 42.4272C29.2601 42.3295 29.8966 42.1962 30.5201 42.0294C33.5313 41.2241 36.2228 39.6369 38.3626 37.4972Z" fill="url(#paint2_linear_115_1593)"/>
<path d="M19.8007 18.9369C17.4121 16.5484 17.2494 12.7784 19.3112 10.2013C19.4623 10.012 19.6257 9.82944 19.8007 9.65376C20.3428 9.11168 20.956 8.68512 21.6103 8.37204C22.1715 8.10407 22.7622 7.91951 23.3644 7.8197C22.7157 7.91745 22.0792 8.05075 21.4557 8.21755C18.4444 9.02281 15.753 10.6094 13.6132 12.749C10.1958 16.1663 10.1958 21.7061 13.6132 25.1233L19.8007 31.3104C20.4016 31.9113 21.0681 32.4055 21.7771 32.7951C22.3985 33.1363 23.052 33.3967 23.7226 33.5758C26.6417 34.3551 29.8855 33.6004 32.1756 31.3104L19.8007 18.9369Z" fill="url(#paint3_linear_115_1593)"/>
<path d="M19.8009 9.65365C19.6259 9.82864 19.4624 10.0118 19.3113 10.2012C17.2495 12.7783 17.4123 16.549 19.8009 18.9368C22.0909 16.6467 25.3347 15.8914 28.2538 16.6713C28.9244 16.8504 29.5786 17.1109 30.1994 17.452C30.9083 17.8416 31.5748 18.3359 32.1757 18.9368L32.2872 19.0481V8.79302C29.4132 7.68697 26.3068 7.36637 23.2982 7.83189C22.7185 7.93375 22.1504 8.11353 21.6104 8.37192C20.9561 8.68501 20.3429 9.11156 19.8009 9.65365Z" fill="url(#paint4_linear_115_1593)"/>
<path d="M32.1744 40.5949C32.3494 40.4199 32.5128 40.2367 32.664 40.0474C34.7257 37.4702 34.563 33.6996 32.1744 31.3119C29.8843 33.6018 26.6405 34.3565 23.7214 33.5772C23.0508 33.3982 22.3966 33.1376 21.7759 32.7966C21.0669 32.4069 20.4005 31.9127 19.7995 31.3119L19.6881 31.2004V41.4555C22.562 42.5623 25.6685 42.8822 28.677 42.4167C29.2567 42.3148 29.8248 42.1351 30.3649 41.8766C31.0191 41.5636 31.6323 41.137 32.1744 40.5949Z" fill="url(#paint5_linear_115_1593)"/>
<defs>
<linearGradient id="paint0_linear_115_1593" x1="7.42511" y1="18.9374" x2="32.1729" y2="43.6866" gradientUnits="userSpaceOnUse">
<stop stop-color="#514AC6"/>
<stop offset="1" stop-color="#191C64"/>
</linearGradient>
<linearGradient id="paint1_linear_115_1593" x1="19.7989" y1="6.56225" x2="44.5468" y2="31.3114" gradientUnits="userSpaceOnUse">
<stop stop-color="#006EDC"/>
<stop offset="1" stop-color="#1FD9FF"/>
</linearGradient>
<linearGradient id="paint2_linear_115_1593" x1="37.7856" y1="38.0735" x2="19.2249" y2="19.5111" gradientUnits="userSpaceOnUse">
<stop stop-color="#514AC6"/>
<stop offset="1" stop-color="#191C64"/>
</linearGradient>
<linearGradient id="paint3_linear_115_1593" x1="32.7519" y1="30.7341" x2="14.1912" y2="12.1725" gradientUnits="userSpaceOnUse">
<stop stop-color="#006EDC"/>
<stop offset="1" stop-color="#1FD9FF"/>
</linearGradient>
<linearGradient id="paint4_linear_115_1593" x1="17.8785" y1="13.3368" x2="32.2872" y2="13.3368" gradientUnits="userSpaceOnUse">
<stop stop-color="#003B97"/>
<stop offset="0.09" stop-color="#003B9F" stop-opacity="0.88"/>
<stop offset="0.4" stop-color="#003BBB" stop-opacity="0.51"/>
<stop offset="0.67" stop-color="#003CCF" stop-opacity="0.23"/>
<stop offset="0.87" stop-color="#003CDB" stop-opacity="0.06"/>
<stop offset="1" stop-color="#003DE0" stop-opacity="0"/>
</linearGradient>
<linearGradient id="paint5_linear_115_1593" x1="19.6881" y1="36.9118" x2="34.0968" y2="36.9118" gradientUnits="userSpaceOnUse">
<stop stop-color="#1B0064" stop-opacity="0"/>
<stop offset="0.2" stop-color="#190061" stop-opacity="0.12"/>
<stop offset="0.54" stop-color="#13005B" stop-opacity="0.44"/>
<stop offset="0.96" stop-color="#0A0051" stop-opacity="0.95"/>
<stop offset="1" stop-color="#0A0050"/>
</linearGradient>
</defs>
</svg>
