<svg width="51" height="51" viewBox="0 0 51 51" fill="none" xmlns="http://www.w3.org/2000/svg">
<path d="M25.4156 9.24196V10.8665H22.4876V11.9231H25.4156V15.159H26.5601V11.9231H29.5613V10.8665H26.5601V7.62402H25.4156V9.24196Z" fill="#7099A6"/>
<path d="M15.8463 13.3628V15.7204H11.4145V17.1996H15.8463V21.9874H17.49V17.1996H21.9883V15.7204H17.49V11.0052H15.8463V13.3628Z" fill="#EB912C"/>
<path d="M34.4188 13.3628V15.7204H29.987V17.2723H34.4188V21.9874H36.129V17.2723H40.5609V15.7204H36.129V11.0052H34.4188V13.3628Z" fill="#59879B"/>
<path d="M24.99 21.3927V24.0343H20.0591V26.0022H24.99V31.2852H26.9863V26.0022H31.9173V24.0343H26.9863V18.7512H24.99V21.3927Z" fill="#E8762C"/>
<path d="M39.4885 22.7263V24.3838H36.4874V25.7244H39.4885V29.0329H40.9858V25.7244H43.9869V24.3838H40.9858V21.0753H39.4885V22.7263Z" fill="#5B6591"/>
<path d="M10.9149 22.8725V24.4574H7.98694V25.5801H10.9149V28.7499H12.0594V25.5801L15.0606 25.4744V24.4574H12.0594V21.2876H10.9149V22.8725Z" fill="#7099A6"/>
<path d="M15.8463 30.3338V32.6913H11.4145V34.2432H15.8463V38.9583H17.5565V34.2432H21.9883V32.6913H17.5565V27.9762H15.8463V30.3338Z" fill="#C72035"/>
<path d="M34.4188 30.3338V32.6913H29.987V34.1706H34.4188V38.9583H36.129V34.1706H40.5609V32.6913H36.129V27.9762H34.4188V30.3338Z" fill="#1F447E"/>
<path d="M25.2749 36.3241V37.975H22.2737V39.3156H25.2749V42.6241H26.7721V39.3156H29.7733V37.975H26.7721V34.6665H25.2749V36.3241Z" fill="#5B6591"/>
</svg>
