<svg width="51" height="51" viewBox="0 0 51 51" fill="none" xmlns="http://www.w3.org/2000/svg">
<path d="M11.3178 26.1081C12.2614 26.1081 13.0335 26.7927 13.2051 27.6485C14.2345 32.7829 18.2663 36.805 23.3276 37.8318C24.2713 38.003 24.8717 38.7732 24.9575 39.7145V42.624C16.1217 42.1106 9.08743 35.179 8.48694 26.3649V26.1081H11.3178ZM43.4012 26.1081C42.9722 35.0079 35.8521 42.1106 26.9306 42.624V39.8001C26.9306 38.8587 27.6168 38.0886 28.5605 37.9174C33.7075 36.8905 37.6536 32.8685 38.683 27.734C38.8546 26.7927 39.6266 26.1081 40.5703 26.1081H43.4012ZM24.9575 7.62402V10.448C24.9575 11.3893 24.2713 12.1595 23.3276 12.3306C18.1806 13.3575 14.2345 17.3795 13.2051 22.514C13.2051 23.5409 12.2614 24.1399 11.4036 24.2255H8.57272C8.91586 15.2402 16.036 8.13747 24.9575 7.62402ZM41.5139 17.0372C42.6291 19.2622 43.3154 21.6583 43.4869 24.1399H40.5703C39.6266 24.1399 38.7688 23.4553 38.683 22.514C38.3399 20.8025 37.6536 19.1766 36.71 17.8074L38.5972 16.2671C39.4551 15.5825 40.6561 15.8392 41.3423 16.6949C41.3423 16.6949 41.3423 16.7805 41.5139 16.9517V17.0372Z" fill="#EB4E29"/>
<path d="M25.8155 23.113L20.4969 18.9199L18.6954 20.8025L26.9307 30.1301C30.6195 23.2842 35.166 16.8661 40.4847 11.1326C40.0557 10.6191 39.541 10.1913 39.0263 9.76339C38.34 10.3624 37.568 10.8759 36.8817 11.4749C34.0508 9.16437 30.5337 7.79517 26.9307 7.62402V10.448C26.9307 11.3893 27.617 12.2451 28.5606 12.4162C30.3621 12.7585 31.992 13.5287 33.4503 14.5556C30.6195 17.1228 28.1317 20.0323 25.8155 23.113Z" fill="#27C26C"/>
</svg>
