<svg width="51" height="51" viewBox="0 0 51 51" fill="none" xmlns="http://www.w3.org/2000/svg">
<path d="M39.1122 7.62402H12.8617C10.4499 7.62942 8.49534 9.58414 8.48694 11.999V38.249C8.48694 40.6553 10.4553 42.624 12.8617 42.624H39.1122C41.5186 42.624 43.4869 40.6553 43.4869 38.249V11.999C43.4869 9.59277 41.5186 7.62402 39.1122 7.62402Z" fill="#E44332"/>
<path d="M15.906 24.2021C16.5176 23.8444 29.6582 16.198 29.9586 16.0208C30.259 15.8458 30.2754 15.3077 29.9368 15.113C29.6003 14.9194 28.9613 14.5519 28.7243 14.4108C28.3858 14.2244 27.9745 14.2294 27.6407 14.4239C27.4725 14.5224 16.2446 21.0521 15.8699 21.2664C15.4188 21.5246 14.865 21.5289 14.4171 21.2664L8.48694 17.7818V20.7436C9.9288 21.5946 13.5192 23.7077 14.3887 24.2053C14.9076 24.5007 15.4046 24.4941 15.907 24.2021" fill="white"/>
<path d="M15.906 29.8022C16.5176 29.4445 29.6582 21.7981 29.9586 21.6209C30.259 21.4459 30.2754 20.9078 29.9368 20.7131C29.6003 20.5195 28.9613 20.152 28.7243 20.0109C28.3858 19.8245 27.9745 19.8295 27.6407 20.024C27.4725 20.1225 16.2446 26.6522 15.8699 26.8665C15.4188 27.1247 14.865 27.129 14.4171 26.8665L8.48694 23.3819V26.3437C9.9288 27.1947 13.5192 29.3078 14.3887 29.8054C14.9076 30.1008 15.4046 30.0942 15.907 29.8022" fill="white"/>
<path d="M15.906 35.7525C16.5176 35.3948 29.6582 27.7484 29.9586 27.5712C30.259 27.3962 30.2754 26.8581 29.9368 26.6634C29.6003 26.4698 28.9613 26.1023 28.7243 25.9612C28.3858 25.7748 27.9745 25.7798 27.6407 25.9744C27.4725 26.0728 16.2446 32.6025 15.8699 32.8169C15.4188 33.075 14.865 33.0794 14.4171 32.8169L8.48694 29.3322V32.294C9.9288 33.145 13.5192 35.2581 14.3887 35.7558C14.9076 36.0511 15.4046 36.0445 15.907 35.7525" fill="white"/>
</svg>
