<svg width="51" height="51" viewBox="0 0 51 51" fill="none" xmlns="http://www.w3.org/2000/svg">
<path fill-rule="evenodd" clip-rule="evenodd" d="M39.7133 7.62402H12.2664C11.1324 7.62402 10.0448 8.06187 9.24241 8.84141C8.44004 9.62095 7.9885 10.6784 7.98697 11.7816V38.444C7.9847 38.9921 8.0937 39.5353 8.30774 40.0424C8.52178 40.5494 8.83664 41.0103 9.23424 41.3987C9.63185 41.7871 10.1044 42.0952 10.6247 42.3055C11.145 42.5158 11.7029 42.624 12.2664 42.624H39.7133C40.2762 42.6233 40.8335 42.5145 41.3532 42.3039C41.8728 42.0933 42.3447 41.785 42.7417 41.3967C43.1387 41.0084 43.453 40.5477 43.6667 40.0411C43.8804 39.5344 43.9892 38.9917 43.9869 38.444V11.7816C43.9854 10.6794 43.5346 9.62277 42.7335 8.84339C41.9324 8.06401 40.8462 7.62551 39.7133 7.62402ZM23.5127 32.8332C23.512 33.0164 23.474 33.1977 23.4011 33.3666C23.3282 33.5355 23.2217 33.6887 23.0877 33.8175C22.9537 33.9463 22.7949 34.048 22.6205 34.1169C22.446 34.1859 22.2592 34.2206 22.0709 34.2191H16.0728C15.696 34.2176 15.3352 34.0709 15.0693 33.8112C14.8033 33.5515 14.6541 33.1998 14.6541 32.8332V15.4679C14.6541 15.1013 14.8033 14.7496 15.0693 14.4899C15.3352 14.2302 15.696 14.0835 16.0728 14.082H22.0709C22.4482 14.0835 22.8097 14.23 23.0765 14.4896C23.3433 14.7491 23.4939 15.1008 23.4954 15.4679L23.5127 32.8332ZM37.3544 24.8603C37.3544 25.0437 37.317 25.2253 37.2444 25.3946C37.1717 25.5638 37.0652 25.7174 36.9311 25.8463C36.797 25.9752 36.6379 26.0769 36.463 26.1456C36.2882 26.2142 36.1011 26.2484 35.9126 26.2462H29.9145C29.5372 26.2447 29.1757 26.0982 28.9089 25.8386C28.6421 25.5791 28.4915 25.2274 28.49 24.8603V15.4679C28.4915 15.1008 28.6421 14.7491 28.9089 14.4896C29.1757 14.23 29.5372 14.0835 29.9145 14.082H35.9126C36.2894 14.0835 36.6503 14.2302 36.9162 14.4899C37.1821 14.7496 37.3314 15.1013 37.3314 15.4679L37.3544 24.8603Z" fill="url(#paint0_linear_115_1607)"/>
<defs>
<linearGradient id="paint0_linear_115_1607" x1="5613.67" y1="2228.02" x2="5613.67" y2="7.62402" gradientUnits="userSpaceOnUse">
<stop stop-color="#0052CC"/>
<stop offset="1" stop-color="#2684FF"/>
</linearGradient>
</defs>
</svg>
