<svg width="51" height="51" viewBox="0 0 51 51" fill="none" xmlns="http://www.w3.org/2000/svg">
<g clip-path="url(#clip0_115_1608)">
<path d="M39.5397 8.62402H27.7245C17.0949 8.62402 16.2772 13.2268 16.2772 19.3911V30.8569C16.2772 37.2679 17.0949 41.624 27.7654 41.624H39.5397C50.1693 41.624 50.9869 37.0213 50.9869 30.898V19.3911C50.9869 13.2268 50.1693 8.62402 39.5397 8.62402ZM0.986938 16.8843C0.986938 11.4596 3.11286 8.62402 6.71057 8.62402C10.3083 8.62402 12.4342 11.4596 12.4342 16.8843V33.3637C12.4342 38.7884 10.3083 41.624 6.71057 41.624C3.11286 41.624 0.986938 38.7884 0.986938 33.3637V16.8843Z" fill="#1A1A19"/>
</g>
<defs>
<clipPath id="clip0_115_1608">
<rect width="50" height="50" fill="white" transform="translate(0.986938 0.124023)"/>
</clipPath>
</defs>
</svg>
