<svg width="51" height="51" viewBox="0 0 51 51" fill="none" xmlns="http://www.w3.org/2000/svg">
<path d="M36.4536 24.4908L36.4202 28.4908C36.4189 28.9008 36.0965 29.2379 35.6869 29.2575C35.2773 29.2379 34.9549 28.9008 34.9536 28.4908L34.9869 24.4908C34.9869 22.2081 33.1363 20.3575 30.8536 20.3575C28.7869 20.3575 26.9536 22.1575 26.7869 24.3908V24.5575L26.7202 26.0908V26.1908C26.7024 28.1915 25.6185 30.0306 23.8769 31.0155C22.1354 32.0004 20.0007 31.9813 18.277 30.9655C16.5532 29.9497 15.5024 28.0915 15.5203 26.0908C15.5294 26.0919 15.5385 26.0887 15.545 26.0822C15.5515 26.0757 15.5547 26.0666 15.5536 26.0575H15.5203V22.2242C15.5238 22.035 15.6023 21.8549 15.7386 21.7236C15.8749 21.5924 16.0577 21.5206 16.2469 21.5242C16.4361 21.5188 16.6197 21.5888 16.7573 21.7189C16.8948 21.8489 16.975 22.0283 16.9803 22.2175L16.9469 26.0508C16.9469 28.3336 18.7975 30.1841 21.0803 30.1841C23.363 30.1841 25.2136 28.3336 25.2136 26.0508V25.9175L25.2802 24.5175V24.3508C25.4869 21.3242 27.9202 18.9242 30.8202 18.9242C33.9215 18.9352 36.4276 21.4563 36.4202 24.5575C36.4536 24.4575 36.4536 24.4575 36.4536 24.4908ZM26.0536 7.62415C16.3887 7.58753 8.52399 15.3926 8.48707 25.0574C8.4504 34.7222 16.2555 42.5869 25.9203 42.6239C35.5852 42.6606 43.45 34.8556 43.4869 25.1908V25.1241C43.5053 15.4802 35.7042 7.64635 26.0602 7.62415H26.0536Z" fill="#3AAFA9"/>
</svg>
