<svg width="51" height="51" viewBox="0 0 51 51" fill="none" xmlns="http://www.w3.org/2000/svg">
<path d="M7.29733 7.62402C6.84148 7.62402 6.48694 7.97961 6.48694 8.4368V26.3686C6.48694 36.2234 12.8688 42.624 25.9869 42.624C39.1051 42.624 45.4869 36.325 45.4869 26.521V8.4368C45.4869 7.97961 45.1324 7.62402 44.6765 7.62402H28.1142C27.5064 7.62402 27.1519 8.2336 27.4051 8.79238L37.9908 32.1088C38.2947 32.7692 37.6363 33.4803 36.9778 33.2263L26.2908 29.1625C26.0882 29.0609 25.8856 29.0609 25.683 29.1625L15.0467 33.2263C14.3882 33.4803 13.7298 32.7692 14.0337 32.1088L24.5688 8.79238C24.822 8.2844 24.4168 7.62402 23.8597 7.62402H7.29733Z" fill="#2A1943"/>
</svg>
