<svg width="51" height="51" viewBox="0 0 51 51" fill="none" xmlns="http://www.w3.org/2000/svg">
<path d="M23.7424 8.06589L8.08368 14.5203C7.2129 14.8792 7.22193 16.1116 8.09816 16.4575L23.8222 22.669C25.2037 23.2149 26.7423 23.2149 28.1238 22.669L43.848 16.4573C44.724 16.1116 44.7335 14.8795 43.8623 14.5205L28.204 8.06566C26.7755 7.4768 25.1707 7.4768 23.7422 8.06566" fill="#FCB400"/>
<path d="M27.3675 26.0605V41.5779C27.3675 42.3158 28.1146 42.8214 28.8032 42.5494L46.3246 35.7746C46.52 35.6974 46.6876 35.5636 46.8057 35.3903C46.9238 35.2171 46.987 35.0125 46.9869 34.8031V19.286C46.9869 18.5479 46.2398 18.0425 45.5511 18.3145L28.0298 25.0893C27.8344 25.1665 27.6668 25.3004 27.5487 25.4736C27.4306 25.6468 27.3675 25.8511 27.3675 26.0605Z" fill="#18BFFF"/>
<path d="M23.2755 26.8611L18.0756 29.3622L17.5476 29.6164L6.57085 34.8557C5.87528 35.1901 4.98694 34.6849 4.98694 33.915V19.3508C4.98694 19.0722 5.13033 18.8317 5.32262 18.6508C5.4015 18.5726 5.491 18.5057 5.5885 18.4522C5.85059 18.2954 6.22473 18.2535 6.54284 18.3789L23.1882 24.9489C24.0343 25.2833 24.1007 26.464 23.2755 26.8611Z" fill="#F82B60"/>
</svg>
