<svg width="51" height="51" viewBox="0 0 51 51" fill="none" xmlns="http://www.w3.org/2000/svg">
<g clip-path="url(#clip0_115_1540)">
<path d="M32.3068 30.3319C31.2204 31.3226 29.8425 32.5544 27.3518 32.5544H25.8414C24.0396 32.5544 22.3968 31.885 21.2309 30.7068C20.0915 29.5286 19.4556 27.9221 19.4556 26.1816V24.1198C19.4556 22.3793 20.0915 20.7728 21.2309 19.5946C22.3968 18.3897 24.0396 17.747 25.8414 17.747H27.3253C29.816 17.747 31.1939 18.9787 32.2803 19.9695C33.4197 20.987 34.4001 21.8706 37.0233 21.8706C39.6465 21.8706 37.8182 21.8438 38.2157 21.7635C38.0567 21.3351 37.8712 20.9602 37.6592 20.5853L35.9104 17.506C34.2941 14.6945 31.3264 12.9541 28.0937 12.9541H24.6225C21.3899 12.9541 18.4222 14.6945 16.8058 17.506L15.057 20.5853C13.4407 23.3968 13.4407 26.8778 15.057 29.6893L16.8058 32.7686C18.4222 35.5801 21.3899 37.3206 24.6225 37.3206H28.1202C31.3529 37.3206 34.3206 35.5801 35.9369 32.7686L37.6857 29.6893C37.8977 29.3144 38.0832 28.9396 38.2422 28.5379C37.8447 28.4576 37.4472 28.404 37.0498 28.404C34.4265 28.404 33.4461 29.3144 32.3068 30.3319Z" fill="#006BFF"/>
<path d="M27.3502 19.5944H25.8398C23.1106 19.5944 21.3088 21.5758 21.3088 24.0928V26.1546C21.3088 28.6984 23.1106 30.653 25.8398 30.653H27.3237C31.3248 30.653 31.0068 26.5295 37.0482 26.5295C43.0896 26.5295 38.1876 26.583 38.744 26.6901C38.9295 25.6458 38.9295 24.5748 38.744 23.5305C38.1876 23.6376 37.6046 23.6912 37.0482 23.6912C31.0068 23.6912 31.3248 19.5944 27.3502 19.5944Z" fill="#006BFF"/>
<path d="M42.2162 28.2167C41.1828 27.4669 40.0169 26.9314 38.745 26.7172C38.639 27.3598 38.4801 27.9489 38.2416 28.5112C39.275 28.6719 40.2554 29.0735 41.1033 29.7162C38.5861 37.9901 29.9479 42.5956 21.7868 40.0518C13.6256 37.5081 9.06806 28.779 11.5853 20.5319C14.1025 12.2847 22.7407 7.67921 30.9018 10.223C35.7773 11.7492 39.5929 15.605 41.1033 20.5319C40.2554 21.1745 39.275 21.5761 38.2416 21.7368C38.4801 22.2991 38.639 22.915 38.745 23.504C39.9904 23.2898 41.1828 22.7811 42.2162 22.0313C43.1966 21.2816 43.0111 20.4515 42.8521 19.9696C40.0434 10.7317 30.3454 5.56388 21.2038 8.40217C12.0623 11.2405 6.94827 21.0406 9.75699 30.2785C12.5657 39.5163 22.2637 44.6842 31.4053 41.8459C36.8637 40.1322 41.1563 35.8212 42.8521 30.2785C43.0111 29.7965 43.2231 28.9664 42.2162 28.2167Z" fill="#006BFF"/>
<path d="M38.2423 21.7383C37.8448 21.7919 37.4474 21.8454 37.0499 21.8454C34.4267 21.8454 33.4463 20.9618 32.3069 19.9443C31.194 18.9536 29.8427 17.7219 27.3519 17.7219H25.8416C24.0398 17.7219 22.3969 18.3913 21.231 19.5694C20.0917 20.7476 19.4557 22.3542 19.4557 24.0946V26.1564C19.4557 27.8969 20.0917 29.5035 21.231 30.6816C22.3969 31.8866 24.0398 32.5292 25.8416 32.5292H27.3254C29.8162 32.5292 31.194 31.2975 32.2804 30.3068C33.4198 29.2893 34.4002 28.4056 37.0234 28.4056C39.6467 28.4056 37.8183 28.4324 38.2158 28.5127C38.4543 27.9504 38.6133 27.3346 38.7193 26.7455C38.1628 26.6116 37.5799 26.5581 37.0234 26.5581C30.982 26.5581 31.3 30.6816 27.2989 30.6816H25.8416C23.1123 30.6816 21.3105 28.7002 21.3105 26.1564V24.0946C21.3105 21.5509 23.1123 19.5962 25.8416 19.5962H27.3254C31.3265 19.5962 31.0085 23.7198 37.0499 23.7198C43.0913 23.7198 38.1893 23.6662 38.7458 23.5591C38.6398 22.9165 38.4808 22.3274 38.2423 21.7383Z" fill="#0AE8F0"/>
<path d="M38.2423 21.7383C37.8448 21.7919 37.4474 21.8454 37.0499 21.8454C34.4267 21.8454 33.4463 20.9618 32.3069 19.9443C31.194 18.9536 29.8427 17.7219 27.3519 17.7219H25.8416C24.0398 17.7219 22.3969 18.3913 21.231 19.5694C20.0917 20.7476 19.4557 22.3542 19.4557 24.0946V26.1564C19.4557 27.8969 20.0917 29.5035 21.231 30.6816C22.3969 31.8866 24.0398 32.5292 25.8416 32.5292H27.3254C29.8162 32.5292 31.194 31.2975 32.2804 30.3068C33.4198 29.2893 34.4002 28.4056 37.0234 28.4056C39.6467 28.4056 37.8183 28.4324 38.2158 28.5127C38.4543 27.9504 38.6133 27.3346 38.7193 26.7455C38.1628 26.6116 37.5799 26.5581 37.0234 26.5581C30.982 26.5581 31.3 30.6816 27.2989 30.6816H25.8416C23.1123 30.6816 21.3105 28.7002 21.3105 26.1564V24.0946C21.3105 21.5509 23.1123 19.5962 25.8416 19.5962H27.3254C31.3265 19.5962 31.0085 23.7198 37.0499 23.7198C43.0913 23.7198 38.1893 23.6662 38.7458 23.5591C38.6398 22.9165 38.4808 22.3274 38.2423 21.7383Z" fill="#0AE8F0"/>
</g>
<defs>
<clipPath id="clip0_115_1540">
<rect width="34" height="35" fill="white" transform="translate(8.98694 7.62401)"/>
</clipPath>
</defs>
</svg>
