<svg width="51" height="51" viewBox="0 0 51 51" fill="none" xmlns="http://www.w3.org/2000/svg">
<g clip-path="url(#clip0_115_1548)">
<path d="M43.4869 7.62402H8.48694V42.624H43.4869V7.62402Z" fill="#515CF9"/>
<path d="M26.0404 35.6147C21.9778 35.6147 18.6568 32.3205 18.6568 28.2712V21.9768C18.6568 17.9276 21.9845 14.6334 26.0404 14.6334C29.6486 14.6334 32.709 17.2059 33.3103 20.754C33.4039 21.3287 33.0297 21.8632 32.455 21.9635C31.8804 22.057 31.3458 21.6761 31.2456 21.1015C30.818 18.569 28.6597 16.7315 26.0805 16.7315C23.1805 16.7315 20.8418 19.0835 20.8418 21.9768V28.2712C20.8418 31.1645 23.1805 33.5165 26.0805 33.5165C28.653 33.5165 30.8247 31.679 31.2456 29.1465C31.3392 28.5719 31.8804 28.191 32.4484 28.2846C33.023 28.3781 33.3905 28.926 33.297 29.494C32.709 33.0421 29.642 35.6213 26.0404 35.6213V35.6147Z" fill="white"/>
<g opacity="0.5">
<path d="M23.7418 26.0662C23.1605 26.0662 22.7328 25.5984 22.7328 25.0171V21.9835C22.7328 20.1126 24.2363 18.5958 26.1139 18.5958C27.3968 18.5958 28.5461 19.3041 29.1274 20.4533C29.388 20.9679 29.1809 21.6026 28.6664 21.8632C28.1519 22.1238 27.5171 21.9234 27.2498 21.4089C27.0293 20.9679 26.5616 20.6939 26.0738 20.6939C25.3588 20.6939 24.7508 21.2752 24.7508 21.9835V25.0171C24.7508 25.5984 24.3165 26.0729 23.7351 26.0729L23.7418 26.0662Z" fill="#AAAEF6"/>
</g>
</g>
<defs>
<clipPath id="clip0_115_1548">
<rect width="35" height="35" fill="white" transform="translate(8.48694 7.62402)"/>
</clipPath>
</defs>
</svg>
