<svg width="51" height="51" viewBox="0 0 51 51" fill="none" xmlns="http://www.w3.org/2000/svg">
<path d="M40.9481 23.6697C40.3531 23.9696 39.8241 23.9363 39.3613 23.5031C37.8076 22.0369 36.3199 20.5706 34.8653 19.0378C34.7992 18.9711 34.7 18.9045 34.6009 18.8378L33.7744 18.438C31.7578 14.7058 28.0222 13.1063 23.9229 14.006C16.7161 15.5722 14.931 24.8027 20.7823 29.2346L21.1791 30.1344C21.2121 30.2343 21.2782 30.3343 21.3774 30.401C24.3196 32.7002 26.6998 35.5327 29.4437 38.0653C29.6751 38.2652 29.9727 38.4985 30.3363 38.7317C30.6338 38.9317 30.9644 39.1649 31.2619 39.3982C29.7082 40.5978 27.9891 41.6642 26.1709 42.5972C26.0717 42.6638 26.0056 42.5972 26.0056 42.4972V37.2655C26.0056 37.1655 25.9395 37.0989 25.8403 37.0989C17.1128 36.7657 9.87299 29.5679 11.1292 20.504C12.683 9.40742 25.5758 3.90911 34.7 10.4071C38.9646 13.4728 41.1134 18.1714 40.9812 23.6364L40.9481 23.6697Z" fill="#0D8F82"/>
<path d="M33.7744 18.4729C34.7001 20.4723 34.9315 22.3384 34.4686 24.0379C33.6752 26.8704 30.7 28.2033 28.7495 25.5041C28.6834 25.4375 28.5842 25.4041 28.5181 25.4708C27.6586 26.4705 26.6668 26.9703 25.5759 26.937C20.584 26.8037 19.6914 19.506 24.4519 18.0397C25.7081 17.6399 26.8982 17.9398 27.9891 18.9061C28.0553 18.9728 28.1875 18.9728 28.2536 18.9061C28.2867 18.8728 28.3197 18.8062 28.3197 18.7395C28.2867 18.3396 28.3858 18.1397 28.6503 18.1397C29.0801 18.1397 29.5098 18.1397 29.9727 18.2064C30.0718 18.2064 30.138 18.3063 30.138 18.4063C30.138 19.9725 30.138 21.5053 30.138 23.0715C30.138 23.9046 30.2371 24.4378 30.4685 24.671C31.262 25.5374 32.2537 25.2042 32.5512 24.1045C34.6339 16.6402 24.7163 12.3082 20.5509 18.3063C16.65 23.9046 22.4353 31.0357 28.7826 28.4032C28.9148 28.3699 29.047 28.4032 29.0801 28.5365L29.5429 29.7028C29.6751 30.036 29.5429 30.236 29.2123 30.336C26.0717 31.169 23.2948 30.7692 20.8815 29.203C15.0302 24.7377 16.8153 15.5405 24.0221 13.9743C28.1214 13.0746 31.857 14.6741 33.8736 18.4063L33.7744 18.4729ZM25.5428 24.9709C26.8982 25.0709 28.0883 24.0046 28.1875 22.605C28.2867 21.2054 27.2949 19.9725 25.9395 19.8725C24.5841 19.7725 23.394 20.8389 23.2948 22.2384C23.1956 23.638 24.1874 24.871 25.5428 24.9709Z" fill="#F6F6F6"/>
<path d="M33.7716 18.4733L34.598 18.8732C34.6972 18.9065 34.7964 18.9732 34.8625 19.0731C36.3171 20.606 37.8378 22.1055 39.3585 23.5384C39.8213 23.9716 40.3172 24.0049 40.9453 23.705C40.3833 30.303 36.3501 35.6014 31.2261 39.4335C30.9285 39.2003 30.631 38.967 30.3004 38.7671C29.9368 38.5338 29.6392 38.3005 29.4078 38.1006C26.697 35.568 24.3168 32.7356 21.3746 30.4363C21.2754 30.3696 21.2093 30.2697 21.1762 30.1697L20.7795 29.27C23.1928 30.8695 25.9697 31.236 29.1103 30.403C29.4409 30.303 29.5731 30.1031 29.4409 29.7698L28.9781 28.6035C28.945 28.4702 28.8128 28.4369 28.6805 28.4702C22.3663 31.1028 16.548 23.9716 20.4489 18.3733C24.6474 12.3752 34.565 16.6739 32.4823 24.1716C32.1848 25.2379 31.193 25.5711 30.3996 24.738C30.1682 24.5048 30.069 23.9716 30.069 23.1385C30.069 21.5724 30.069 20.0395 30.069 18.4733C30.069 16.9071 30.0029 18.2734 29.9037 18.2734C29.4739 18.2067 29.0111 18.1734 28.5814 18.2067C28.3169 18.2067 28.2177 18.44 28.2508 18.8065C28.2508 18.9065 28.1847 19.0065 28.0855 19.0398C28.0194 19.0398 27.9863 19.0398 27.9202 19.0065C26.8293 18.0401 25.6722 17.7402 24.3829 18.1401C19.6225 19.6063 20.5481 26.904 25.5069 27.0373C26.5978 27.0373 27.5896 26.5708 28.4491 25.5711C28.5152 25.5045 28.6144 25.5045 28.6805 25.5711C30.631 28.2703 33.6063 26.9374 34.3997 24.1049C34.8625 22.4054 34.6311 20.5393 33.7055 18.54L33.7716 18.4733Z" fill="#0A8175"/>
<path d="M28.1814 22.5863C28.2893 21.1733 27.2847 19.9432 25.9376 19.8388C24.5905 19.7343 23.411 20.795 23.3031 22.2079C23.1953 23.6208 24.1999 24.8509 25.547 24.9554C26.8941 25.0599 28.0735 23.9992 28.1814 22.5863Z" fill="#0A8175"/>
</svg>
