<svg width="51" height="51" viewBox="0 0 51 51" fill="none" xmlns="http://www.w3.org/2000/svg">
<path d="M25.9869 42.624C35.6519 42.624 43.4869 34.789 43.4869 25.124C43.4869 15.459 35.6519 7.62402 25.9869 7.62402C16.322 7.62402 8.48694 15.459 8.48694 25.124C8.48694 34.789 16.322 42.624 25.9869 42.624Z" fill="#2BB673"/>
<path d="M29.4488 27.4832C28.726 27.4832 28.1553 28.1299 28.2694 28.8908C28.3836 29.4615 28.9162 29.8419 29.4868 29.8419H31.3129L32.3781 29.6897C30.6662 32.2006 27.7368 33.3419 24.5031 32.8093C21.8781 32.3908 19.6336 30.6028 18.6825 28.1299C16.514 22.4995 20.6227 17.0973 25.9868 17.0973C28.764 17.0973 31.2368 18.7332 32.6444 20.7115V20.7495C33.0249 21.2821 33.7477 21.4343 34.2803 21.0538C34.7749 20.7115 34.9271 20.0267 34.6227 19.4941C32.6825 16.4506 29.1825 14.5104 25.264 14.7767C20.1662 15.1952 16.0194 19.3799 15.7151 24.5158C15.3727 30.4886 20.0901 35.3202 25.9868 35.3202C29.0684 35.3202 31.8455 33.9886 33.7097 31.7821L33.4814 33.0375V34.1788C33.4814 34.7495 33.8618 35.2821 34.4325 35.3962C35.1934 35.5484 35.8401 34.9397 35.8401 34.2169V27.4832H29.4488Z" fill="white"/>
</svg>
