<svg width="51" height="51" viewBox="0 0 51 51" fill="none" xmlns="http://www.w3.org/2000/svg">
<path d="M38.7827 26.883C38.7827 27.1949 38.6563 27.497 38.4425 27.7114C38.2287 27.9356 37.9274 28.0525 37.6163 28.0525C37.3053 28.0525 37.0137 27.9258 36.7902 27.7114C36.5764 27.4873 36.45 27.1949 36.45 26.883V16.3763C36.45 16.0644 36.5764 15.7623 36.7902 15.5479C37.004 15.3237 37.3053 15.2067 37.6163 15.2067C37.9274 15.2067 38.219 15.3335 38.4425 15.5479C38.6563 15.772 38.7827 16.0644 38.7827 16.3763V26.883ZM38.3745 34.1636C38.219 34.3195 33.8938 37.9647 25.9529 37.9647C18.0121 37.9647 13.716 34.339 13.5314 34.183C13.4147 34.0856 13.3175 33.9686 13.2495 33.8322C13.1815 33.6957 13.1426 33.5495 13.1232 33.3936C13.1134 33.2376 13.1232 33.0914 13.1717 32.9453C13.2203 32.7991 13.2884 32.6626 13.3856 32.5456C13.5897 32.3117 13.8716 32.1655 14.1729 32.146C14.4839 32.1266 14.7852 32.224 15.0185 32.4189C15.0865 32.4677 18.9549 35.6353 25.9238 35.6353C32.8927 35.6353 36.7902 32.4482 36.8291 32.4189C37.0623 32.224 37.3734 32.1168 37.6747 32.146C37.9857 32.1655 38.2676 32.3117 38.4717 32.5456C38.6661 32.7796 38.7633 33.0817 38.7438 33.3838C38.7244 33.686 38.5786 33.9686 38.355 34.1733L38.3745 34.1636ZM13.1329 16.3763C13.1523 16.0644 13.2884 15.772 13.5217 15.5576C13.7549 15.3529 14.0562 15.236 14.3672 15.2555C14.6588 15.275 14.9213 15.3919 15.1254 15.6063C15.3295 15.811 15.4461 16.0839 15.4656 16.3763V26.8635C15.4656 27.1754 15.3392 27.4775 15.1254 27.6919C14.9115 27.9161 14.6102 28.0331 14.2992 28.0331C13.9882 28.0331 13.6966 27.9063 13.4731 27.6919C13.2592 27.4678 13.1329 27.1754 13.1329 26.8635V16.3763ZM18.9743 14.0469C18.9937 13.735 19.1298 13.4426 19.3631 13.2282C19.5964 13.0235 19.8977 12.9066 20.2087 12.9261C20.5003 12.9456 20.7627 13.0625 20.9668 13.277C21.1709 13.4816 21.2875 13.7545 21.307 14.0469V29.6022C21.307 29.9141 21.1806 30.2162 20.9668 30.4307C20.753 30.6548 20.4517 30.7718 20.1406 30.7718C19.8296 30.7718 19.538 30.6451 19.3145 30.4307C19.1007 30.2065 18.9743 29.9141 18.9743 29.6022V14.0372V14.0469ZM24.8449 13.4621C24.8449 13.1502 24.9712 12.8481 25.1851 12.6337C25.3989 12.4095 25.7002 12.2926 26.0112 12.2926C26.3223 12.2926 26.6138 12.4193 26.8374 12.6337C27.0512 12.8579 27.1776 13.1502 27.1776 13.4621V30.3722C27.1776 30.6841 27.0512 30.9862 26.8374 31.2006C26.6236 31.4248 26.3223 31.5418 26.0112 31.5418C25.7002 31.5418 25.4086 31.4151 25.1851 31.2006C24.9712 30.9765 24.8449 30.6841 24.8449 30.3722V13.4524V13.4621ZM30.6183 14.0469C30.6183 13.735 30.7446 13.4329 30.9585 13.2185C31.1723 12.9943 31.4736 12.8773 31.7846 12.8773C32.0957 12.8773 32.3872 13.0041 32.6108 13.2185C32.8246 13.4426 32.951 13.735 32.951 14.0469V29.6022C32.951 29.9141 32.8246 30.2162 32.6108 30.4307C32.397 30.6548 32.0957 30.7718 31.7846 30.7718C31.4736 30.7718 31.182 30.6451 30.9585 30.4307C30.7446 30.2065 30.6183 29.9141 30.6183 29.6022V14.0372V14.0469ZM39.1034 7.62402H12.8607C12.2873 7.62402 11.7235 7.73123 11.189 7.94566C10.6641 8.16008 10.1781 8.48171 9.76992 8.89106C9.3617 9.30041 9.04095 9.77798 8.8174 10.314C8.60357 10.8501 8.48694 11.4251 8.48694 12.0002V38.2473C8.48694 38.8223 8.60357 39.3974 8.82712 39.9334C9.05067 40.4695 9.37142 40.9471 9.77964 41.3564C10.1879 41.7658 10.6641 42.0874 11.1987 42.3018C11.7235 42.5162 12.297 42.6332 12.8704 42.6235H39.1132C39.6866 42.6235 40.2503 42.5162 40.7752 42.3018C41.3 42.0874 41.786 41.7658 42.1942 41.3564C42.6025 40.9471 42.9232 40.4695 43.1468 39.9334C43.3703 39.3974 43.4869 38.8321 43.4869 38.2571V12.0002C43.4869 11.4251 43.3703 10.8501 43.1468 10.3238C42.9232 9.78773 42.6025 9.31016 42.1942 8.90081C41.786 8.49146 41.3098 8.16982 40.7752 7.9554C40.2503 7.73123 39.6769 7.62402 39.1132 7.62402" fill="#1F8DED"/>
</svg>
