<svg width="51" height="51" viewBox="0 0 51 51" fill="none" xmlns="http://www.w3.org/2000/svg">
<path d="M42.4827 7.62402H25.1345C25.1345 11.8163 28.6442 15.2285 32.9562 15.2285H36.1651V18.2021C36.1651 22.3943 39.675 25.8067 43.9869 25.8067V9.08643C43.9869 8.25774 43.3352 7.62402 42.4827 7.62402Z" fill="#2684FF"/>
<path d="M33.9109 16.0081H16.5626C16.5626 20.2003 20.0724 23.6125 24.3844 23.6125H27.5933V26.6349C27.5933 30.8271 31.1031 34.2395 35.4151 34.2395V17.4704C35.4151 16.6905 34.7632 16.0081 33.9109 16.0081Z" fill="url(#paint0_linear_115_1571)"/>
<path d="M25.3353 24.4415H7.98694C7.98694 28.6337 11.4967 32.046 15.8087 32.046H19.0176V35.0196C19.0176 39.2118 22.5274 42.624 26.8394 42.624V25.9038C26.8394 25.0752 26.1375 24.4415 25.3353 24.4415Z" fill="url(#paint1_linear_115_1571)"/>
<defs>
<linearGradient id="paint0_linear_115_1571" x1="35.046" y1="16.0501" x2="27.8841" y2="23.6468" gradientUnits="userSpaceOnUse">
<stop offset="0.176" stop-color="#0052CC"/>
<stop offset="1" stop-color="#2684FF"/>
</linearGradient>
<linearGradient id="paint1_linear_115_1571" x1="26.9525" y1="24.4975" x2="18.6582" y2="32.7983" gradientUnits="userSpaceOnUse">
<stop offset="0.176" stop-color="#0052CC"/>
<stop offset="1" stop-color="#2684FF"/>
</linearGradient>
</defs>
</svg>
