<svg width="51" height="51" viewBox="0 0 51 51" fill="none" xmlns="http://www.w3.org/2000/svg">
<path d="M33.645 11.9072C33.645 11.9072 35.8506 13.131 40.1391 15.5786L40.5067 15.8233C40.7518 15.9457 40.9968 16.1905 41.2419 16.5576C41.3644 16.8023 41.4869 17.1695 41.4869 17.5366V25.4912C41.4869 25.8583 41.1193 26.103 40.7518 25.9807L37.9336 24.3898C37.811 24.3898 37.6885 24.145 37.6885 23.9002V18.638L31.9296 15.3338C31.9296 15.3338 31.8071 15.3338 31.4395 15.0891L25.9257 11.9072L20.1668 15.2114L19.7992 15.4562L14.2854 18.638V32.2219L20.0442 35.5261C20.0442 35.5261 20.1668 35.5261 20.5344 35.7709L21.7597 36.5051H22.0047C22.1273 36.7499 22.2498 36.8723 22.2498 37.117V40.2988C22.2498 40.666 21.8822 40.9107 21.5146 40.7884L20.902 40.4212L18.6964 39.1974L18.3288 38.9527C18.3288 38.9527 16.2458 37.7289 11.8348 35.159L11.4672 34.9142C11.2221 34.7919 10.9771 34.5471 10.732 34.18C10.6095 33.9352 10.4869 33.5681 10.4869 33.2009V25.3688V17.5366C10.4869 17.1695 10.4869 16.8023 10.732 16.5576C10.9771 16.3128 11.2221 16.0681 11.4672 15.8233L17.8387 12.152L18.2063 11.9072C18.2063 11.9072 18.3288 11.8257 18.5739 11.6625L24.7004 8.11353L25.068 7.86878C25.4356 7.7464 25.6806 7.62402 26.0482 7.62402C26.4158 7.62402 26.7834 7.7464 27.0284 7.99116L33.4 11.6625L33.7676 11.9072H33.645ZM37.6885 29.652V27.8163C37.6885 27.4492 38.0561 27.2044 38.4237 27.3268L41.2419 28.9177C41.3644 28.9177 41.4869 29.1625 41.4869 29.4072V32.4667C41.4869 32.5891 41.4869 32.7114 41.3644 32.8338L40.0166 34.18C39.649 34.6695 39.1589 34.9142 38.6688 34.5471L27.8861 28.3058V40.0541C27.8861 40.2988 27.8861 40.666 27.5186 40.7884C27.5186 40.7884 26.9059 41.2779 25.5581 42.3793C25.4356 42.5016 25.1905 42.624 24.9454 42.624C24.4553 42.624 24.0877 42.2569 24.0877 41.7674V26.103L22.0047 24.8793L20.902 25.4912C20.902 25.4912 20.902 25.4912 20.0442 25.9807C19.5541 26.2254 19.064 26.103 18.819 25.6135C18.819 25.6135 18.6964 25.3688 18.3288 24.7569L17.8387 23.9002C17.5937 23.4107 17.7162 22.9212 18.2063 22.6765C18.2063 22.6765 18.4514 22.5541 19.064 22.187L21.147 20.9632L21.5146 20.7184C21.7597 20.4737 22.2498 20.4737 22.4948 20.7184L22.985 20.9632L37.811 29.4072L37.6885 29.652Z" fill="#0EBAC5"/>
</svg>
