<svg width="51" height="51" viewBox="0 0 51 51" fill="none" xmlns="http://www.w3.org/2000/svg">
<path d="M29.3592 19.5385C29.7213 19.9189 29.7213 20.4819 29.3592 20.8623C23.8218 26.5381 20.5778 29.7488 19.7479 30.6009C19.2953 31.0726 18.737 31.5595 17.9977 32.0312C17.545 32.3051 16.9868 32.2138 16.7001 31.7421C16.519 31.453 16.519 31.0726 16.8057 30.7074C17.1678 30.1292 17.6356 29.6575 18.1788 29.0944L27.79 19.2646C28.1521 18.8842 28.7104 18.8842 29.0725 19.2646L29.3592 19.5385Z" fill="#2C2E31"/>
<path d="M32.4975 17.743L31.4866 18.7777C31.1094 19.1581 30.5511 19.1581 30.189 18.7777L29.9174 18.5038C29.5402 18.1234 29.5402 17.5604 29.9174 17.18L30.9283 16.13C31.2905 15.7648 31.8487 15.7648 32.2109 16.13L32.4975 16.4191C32.8596 16.7996 32.8596 17.3626 32.4975 17.743Z" fill="#2C2E31"/>
<path d="M19.7479 30.6009C19.2953 31.0726 18.737 31.5595 17.9977 32.0312C17.545 32.3051 16.9868 32.2138 16.7001 31.7421C16.519 31.453 16.519 31.0726 16.8057 30.7074C17.1678 30.1292 17.6356 29.6575 18.1788 29.0944L27.79 19.2646C28.1521 18.8842 28.7104 18.8842 29.0725 19.2646L29.3592 19.5385C29.7213 19.9189 29.7213 20.4819 29.3592 20.8623C23.8218 26.5381 20.5778 29.7488 19.7479 30.6009Z" fill="#2C2E31"/>
<path d="M29.9174 18.5038C29.5402 18.1234 29.5402 17.5604 29.9174 17.18L30.9283 16.13C31.2905 15.7648 31.8487 15.7648 32.2109 16.13L32.4975 16.4191C32.8596 16.7996 32.8596 17.3626 32.4975 17.743L31.4866 18.7777C31.1094 19.1581 30.5511 19.1581 30.189 18.7777L29.9174 18.5038Z" fill="#2C2E31"/>
<path d="M43.8439 7.62402H12.4603C8.94472 7.71532 6.00251 10.2717 5.26318 13.7715C4.61439 16.9821 4.05612 20.2993 3.694 23.7078C3.22626 27.2989 2.86415 31.2704 2.48694 35.531V36.3831C2.57747 39.8829 5.44424 42.7132 8.94472 42.6219H38.5027C42.2747 42.5306 45.6092 39.7764 46.6202 36.0027C47.5406 32.3051 48.2799 28.5314 48.7476 24.6512C49.3059 20.3906 49.4869 16.6017 49.4869 13.2998C49.4869 9.99779 47.0879 7.62402 43.8439 7.62402ZM36.4658 35.6223C35.998 35.8049 35.1682 36.0027 33.7951 36.2766C31.6677 36.7483 28.8009 36.9461 25.1948 36.9461C21.5887 36.9461 18.8275 36.657 16.6096 36.2766C15.2365 36.094 14.3916 35.8049 13.9389 35.6223C13.7579 35.531 13.5617 35.3332 13.4712 35.1506C13.2901 34.8615 13.2901 34.2985 13.3807 33.9181C14.3011 31.0726 15.0404 29.1857 15.7797 28.3336L30.008 14.0606C30.7473 13.2998 31.8487 13.2998 32.5881 14.0606L34.625 16.13C35.3643 16.8908 35.3643 18.0321 34.625 18.7777C26.5829 26.9185 21.9659 31.6508 20.5778 33.0659C19.9441 33.7355 19.2048 34.2985 18.3749 34.6789C20.2157 34.9528 22.5242 35.0593 25.3004 35.0593C28.8009 35.0593 31.4866 34.8615 33.599 34.4811C34.2478 34.3898 34.8966 34.2072 35.3643 34.1007L35.7264 33.8268C36.1942 33.6289 36.7373 33.9181 36.9335 34.3898C37.2051 34.8615 36.9335 35.4245 36.4658 35.6223Z" fill="#2C2E31"/>
<path d="M29.3592 20.8623C23.8218 26.5381 20.5778 29.7488 19.7479 30.6009C19.2953 31.0726 18.737 31.5595 17.9977 32.0312C17.545 32.3051 16.9868 32.2138 16.7001 31.7421C16.519 31.453 16.519 31.0726 16.8057 30.7074C17.1678 30.1292 17.6356 29.6575 18.1788 29.0944L27.79 19.2646C28.1521 18.8842 28.7104 18.8842 29.0725 19.2646L29.3592 19.5385C29.7213 19.9189 29.7213 20.4819 29.3592 20.8623Z" fill="#2C2E31"/>
<path d="M32.4975 17.743L31.4866 18.7777C31.1094 19.1581 30.5511 19.1581 30.189 18.7777L29.9174 18.5038C29.5402 18.1234 29.5402 17.5604 29.9174 17.18L30.9283 16.13C31.2905 15.7648 31.8487 15.7648 32.2109 16.13L32.4975 16.4191C32.8596 16.7996 32.8596 17.3626 32.4975 17.743Z" fill="#2C2E31"/>
</svg>
