<svg width="51" height="51" viewBox="0 0 51 51" fill="none" xmlns="http://www.w3.org/2000/svg">
<path d="M8.48694 16.374C8.48694 11.5422 12.4051 7.62402 17.2369 7.62402H34.7369C39.5703 7.62402 43.4869 11.5422 43.4869 16.374V33.874C43.4869 38.7074 39.5688 42.624 34.7369 42.624H17.2369C12.4051 42.624 8.48694 38.7059 8.48694 33.874V16.374Z" fill="#FFDD34"/>
<path fill-rule="evenodd" clip-rule="evenodd" d="M31.7563 14.2959H28.5789L31.2267 18.9487L25.4016 14.2959H22.2242L25.1368 19.9818L19.0468 14.2959H15.8695L19.0468 21.5337L15.8695 36.0079H19.0468L25.1368 20.5006L22.2242 36.0079H25.4016L31.2267 19.466L28.5789 36.0079H31.7563L37.5815 17.9141L31.7563 14.2959Z" fill="#1D1D1E"/>
</svg>
