<svg width="51" height="51" viewBox="0 0 51 51" fill="none" xmlns="http://www.w3.org/2000/svg">
<path d="M17.9075 13.9399C19.8851 17.2491 18.2614 21.4247 18.2614 21.4247C21.9433 22.5896 22.1463 26.3204 22.1463 26.3204C22.273 23.5962 24.5005 21.4208 27.2408 21.4363C30.0531 21.445 32.3318 23.7065 32.3428 26.5453C32.3449 28.5111 31.2344 30.2174 29.592 31.0817C34.2859 31.6235 38.0233 27.9409 38.0344 23.5892C38.0426 19.4016 34.6424 16.0076 30.4896 16.0157C29.1293 16.0161 27.6329 16.5027 26.4085 17.1821C26.3356 15.6234 27.2466 13.9176 27.2466 13.9176C25.6183 13.9615 24.6639 16.5633 24.6639 16.5633C22.7772 15.3936 20.583 16.5646 20.583 16.5646C19.71 14.2074 18.5942 13.9118 18.1233 13.9196C17.9795 13.9331 17.9075 13.9399 17.9075 13.9399Z" fill="url(#paint0_radial_115_1586)"/>
<path d="M13.6985 22.952C11.4537 23.4108 10.744 26.2444 10.744 26.2444C14.8941 24.2491 15.2223 27.1891 17.33 31.401C18.8469 34.414 21.2767 37.3231 27.126 37.3981C34.1397 37.4905 40.0596 31.2325 38.895 24.9465C38.9029 28.0608 34.3457 32.5241 30.404 32.5037C21.4205 32.5167 20.5074 22.803 14.8851 22.7937C14.4918 22.8013 14.1107 22.8366 13.6985 22.952Z" fill="url(#paint1_linear_115_1586)"/>
<defs>
<radialGradient id="paint0_radial_115_1586" cx="0" cy="0" r="1" gradientUnits="userSpaceOnUse" gradientTransform="translate(16.7774 12.2958) rotate(39.7511) scale(25.577 25.594)">
<stop stop-color="#1F9ED7"/>
<stop offset="1" stop-color="#1D74AB"/>
</radialGradient>
<linearGradient id="paint1_linear_115_1586" x1="12.2577" y1="34.3096" x2="39.9938" y2="22.1714" gradientUnits="userSpaceOnUse">
<stop stop-color="#505052"/>
<stop offset="1" stop-color="#231F20"/>
</linearGradient>
</defs>
</svg>
