<svg width="51" height="51" viewBox="0 0 51 51" fill="none" xmlns="http://www.w3.org/2000/svg">
<g clip-path="url(#clip0_115_1590)">
<path d="M21.7939 11.4413C23.4065 9.76099 25.6515 8.71881 28.1344 8.71881C31.435 8.71881 34.3146 10.5594 35.8481 13.2918C37.1807 12.6964 38.6558 12.3651 40.2078 12.3651C46.1607 12.3651 50.9869 17.2338 50.9869 23.2393C50.9869 29.2454 46.1607 34.1141 40.2078 34.1141C39.4947 34.1145 38.7835 34.0436 38.0845 33.9025C36.7341 36.3115 34.1608 37.9392 31.2071 37.9392C29.9706 37.9392 28.8011 37.6536 27.7598 37.1457C26.3908 40.366 23.2014 42.624 19.4841 42.624C15.613 42.624 12.3139 40.1744 11.0475 36.7389C10.4941 36.8565 9.92072 36.9177 9.33238 36.9177C4.72343 36.9178 0.986938 33.1425 0.986938 28.4847C0.986938 25.3634 2.66572 22.6381 5.16001 21.18C4.6465 19.9983 4.36086 18.694 4.36086 17.3228C4.36086 11.9662 8.70916 7.62402 14.0724 7.62402C17.2213 7.62402 20.0197 9.1213 21.7939 11.4413Z" fill="#00A1E0"/>
<path d="M8.22892 25.7747C8.19758 25.8566 8.24033 25.8737 8.25029 25.888C8.34428 25.9563 8.43978 26.0055 8.53592 26.0604C9.04588 26.331 9.52741 26.41 10.031 26.41C11.0566 26.41 11.6933 25.8644 11.6933 24.9861V24.9691C11.6933 24.157 10.9747 23.8621 10.3002 23.6491L10.2126 23.6207C9.70404 23.4554 9.2653 23.313 9.2653 22.9782V22.9604C9.2653 22.674 9.52171 22.4632 9.91916 22.4632C10.3607 22.4632 10.885 22.6099 11.2226 22.7965C11.2226 22.7965 11.3216 22.8606 11.3579 22.7645C11.3778 22.7132 11.5488 22.253 11.5666 22.2032C11.5858 22.149 11.5516 22.1091 11.5168 22.0877C11.1314 21.8534 10.5986 21.6931 10.0474 21.6931L9.94483 21.6938C9.00609 21.6938 8.35084 22.2608 8.35084 23.0736V23.0907C8.35084 23.9476 9.07376 24.2254 9.75114 24.4191L9.8601 24.4526C10.3537 24.6043 10.7789 24.7347 10.7789 25.0823V25.0994C10.7789 25.4171 10.5026 25.6536 10.0567 25.6536C9.88362 25.6536 9.33162 25.65 8.73547 25.2731C8.6635 25.2311 8.62151 25.2005 8.56595 25.167C8.53677 25.1485 8.4634 25.1164 8.43137 25.2133L8.22892 25.7747ZM23.2438 25.7747C23.2125 25.8566 23.2552 25.8737 23.2652 25.888C23.3592 25.9563 23.4547 26.0055 23.5508 26.0604C24.0607 26.331 24.5423 26.41 25.0458 26.41C26.0715 26.41 26.7082 25.8644 26.7082 24.9861V24.9691C26.7082 24.157 25.9896 23.8621 25.3151 23.6491L25.2275 23.6207C24.7189 23.4554 24.2801 23.313 24.2801 22.9782V22.9604C24.2801 22.674 24.5365 22.4632 24.934 22.4632C25.3756 22.4632 25.8998 22.6099 26.2374 22.7965C26.2374 22.7965 26.3364 22.8606 26.3727 22.7645C26.3926 22.7132 26.5636 22.253 26.5814 22.2032C26.6007 22.149 26.5665 22.1091 26.5316 22.0877C26.1462 21.8534 25.6134 21.6931 25.0622 21.6931L24.9596 21.6938C24.0209 21.6938 23.3656 22.2608 23.3656 23.0736V23.0907C23.3656 23.9476 24.0885 24.2254 24.7659 24.4191L24.8749 24.4526C25.3685 24.6043 25.7944 24.7347 25.7944 25.0823V25.0994C25.7944 25.4171 25.5174 25.6536 25.0715 25.6536C24.8984 25.6536 24.3464 25.65 23.7503 25.2731C23.6783 25.2311 23.6356 25.2019 23.5815 25.167C23.563 25.1549 23.4761 25.1214 23.4461 25.2133L23.2438 25.7747ZM33.4941 24.0543C33.4941 24.5508 33.4015 24.9418 33.2192 25.2182C33.039 25.4918 32.7662 25.625 32.3859 25.625C32.0049 25.625 31.7335 25.4925 31.5561 25.2182C31.3766 24.9426 31.2855 24.5508 31.2855 24.0543C31.2855 23.5586 31.3766 23.1682 31.5561 22.8947C31.7335 22.624 32.0049 22.4922 32.3859 22.4922C32.7663 22.4922 33.039 22.624 33.22 22.8947C33.4016 23.1682 33.4941 23.5585 33.4941 24.0543ZM34.3503 23.134C34.2662 22.8498 34.1352 22.599 33.9607 22.3904C33.7862 22.1809 33.5654 22.0129 33.3032 21.8903C33.0418 21.7685 32.7328 21.7066 32.3859 21.7066C32.0383 21.7066 31.7292 21.7685 31.4678 21.8903C31.2057 22.0129 30.9849 22.181 30.8097 22.3904C30.6359 22.5998 30.5048 22.8505 30.4201 23.134C30.3368 23.4168 30.2947 23.7259 30.2947 24.0543C30.2947 24.3827 30.3368 24.6926 30.4201 24.9746C30.5048 25.2581 30.6352 25.5089 30.8104 25.7183C30.9849 25.9277 31.2064 26.0951 31.4679 26.214C31.7299 26.333 32.0383 26.3935 32.386 26.3935C32.7328 26.3935 33.0412 26.333 33.3033 26.214C33.5647 26.0951 33.7862 25.9277 33.9607 25.7183C34.1352 25.5096 34.2663 25.2588 34.3503 24.9746C34.4344 24.6919 34.4764 24.382 34.4764 24.0543C34.4764 23.7267 34.4343 23.4168 34.3503 23.134ZM41.3807 25.4924C41.3522 25.409 41.2717 25.4404 41.2717 25.4404C41.1471 25.4881 41.0145 25.5323 40.8736 25.5544C40.7304 25.5764 40.573 25.5878 40.4041 25.5878C39.9897 25.5878 39.6606 25.4646 39.4249 25.221C39.1884 24.9774 39.0559 24.5835 39.0573 24.0507C39.0587 23.5656 39.1755 23.2009 39.3857 22.9231C39.5944 22.6468 39.912 22.5049 40.3358 22.5049C40.6891 22.5049 40.9583 22.5455 41.2403 22.6346C41.2403 22.6346 41.308 22.6638 41.34 22.5755C41.4148 22.3674 41.4704 22.2186 41.5501 21.9899C41.573 21.9251 41.5174 21.8973 41.4974 21.8895C41.3863 21.846 41.1242 21.7756 40.9262 21.7456C40.741 21.7171 40.5245 21.7022 40.2838 21.7022C39.924 21.7022 39.6035 21.7634 39.3294 21.886C39.0558 22.0078 38.8237 22.1758 38.6399 22.3853C38.4561 22.5947 38.3166 22.8454 38.2233 23.1289C38.1307 23.4117 38.0837 23.7223 38.0837 24.0507C38.0837 24.7608 38.2753 25.3349 38.6535 25.7552C39.0324 26.1769 39.6015 26.3913 40.3437 26.3913C40.7824 26.3913 41.2326 26.3023 41.5559 26.1748C41.5559 26.1748 41.6179 26.1448 41.5908 26.073L41.3807 25.4924ZM42.8786 23.5787C42.9192 23.3031 42.9954 23.0737 43.1129 22.8949C43.2903 22.6235 43.5609 22.4747 43.9413 22.4747C44.3217 22.4747 44.5731 22.6242 44.7533 22.8949C44.873 23.0737 44.925 23.3131 44.9456 23.5787H42.8786ZM45.7611 22.9725C45.6885 22.6983 45.5082 22.4212 45.39 22.2944C45.2034 22.0935 45.0211 21.9532 44.8402 21.8748C44.6037 21.7737 44.3202 21.7067 44.0097 21.7067C43.6479 21.7067 43.3195 21.7673 43.0531 21.8926C42.7861 22.018 42.5617 22.189 42.3858 22.402C42.2098 22.6142 42.0774 22.8671 41.9933 23.1542C41.9085 23.4398 41.8658 23.7511 41.8658 24.0794C41.8658 24.4135 41.91 24.7248 41.9976 25.0047C42.0859 25.2868 42.2269 25.5354 42.4178 25.7412C42.6079 25.9485 42.853 26.111 43.1464 26.2241C43.4378 26.3367 43.7918 26.3951 44.1984 26.3944C45.0354 26.3915 45.4762 26.2049 45.6578 26.1044C45.6899 26.0867 45.7206 26.0553 45.682 25.9656L45.4926 25.4349C45.4641 25.3558 45.3836 25.385 45.3836 25.385C45.1763 25.462 44.8815 25.6002 44.1941 25.5988C43.7447 25.5981 43.4113 25.4656 43.2026 25.2582C42.9883 25.046 42.8836 24.734 42.8651 24.2938L45.7632 24.2966C45.7632 24.2966 45.8394 24.2952 45.8473 24.2211C45.8501 24.1899 45.947 23.6257 45.7611 22.9725ZM19.6687 23.5787C19.7099 23.3031 19.7855 23.0737 19.903 22.8949C20.0803 22.6235 20.351 22.4747 20.7313 22.4747C21.1116 22.4747 21.3631 22.6242 21.544 22.8949C21.6629 23.0737 21.7149 23.3131 21.7356 23.5787H19.6687ZM22.5504 22.9725C22.4778 22.6983 22.2983 22.4212 22.1801 22.2944C21.9934 22.0935 21.8111 21.9532 21.6302 21.8748C21.3937 21.7737 21.1103 21.7067 20.7997 21.7067C20.4386 21.7067 20.1095 21.7673 19.8432 21.8926C19.5761 22.018 19.3517 22.189 19.1758 22.402C18.9999 22.6142 18.8674 22.8671 18.7834 23.1542C18.6993 23.4398 18.6559 23.7511 18.6559 24.0794C18.6559 24.4135 18.7 24.7248 18.7877 25.0047C18.876 25.2868 19.0171 25.5354 19.2079 25.7412C19.3981 25.9485 19.6431 26.111 19.9365 26.2241C20.2279 26.3367 20.5818 26.3951 20.9885 26.3944C21.8254 26.3915 22.2663 26.2049 22.4479 26.1044C22.48 26.0867 22.5106 26.0553 22.4722 25.9656L22.2834 25.4349C22.2542 25.3558 22.1738 25.385 22.1738 25.385C21.9665 25.462 21.6723 25.6002 20.9836 25.5988C20.5349 25.5981 20.2015 25.4656 19.9928 25.2582C19.7784 25.046 19.6738 24.734 19.6552 24.2938L22.5533 24.2966C22.5533 24.2966 22.6295 24.2952 22.6374 24.2211C22.6401 24.1899 22.737 23.6257 22.5504 22.9725ZM13.4043 25.4765C13.2911 25.386 13.2754 25.3632 13.237 25.3048C13.18 25.2158 13.1508 25.089 13.1508 24.928C13.1508 24.673 13.2348 24.4899 13.4093 24.3667C13.4072 24.3675 13.6586 24.1495 14.2498 24.1573C14.665 24.163 15.0361 24.2243 15.0361 24.2243V25.542H15.0368C15.0368 25.542 14.6686 25.6211 14.254 25.646C13.6643 25.6816 13.4022 25.4758 13.4043 25.4765ZM14.5574 23.44C14.4399 23.4315 14.2875 23.4264 14.1051 23.4264C13.8566 23.4264 13.6166 23.4578 13.3915 23.5183C13.165 23.5789 12.9613 23.6737 12.7861 23.7989C12.6111 23.9238 12.4673 24.0874 12.3659 24.2769C12.2633 24.4678 12.2113 24.6929 12.2113 24.9451C12.2113 25.2015 12.2554 25.4245 12.3438 25.6069C12.4321 25.7899 12.5596 25.9423 12.722 26.0599C12.8829 26.1774 13.0817 26.2636 13.3124 26.3156C13.5396 26.3676 13.7974 26.3939 14.0795 26.3939C14.3765 26.3939 14.6728 26.3697 14.9598 26.3205C15.244 26.2721 15.593 26.2016 15.6899 26.1795C15.7578 26.1632 15.8255 26.1458 15.8929 26.1275C15.9649 26.1098 15.9591 26.0328 15.9591 26.0328L15.9577 23.3823C15.9577 22.801 15.8024 22.3701 15.4969 22.103C15.1927 21.8366 14.7447 21.7019 14.1657 21.7019C13.9484 21.7019 13.5987 21.7319 13.3893 21.7739C13.3893 21.7739 12.7561 21.8964 12.4954 22.1001C12.4954 22.1001 12.4385 22.1357 12.4698 22.2155L12.675 22.7669C12.7006 22.8381 12.7697 22.8139 12.7697 22.8139C12.7697 22.8139 12.7918 22.8053 12.8175 22.7904C13.3752 22.4869 14.0803 22.4962 14.0803 22.4962C14.3937 22.4962 14.6344 22.5589 14.7968 22.6835C14.9549 22.8046 15.0354 22.9876 15.0354 23.3737V23.4962C14.7861 23.4606 14.5574 23.44 14.5574 23.44ZM37.9323 21.9466C37.9543 21.881 37.908 21.8497 37.8888 21.8426C37.8397 21.8234 37.5932 21.7714 37.403 21.7592C37.0391 21.7372 36.8369 21.7984 36.6559 21.8796C36.4764 21.9608 36.277 22.0918 36.1659 22.2408V21.8882C36.1659 21.839 36.131 21.7998 36.0825 21.7998H35.3396C35.2912 21.7998 35.2563 21.839 35.2563 21.8882V26.2112C35.2563 26.2596 35.2962 26.2995 35.3446 26.2995H36.106C36.1294 26.2994 36.1517 26.29 36.1681 26.2734C36.1845 26.2569 36.1937 26.2345 36.1936 26.2112V24.0515C36.1936 23.7616 36.2257 23.4724 36.2898 23.2907C36.3525 23.1112 36.438 22.9673 36.5434 22.864C36.6495 22.7615 36.7699 22.6895 36.9016 22.649C37.0362 22.6076 37.1851 22.5941 37.2905 22.5941C37.4422 22.5941 37.6089 22.6332 37.6089 22.6332C37.6644 22.6396 37.6958 22.6055 37.7143 22.5549C37.7642 22.4224 37.9052 22.0256 37.9323 21.9466Z" fill="white"/>
<path d="M30.7846 19.9427C30.692 19.9142 30.6079 19.8949 30.4982 19.8743C30.3871 19.8544 30.2546 19.8444 30.1044 19.8444C29.5801 19.8444 29.167 19.9925 28.8772 20.2845C28.5887 20.5752 28.3928 21.0175 28.2945 21.5995L28.2588 21.7954H27.6008C27.6008 21.7954 27.521 21.7925 27.5039 21.8795L27.3964 22.4828C27.3885 22.5398 27.4135 22.5761 27.4904 22.5761H28.1307L27.4811 26.2032C27.4305 26.4952 27.3721 26.7353 27.3073 26.9176C27.2439 27.0971 27.182 27.2317 27.105 27.33C27.031 27.4241 26.9611 27.4939 26.84 27.5344C26.7403 27.5679 26.625 27.5836 26.4989 27.5836C26.4291 27.5836 26.3358 27.5721 26.2667 27.5579C26.1983 27.5444 26.162 27.5294 26.11 27.5073C26.11 27.5073 26.0352 27.4789 26.0053 27.5537C25.9818 27.6156 25.8108 28.085 25.7902 28.1428C25.7703 28.2004 25.7987 28.2453 25.835 28.2588C25.9205 28.2888 25.9839 28.3087 26.1 28.3365C26.261 28.3743 26.397 28.3764 26.5245 28.3764C26.7908 28.3764 27.0344 28.3386 27.236 28.266C27.4383 28.1926 27.6149 28.0651 27.7716 27.8927C27.9404 27.7061 28.0465 27.5109 28.1477 27.2438C28.2481 26.9802 28.3344 26.6526 28.4027 26.2708L29.0558 22.5761H30.0102C30.0102 22.5761 30.0907 22.5789 30.1071 22.4913L30.2153 21.8887C30.2225 21.8311 30.1983 21.7954 30.1206 21.7954H29.194C29.199 21.7748 29.241 21.4485 29.3471 21.1416C29.3927 21.0112 29.4782 20.9051 29.5501 20.8324C29.6214 20.7612 29.7033 20.7106 29.7931 20.6814C29.8849 20.6514 29.9897 20.6372 30.1043 20.6372C30.1912 20.6372 30.2774 20.6472 30.3422 20.6607C30.4319 20.68 30.4668 20.6899 30.4904 20.6971C30.5851 20.7256 30.5979 20.6978 30.6165 20.6522L30.838 20.0439C30.8607 19.9783 30.8045 19.9505 30.7846 19.9427ZM17.8376 26.211C17.8376 26.2595 17.8027 26.2987 17.7543 26.2987H16.9858C16.9373 26.2987 16.9031 26.2595 16.9031 26.211V20.0253C16.9031 19.9769 16.9373 19.9377 16.9858 19.9377H17.7543C17.8027 19.9377 17.8376 19.9769 17.8376 20.0253V26.211Z" fill="white"/>
</g>
<defs>
<clipPath id="clip0_115_1590">
<rect width="50" height="50" fill="white" transform="translate(0.986938 0.124023)"/>
</clipPath>
</defs>
</svg>
