<svg width="51" height="51" viewBox="0 0 51 51" fill="none" xmlns="http://www.w3.org/2000/svg">
<g clip-path="url(#clip0_115_1592)">
<path d="M29.1703 9.42079C28.1036 7.66557 25.8059 7.09909 24.0357 8.15766C23.5139 8.46951 23.0771 8.90295 22.7629 9.42079L17.4928 18.3771C25.6848 22.4355 31.0947 30.4992 31.7073 39.5643H28.007C27.3944 31.7938 22.685 24.926 15.626 21.5085L10.7495 29.8769C14.7121 31.6407 17.4985 35.2856 18.1414 39.5485H9.64527C9.3094 39.5256 9.05714 39.2367 9.08165 38.9034C9.08741 38.8204 9.11048 38.7403 9.1494 38.6659L11.5034 34.692C10.7062 34.0311 9.79375 33.5204 8.81209 33.1814L6.48119 37.1553C5.46927 38.8762 6.05595 41.0863 7.79151 42.0891C7.80593 42.0977 7.82034 42.1062 7.83476 42.1134C8.38685 42.4224 9.01102 42.5869 9.64527 42.5898H21.281C21.7207 37.2068 19.2903 31.9883 14.875 28.8327L16.7244 25.6541C22.2987 29.4535 25.4354 35.8936 24.9727 42.5898H34.831C35.2981 32.4447 30.2932 22.8174 21.689 17.3171L25.4282 10.96C25.6012 10.671 25.9774 10.5752 26.2686 10.7454C26.6924 10.9757 42.5171 38.3784 42.814 38.6959C42.9784 38.9878 42.8731 39.3554 42.5791 39.517C42.4839 39.57 42.3773 39.5957 42.2692 39.5929H38.4578C38.5054 40.6042 38.5054 41.6142 38.4578 42.6212H42.2865C44.3161 42.6341 45.9723 41.0119 45.9868 38.9978C45.9868 38.9849 45.9868 38.9706 45.9868 38.9577C45.9868 38.3211 45.8152 37.6946 45.4909 37.1453L29.1703 9.42079Z" fill="#362D59"/>
</g>
<defs>
<clipPath id="clip0_115_1592">
<rect width="40" height="35" fill="white" transform="translate(5.98694 7.62402)"/>
</clipPath>
</defs>
</svg>
