<svg width="51" height="51" viewBox="0 0 51 51" fill="none" xmlns="http://www.w3.org/2000/svg">
<mask id="mask0_115_1594" style="mask-type:luminance" maskUnits="userSpaceOnUse" x="8" y="7" width="36" height="36">
<path d="M43.4869 7.62402H8.48694V42.624H43.4869V7.62402Z" fill="white"/>
</mask>
<g mask="url(#mask0_115_1594)">
<path fill-rule="evenodd" clip-rule="evenodd" d="M25.9651 19.2178H43.4651V15.8709C43.4651 11.3209 39.5495 7.62402 34.7151 7.62402H17.7401C22.312 7.88652 25.9651 19.2178 25.9651 19.2178Z" fill="#50C5DC"/>
<path fill-rule="evenodd" clip-rule="evenodd" d="M25.9869 25.124H8.48694V16.1771C8.48694 11.4521 12.4026 7.62402 17.2369 7.62402H34.2119C29.6401 7.88652 25.9432 11.6053 25.9432 16.1553V25.124H25.9869Z" fill="#FCB415"/>
<path fill-rule="evenodd" clip-rule="evenodd" d="M26.0088 31.2052H8.48694V34.5521C8.48694 39.1021 12.4026 42.799 17.2369 42.799H34.2119C29.6182 42.5365 25.9869 31.2052 25.9869 31.2052H26.0088Z" fill="#741448"/>
<path fill-rule="evenodd" clip-rule="evenodd" d="M25.987 25.124H43.487V34.0709C43.487 38.7959 39.5714 42.624 34.737 42.624H17.762C22.3339 42.3615 26.0308 38.6428 26.0308 34.0928V25.124H25.987Z" fill="#FF4143"/>
<path fill-rule="evenodd" clip-rule="evenodd" d="M11.8775 21.8865H22.5744V20.4647H11.8775V21.8865ZM11.8775 18.6272H22.5744V17.2053H11.8775V18.6272ZM11.8775 15.3678H22.5744V13.9459H11.8775V15.3678ZM29.3338 29.8053H40.0307V28.3834H29.3338V29.8053ZM29.3338 33.0647H40.0307V31.6428H29.3338V33.0647ZM29.3338 36.324H40.0307V34.9022H29.3338V36.324Z" fill="white"/>
</g>
</svg>
