<svg width="51" height="51" viewBox="0 0 51 51" fill="none" xmlns="http://www.w3.org/2000/svg">
<path d="M42.0204 20.3118C45.6295 32.3423 42.8297 37.5483 30.7992 41.1574C18.7686 44.7666 13.5627 41.9668 9.95352 29.9362C6.34436 17.9057 9.14419 12.6998 21.1747 9.0906C33.2053 5.48144 38.4112 8.28127 42.0204 20.3118ZM23.3389 15.9437C21.3977 16.5372 21.3977 16.5372 20.0791 17.6795C18.7605 18.8218 18.7605 18.8218 18.2578 20.2927C17.7551 21.7636 17.7551 21.7636 18.2566 23.3729C18.8494 25.3428 18.8494 25.3428 20.5043 26.1066C22.1335 26.8585 22.1335 26.8585 24.4956 26.7344L24.5708 26.7302L26.6518 26.6247C27.6939 26.5619 27.6939 26.5619 28.453 26.6425C29.2121 26.7232 29.2121 26.7232 29.6876 27.0232C30.1631 27.3232 30.1631 27.3232 30.3459 27.9212C30.542 28.5625 30.542 28.5625 30.303 29.1757C30.0641 29.7889 30.0641 29.7889 29.4426 30.2822C28.821 30.7754 28.821 30.7754 27.8677 31.0669C26.8971 31.3636 26.8971 31.3636 26.0387 31.2991C25.1804 31.2346 25.1804 31.2346 24.5439 30.7801C23.9242 30.3375 23.9242 30.3375 23.5916 29.4972L23.5739 29.4515L19.9427 30.5616C20.5716 32.4636 20.5716 32.4636 21.856 33.4877C23.1404 34.5117 23.1404 34.5117 24.932 34.6841C26.7236 34.8566 26.7236 34.8566 28.8729 34.1995C31.0394 33.5371 31.0394 33.5371 32.3777 32.4125C33.7159 31.2879 33.7159 31.2879 34.1705 29.8459C34.6252 28.4039 34.6252 28.4039 34.1357 26.772C33.7879 25.6654 33.7879 25.6654 33.1313 24.928C32.4747 24.1906 32.4747 24.1906 31.5706 23.7752C30.6666 23.3598 30.6666 23.3598 29.5635 23.2232C28.5028 23.0919 28.5028 23.0919 27.3149 23.1748L27.2196 23.1817L25.5084 23.2879C24.8881 23.3354 24.8881 23.3354 24.3198 23.3054C23.7515 23.2754 23.7515 23.2754 23.2834 23.139C22.8152 23.0026 22.8152 23.0026 22.4856 22.7148C22.156 22.4271 22.156 22.4271 22.0276 21.9451C21.8527 21.3732 21.8527 21.3732 22.0486 20.8205C22.2445 20.2679 22.2445 20.2679 22.7989 19.8188C23.3534 19.3697 23.3534 19.3697 24.272 19.0889C25.624 18.6755 25.624 18.6755 26.5901 19.0151C27.5387 19.3484 27.5387 19.3484 27.9653 20.3347L27.9809 20.3714L31.5774 19.2719C31.0665 17.6939 31.0665 17.6939 29.8749 16.741C28.6833 15.7881 28.6833 15.7881 26.9991 15.5638C25.3148 15.3396 25.3148 15.3396 23.3389 15.9437Z" fill="#00B3A4"/>
</svg>
