<svg width="51" height="51" viewBox="0 0 51 51" fill="none" xmlns="http://www.w3.org/2000/svg">
<path d="M38.1008 23.9887C38.1008 33.0267 30.7999 40.3534 21.7938 40.3534C12.7878 40.3534 5.48694 33.0267 5.48694 23.9887C5.48694 14.9507 12.7878 7.62402 21.7938 7.62402C30.7999 7.62402 38.1008 14.9507 38.1008 23.9887Z" fill="url(#paint0_linear_115_1599)"/>
<path d="M24.3242 33.2124C25.0068 29.4677 28.4844 26.6244 32.5147 26.6244C36.8765 26.6244 40.442 29.9545 40.6914 34.1536H42.1507C44.5455 34.1536 46.4869 36.0498 46.4869 38.3888C46.4869 40.7278 44.5455 42.6241 42.1507 42.6241H24.3242C21.6633 42.6241 19.5062 40.5171 19.5062 37.9183C19.5062 35.3193 21.6633 33.2124 24.3242 33.2124Z" fill="url(#paint1_radial_115_1599)"/>
<defs>
<linearGradient id="paint0_linear_115_1599" x1="8.78302" y1="9.19086" x2="20.3765" y2="26.8237" gradientUnits="userSpaceOnUse">
<stop stop-color="#F59549"/>
<stop offset="1" stop-color="#F06351"/>
</linearGradient>
<radialGradient id="paint1_radial_115_1599" cx="0" cy="0" r="1" gradientUnits="userSpaceOnUse" gradientTransform="translate(29.9305 30.3166) rotate(65.8481) scale(13.4882 22.7725)">
<stop stop-color="white"/>
<stop offset="1" stop-color="#CBDDFF"/>
</radialGradient>
</defs>
</svg>
