<svg width="51" height="51" viewBox="0 0 51 51" fill="none" xmlns="http://www.w3.org/2000/svg">
<path fill-rule="evenodd" clip-rule="evenodd" d="M27.7724 19.9893C27.6694 19.9282 27.5417 19.8545 27.4007 19.7738C26.846 19.4583 26.0686 19.0383 25.6314 18.8647C25.4138 17.6217 25.3289 16.3904 25.4524 15.4612C25.7338 13.3639 26.6184 11.3456 28.0714 9.87969C29.4837 8.45448 31.103 7.74504 32.6326 7.63832C33.7137 7.56257 34.7519 7.78952 35.6465 8.27722H35.6493C36.5488 8.76806 37.2977 9.52112 37.7948 10.4951C38.2726 11.4305 38.5161 12.5675 38.4324 13.8647L38.4384 13.758C37.9888 13.6146 37.5113 13.513 37.0105 13.4591L36.9328 13.4513C36.9431 12.5726 36.7607 11.8118 36.4443 11.1796C36.0891 10.4836 35.5569 9.94714 34.9208 9.59971L34.9214 9.59854C34.2807 9.24974 33.5266 9.08822 32.7336 9.14358C31.5518 9.22591 30.2821 9.79336 29.1496 10.9363C28.3137 11.7794 27.7006 12.8506 27.3224 14.0173C27.1963 14.4064 27.0708 14.8941 26.9914 15.4145C26.8503 16.3448 26.6532 17.8426 27.3414 18.5629C27.5417 18.7729 27.8287 18.9508 28.2357 19.0862C28.5497 18.5412 28.9137 18.0219 29.3203 17.5388C30.6373 15.9759 32.4056 14.7875 34.3528 14.3421C36.242 13.909 37.9295 14.1664 39.2309 14.8672C40.1572 15.3657 40.89 16.0893 41.3662 16.9501C41.8443 17.8135 42.0635 18.8153 41.963 19.8695C41.8288 21.2771 41.1213 22.7686 39.6923 24.1221C38.3496 25.3937 36.7625 26.1821 35.0682 26.6168C33.504 27.0177 31.9124 27.0652 30.309 27.0652C30.0411 27.0652 30.0502 27.0619 29.924 27.0561L29.9098 27.005C29.3104 24.8157 27.9441 22.9002 25.9507 21.7373C24.9793 21.1704 23.9261 20.8016 22.8472 20.618C21.7189 20.4252 20.5611 20.4358 19.4384 20.6324C19.2129 20.6717 19.015 20.7121 18.8452 20.7525C16.5052 21.3128 14.4883 22.7141 13.1613 24.5716C11.845 26.4145 11.2134 28.7101 11.63 31.077C11.6653 31.2784 11.7012 31.4545 11.7374 31.6042C11.8731 32.1683 12.0735 32.6943 12.3322 33.1779H12.3352C12.6001 33.6749 12.9244 34.1268 13.3005 34.5308C13.815 35.0836 14.3852 35.4955 14.9985 35.8412L14.9978 35.8424C15.6203 36.1926 16.3297 36.4934 17.0765 36.8044C17.5812 37.0146 18.0809 37.2375 18.5414 37.5057C19.0339 37.7921 19.4908 38.1334 19.8801 38.5683C20.3556 39.1 20.6134 39.7167 20.5115 40.4324C20.4985 40.5215 20.48 40.6119 20.4553 40.7025C20.9796 40.5543 21.4811 40.3897 21.9604 40.2098C23.0291 39.8096 23.9868 39.3331 24.8361 38.7992C25.8616 38.1542 26.7332 37.4192 27.4584 36.625C28.2202 35.7899 28.8187 34.8886 29.2615 33.9557C30.1893 32.0017 30.4459 29.8997 30.1184 27.9525C30.6294 27.9858 31.142 28.0001 31.6531 27.9932C31.9583 30.1505 31.641 32.4578 30.6302 34.5996C30.1237 35.6662 29.4429 36.6929 28.5783 37.6407C27.7674 38.5294 26.7908 39.3516 25.6413 40.0748C24.7067 40.6625 23.6585 41.1843 22.4934 41.6208C21.3886 42.0349 20.1766 42.3746 18.8543 42.624L18.2203 41.3131C18.7321 40.8722 18.9706 40.5129 19.0123 40.22C19.0434 40.0015 18.9369 39.7823 18.7488 39.5719C18.4804 39.2723 18.1461 39.0255 17.7772 38.811C17.3768 38.5778 16.9389 38.3828 16.4957 38.198C15.7234 37.8761 14.9853 37.5625 14.255 37.1517H14.2524C13.5136 36.7353 12.8231 36.2354 12.1926 35.5578C11.7214 35.0514 11.3199 34.4938 10.9961 33.8868L10.9984 33.8857C10.6808 33.291 10.4347 32.6453 10.2679 31.9526C10.2125 31.7216 10.1681 31.515 10.137 31.3371C9.64689 28.5529 10.3865 25.8578 11.9292 23.6981C13.4612 21.5532 15.7913 19.9355 18.4957 19.2879C18.7457 19.2282 18.9747 19.1795 19.1776 19.1443C20.4658 18.9187 21.7989 18.9073 23.1019 19.13C24.35 19.3422 25.5761 19.7734 26.7149 20.4381C28.7276 21.6123 30.1951 23.4301 31.0135 25.5381C32.2683 25.5682 33.5165 25.4604 34.6952 25.1582C36.1483 24.7852 37.5071 24.1119 38.6498 23.0301C39.794 21.946 40.3574 20.7919 40.4585 19.7274C40.5291 18.9872 40.3752 18.2828 40.0393 17.6763C39.7027 17.068 39.1794 16.5537 38.5144 16.1959C37.5162 15.6582 36.196 15.4669 34.6903 15.8119C33.0767 16.1811 31.5962 17.1836 30.4812 18.5069C29.8602 19.2441 29.3545 20.0785 29.0042 20.956C28.6205 20.6066 28.2095 20.2832 27.7724 19.9893ZM21.2 39.5874C22.9476 38.2092 24.5762 36.6291 25.9368 34.8674C26.7793 33.7767 27.5239 32.6088 28.1114 31.3968C28.6985 30.1855 29.1282 28.9302 29.3415 27.663L29.3312 27.6013L29.2324 27.2439L29.2183 27.1928L29.2051 27.1455V27.1447L29.1918 27.0981L29.1915 27.0967L29.1783 27.0508L29.1777 27.0488L29.1642 27.0038L29.1636 27.0012L29.1501 26.9567L29.1493 26.9536L29.1357 26.9097L29.1346 26.906L29.121 26.8629L29.1196 26.8583L29.1061 26.8161L29.1044 26.811L29.0908 26.7697L29.0891 26.7639L29.0756 26.7232L29.0732 26.7166L29.0597 26.6767L29.0575 26.6695L29.0439 26.6305L29.041 26.6228L29.0275 26.5843L29.0246 26.576L29.0111 26.5382L29.0079 26.5293L28.9944 26.4923L28.9909 26.4825L28.9774 26.4464L28.9737 26.4363L28.9601 26.4004L28.9561 26.3899L28.9426 26.3549L28.9382 26.3437L28.925 26.3095L28.9204 26.2975L28.9069 26.2639L28.902 26.2516L28.8888 26.2189L28.8833 26.2057L28.8703 26.1735L28.8646 26.1598L28.8513 26.1285L28.8323 26.0838L28.826 26.0688L28.8134 26.039L28.8064 26.0235L28.7938 25.9943L28.7866 25.9782L28.7739 25.9498L28.7667 25.9331L28.7541 25.9053L28.7463 25.8881L28.7336 25.8611L28.7256 25.8434L28.7132 25.817L28.7049 25.7986L28.6925 25.7728L28.6835 25.7542L28.6715 25.7289L28.6623 25.7097L28.6501 25.6853L28.6406 25.6655L28.6289 25.6417L28.6185 25.6213L28.607 25.5984L28.5963 25.5771L28.5851 25.555L28.5742 25.5335L28.563 25.5117L28.5514 25.4896L28.5405 25.4687L28.5284 25.446L28.5178 25.4256L28.5054 25.4027L28.4947 25.3829L28.4818 25.3594L28.4714 25.3404L28.4582 25.3163L28.4481 25.298L28.4343 25.2733L28.4245 25.2555L28.4101 25.2306L28.4003 25.2134L28.3856 25.1878L28.3761 25.1715L28.3611 25.1454L28.352 25.1296L28.3361 25.1032L28.3272 25.088L28.3111 25.0608L28.3022 25.0464L28.2854 25.0189L28.2771 25.0051L28.2599 24.977L28.2518 24.9638L28.234 24.9354L28.2262 24.9228L28.2078 24.8938L28.2003 24.8817L28.1816 24.8525L28.1741 24.841L28.1548 24.8112L28.1479 24.8006L28.128 24.7701L28.1211 24.7601L28.1007 24.7294L28.0943 24.7196L28.0733 24.6887L28.0673 24.6798L28.0457 24.6482L28.04 24.6396L28.0181 24.6078L28.0126 24.6L27.9899 24.5676L27.9847 24.5604L27.9614 24.5275L27.9568 24.5208L27.9329 24.4878L27.9286 24.4818L27.9041 24.448L27.9001 24.4428L27.875 24.4087L27.8713 24.4038C27.894 24.9305 27.8529 25.483 27.7665 26.0396C27.5086 27.7035 26.8455 29.4081 26.2839 30.5301C25.3916 32.3119 24.1891 34.0814 22.9842 35.5129C22.0778 36.5896 21.1651 37.4797 20.375 38.0463L20.3857 38.0578L20.396 38.0693L20.4064 38.0807L20.4167 38.0922C20.7144 38.425 20.9464 38.7904 21.0897 39.1904L21.092 39.1964L21.0926 39.1984L21.094 39.2024L21.0955 39.2061L21.096 39.2085L21.0981 39.2142L21.0983 39.2147L21.1004 39.2208L21.1009 39.2222L21.1024 39.2268L21.1035 39.2302L21.1047 39.2329L21.1064 39.238L21.1067 39.2389L21.1087 39.2452L21.109 39.246L21.1107 39.2512L21.1116 39.2541L21.1128 39.2572L21.1145 39.2621L21.1147 39.2632L21.1168 39.2695L21.1171 39.2702L21.1188 39.2756L21.1197 39.2781L21.1208 39.2816L21.1222 39.2862L21.1228 39.2879L21.1245 39.2939L21.1266 39.3003L21.1271 39.3022L21.1286 39.3063L21.1297 39.3103L21.1303 39.3126L21.1323 39.3183L21.1343 39.3247L21.1346 39.3264L21.1361 39.3309L21.1369 39.3344L21.1378 39.3369L21.1395 39.3424L21.1398 39.3433L21.1415 39.3496L21.1418 39.3508L21.1433 39.3556L21.1441 39.3588L21.1452 39.3619L21.1464 39.3668L21.147 39.368L21.1487 39.3742V39.3748L21.1504 39.3803L21.151 39.3831L21.1521 39.3866L21.1533 39.3912L21.1539 39.3929L21.1556 39.3989L21.1573 39.4053L21.1591 39.4115L21.1599 39.4156L21.1605 39.4179L21.1619 39.4239L21.164 39.4302L21.1643 39.4319L21.1654 39.4365L21.1663 39.4402L21.1671 39.4428L21.1683 39.4483L21.1686 39.4488L21.1703 39.4552L21.1706 39.4566L21.1717 39.4615L21.1726 39.4646L21.1735 39.4678L21.1746 39.473L21.1749 39.4741L21.1764 39.4801V39.481L21.1804 39.4976L21.1809 39.4991L21.1824 39.5054V39.506L21.1838 39.5117L21.1841 39.514L21.1853 39.518L21.1861 39.5223L21.1867 39.5243L21.1878 39.5306L21.1893 39.5369L21.1896 39.539L21.1907 39.5433L21.1913 39.5469L21.1947 39.5622L21.1951 39.5636L21.2 39.5874ZM18.7678 36.8093C20.9829 34.9371 22.9249 32.616 24.2723 30.0272C25.446 27.7712 26.1673 25.3109 26.2223 22.7677L26.2128 22.7605L26.2033 22.7536L26.1947 22.7476L26.1938 22.7468L26.184 22.7399L26.1745 22.733L26.165 22.7261L26.1558 22.7198L26.1552 22.7192L26.1457 22.7124L26.1359 22.7058L26.1264 22.6989L26.1167 22.692L26.1072 22.6854L26.0683 22.6584L26.0585 22.6518L26.049 22.6452L26.0392 22.6383L26.0375 22.6375L26.0295 22.6317L26.0197 22.6252L26.0099 22.6185L26.0001 22.612L25.9975 22.6105L25.9903 22.6053L25.9805 22.5988L25.9707 22.5922L25.9607 22.5855L25.9575 22.5836L25.9509 22.5792L25.9411 22.5726L25.9212 22.5597L25.9172 22.5572L25.9114 22.5532L25.9014 22.5465L25.8916 22.5402L25.8815 22.5339L25.8769 22.5307L25.8717 22.5273L25.8616 22.521L25.8516 22.5147L25.8418 22.5081L25.836 22.5046L25.8317 22.5018L25.8216 22.4955L25.8116 22.4891L25.8015 22.4829L25.7952 22.4788L25.7917 22.4765L25.7816 22.4702L25.7716 22.4639L25.7612 22.4576L25.7543 22.4533L25.7511 22.4516L25.7411 22.4453L25.731 22.439L25.7209 22.4329L25.7128 22.4281L25.7108 22.4266L25.7005 22.4203L25.6904 22.4143L25.6803 22.4083L25.6714 22.4028L25.67 22.402L25.6599 22.3959L25.6495 22.3899L25.649 22.3896L25.6297 22.3781L25.6291 22.3776L25.6187 22.3715L25.6086 22.3655L25.5983 22.3595L25.5879 22.3535L25.5675 22.3417L25.5476 22.33L25.5468 22.3297L25.5278 22.3185L25.5263 22.3179C25.1818 22.1211 24.8229 21.9495 24.4544 21.8041C24.0037 26.1555 22.91 28.1702 22.2856 29.3742C20.8773 32.0899 18.7911 34.5418 16.7239 35.8783L16.7331 35.8824L16.7397 35.8853L16.7429 35.8867L16.7524 35.8907L16.7564 35.8924L16.7622 35.8947L16.7717 35.899L16.7731 35.8996L16.7812 35.903L16.7898 35.9068L16.7909 35.907L16.8007 35.9113L16.8065 35.9139L16.8102 35.9154L16.82 35.9197L16.8232 35.9211L16.8295 35.9237L16.8393 35.9277L16.8399 35.928L16.8491 35.932L16.8569 35.9352L16.8586 35.936L16.8684 35.94L16.8736 35.9423L16.8782 35.9443L16.8877 35.9484L16.8906 35.9495L16.8975 35.9524L16.9073 35.9567L16.917 35.9607L16.9242 35.9639L16.9268 35.965L16.9366 35.969L16.9409 35.971L16.9464 35.973L16.9562 35.9773L16.9579 35.9782L16.9657 35.9814L16.9749 35.9854L16.9754 35.9857L16.9852 35.9897L16.9918 35.9925L16.9953 35.9937L17.0051 35.998L17.0089 35.9997L17.0149 36.002L17.0247 36.0063L17.0258 36.0066L17.0345 36.0103L17.0428 36.0137L17.0442 36.0144L17.054 36.0187L17.0598 36.0209L17.0638 36.0227L17.0739 36.027L17.0768 36.0281L17.0837 36.031L17.0935 36.0353H17.094L17.1032 36.0393L17.1111 36.0424L17.1133 36.0433L17.1231 36.0476L17.128 36.0496L17.1329 36.0516L17.143 36.056L17.1453 36.0568L17.1528 36.0599L17.1623 36.064L17.1628 36.0642L17.1726 36.0683L17.1795 36.0711L17.1824 36.0726L17.1925 36.0766L17.1968 36.0783L17.2023 36.0806L17.2123 36.0849L17.2138 36.0855L17.2221 36.0889L17.2311 36.0926L17.2322 36.0932L17.2423 36.0972L17.2483 36.0998L17.2521 36.1015L17.2621 36.1056L17.2656 36.1073L17.2719 36.1099L17.282 36.1139L17.2829 36.1144L17.2921 36.1182L17.3001 36.1216L17.3018 36.1222L17.312 36.1265L17.3174 36.1288L17.322 36.1305L17.3318 36.1348L17.3347 36.136L17.3419 36.1388L17.352 36.1431L17.364 36.148L17.3761 36.1532L17.3882 36.1581L17.4 36.1632L17.4121 36.1684L17.4242 36.1733L17.4363 36.1785L17.4484 36.1836L17.4605 36.1885L17.4725 36.1936L17.4846 36.1988L17.4967 36.204L17.5088 36.2089L17.5209 36.214L17.533 36.2192L17.5451 36.2244L17.5572 36.2295L17.5693 36.2347L17.5813 36.2398L17.5934 36.245L17.6058 36.2505L17.6179 36.2556L17.63 36.2608L17.6421 36.2659L17.6542 36.2714L17.6665 36.2765L17.6786 36.2817L17.6907 36.2872L17.7028 36.2923L17.7152 36.2978L17.7273 36.3029L17.7394 36.3084L17.7517 36.3138L17.7639 36.319L17.7759 36.3244L17.7883 36.3299L17.8004 36.3354L17.8127 36.3405L17.8248 36.346L17.837 36.3514L17.8493 36.3569L17.8614 36.3623L17.8738 36.3678L17.8859 36.3735L17.8982 36.3789L17.9103 36.3844L17.9227 36.3899L17.9351 36.3956L17.9472 36.4011L17.9596 36.4065L17.9717 36.4122L17.984 36.4177L17.9964 36.4234L18.0085 36.4292L18.0209 36.4346L18.0332 36.4404L18.0453 36.4461L18.0577 36.4518L18.0701 36.4576L18.0824 36.4633L18.0948 36.4691L18.1069 36.4748L18.1193 36.4805L18.1317 36.4863L18.142 36.4911L18.1441 36.492L18.1524 36.496L18.1562 36.4977L18.1628 36.5009L18.1685 36.5038L18.1731 36.5058L18.1809 36.5095L18.1832 36.5107L18.193 36.5152L18.1936 36.5155L18.2039 36.5204L18.2054 36.5212L18.214 36.5253L18.2174 36.527L18.2243 36.5301L18.2298 36.533L18.2347 36.5353L18.2419 36.5387L18.2448 36.5402L18.2543 36.5448L18.2552 36.5451L18.2652 36.5499L18.2756 36.5548L18.2788 36.5566L18.2857 36.56L18.2908 36.5626L18.2957 36.5649L18.3032 36.5686L18.3061 36.5697L18.3153 36.5746L18.3162 36.5749L18.3262 36.5798L18.3274 36.5806L18.3363 36.5846L18.3398 36.5864L18.3467 36.5898L18.3519 36.5924L18.3567 36.5947L18.3971 36.6148L18.4005 36.6168L18.4069 36.6197L18.4126 36.6228L18.4169 36.6248C18.5372 36.6851 18.6547 36.7465 18.7678 36.8093ZM15.7054 26.2437C16.4267 25.9141 16.9062 26.0159 17.4889 26.5482C17.7887 26.822 17.9848 27.055 18.0667 26.456C18.1986 25.4945 17.5449 24.7968 16.8271 24.7248C16.1128 24.6531 15.2372 25.3621 15.2848 26.1036C15.2975 26.2978 15.4017 26.3824 15.7054 26.2437Z" fill="#1A1919"/>
</svg>
