<svg width="51" height="51" viewBox="0 0 51 51" fill="none" xmlns="http://www.w3.org/2000/svg">
<path d="M46.9868 8.83472L28.4287 17.295L28.9329 17.4938L46.4917 19.7791L46.9868 19.6971V8.83472Z" fill="#C5CF21"/>
<path d="M46.9868 19.697L28.4287 17.2949L28.739 17.7397L37.9215 24.5214L38.35 24.5689L46.9868 19.697Z" fill="#70B540"/>
<path d="M38.35 24.5689L28.4287 17.2949L28.5009 17.9387L35.4728 38.5822L35.9568 38.9521L38.35 24.5689Z" fill="#006D69"/>
<path d="M35.9565 38.9521L25.9858 42.624L28.4284 17.2949L35.9565 38.9521Z" fill="#008CA9"/>
<path d="M25.9838 13.7042L26.0348 13.6089L26.0463 10.0808L25.9838 10.0026L11.0914 7.62402L11.3509 7.84832L25.4306 13.5377L25.9838 13.7042Z" fill="#70B540"/>
<path d="M4.98694 8.83472L23.5451 17.295L23.0409 17.4938L5.48208 19.7791L4.98694 19.6971V8.83472Z" fill="#008CA9"/>
<path d="M25.9843 13.7042V10.0026L40.8827 7.62402L40.6231 7.84832L26.5435 13.5377L25.9843 13.7042Z" fill="#006D69"/>
<path d="M25.9632 13.7042L11.0918 7.62402L4.98694 8.83491L25.9632 13.7042Z" fill="#C5CF21"/>
<path d="M4.98694 19.697L23.5451 17.2949L23.2348 17.7397L14.0523 24.5214L13.6238 24.5689L4.98694 19.697Z" fill="#006D69"/>
<path d="M13.6234 24.5689L23.5447 17.2949L23.4725 17.9387L16.5006 38.5822L16.0164 38.9521L13.6234 24.5689Z" fill="#C5CF21"/>
<path d="M16.0172 38.9521L25.987 42.624L23.5454 17.2949L16.0172 38.9521Z" fill="#70B540"/>
<path d="M26.0105 13.7042L40.8819 7.62402L46.9868 8.83491L26.0105 13.7042Z" fill="#008CA9"/>
</svg>
