<svg width="51" height="51" viewBox="0 0 51 51" fill="none" xmlns="http://www.w3.org/2000/svg">
<path d="M25.9869 7.62402C16.3036 7.62402 8.48694 15.4407 8.48694 25.124C8.48694 34.8074 16.3036 42.624 25.9869 42.624C35.6703 42.624 43.4869 34.8074 43.4869 25.124C43.4869 15.4407 35.6703 7.62402 25.9869 7.62402ZM25.9869 37.9574C18.8703 37.9574 13.1536 32.2407 13.1536 25.124C13.1536 18.0074 18.8703 12.2907 25.9869 12.2907C33.1036 12.2907 38.8203 18.0074 38.8203 25.124C38.8203 32.2407 33.1036 37.9574 25.9869 37.9574ZM33.9203 20.8074C33.9203 22.7907 32.2869 24.424 30.3036 24.424C28.3203 24.424 26.6869 22.7907 26.6869 20.8074C26.6869 18.824 28.3203 17.1907 30.3036 17.1907C32.2869 17.1907 33.9203 18.824 33.9203 20.8074ZM33.9203 29.4407C33.9203 31.424 32.2869 33.0574 30.3036 33.0574C28.3203 33.0574 26.6869 31.424 26.6869 29.4407C26.6869 27.4574 28.3203 25.824 30.3036 25.824C32.2869 25.824 33.9203 27.4574 33.9203 29.4407ZM25.2869 29.4407C25.2869 31.424 23.6536 33.0574 21.6703 33.0574C19.6869 33.0574 18.0536 31.424 18.0536 29.4407C18.0536 27.4574 19.6869 25.824 21.6703 25.824C23.6536 25.824 25.2869 27.4574 25.2869 29.4407ZM25.2869 20.8074C25.2869 22.7907 23.6536 24.424 21.6703 24.424C19.6869 24.424 18.0536 22.7907 18.0536 20.8074C18.0536 18.824 19.6869 17.1907 21.6703 17.1907C23.6536 17.1907 25.2869 18.824 25.2869 20.8074Z" fill="#F22F46"/>
</svg>
