<svg width="51" height="51" viewBox="0 0 51 51" fill="none" xmlns="http://www.w3.org/2000/svg">
<path d="M27.1017 8.13817L33.5662 10.1683C39.5033 12.027 42.8213 18.3852 40.9774 24.3802L36.2098 42.624L18.4097 36.3216C12.4618 34.4619 9.15163 28.1047 10.9985 22.1269L13.0091 15.6063C14.852 9.62247 21.1617 6.27849 27.1017 8.13817Z" fill="url(#paint0_linear_115_1615)"/>
<path fill-rule="evenodd" clip-rule="evenodd" d="M23.0929 19.8114C23.0248 19.85 22.9651 19.9024 22.9174 19.9656C22.87 20.0285 22.8345 20.1005 22.8138 20.1776C22.7931 20.2547 22.7882 20.3359 22.798 20.415C22.8079 20.4942 22.8335 20.5713 22.873 20.6403L25.2119 24.7441C25.2237 24.7634 25.2415 24.7776 25.2632 24.7837C25.2849 24.7898 25.3075 24.7868 25.3263 24.7766C25.3391 24.7695 25.3529 24.7654 25.3677 24.7654C25.3825 24.7654 25.3963 24.7695 25.4091 24.7766C25.4219 24.7837 25.4328 24.7939 25.4407 24.807C25.4481 24.8196 25.4525 24.8339 25.4535 24.8486C25.4545 24.8628 25.4555 24.871 25.4604 24.8821C25.4653 24.8933 25.4712 24.9024 25.4791 24.9105C25.487 24.9186 25.4969 24.9247 25.5067 24.9288C25.5166 24.9329 25.5284 24.9349 25.5393 24.9349L28.5024 24.8973C28.5829 24.9025 28.6636 24.8906 28.7395 24.8624C28.8154 24.8342 28.8849 24.7904 28.9438 24.7336C29.0026 24.6768 29.0495 24.6081 29.0816 24.532C29.1137 24.4558 29.1304 24.3737 29.1305 24.2906C29.1305 24.2075 29.1137 24.1253 29.0812 24.0492C29.0324 23.9346 28.9504 23.8382 28.8465 23.7732C28.7426 23.7082 28.6217 23.6777 28.5004 23.686H27.4266C27.0036 23.6964 26.5855 23.5914 26.2147 23.3816C25.844 23.1716 25.5334 22.8652 25.3145 22.4928L23.9054 20.0325C23.8233 19.8961 23.6937 19.7972 23.543 19.7559C23.3923 19.7146 23.232 19.734 23.0949 19.8103L23.0929 19.8114ZM28.6542 15.7612C28.6749 15.6469 28.7205 15.5389 28.7875 15.4453C28.8546 15.3516 28.9413 15.2748 29.0413 15.2206C29.1412 15.1663 29.2518 15.136 29.3648 15.132C29.4777 15.1279 29.5901 15.1502 29.6935 15.1972C31.2929 15.955 32.628 17.1979 33.5213 18.7583C34.0952 19.7634 34.4677 20.8766 34.6169 22.0322C34.7657 23.1878 34.6888 24.3627 34.3901 25.4868C34.0913 26.6109 33.5766 27.663 32.8765 28.5792C32.1763 29.4957 31.305 30.2587 30.3137 30.8234C28.3017 31.9964 25.924 32.315 23.6871 31.7113C21.4501 31.1075 19.5306 29.6292 18.3372 27.591C17.7634 26.5856 17.391 25.4723 17.242 24.3165C17.0929 23.1607 17.1703 21.986 17.4694 20.8614C17.7682 19.7368 18.2832 18.6852 18.984 17.7691C19.6846 16.8527 20.5559 16.0894 21.5468 15.5238C22.7166 14.8413 24.0224 14.4426 25.3647 14.3581C25.4781 14.352 25.5905 14.3723 25.6951 14.418C25.7994 14.4638 25.8919 14.5339 25.9652 14.6229C26.0392 14.7122 26.0915 14.8167 26.1191 14.9303C26.1467 15.044 26.1486 15.1616 26.124 15.2753C26.0814 15.4641 25.9803 15.6336 25.8358 15.758C25.6914 15.8825 25.5115 15.9552 25.3233 15.9652C24.2739 16.0548 23.2559 16.3778 22.3395 16.9118C21.5263 17.3743 20.8115 17.9999 20.2373 18.7515C19.6631 19.5031 19.2412 20.3656 18.9965 21.2879C18.7518 22.2101 18.6893 23.1735 18.8126 24.1211C18.936 25.0687 19.2427 25.9812 19.7147 26.8047C20.6909 28.4737 22.2616 29.684 24.0927 30.1791C25.9238 30.6742 27.8703 30.4125 29.518 29.4517C30.3314 28.9894 31.0465 28.364 31.621 27.6125C32.1955 26.861 32.6177 25.9986 32.8627 25.0763C33.1077 24.154 33.1705 23.1905 33.0473 22.2428C32.9242 21.2951 32.6177 20.3824 32.1458 19.5587C31.4383 18.3248 30.3934 17.3326 29.1413 16.7058C28.9709 16.6251 28.8308 16.4891 28.7427 16.3187C28.6545 16.1483 28.6231 15.9528 28.6532 15.7623L28.6542 15.7612Z" fill="white"/>
<path d="M23.2804 20.476C23.251 20.4236 23.2375 20.3634 23.2415 20.303C23.2455 20.2427 23.267 20.1849 23.3031 20.1371C23.3274 20.1056 23.3576 20.0794 23.3918 20.06L23.0901 19.5385C22.9885 19.5964 22.9007 19.6613 22.8288 19.7557C22.7569 19.8498 22.7039 19.9578 22.673 20.0732C22.6424 20.1879 22.6345 20.3096 22.6493 20.4283C22.6617 20.5518 22.6972 20.6717 22.7538 20.7814L23.2784 20.477L23.2804 20.476ZM25.6321 24.5799L23.2745 20.478L22.7548 20.7804L25.1125 24.8822L25.6321 24.5799ZM28.6603 24.5799L25.6972 24.6205V25.2221L28.6603 25.1846V24.5799ZM28.9511 24.2725C28.9512 24.3128 28.9435 24.3528 28.9285 24.3901C28.9134 24.4274 28.8913 24.4612 28.8634 24.4896C28.8072 24.5464 28.7313 24.5799 28.6524 24.5799V25.1846C28.8886 25.183 29.1146 25.0856 29.2815 24.9137C29.4481 24.7422 29.5418 24.5079 29.5418 24.2654L28.9521 24.2735L28.9511 24.2725ZM28.6445 23.9701C28.6839 23.9689 28.7231 23.9758 28.7599 23.9904C28.7963 24.0046 28.8308 24.0269 28.8585 24.0554C28.8867 24.0839 28.9094 24.1176 28.9255 24.1548C28.9413 24.1923 28.9502 24.2319 28.9502 24.2725H29.5398C29.5369 24.1517 29.5191 24.033 29.4718 23.9235C29.4243 23.8132 29.3563 23.7136 29.2716 23.6303C29.187 23.5468 29.0871 23.4814 28.9778 23.4379C28.8685 23.3943 28.7518 23.3735 28.6346 23.3766L28.6425 23.9701H28.6445ZM27.5717 23.9701H28.6445L28.6366 23.3766L27.5687 23.3817L27.5717 23.9701ZM23.8 20.1706L25.2081 22.6309L25.7277 22.3286L24.3187 19.8683L23.799 20.1706H23.8ZM23.3869 20.058C23.4559 20.0174 23.5387 20.0063 23.6156 20.0265C23.6929 20.0476 23.7591 20.0989 23.8 20.1696L24.3197 19.8673C24.1975 19.6577 24.0003 19.5058 23.7704 19.4442C23.5407 19.3823 23.2961 19.4148 23.0901 19.5355L23.3859 20.057L23.3869 20.058ZM25.3126 24.8386C25.3134 24.8901 25.3245 24.9408 25.3452 24.9877C25.3659 25.0344 25.3945 25.077 25.4309 25.1125C25.4674 25.148 25.5098 25.1754 25.5562 25.1947C25.6025 25.214 25.6528 25.2221 25.7031 25.2211V24.6195C25.7307 24.6184 25.7583 24.6235 25.784 24.6337C25.8098 24.6437 25.8333 24.6593 25.853 24.6793C25.8727 24.6996 25.8895 24.7229 25.9003 24.7483C25.9112 24.7737 25.9181 24.8021 25.9181 24.8305L25.3126 24.8386ZM27.5687 23.3817C27.1989 23.3878 26.8341 23.2934 26.5117 23.1088C26.1887 22.9235 25.9187 22.6541 25.7287 22.3276L25.2091 22.6299C25.4528 23.0495 25.7997 23.3955 26.2148 23.6331C26.63 23.8707 27.0987 23.9915 27.5736 23.9833L27.5687 23.3817ZM25.6321 25.0232C25.5999 25.0414 25.5637 25.0508 25.527 25.0506C25.4902 25.0505 25.4541 25.0407 25.4221 25.0222C25.3905 25.004 25.3629 24.9776 25.3442 24.9451C25.3254 24.9127 25.3136 24.8761 25.3126 24.8386H25.9102C25.9082 24.7705 25.8892 24.7041 25.8549 24.6458C25.8204 24.587 25.7721 24.5393 25.7139 24.5058C25.6562 24.4723 25.5909 24.4552 25.5246 24.4561C25.4584 24.457 25.3935 24.4756 25.3363 24.5099L25.6321 25.0232ZM25.1125 24.8822C25.1647 24.9705 25.2475 25.0334 25.3442 25.0598C25.4412 25.0864 25.5446 25.074 25.6321 25.0232L25.3333 24.4876C25.3826 24.4592 25.4408 24.451 25.495 24.4652C25.5493 24.4794 25.5966 24.516 25.6262 24.5647L25.1115 24.8802L25.1125 24.8822ZM33.8656 18.9592C32.9309 17.3288 31.5359 16.0298 29.8662 15.2348L29.5231 15.9622C31.0432 16.6887 32.3123 17.8742 33.1616 19.361L33.8656 18.9602V18.9592ZM30.5101 31.5722C31.5464 30.9817 32.4566 30.1843 33.1892 29.2255C34.2918 27.7825 34.9461 26.0311 35.0667 24.1998C35.1874 22.3684 34.7688 20.5422 33.8656 18.9592L33.1744 19.36C33.7226 20.3198 34.0776 21.382 34.2206 22.4848C34.3636 23.5876 34.2896 24.7087 34.0037 25.7821C33.7177 26.8555 33.2276 27.8589 32.5591 28.7335C31.8908 29.6085 31.059 30.3371 30.1127 30.8762L30.5101 31.5722ZM17.9912 28.1927C20.5224 32.6101 26.1281 34.1157 30.5101 31.5722L30.1127 30.8772C28.1919 31.9993 25.921 32.3047 23.7852 31.7285C21.6494 31.1522 19.8154 29.7389 18.6775 27.791L17.9912 28.1917V28.1927ZM21.3467 15.5797C20.3102 16.1697 19.3989 16.9673 18.6666 17.9254C17.9342 18.8832 17.3957 19.9823 17.083 21.1578C16.7703 22.3333 16.6895 23.5614 16.8454 24.7696C17.0012 25.978 17.3908 27.1419 17.9912 28.1927L18.6824 27.792C18.1341 26.8328 17.7783 25.7703 17.6362 24.6671C17.494 23.5642 17.5674 22.4431 17.8522 21.3698C18.1373 20.2965 18.6289 19.2929 19.2977 18.4185C19.9663 17.544 20.7981 16.8158 21.7441 16.2767L21.3467 15.5818V15.5797ZM25.3383 14.3582C23.9349 14.4486 22.57 14.8663 21.3467 15.5797L21.7441 16.2747C22.8593 15.6244 24.1037 15.2429 25.3826 15.1597L25.3383 14.3572V14.3582ZM22.5389 17.6606C23.4032 17.1573 24.3633 16.8527 25.3531 16.7678L25.288 15.9653C24.1805 16.059 23.1064 16.4004 22.1405 16.9656L22.5389 17.6606ZM20.057 26.9925C19.3887 25.8213 19.079 24.4701 19.1682 23.1152C19.2574 21.7602 19.7413 20.4643 20.5569 19.3965C21.0984 18.6876 21.7723 18.0974 22.5389 17.6606L22.1405 16.9656C20.8497 17.7003 19.8051 18.8183 19.1412 20.1738C18.4774 21.5292 18.2261 23.059 18.4201 24.5637C18.5493 25.5625 18.8715 26.5246 19.3677 27.3933L20.056 26.9925H20.057ZM29.317 29.4924C27.7614 30.4006 25.9223 30.6471 24.1925 30.1792C22.4631 29.7118 20.9794 28.5685 20.057 26.9925L19.3677 27.3933C20.3975 29.1554 22.0567 30.4337 23.9897 30.9557C25.9226 31.4777 27.9772 31.202 29.7153 30.1873L29.318 29.4924H29.317ZM31.8097 20.1605C32.2533 20.9381 32.5411 21.7991 32.6563 22.693C32.7714 23.5868 32.7116 24.4953 32.4802 25.3649C32.2488 26.2346 31.8506 27.0478 31.309 27.7567C30.7675 28.4655 30.0935 29.0557 29.3268 29.4924L29.7242 30.1873C30.581 29.6994 31.3341 29.04 31.9392 28.2478C32.5444 27.4557 32.9893 26.547 33.2477 25.5751C33.5061 24.6033 33.5728 23.5881 33.4439 22.5893C33.315 21.5905 32.993 20.6284 32.497 19.7597L31.8097 20.1605ZM28.964 17.4678C30.1489 18.0584 31.1386 18.9949 31.8097 20.1605L32.497 19.7597C31.7476 18.4566 30.643 17.4093 29.3189 16.7485L28.964 17.4678ZM25.3905 15.1607C25.4436 15.1596 25.4963 15.171 25.5443 15.1942C25.5927 15.2175 25.6351 15.252 25.6676 15.2946C25.7006 15.3374 25.7235 15.3874 25.7347 15.4407C25.7455 15.4945 25.7445 15.5493 25.7317 15.6021L26.5117 15.7542C26.5472 15.5797 26.5432 15.3981 26.4998 15.2257C26.4564 15.0532 26.3746 14.8929 26.2612 14.7569C26.1478 14.621 26.0048 14.5155 25.8451 14.4465C25.6853 14.3775 25.5118 14.347 25.3383 14.3582L25.3925 15.1607H25.3905ZM29.3199 16.7495C29.226 16.7079 29.1481 16.6355 29.0983 16.5435C29.0485 16.4516 29.0297 16.3453 29.0448 16.2412L28.2649 16.089C28.2165 16.367 28.2599 16.6521 28.3871 16.9027C28.5143 17.1533 28.7184 17.3512 28.9669 17.4688L29.3199 16.7495ZM25.7317 15.6021C25.7064 15.704 25.6487 15.7948 25.5691 15.8608C25.4894 15.9269 25.3912 15.9646 25.289 15.9683L25.354 16.7708C25.6282 16.7536 25.8895 16.646 26.0985 16.4634C26.3078 16.2807 26.4536 16.0328 26.5136 15.7573L25.7317 15.6021ZM29.8652 15.2358C29.7074 15.1617 29.5349 15.1252 29.3613 15.1303C29.1878 15.1354 29.0172 15.18 28.8624 15.2622C28.7078 15.344 28.5735 15.4613 28.47 15.6051C28.366 15.7486 28.2948 15.9143 28.2619 16.0901L29.0419 16.2422C29.0504 16.1889 29.0707 16.1383 29.1011 16.0943C29.1315 16.0503 29.1713 16.0139 29.2174 15.9881C29.2635 15.9623 29.3147 15.9476 29.3672 15.9453C29.4197 15.9429 29.472 15.9528 29.5201 15.9744L29.8652 15.2368V15.2358Z" fill="white"/>
<defs>
<linearGradient id="paint0_linear_115_1615" x1="54.9211" y1="-40.8995" x2="4.23665" y2="69.5499" gradientUnits="userSpaceOnUse">
<stop stop-color="#63F4FD"/>
<stop offset="0.68" stop-color="#8274FE"/>
<stop offset="0.88" stop-color="#7C2BFF"/>
</linearGradient>
</defs>
</svg>
