<svg width="51" height="51" viewBox="0 0 51 51" fill="none" xmlns="http://www.w3.org/2000/svg">
<g clip-path="url(#clip0_115_1614)">
<path d="M12.7135 20.8283C15.1345 20.8283 16.2765 21.2793 18.0282 23.0612L27.4341 32.6151C27.7121 32.899 27.7677 33.0118 27.8233 33.1809C27.8511 33.2373 27.8511 33.3218 27.8511 33.3782C27.8511 33.4346 27.8511 33.5212 27.8233 33.5776C27.7677 33.7467 27.7121 33.8594 27.4341 34.1413L21.0072 40.7012C20.7272 40.9831 20.616 41.0395 20.4492 41.0958C20.3935 41.124 20.3101 41.124 20.2545 41.124C20.1989 41.124 20.1155 41.124 20.0599 41.0958C19.8931 41.0395 19.7818 40.9831 19.5038 40.7012L1.27785 22.1854C0.749564 21.6478 0.944196 20.8283 1.83394 20.8283H12.7135ZM39.259 9.15221C36.838 9.15221 35.698 9.60524 33.9443 11.3851L24.5404 20.9411C24.2604 21.2229 24.2048 21.3357 24.1492 21.5068C24.1213 21.5632 24.1213 21.6478 24.1213 21.7042C24.1213 21.7605 24.1213 21.8451 24.1492 21.9015C24.2048 22.0706 24.2604 22.1854 24.5404 22.4673L30.9672 28.9969C31.2453 29.2808 31.3565 29.3372 31.5233 29.3936C31.579 29.4218 31.6624 29.4218 31.718 29.4218C31.7736 29.4218 31.857 29.4218 31.9126 29.3936C32.0794 29.3372 32.1926 29.2808 32.4707 28.9969L50.6946 10.4811C51.2249 9.9435 51.0303 9.12402 50.1385 9.12402H39.259V9.15221Z" fill="#08CF65"/>
</g>
<defs>
<clipPath id="clip0_115_1614">
<rect width="50" height="50" fill="white" transform="translate(0.986938 0.124023)"/>
</clipPath>
</defs>
</svg>
