<svg width="51" height="51" viewBox="0 0 51 51" fill="none" xmlns="http://www.w3.org/2000/svg">
<path d="M13.9358 38.5595C13.5202 38.5595 13.1172 38.3496 12.8938 37.9725L5.64811 25.7113C5.43321 25.348 5.43321 24.9005 5.64811 24.5372L15.2973 8.21105C15.5122 7.84778 15.9081 7.62402 16.3379 7.62402H35.6363C36.2032 7.62402 36.698 8.00939 36.8168 8.55221C36.9341 9.09366 36.6528 9.63924 36.1368 9.86438C36.0646 9.89753 34.4176 10.6779 32.5641 12.6379C31.4585 13.8064 30.4971 15.1614 29.7025 16.6656C28.9094 18.1684 28.2831 19.8245 27.8349 21.6063L31.1489 21.6035C31.1489 21.6035 31.1489 21.6035 31.1503 21.6035C31.8133 21.6035 32.3506 22.1284 32.352 22.7762C32.352 23.424 31.8148 23.9502 31.1517 23.9502L26.3476 23.953C26.3476 23.953 26.3476 23.953 26.3462 23.953C25.9885 23.953 25.6492 23.7969 25.4215 23.5275C25.1939 23.2582 25.0992 22.9032 25.1656 22.5607C25.6647 19.9874 26.489 17.6131 27.6158 15.5012C28.5234 13.7995 29.629 12.265 30.9014 10.9404C31.2436 10.584 31.5815 10.2608 31.9067 9.96936H17.0306L8.07561 25.1243L14.9764 36.7998C15.3086 37.3606 15.1107 38.0788 14.5367 38.4034C14.3472 38.5098 14.1408 38.5595 13.9358 38.5595Z" fill="#226DB4"/>
<path d="M35.6346 42.6241H16.3362C15.7693 42.6241 15.2744 42.2387 15.1557 41.6959C15.0383 41.1544 15.3197 40.6088 15.8357 40.3837C15.9036 40.3519 17.5521 39.5715 19.4084 37.6102C20.5126 36.4417 21.4754 35.0867 22.2699 33.5839C23.0631 32.0811 23.6894 30.425 24.139 28.6446H20.825C20.1619 28.6446 19.6233 28.1197 19.6233 27.4705C19.6233 26.8227 20.1605 26.2965 20.825 26.2965H25.6291C25.9868 26.2965 26.3261 26.4526 26.5537 26.7219C26.7814 26.9913 26.8761 27.3462 26.8082 27.6888C26.3091 30.2606 25.4849 32.635 24.3581 34.7455C23.4504 36.4472 22.3448 37.9817 21.0724 39.3063C20.7303 39.6627 20.3938 39.9859 20.0686 40.276H34.9404L43.8968 25.1238L37.0031 13.4579C36.6723 12.8971 36.8688 12.1789 37.4428 11.8543C38.0168 11.5297 38.752 11.7231 39.0843 12.2839L46.3258 24.5354C46.5407 24.8987 46.5407 25.3462 46.3258 25.7095L36.6766 42.0357C36.4602 42.4003 36.0644 42.6241 35.6346 42.6241Z" fill="#009849"/>
</svg>
