<?xml version="1.0" encoding="utf-8"?>
<!-- Generator: Adobe Illustrator 27.1.0, SVG Export Plug-In . SVG Version: 6.00 Build 0)  -->
<svg version="1.1" id="Layer_1" xmlns="http://www.w3.org/2000/svg" xmlns:xlink="http://www.w3.org/1999/xlink" x="0px" y="0px"
	 viewBox="0 0 1050 810" style="enable-background:new 0 0 1050 810;" xml:space="preserve">
<style type="text/css">
	.st0{fill:#12B76A;}
	.st1{fill:#191919;}
	.st2{fill:#1A1A1A;}
	.st3{fill:#222222;}
	.st4{fill:#252525;}
	.st5{fill:#FFFFFF;}
	.st6{fill:#F3F9FC;}
	.st7{fill:#FEFEFE;}
	.st8{fill:#FDFDFD;}
</style>
<g>
	<path class="st0" d="M97.3,784.8c-8.5,0-17.8,4.3-24.5-4.7c-2.2-35.4-1.6-70.8-0.3-106.2c0.2-27.2,0.5-54.3,0.7-81.5
		c2.6-33.3,0.4-66.7,1.1-100.1c0.4-9.3-0.9-18.7,0.8-27.9c2.1-8.1-2.3-17,3.2-24.7c33.6-1.9,67.2-1.7,100.8-0.2
		c9,0.2,18,0.5,27.1,0.7c9.9,3.1,20.4-0.7,30.3,2.2c1.6,0.2,3.3,0.3,4.9,0.5c3.5,19.3,0.7,38.7,1.5,58.1c0.4,11.3,0.1,22.6,0.1,34
		c-0.5,21.9,1.1,43.8-0.9,65.6c-0.3,18.1-0.5,36.2-0.8,54.4c-2.4,17.5-0.4,35.1-1,52.6c-0.6,24.2,1.3,48.5-1,72.7
		c-2.8,4.5-7.3,1.8-11,2.8c-2.9,1.2-5.7,3.2-8.9,3.2c-31.2,0-62.5,2.3-93.6-1.3C116.2,783.8,106.8,783.8,97.3,784.8z"/>
	<path class="st1" d="M594.7,230.8c19.4,39.4,50.8,67.6,85.9,92.7c13.9,9.9,27.4,20.5,40.3,33.9c-33.9,21.1-71.5,24.3-109.1,28
		c-14.9-5.8-25.3-16.3-32.2-30.6c-7.2-11.4-16.8-21.1-22-33.8c3.5-9.5,13.1-12,20.2-17.3c21-15.8,20.6-18.3-2.4-31
		c-9.3-5.2-20.4-4.2-29.1-10.4c-5.8-8.8-2.8-18.6-3.6-28c-0.6-8.2,1.8-16.6-1.8-24.5c-15.6-11.5-16.1-11.7-9.1-30.2
		c2.9-7.8-0.5-12.7-3.9-18.6c-1.9-3.3-8.9-7.8,0.7-10.7c16,0.6,32.1-1.1,48,1c84.9,1.4,165.1,22.8,242,57.8
		c4.7,2.1,16.2,1.1,11.1,12.8c1.4,1.1,1.3,2.1-0.3,3c-7.6,8.6-10,19.7-14.5,29.8c-3.6,8.2-7.6,9.8-16.5,6.9
		c-37.8-12.3-75.9-23.8-114.6-33.2c-3-0.7-6.2-0.5-9.4-0.7c-10-2.4-20.1-0.6-30.1-1.2c-8.4,0-16.8,0-25.1,0
		c-6.6,0-13.1-0.1-19.7,0.1C596.7,226.5,594.1,227,594.7,230.8z"/>
	<path class="st1" d="M457,459.3c-4,3.9-3.1,9-3,13.8c0.5,29.9-4.7,59.6-2.8,89.6c0.1,2.2,0.1,4.5-2.5,5.6
		c-16.5,1.3-32.9,1.6-49.3-0.1c-14.6-3.2-8.8-16.9-9.8-24.3c-4.6-32.5-10.1-65.2-9.4-98.3c-1.6-16.4-1.6-32.8,0-49.2
		c-0.9-20.7,8.7-26.5,30.6-31.9c27.3-6.7,55.1-10.5,83.4-12.1c15.6-0.9,31.2-1.3,46.8-2.5c9.1-1.2,18.2-2.2,27.2,0.6
		c2.7,2.7,5.3,5.4,8,8.1c13.6,7.7,22.5,21.1,35.7,29.4c4.6,0.6,8.5,3.8,13.6,3.3c9.2-0.9,3.6,4.7,3.1,8c1.3,3,1.8,5.9,0.6,9.2
		c-6.9,19.2-50.7,43.9-71.8,40.4c-20.6,3.9-41.1,9.1-62.4,7.9C482.5,460,469.4,454.9,457,459.3z"/>
	<path class="st0" d="M487,630.1c0.8,0,1.5,0.2,2.2,0.7c3.4,23.4,0.5,46.8,1.5,70.2c-0.6,19.1,1.3,38.3-1,57.4
		c-0.1,3.6-0.6,7.2-0.2,10.7c1.4,12.4-3.3,18.6-16.3,16.8c-36.9,2.3-73.9,0.6-110.8,0.9c-13.9,0.1-27.9,1.4-41.8-1
		c-5.4-2-13.5,3.8-16.4-5.6c-2.4-11-0.4-22.1-1.1-33.2c0-26,0-52,0-77.9c0.6-12-1.2-24.1,1-36c3.6-5.2,8.9-2.1,13.5-3
		c36.6-2.1,73.3-0.7,109.9-0.8C447.2,629.2,467.1,627.9,487,630.1z"/>
	<path class="st0" d="M1041.5,237.7c-1.4,4.3-2.7,8.6-4.4,12.8c-20.6,53.3-44.5,105-73.6,154.1c-14,23.6-14.6,23.6-38.6,9.4
		c-27.3-16.2-53.3-34.2-78.2-54c-7.6-6.1-9.3-11.9-5.5-20.9c19.7-47.2,42.2-93.1,66.7-138c5.1-9.3,12.2-10.4,20.4-8.3
		c34.6,8.8,68.9,18.8,101.8,33C1035.2,228.1,1041.6,230,1041.5,237.7z"/>
	<path class="st1" d="M630.9,402.2c1.8,0.2,3.3-4.6,5.5,0.9c10,24.4,22,48,31.2,72.7c11.8,32.1,36.9,51.6,62.4,71.2
		c18.4,14.2,36.2,29.1,54.4,43.5c3.5,2.7,4.6,4.8,1.6,8.7c-8.3,10.9-17,21.6-24.1,33.3c-3.6,6-6.5,4.6-10.6,2.4
		c-44.1-24.1-87.6-49.9-125-82.9c-28.8-25.5-48.3-60.7-70.1-93c-3.3-4.9,1-4.9,3.8-5.9c5.9-4.6,13.2-5.5,19.8-8.1
		C601.5,436.5,621.2,425.3,630.9,402.2z"/>
	<path class="st0" d="M707.4,695.3c6.2-0.3,7.6,3.5,7.6,8.7c-0.1,9.9-0.1,19.9-0.1,29.8c-3,10,0.6,20.4-2,30.4
		c-1.1,7.1,1.8,14.8-3.3,21.3c-3.7,2.5-7.9,1.4-11.9,1.4c-43.5,0.1-87.1,0.1-130.6,0c-3.9,0-8.2,1.3-11.8-1.5
		c-0.4-1.6-0.7-3.2-1.1-4.8c-1.4-23.8-1.3-47.6,0-71.5c-0.5-8.5,0.8-12.5,11.9-13.9c32.5-3.9,64.9-1.2,97.3-1.9
		C677.9,696.3,692.8,692.8,707.4,695.3z"/>
	<path class="st1" d="M410,254.8c-23.5,2.7-47.1,4-70.6,6.1c-23.4,2-36.2-9.9-46.1-27.8c-19.1-34.6-30.2-72.3-40.3-110.3
		c-1.2-4.5,0-6.9,5-6.8c3.6,0.1,7.4,0.7,10.8-0.1c9.4-2.3,20.4-9.7,27.8-3.8c6.7,5.2,7.7,17.3,11.9,26c7.3,14.8,15.1,29.3,22.9,43.9
		c6.6,12.5,18.2,12.3,29.2,9.4c16.6-4.3,32.9-10.1,49.3-15.2c3.4,3.1,1.9,6.7,0.6,9.9c-2.2,5.2-1.1,9.5,2.3,13.7
		c5.8,7,6.6,15.2,2.1,22.6C408.7,232.8,414.3,244.5,410,254.8z"/>
	<path class="st0" d="M155,121.7c-0.1,8.2-0.8,16.4-0.2,24.4c0.8,10.4-1.2,13.8-12.2,9C101.4,137.6,60.7,119,21.9,96.4
		c-5-2.9-13-5.6-12.6-11.1c0.4-6.3,8.9-7.8,14.5-10.4c41.6-19.1,85.2-32.7,128-48.7c4-0.2,4.1,2.7,4,5.4
		C155.4,61.6,157.1,91.7,155,121.7z"/>
	<path class="st0" d="M457.1,197.5c-1.4-2-2.7-4-4.1-6.1c-2.7-7.5,3.2-11.3,7.5-14.8c4.3-3.5,7.4,1.3,10,4.1
		c3.3,3.5,8.3,5.9,8.6,11.6c-8.5,7.3-8.3,16-4.3,25.5c9.5,22.6,23.8,39.9,48.7,46.1c8.8,2.4,18,1.6,26.9,1.7
		c14.5,0.1,25.5,7.7,37.1,14.4c6.5,3.8,7.6,8.9,1.4,13.9c-12.5,10.3-22.8,25.1-42.4,21.4c-48.2-8.6-78.7-38.2-87.4-84.7
		C456.2,219.7,459.8,208.4,457.1,197.5z"/>
	<path class="st2" d="M415.4,178.7c2.9-5.5,5.4-11.3,8.8-16.5c1.7-2.6,3.7-8.8,8.5-2.5c1.1,9.1,1.7,18.3,0,27.4
		c-2.3,28.9,5.3,56.4,11.3,84.2c5,23.4,14.4,45.4,21.2,68.2c1,3.5,6.7,8.3-1.3,10.8c-5.8,1.8-9-0.9-11.5-6.2
		c-13.8-29-26.3-58.6-37-88.9c-7-9.3-7.3-18.9-2.2-29.2c4.6-9.4,5.9-18.1-2.5-27.3C404,191.4,409.5,184.3,415.4,178.7z"/>
	<path class="st3" d="M524.8,796.1c43.5,0.2,87,0.5,130.4,0.7c27,2.3,54,0.6,80.9,1c21.2,0.3,42.3,0.1,63.5,0.1
		c41.8,0,83.6,0,125.5,0c4.4,0,9-0.9,13.3,1c1.9,1.1,2.1,2.2,0.1,3.4c-34.5,2.1-69,0.4-103.6,0.9c-36.4-0.5-72.7,1-109.1-0.8
		c-39-0.3-77.9-0.6-116.9-0.9c-31.4-2.4-62.9-0.4-94.4-1c-11.3-0.2-22.5,0-33.8,0c-45.3,0-90.5,0-135.8,0c-51.4,0-102.7,0-154.1,0
		c-4.9,0-9.9,0.9-14.7-0.9c-52.7-0.1-105.4-0.1-158-0.5c-2.9,0-11.3,4.4-7.9-5.7c5.5-0.9,11-1.1,16.6-1.1c11.6,0.1,20.1,0,22.1,0.1
		c4.8,0.3,8.2,0.6,9.6,0.7c15,1.4,30.3,0.6,56.6,0.4c17-0.2,30.4,0,39.9,0.1c15.2,0.2,26.3,0.5,30.5,0.6c32.4,0.8,72.1,0.9,94.6,0.9
		c109.3,0.1,142.7,0,229.8,0.1C515,795.2,520,794.2,524.8,796.1z"/>
	<path class="st2" d="M499.9,172.8c0.1-5.8,0-11.6,0.2-17.5c0.1-4.3-1.6-9.5,4.1-11.6c4.5-1.6,7.4,1.9,10.3,4.7
		c1.2,1.2,2.8,2.2,4.1,3.3c17.1,14,18.3,16.6,10.6,35.7c-3.2,8-4.2,13.3,5.2,16.8c13.1,4.8,8.9,15.7,8.5,25.3c-3,11.1,2,23.2-3.9,34
		c-4.2,3-8.8,2.5-13.5,1.3c-12.7-17.5-16.5-38.5-22.1-58.6c-2.6-9.4-3.9-19.3-5-29.2C498.6,175.5,499.1,174.1,499.9,172.8z"/>
	<path class="st1" d="M801.5,599.6c19.8-4.5,17.8,11.9,18.9,20.8c4.1,32.1,15.5,61.4,29,90.3c1.8,4,8.1,9,2.7,12.7
		c-5.2,3.6-12.5,1.3-17.4-3.1c-15.4-13.9-28.1-30.3-41.9-45.6c-17.7-19.5-17.3-38.3-8.7-61.3C788.1,602.9,789.4,595.4,801.5,599.6z"
		/>
	<path class="st3" d="M165.8,7.6c11.6,5,2.4,14.5,4.7,21.5c-2.3,17.3-0.4,34.7-1,52.1c0,14.4,0,28.8,0,43.2
		c-0.5,13.6,1,27.3-0.8,40.9c-0.3,13.6-0.7,27.1-1,40.7c-1.9,12-0.4,24.1-0.9,36.1c0,11.6,0,23.2,0,34.9c-0.6,12.7,1.2,25.4-0.9,38
		c-0.2,11.7-0.5,23.4-0.7,35.2c-2.4,19.2-0.3,38.6-1.1,57.8c-0.2,5.3,1.1,10.8-1.1,16c-0.2,3.5-0.4,7-0.5,10.6
		c-0.6,1.1-1.4,1.2-2.4,0.4l0.2-0.7c-3.4-19.7-0.7-39.5-1.5-59.2c0-16.3,0-32.6,0-49c0.5-12.8-1-25.7,0.8-38.5
		c0.3-10.8,0.6-21.7,0.9-32.5c2.3-11,0.4-22.2,1-33.3c0-9.8,0-19.6,0-29.5c0.5-10-1-20,0.8-29.9c0.3-10.8,0.6-21.7,0.9-32.5
		c2.1-12,0.4-24.2,1-36.3c0-14.3,0-28.5,0-42.8C165.2,36.4,162,21.9,165.8,7.6z"/>
	<path class="st4" d="M358.6,617.3c-7.7-0.1-15.3-0.2-23-0.4c-4.4-0.1-10.2,1.2-11.6-4.1c-1.7-6.1,4.3-8.4,8.6-10.3
		c16.8-7.2,34-13.6,50.6-21.1c12.9-5.9,25.2-5.4,38.3-1.1c5.3,1.7,12.5,2.5,17.1,0.2c12.2-5.9,15.1,3,14.7,10.1
		c-0.5,8.9,8,21.5-7.4,26.5c-12.8,2.2-25.6,0.4-38.4,1C391.3,617.7,374.9,619.2,358.6,617.3z"/>
	<path class="st5" d="M524.8,262.8c4.4-0.1,8.8-0.2,13.2-0.3c4.3-11.4-0.4-23.4,2.5-34.8c2.5-11.7-0.1-20.5-12.8-24.3
		c-4-1.2-8-3.6-4.3-8.7c11.4-15.8,8.6-29.9-4.8-42.8c1.4-0.2,2.8-0.3,4.2-0.5c0.9-0.8,1.7-0.7,2.4,0.3c1.2,1.8,2.1,3.9,3.6,5.4
		c8.1,8.3,12.5,16.9,4.2,27.8c-10.4,13.7,2.3,16.7,10.4,21.7c3.5,8.4,0.7,17.3,1.6,25.9c0,7.2,0,14.3,0,21.5c0,3.7-0.1,7.3,4.4,8.7
		c18.7-1.1,32.3,10.6,47.2,19c4.6,2.6,4.5,4.6,0.4,9c-11.4,12.5-25.6,21.1-39.4,30.2c-2.1-5.1-8.4-1.8-11.1-5.7
		c20.5-1,31.6-16.6,46.3-28.4c-16.9-11.3-32.4-21.6-53.1-18.2c-5.8,0.9-12.6,1.4-18.2-2.6C522,264.3,523.1,263.2,524.8,262.8z"/>
	<path class="st1" d="M499.9,172.8c0.1,1,0.2,1.9,0.3,2.9c-1.1,6.4-5.1,11.2-9.7,15.2c-4,3.5-8.7,6.4-13.2,0.2
		c-0.9-1-1.8-1.9-2.7-2.9c-12.9-13.6-12.9-13.6-21.7,3.1c-8.9,2.7-11.2-4.8-15-9.9c0.6-1.1,1.5-1.2,2.5-0.5c5.8,3.9,10,3.7,14.2-3
		c4.6-7.3-1.9-8.1-5-11.3c-3.2-3.3-8.4-5.1-9.6-15.4c23.5,30.8,37.1,3.2,56.7-7.1c-6.8,12.8-15.9,17.8-24.1,23.3
		c-5.7,3.9-6.7,7.1-0.9,10.7c4.4,2.7,6.1,14.8,14.9,4.7C490.3,178.8,492.6,172.3,499.9,172.8z"/>
	<path class="st3" d="M524.8,796.1c-81.5,0-163,0-244.5-0.1c-1-0.1-1.4-0.2-1.3-0.5c0.1-0.3,0.3-0.5,0.6-0.5c79.7,0,159.3,0,239,0.1
		C520.6,795.2,522.7,795.8,524.8,796.1z"/>
	<path class="st1" d="M486.8,100.2c0,4.8,0,9.6,0,14.4c-5-15.5-1.9-31.5-5-47.3c-1.5-7.4,6.2-14.1,16.9-14.8
		c-8.6-10.9-20.9-8.7-30.7-12.4c-3.4-1.3-9.3,1.5-9.7-4c-0.3-4.6,5.7-4.8,9-6.8c1.7-1,4.7,0.4,5.2-2.8c2.7-1.6,5.2-2.8,5.8,1.9
		c-2.5,1.7-4.9,3.4-8.4,5.8c11.6,4.9,24,5.3,33.5,12.9c2.2,1.8,6.8,1.7,5.5,6c-0.9,2.9-4.2,3.4-6.9,3.2c-5.3-0.4-9.5,1.4-13,5.3
		C485.9,74.4,489.9,87.5,486.8,100.2z"/>
	<path class="st1" d="M418.5,62c-6.5-5.7-15.8-8.6-18.7-18c-0.7-2.1-1.2-4.6,0.9-6.2c1.6-1.1,3.8-0.7,4.1,1.5
		c2.3,17.1,16.6,16.5,28.4,18.9c6,1.2,10.1,1.2,10.6,9.6c0.5,8.4,4.7,14.6,16.4,13.3c14.8-1.7,8.4,11.2,10.2,18.4
		c1,3.1-0.4,3.8-3.2,3.2c-4.3-0.1-7.9,5.1-12.8,1.7c1.1-5,7.8-4.9,9.1-10.1c0.7-2.8,1.6-5.4,0-7.6c-1.6-2.3-4.6-3.7-7.1-1.5
		c-10.9,9.5-14.4-2.2-14.9-7.3c-1.6-16-11.3-17.2-23.5-16.1L418.5,62z"/>
	<path class="st3" d="M105.5,799.1c56.2,0,112.4,0.1,168.6,0.1c1,0.1,1.4,0.3,1.2,0.6c-0.2,0.3-0.5,0.4-0.7,0.4
		c-52.9,0-105.8,0.1-158.7,0.1C112.2,800.3,108.4,800.5,105.5,799.1z"/>
	<path class="st0" d="M487,630.1c-56.5,0-113,0-169.5,0c8.6-4.2,17.7-1.9,26.6-2c42.9-0.4,85.7-0.3,128.6-0.1
		C477.4,628,482.6,626.6,487,630.1z"/>
	<path class="st5" d="M630.9,402.2c0.4,14.8-11,22-20.5,29.5c-14.7,11.6-32,18.1-50.5,21.3c-0.9-1.5-1.7-2.9-2.6-4.4
		c19.1-4.8,37.6-11.1,53.3-23.4c8.6-6.8,15.9-14.6,17.9-26.1C629.3,400.2,630.1,401.2,630.9,402.2z"/>
	<path class="st0" d="M555.2,785.3c51.4,0.1,102.9,0.1,154.3,0.2c-7.3,5.4-15.7,2.3-23.5,2.4c-38.5,0.5-77,0.5-115.5,0.2
		C565.5,788.1,559.5,790.3,555.2,785.3z"/>
	<path class="st5" d="M415.4,178.7c-5,9.3-7,17.5,2.5,26.2c4.5,4.1,2.2,12.3-0.7,17.4c-6.5,10.9-5.7,21.6-1.8,32.7
		c-1.8-0.1-3.5-0.2-5.3-0.2c-3.7-12.1-3.9-23.7,2.6-35.2c3.6-6.3,3.3-12.4-3.2-17.6c-10.8-8.6,0.7-17.1,0.6-25.7
		C411.8,177.1,413.6,177.9,415.4,178.7z"/>
	<path class="st3" d="M800,798.5c-46.2,0.2-92.4,0.4-138.6,0.5c-2,0-4.1-1.5-6.1-2.2c48,0,96.1-0.1,144.1-0.1l1.2,0.6
		C800.6,797.3,800,798.5,800,798.5z"/>
	<path class="st1" d="M425.5,113.8c-0.9,1-1.6,2.5-2.7,3c-4.9,2-9.1,4.9-6.5,10.7c2.3,5.3,8,5.6,12.9,4.7c6.8-1.3,13.3-3.6,20.8-4.7
		c-7.7,5.8-1.6,15.2-7.3,23.1c0.1-16.5-7.5-15.9-19.1-13.2c-8.2,1.9-11.3-7.5-12.9-14.1c-2-8,4.9-8.7,10.5-9.8
		C422.6,112.5,424.1,112.6,425.5,113.8z"/>
	<path class="st1" d="M260.9,111.3c-11.2-14.8-5.6-44.4,8.2-51c3.3-1.6,6.8-2,7.7,1.9c0.9,3.7,1.4,9.6-0.7,11.5
		c-4.3,4-4.2-1.3-4.8-4c-0.4-1.7-1.8-2.2-2.7-1.2c-3.2,3.5-7.9,6-7.8,11.9C261,90.2,260.9,100.1,260.9,111.3z"/>
	<path class="st3" d="M800,798.5c-0.2-0.6-0.4-1.2-0.6-1.8c43.5-0.1,87-0.2,130.5-0.2c3,0,6.5-1,8.6,2.4
		C892.3,798.7,846.2,798.6,800,798.5z"/>
	<path class="st1" d="M425.5,113.8c-4.6-1.8-8.5-3.4-11.6-4.7c-3.3-1.4-4.7-2-6.4-3.3c-3.1-2.4-4.7-5.4-5.6-7.4c0,0,0,0,0,0
		c-1.5-1.4-1.6-3.7-1.6-4.5c-0.1-3.2,2.7-7.3,3.6-8.7c4.8-7.3,3-6.7,8.2-14.5c1.6-2.4,3.7-5.4,6.4-8.7c0,0-0.1-0.1-0.1-0.1
		c-0.1-0.1-0.1-0.1-0.1-0.1c-1.2,7.6-3.6,13-5.5,16.5c-4.2,7.8-8.8,11.1-7.8,16.5c0.7,3.9,4.1,6.8,4.7,7.3c1.5,1.3,3.5,2.1,7.4,3.6
		c4.6,1.8,6.1,1.7,7.1,1.5c1.5-0.4,2.2-1.1,2.7-0.7C427.5,106.9,427.6,108.5,425.5,113.8z"/>
	<path class="st0" d="M225.4,785.6c-33.6,0-67.1,0-100.7,0c-9.1-0.3-18.2-0.5-27.3-0.8c2-2.4,4.8-2.2,7.5-2.2
		c41.1,0.1,82.3,0.2,123.4,0.3C227.3,783.9,226.3,784.7,225.4,785.6z"/>
	<path class="st1" d="M290.1,102.3c5.9-6.2,10.5-11.1,16.1-17c-6.7-2.4-12.4-4.4-18-6.4c9.3-3.4,18.7-5.9,24,4.4
		C314.8,88.6,300.8,101,290.1,102.3z"/>
	<path class="st0" d="M160.1,434.9c0.8-0.2,1.6-0.3,2.4-0.4c4.3,5.8,12.1,0.1,16.7,5.1c-33.6,0.1-67.2,0.1-100.8,0.2
		c17-5.1,34.4-1.5,51.6-2.6C140,436.5,150.4,440.1,160.1,434.9z"/>
	<path class="st0" d="M155,121.7c0-27.3,0-54.6-0.2-81.9c0-4.6,2.1-10-2.9-13.7c2-1.7,5-2,5,0.8C156.7,58.6,159.8,90.2,155,121.7z"
		/>
	<path class="st0" d="M75.5,491.6c0,30.7,0,61.4,0,92.1c0,3.1,0.3,6.4-2.3,8.8c0.1-33.4,0.1-66.9,0.2-100.3
		C73.8,490.6,74.5,490.5,75.5,491.6z"/>
	<path class="st2" d="M506.6,343.3c-13.6-13-16-31.2-25.1-46.2c-0.4-0.7,0.3-2.8,1.1-3.4c1.7-1.2,3.4-0.4,4.2,1.5
		C493.4,311.3,500,327.3,506.6,343.3z"/>
	<path class="st1" d="M829.4,224.8c0.1-1,0.2-2,0.3-3c10.1,2,20.1,4,30.2,6c2.4-0.5,3.2,0.5,2.3,2.7c2.3,5.1,11.1,7.2,6.6,16.9
		C860.1,231.2,842.8,231.6,829.4,224.8z"/>
	<path class="st0" d="M242.2,535.4c-0.2-30.8-0.5-61.7-0.7-92.5c4.6,2.7,2.9,7.2,2.9,11c0.1,27.1,0,54.2,0,81.2
		C243.8,536.3,243.1,536.4,242.2,535.4z"/>
	<path class="st5" d="M611.8,387.9c-15.4-5.6-25.4-17.6-35.7-29.4c1.2-1.3,2.3-2.5,3.5-3.8c10.7,10.2,21.5,20.4,32.2,30.6
		C611.9,386.2,611.9,387,611.8,387.9z"/>
	<path class="st1" d="M467.3,102.7c1.1-1.1,2.1-2.2,3.2-3.2c8.4,12.8,14.4,26.8,19.6,41.2C479.1,130,474.5,115.6,467.3,102.7z"/>
	<path class="st0" d="M303.9,668.2c0,26.5,0.1,52.9,0.1,79.4c-0.9,1.1-1.7,0.9-2.1-0.4c-0.1-26.2-0.1-52.3-0.2-78.5
		C302.3,667.5,303,667.4,303.9,668.2z"/>
	<path class="st0" d="M239.3,780.2c0-24.4,0-48.8,0-73.2c0.4-1.4,1.2-1.5,2.2-0.5C241.2,731.1,243.9,755.7,239.3,780.2z"/>
	<path class="st0" d="M554.1,709c0,23.8,0,47.6,0,71.5C550,756.6,550.5,732.8,554.1,709z"/>
	<path class="st0" d="M489.7,701.5c-0.2-23.6-0.4-47.1-0.6-70.7c5.8,5.1,2.6,11.8,2.8,17.7c0.4,17.5,0,35.1-0.1,52.6
		C491.4,702.2,490.7,702.4,489.7,701.5z"/>
	<path class="st1" d="M855,299.7c-13.1,3.2-17.2-3.5-21.2-9c-4.3-5.9,1.4-9.3,6.7-17C838.4,287.4,843.3,294,855,299.7z"/>
	<path class="st0" d="M242.2,535.4c0.7-0.1,1.4-0.2,2.1-0.3c-1.1,21.8,2.9,43.7-2.2,65.4C242.2,578.8,242.2,557.1,242.2,535.4z"/>
	<path class="st1" d="M454.2,23.4c-13.9-0.6-27.9,2.3-41.6-1.9c12.5-4.7,25.8,0.7,38.4-2.9c6.7-0.9,13.4-1.4,19.7,2
		C465.9,25.7,459.2,19.9,454.2,23.4z"/>
	<path class="st1" d="M862.1,230.6c-0.8-0.9-1.5-1.8-2.3-2.7c11.2-8,18.9-1.1,28.2,6.7C877.6,238,870.8,227.5,862.1,230.6z"/>
	<path class="st0" d="M489.7,701.5c0.7-0.2,1.4-0.3,2.1-0.5c-0.4,19.1,2.4,38.4-2.2,57.4C489.7,739.5,489.7,720.5,489.7,701.5z"/>
	<path class="st1" d="M525.3,151.6c-0.8,0.1-1.6,0-2.4-0.3c17.9-4.1,35.8-4,53.7-0.1C559.5,151.4,542.4,151.5,525.3,151.6z"/>
	<path class="st0" d="M241.5,706.5c-0.7,0.2-1.4,0.3-2.2,0.5c0.6-17.4-3-34.9,2-52.1C241.4,672.1,241.4,689.3,241.5,706.5z"/>
	<path class="st1" d="M454.2,23.4c4.7-5.9,11.3-0.3,16.5-2.8c3.2,2.1,14.8-4,7.7,8c-1.5-1.9-3.6-2.1-5.8-1.9
		C466.4,25.5,460.3,24.5,454.2,23.4z"/>
	<path class="st1" d="M837.1,265.1c6.4,3.4,12.8,6.7,21.1,11.1c-11.1,1.5-18.4-0.3-23.3-7.4C835.6,267.6,836.4,266.4,837.1,265.1z"
		/>
	<path class="st0" d="M707.4,695.3c-14.7,0-29.5,2.7-44-2C678.1,693.3,692.9,690.9,707.4,695.3z"/>
	<path class="st1" d="M451,18.6c-12.5,5-25.7,0.7-38.4,2.9c-0.4-0.6-0.8-1.2-1.3-1.8c1.6-0.5,3.2-1.3,4.8-1.3
		C427.8,18.3,439.4,18.5,451,18.6z"/>
	<path class="st1" d="M831.8,278.1c-7.4-3.4-12.2-8.7-14.4-19.2C827.4,263.6,827.4,272.5,831.8,278.1z"/>
	<path class="st1" d="M279.3,75.7c5-6.6,3.2-12.2,0.7-18.3c6.1,0.2,7.8,4,8.1,8.9C288.3,70.8,287.7,75.2,279.3,75.7z"/>
	<path class="st1" d="M486.8,100.2c1.8-12.8-3.6-25.9,2.2-38.5C487.4,74.5,492.8,87.7,486.8,100.2z"/>
	<path class="st3" d="M163.9,94.6c0.7-0.1,1.3-0.3,2-0.5c-0.6,11.9,2.9,24-1.9,35.7C163.9,118.1,163.9,106.4,163.9,94.6z"/>
	<path class="st0" d="M303.9,668.2c-0.7,0.2-1.4,0.3-2.1,0.4c0.3-11.9-2.4-24,2.2-35.6C304,644.8,303.9,656.5,303.9,668.2z"/>
	<path class="st2" d="M440.4,181c-0.8,0.5-1.6,0.7-2.5,0.5c-1.8,1.8-3.5,3.7-5.3,5.5c0-9.1,0-18.3,0-27.4
		C438.2,165.7,430.9,176.4,440.4,181z"/>
	<path class="st0" d="M301.9,747.2c0.7,0.1,1.4,0.3,2.1,0.4c0,10.9,0,21.7,0,32.6C299.4,769.5,301.9,758.3,301.9,747.2z"/>
	<path class="st0" d="M457.1,197.5c5.1,10.8,1,22.1,2,33.1C453.9,219.8,457.6,208.5,457.1,197.5z"/>
	<path class="st0" d="M712.9,764.2c0-10.2-2.5-20.5,2-30.4C715,744,717,754.3,712.9,764.2z"/>
	<path class="st0" d="M236.5,442.4c-10.1-0.2-20.5,2.4-30.3-2.2C216.4,440.2,226.7,438,236.5,442.4z"/>
	<path class="st0" d="M75.5,491.6c-0.7,0.2-1.4,0.4-2.1,0.6c0.2-9.2-2.6-18.7,1.7-27.7C75.3,473.5,75.4,482.5,75.5,491.6z"/>
	<path class="st1" d="M549.4,262.7c-5.1,0.7-6-2.2-5.8-6.4c0.4-7.5,0.6-15.1,0.9-22.7c0.2-1.6,0.8-1.7,1.8-0.5
		C548.5,242.9,543.4,253.4,549.4,262.7z"/>
	<path class="st1" d="M546.4,233.2c-0.6,0.2-1.2,0.3-1.8,0.5c-0.4-9-0.7-18.1-1.1-27.1C550.3,214.8,545.3,224.3,546.4,233.2z"/>
	<path class="st6" d="M893.7,377.5c-1.8-7.8,2.4-12.3,4.9-17.4c2.6-5.4,6.7-10.2-1.5-14.4c-2.8-1.4-2.9-4.4-1.4-7.1
		c1.4-2.5,3.4-4.6,6.6-3.1c7.1,3.4,9.6-0.9,12.1-6.3c9.6-21,19.4-41.8,29.1-62.7c2.2-4.7,4.2-8.8-2.8-12c-6-2.7-4.3-9.9,0.3-9.5
		c14.9,1.5,14.5-10.4,18.9-18.3c2.1-3.8,1.9-9,7.8-11.2c0.2,9.3-3.6,16.9-7.6,24.2c-3,5.4-4.4,8.6,3.2,10.7c3.6,1,8.3,3.2,6.5,8.6
		c-2,5.9-7.1,5.3-11.3,3.4c-6.3-2.8-7.7,0.9-9.8,5.4c-10,21.8-20.1,43.5-30.5,65.1c-2.5,5.1-3.7,8.9,2.6,12c3.6,1.8,5.1,5,2.9,9.1
		c-1.7,3.2-3.9,5.3-7.5,2.9c-8.1-5.4-10.8,0.1-13.8,6.2C899.9,367.9,896.6,372.6,893.7,377.5z"/>
	<path class="st7" d="M477.3,191.2c6.3,3.5,10.2,0,13.2-4.8c2.6-4.2,5.2-8.2,9.7-10.6c6.9,22.9,9.6,47,18.8,69.4
		c2.3,5.6,6.2,11.1,5.8,17.7c-1.1,1.1-2.2,2.2-3.3,3.3c-25.3-5.9-51.3-35-53.7-60.2C467.1,198.5,471.3,194.2,477.3,191.2z"/>
	<path class="st1" d="M540.5,227.6c-0.5,11.6,3.5,23.6-2.5,34.8C539.8,250.9,535.7,239,540.5,227.6z"/>
	<path class="st7" d="M848.2,717.6c-5.3,2.8-7.5-0.1-10.3-2.5c-21.7-19.3-39.4-41.9-55.4-66c-1.3-1.9-3.2-3.4-1.4-5.8
		c7.1-9.3,7.8-20.8,9.5-31.5c1.4-8.8,6.4-6.7,11.4-7.1c6.2-0.5,9.9,1,10.9,8.4C818,649.9,828.7,685,848.2,717.6z"/>
	<path class="st8" d="M364,611.8c-10.3,0-20.5,0-34.6,0c16.9-12.1,34.1-14.2,48.3-22.2c21.3-12,42.8-3.1,63.6-1.6
		c12.7,0.9,7.1,14.7,4.5,23.7C418.6,613.5,391.3,613.3,364,611.8z"/>
	<path class="st4" d="M364,611.8c27.3,0,54.5-0.1,81.8-0.1c-10.6,4.9-21.9,3-32.8,2.3C396.7,613,380.2,616.8,364,611.8z"/>
</g>
<g>
	<path d="M434.8,76c-0.6-0.9-2-3-4.7-4.4c-2.6-1.4-5-1.5-6.1-1.5c-0.1-0.1-0.9-1.5-0.2-2.8c0.3-0.6,0.8-1,1.1-1.1
		c1.5,0.3,4.2,1.1,6.9,3.1c2.1,1.6,3.8,3.7,5.1,6c0,0.1,0,0.6-0.4,0.9C435.9,76.6,435.2,76.5,434.8,76z"/>
</g>
<circle class="st1" cx="425.6" cy="80.3" r="2.3"/>
<g>
	<path class="st1" d="M406.9,53.9c-1.2-1-2.3-2.1-3.2-3.3c-2.4-3.2-3.2-6.4-3.5-7.8c-2.8-12-4.1-17.4-1.1-21.2
		c3.4-4.2,9.4-4.3,14.2-4.4c4-0.1,7.9,0.6,11.7,2l-1.7,4.7c-3.2-1.2-6.5-1.8-9.9-1.7c-4,0.1-8.5,0.2-10.4,2.6
		c-1.5,1.8-0.1,7.8,2.1,16.9c0.3,1.3,0.8,3.6,2.6,6c0.7,0.9,1.5,1.7,2.4,2.4L406.9,53.9z"/>
</g>
<g>
	<path class="st1" d="M293.2,73.7c0.6-1.8,1.6-4.8,1.9-7.9c0.1-1.2,0.1-2.2-0.1-3.3c-0.3-1.1-0.6-1.7-1.3-3c-0.5-1-1.1-2.4-1.8-4.2
		c0.4,0.1,5.6,1.3,7.3,5.7C300.9,65.3,298.6,71,293.2,73.7z"/>
</g>
<g>
	<path class="st1" d="M302.6,73.7c0.6-1.8,1.6-4.8,1.9-7.9c0.1-1.2,0.1-2.2-0.1-3.3c-0.3-1.1-0.6-1.7-1.3-3c-0.5-1-1.1-2.4-1.8-4.2
		c0.4,0.1,5.6,1.3,7.3,5.7C310.3,65.3,308,71,302.6,73.7z"/>
</g>
<g>
	
		<rect x="862.9" y="246.4" transform="matrix(0.5167 -0.8562 0.8562 0.5167 202.1656 862.366)" class="st1" width="4" height="11.4"/>
</g>
<g>
	
		<rect x="858.7" y="258.3" transform="matrix(0.5701 -0.8216 0.8216 0.5701 153.6864 820.4153)" class="st1" width="4" height="10.1"/>
</g>
</svg>
