<?xml version="1.0" encoding="utf-8"?>
<!-- Generator: Adobe Illustrator 27.1.0, SVG Export Plug-In . SVG Version: 6.00 Build 0)  -->
<svg version="1.1" id="Layer_1" xmlns="http://www.w3.org/2000/svg" xmlns:xlink="http://www.w3.org/1999/xlink" x="0px" y="0px"
	 viewBox="0 0 950 1050" style="enable-background:new 0 0 950 1050;" xml:space="preserve">
<style type="text/css">
	.st0{fill:#12B76A;}
	.st1{fill:#191919;}
	.st2{fill:#1C1C1B;}
	.st3{fill:#FFFFFF;}
	.st4{fill:#1B1A1A;}
	.st5{fill:#1B1B1B;}
	.st6{fill:#1D1D1D;}
	.st7{fill:#1C1C1C;}
	.st8{fill:#F8F9F9;}
	.st9{fill:#212121;}
	.st10{fill:#1F1E1E;}
	.st11{fill:#1F1F1F;}
	.st12{fill:#242323;}
	.st13{fill:#1E1E1E;}
	.st14{fill:#232222;}
	.st15{fill:#F6F6F6;}
	.st16{fill:#1F1F1E;}
	.st17{fill:#202020;}
	.st18{fill:#232323;}
	.st19{fill:#EFEFEF;}
	.st20{fill:#F3F5F6;}
	.st21{fill:#1A1A1A;}
	.st22{fill:#F3F3F3;}
	.st23{fill:#F2F2F2;}
	.st24{fill:#1F2021;}
	.st25{fill:#F6F6F7;}
	.st26{fill:#F9F9F9;}
	.st27{fill:#262626;}
	.st28{fill:#8C8C8C;}
	.st29{fill:#F6F7F7;}
	.st30{fill:#212222;}
	.st31{fill:#242424;}
	.st32{fill:#222222;}
	.st33{fill:#252525;}
	.st34{fill:#EEF0F1;}
	.st35{fill:#F0F0F0;}
	.st36{fill:#282828;}
	.st37{fill:#C5C5C5;}
	.st38{fill:#F4F4F5;}
	.st39{fill:#CCE8FC;}
	.st40{fill:#F5F6F6;}
	.st41{fill:#46A9FC;}
	.st42{fill:#272727;}
	.st43{fill:#F4F4F4;}
	.st44{fill:#F5F5F5;}
	.st45{fill:#4D4D4D;}
	.st46{fill:#1B1918;}
	.st47{fill:#222220;}
	.st48{fill:#FEFEFE;}
	.st49{fill:#41A6FD;}
	.st50{fill:#1B1A19;}
	.st51{fill:#F7F7F7;}
	.st52{fill:#555555;}
	.st53{fill:#242423;}
	.st54{fill:#3AA1F6;}
	.st55{fill:#F2F2F3;}
	.st56{fill:#242425;}
	.st57{fill:#262524;}
	.st58{fill:#4F4F4F;}
	.st59{fill:#9BD0F8;}
	.st60{fill:#9A9A9B;}
	.st61{fill:#FEFFFF;}
	.st62{fill:#F6F8FA;}
	.st63{fill:#41A6FF;}
	.st64{fill:#F6F7F8;}
	.st65{fill:#42A6FE;}
	.st66{fill:#F3F5F7;}
	.st67{fill:#F1F1F1;}
	.st68{fill:#F3F6F8;}
	.st69{fill:#6ABAF5;}
	.st70{fill:#EEF4F8;}
	.st71{fill:#9BCFF9;}
	.st72{fill:#282827;}
	.st73{fill:#545454;}
</style>
<g>
	<path class="st0" d="M342.4,1034c-28.2-14.4-48.1-37.9-67.1-62.2c-2.5-3.2-4.9-6.2-8.2-8.5c-7-1.6-9.6-7.8-12.8-13
		c-32.9-53.2-70.1-103.5-107.6-153.5c-15.1-21.2-31.9-41.1-47.3-62c-3.3-3.5-6-7.5-8.7-11.5c-6.9-7.4-12.8-15.7-18.6-23.9
		c-6.5-8.4-13.8-16.2-19.3-25.4c-3.1-10-11.9-15.9-18-23.5c-8.2-10.1-17.4-19.4-25.5-29.7c-3.8-9.3,4.9-5.8,8.2-7.9
		c4.5,1.4,9.1,2.9,13.6,4.3c24.1,2.8,46,13.1,68.3,21.6c4.1,1.6,8,3.8,12.3,5.2c31.4,13,60.7,29.9,89.4,48.1
		c32,20.4,61.9,43.8,93.4,64.9c4.4,2.5,8.7,3.5,13.2,0.2c1.8-1.6,3.6-3.3,6-4.2c17.9-1.2,31.7-11.7,45.5-21.3
		c54.4-37.8,104.6-80.9,155.5-123.1c60.8-50.5,120.9-101.8,181.3-152.9c65.8-55.7,131.9-111,197.9-166.4c1.7-1.4,3.7-2.6,4.3-4.9
		c14-10.1,25.6-23.4,41.9-30.9c-19.2,42.4-47.2,79.5-69.3,120c-4.2,3.4-7.5,7.5-10.2,12.2c-51.6,86.8-104.8,172.6-161.7,256.1
		C633.3,737.8,563,830.3,489.9,920.6c-2.8,3.5-5.6,6.9-8,10.7c-0.6,1.1-1.2,2.2-1.9,3.2c-5,3.6-9.5,7.6-11.8,13.5c-0.6,1-1.2,2-2,3
		c-3.8,2.7-7.6,5.5-9.1,10.3c-0.6,1-1.3,1.9-2.1,2.8l0.2-0.2c-0.9,0.8-1.8,1.6-2.8,2.4c-4.6,0-7.1,3.3-9.8,6.1
		c-23.6,23.8-48.6,45.9-78.9,60.9C356.7,1036.4,349.5,1035.1,342.4,1034z"/>
	<path class="st1" d="M898,284.4c2.5,1.9,3.4,3.3,0.2,5.9c-50.5,41.7-101,83.4-151.2,125.5c-26.7,22.4-52.6,45.7-79.2,68.1
		c-31.2,26.4-63.4,51.7-94.1,78.7c-23.5,20.6-47.9,40.2-71.7,60.5c-43.5,36.9-87.7,73-133.9,106.5c-11.3,8.2-23.6,14.9-35.6,22
		c-6,3.5-12.7,4.8-19.7,3.4c-3,1.7-6.2,1.4-9-0.2c-22.4-12.9-43.9-27-62.1-45.6c-1-3.6,0.1-6.5,3.1-8.7c10-1.1,14.4,9.7,24,11.3
		c-4.1-10.8-10.6-18.7-20.7-23.5c-1.1-0.4-2.1-1-3.2-1.5c-4.9-2.4-10.3-1.2-15.3-2.4c-1.2-0.4-2.2-1-3.1-1.8
		c-0.6-1.2-0.5-2.3,0.1-3.4l0.4,0.3c4.6-4.6,1.6-10.7,3.2-15.9c2.2-5.2,2.8-10.7,2.6-16.3c-2.4-4.1,4.1-6.7,1.7-10.8
		c-1.2-2.3-0.8-4.8-0.6-7.3c4-5,4.7-10.6,3-16.7c-0.3-1.2-0.2-2.3,0.3-3.5c4.3-4.5,3.6-9.8,2.4-15.1c-0.3-1.2-0.3-2.3,0.3-3.4
		c5.1-4.4,2.8-10.4,3.6-15.8c0-0.9,0-1.8-0.1-2.7c3.7-5,2.3-10.5,1.5-16c-0.3-1.2-0.1-2.4,0.6-3.4c4.8-4.5,2.7-10,2.1-15.3
		c-0.3-1.2-0.1-2.4,0.5-3.4c4.8-4.5,2.8-9.9,2.2-15.1c-0.4-1.2-0.2-2.3,0.3-3.4c5-4.4,2.9-10.4,3.6-15.8c0-0.9,0-1.8,0-2.7
		c3.6-5,2.3-10.5,1.5-16c-0.3-1.2-0.2-2.4,0.4-3.5c4.3-4.5,3.4-9.9,2.3-15.3c-0.3-1.2-0.2-2.4,0.3-3.5c4.3-4.6,3.5-9.9,2.3-15.3
		c-0.3-1.2-0.2-2.4,0.4-3.5c4-4.5,3.6-10,3.6-15.4c-0.4-0.7-0.6-1.5-0.6-2.4c-1.3-3.2-7.5-3.4-5.4-8.7c4.6-7.5,14.1-11.5,15.8-21.2
		c-2.1-4.4,0.7-9.5-2.1-13.8c-2.5-14.4-15.2-19.1-25.1-26.5c-17.1-12.9-35.1-24.6-49.6-40.8c-3.5-3.9-6.9-7.7-8.2-12.9
		c0.8-3.5-0.8-8.1,4.7-9.2c14.2,14.3,27.6,29.6,43.9,41.8c2.1,2.1,4.4,4.1,7,5.7c12.4,8.3,22.9,19.3,36,26.6
		c5.3,2.4,10.4,1.8,15.1-1.6c1.7-0.7,3.5-0.9,5.3-0.7c5.6,1.4,11.2,2,16.2-2c1.7-0.7,3.4-0.8,5.2-0.6c4.5,1,8.9,1.8,13.4-0.2
		c2.8-1,5.5-2.1,8.6-2c4.6,0.8,9.3,1,13.8-0.7c1.7-0.5,3.5-0.8,5.3-0.9c4.6-0.4,9.4,0.5,13.7-2.2c2.1-1.2,4.3-2,6.8-1.8
		c5.1,1.1,10.2,1.8,15.4,0.5c1.2-0.2,2.4-0.2,3.5-0.1c5.2,1.3,12.8,7,10.2-5.7c-0.4-1.2-0.7-2.4-1-3.7c-0.2-0.6-0.3-1.3-0.5-1.9
		c-0.4-1.4-0.6-2.7-0.7-4.1c0.1-6.4-1.6-13.1,3.1-18.8c5.2-1.8,7.1,1.1,8.2,5.6c1.2,4.7,0.8,9.6,1.9,14.3c1.3,5.3,0.7,11,3.4,15.9
		c-1.1,10.3,8.1,12.9,13.7,18.1c3,3.1,8.8,0.9,11,5.6c14.1,7.5,28,15.3,42.2,22.6c9.7,5,15.3,12.5,16.9,23.2
		c0.9,1.4,1.5,2.9,1.9,4.5c0.7,17,0.1,34.1,0.3,51.1c-0.1,13.4,0.1,26.8-0.1,40.2c0,1.5-0.2,3-0.5,4.5c-2.9,11.7,0.7,24-3.3,35.7
		c-0.9,2.8,1.4,4.9,4,6.1l-0.1-0.1c8,0.9,16,0.8,24,0.8c19.5,8.8,29.6-6.8,41.3-16.5c41.1-34.2,81.8-68.9,122.6-103.5
		c25.8-21.9,51-44.4,77-66c38.1-31.5,76.7-62.3,115.1-93.3C895,284.4,896.7,284.6,898,284.4z"/>
	<path class="st0" d="M323.4,359.8c-1.7,0.2-3.5,0.4-5.2,0.7c-0.7,0.7-1.6,0.9-2.6,0.8c-2-0.8-3.7,0.2-5.4,1
		c-2.7,0.6-5.5,0.4-8.2,0.3c-1.7,0.2-3.5,0.4-5.2,0.6c-4.9,3.6-10.3,4.5-16.1,2.7c-14.4-6.8-24.8-18.8-37.6-27.8
		c-4.2-5.4-3-12.3-5.2-18.3c-0.7-2.8-1-5.7-1.1-8.6c0.1-6.4-0.4-12.7,0.8-19.1c1.8-7.3,3.9-14.6-0.6-21.7c-1.9-2.7-1.9-7.1-6.7-6.9
		c-10.6,0.4-18.7,8.3-29,9.5c-3.6-0.9-5.2-3.6-6.1-6.9c-19.1-17.8-38-35.7-59.2-51.1c-2.9-0.8-4.7-2.6-5.6-5.4
		c-4.2-6.6,1.6-8,5.4-10.6c31.4-21.5,64.7-38.9,102-47.9c0.9-1.1,2-1.4,3.4-0.9c5.8,1.1,11.7,0.4,17.6,0.6c2.6,0.1,5.3-0.2,7.9,0.1
		c2.6,0.5,4.8,1.9,6.6,3.7c4.7,5.7,8.2,12.9,16.6,14.2c5,0.3,9.9,0.8,14.8-0.8c2.5-1.1,4.5-2.9,6.5-4.7c1.2-1.2,2.5-2.3,3.8-3.4
		c0.9-0.8,1.8-1.6,2.8-2.4c1.9-1.9,4-3.4,6.8-3.9c8.9-0.1,17.8-0.1,26.7-0.1c7.8,0.8,15.9-1.9,23.4,2.3
		c29.2,3.1,57.1,10.2,82.2,26.5c5,3.2,6.4,6.6,6.7,11.5c0.6,1.1,0.3,2-0.8,2.6c-9.3,0.9-11.7,9.2-16.7,15c-9.3,10.6-18.3,21.2-26,33
		c-1.8,2.7-2.5,6.4-6.5,7.2c-6.8-0.1-8.4-5.7-10.5-10.3c-3.3-7.2-6.3-14.6-9.5-21.8c-1.6-4.2-2.8-8.7-5.7-13.4
		c2.6,8,5.1,15,8.4,21.6c5.2,22.6,13.3,44.4,16.9,67.3c0.6,5.1,2.7,10,2.4,15.2c-2.8,8.8-2,17.9-2.1,26.9c0.1,1.5-0.2,3-0.6,4.4
		c-2.8,2.9-6.5,3.4-10.2,3.9c-17.2,4.7-34.8,6.9-52.2,10.2c-6,0.2-11.8,1.4-17.4,3.6C329.8,360.1,326.6,359.9,323.4,359.8z"/>
	<path class="st2" d="M479.6,931.7c4.9-14.1,16.4-23.5,25.3-34.6c42.4-53.3,84-107.2,124.2-162.3c42.8-58.6,84-118.5,123.1-179.6
		c36.6-57.2,72.8-114.6,106.6-173.5c2.8-4.9,5.1-9.5,11.9-8.2c-3.5,16-14,28.6-22.2,41.8c-46,73.9-91.4,148.1-140.6,220
		c-43.2,63.2-87.6,125.4-133.8,186.4c-28.3,37.3-58.4,73.2-87.8,109.6c-1.1,1.3-2.7,2.2-4.1,3.2c-0.4-0.1-0.9-0.3-1.3-0.4
		C480.4,933.3,480,932.5,479.6,931.7z"/>
	<path class="st1" d="M336.9,16.1c19.9,10.2,15.6,22.5,3.1,35.1c-4.1,4.1-9.3,7.1-14,10.6c-4.4,8.5-13.9,6.7-20.7,10.3
		c-2.5,0.7-5.1,0.8-7.7,0.3c-5.3-1.2-10.8-3.2-15.5,1.7c-2.5,2.5-5.2,4.8-7.3,7.6c-3.7,7.2-0.1,16.2-5.9,22.8
		c-0.9,0.9-2,1.5-3.3,1.8c-4.2-0.4-7.4-2.2-8.8-6.5c-1.8-4.5-3.6-9-5.4-13.5c1-7.1-1.2-14.3,0-21.4c16.1-15.9,29.8-34.5,50.2-45.5
		c3.3-1.8,7.3-2.2,11-3.2C320.8,12.7,328.9,12.7,336.9,16.1z"/>
	<path class="st3" d="M304.6,69.8c6.1-5.5,15.1-3.2,21.5-8c0.9,1.7,1.9,3.5,2.8,5.2c-0.3,1.1-0.7,2.2-1.2,3.3
		c-1.6,4.4-2.6,9.2-8,10.5c-0.8,0.6-2.4,0.3-2.5,1.9c1.3-0.3,2.4-0.9,3.6-1.4c2.4-0.7,4.7-2.2,6.8,0.5c1.1,1.8,1.6,3.8,1.9,5.8
		c0.6,8.9-0.1,17.8,0.7,26.7c-0.7,9.6-8.9,11.1-15.6,14.3c-6.6,3.1-14.8,1.3-20.6,6.6c5.4,1.7,10.7-2.3,16-0.3
		c2.2,0.7,3.9,1.9,4.9,4c2.6,8.8,2.3,17.3-1.9,25.5c-1.8,1.7-3.5,3.4-5.3,5.1c-6,3-12.8-0.4-18.9,2.1c-8.9-1.4-13.6-7.2-16.3-15.2
		c0.1-1.7-0.1-3.4-0.1-5.2c0.1-2.3,0.5-4.6,1.1-6.9c1.4-5.8,2.3-11.5-1.8-16.7c-1.5-2.5-2.7-5.2-4.8-7.3c-2.1-2.3-4-4.6-4.3-7.9
		c-0.2-6.7,7-5.8,9.7-9.5c4.5-4.8-0.1-9.1-0.9-13.5c0.6-3.7-1.4-7.8,1.7-11.1c2.6-2,5.1-3.9,7.7-5.9c2.5-3.8,6.3-3.9,10.2-3.3
		C295.3,70.4,299.7,73.9,304.6,69.8z"/>
	<path class="st4" d="M148.6,794.9c38.6,48.8,74.3,99.7,107.7,152.2c3.5,5.5,7.2,10.9,10.9,16.3c-5.9,10.4-10.2,3.9-13.2-1.8
		c-16.8-31.3-37.4-60.3-57-89.9c-16.1-24.3-33.7-47.5-50.7-71.2C144.5,797.5,144.3,795.3,148.6,794.9z"/>
	<path class="st5" d="M106.4,292.8c11.2,34.5,40.2,51.7,68,70.2c15.5,10.3,33.5,15.4,49.6,24.3c-1.5,6.3-6.3,5.5-10.9,5.1
		c-36.9-13.3-68.3-35-95.6-62.7c-9.1-9.3-17-19.8-17.1-33.9c0.3-1.8,1.4-3,3-3.9C104.6,291.6,105.6,291.9,106.4,292.8z"/>
	<path class="st6" d="M245.7,701.3c-0.9,2.4-1.8,4.8-2.7,7.1c-5,2.5-8.7-1.1-12.1-3.4c-32.1-21.6-66.7-38.9-101.3-56
		c-2-1-3.8-2.2-5.3-3.9c-1.9-3.9-0.6-6.6,3.2-8.2c31.4,12.8,61.1,29,90.3,45.9c2,1.2,3.7,2.2,6,1.7c1.1-0.7,2.2-0.8,3.4-0.1
		C232.4,691.1,243,691.8,245.7,701.3z"/>
	<path class="st7" d="M465.8,352.4c-6.6-3.4-12.6-7.4-16.5-13.8c-1.4-6.2-1.4-12.5,0-18.8c10.3-18.3,21-36.3,27.7-56.4
		c6.3-3.5,5.5,2.6,7.1,5.3c-4,14.5-10.3,28.1-17.9,40.9c-2.7,4.5-4.7,9-6.4,14c-3.2,9.9-0.9,15.1,9.6,18c3.8,1,14.2-0.6,9.7,10
		C474.8,354.5,470.3,353.4,465.8,352.4z"/>
	<path class="st8" d="M111.5,646.7C84.7,636.8,57.8,627,31,617.1c1.8-1.7,3.6-3.4,5.4-5.2c4.8-1.9,9.2,0.5,13.8,1.2
		c17.9,6,36.1,11.3,53.5,18.7c4.8,2,10.2,3.1,13.5,7.7C117.9,644.1,114.1,644.9,111.5,646.7z"/>
	<path class="st5" d="M312.7,137.7c-1.8-0.3-3.6-0.6-5.4-0.9c-6.1-2.9-12.1,2-18.2,0.3c-4.6-8.6,1.6-7.4,6.9-8.1
		c12-1.5,24.4-2.7,32.8-13.4c0-0.6,0.1-1.2,0.1-1.8c-0.1-4.9,0.7-9.8-1-14.6c-0.3-1.9-0.3-3.8,0.4-5.7c1.6-2.8,2.3-7,7.1-4.1
		c1.3,1.8,1.4,3.9,1.5,6c0.3,8.5-0.1,17-0.4,25.5c-0.7,6.2-7.3,6.6-10.4,10.4c-2,2.1-2.7,4.6-2.6,7.4c0,3.4,0,6.9,0,10.3
		c0,1.2-0.1,2.4-0.3,3.6c-0.5,1.1-1.1,2.2-1.8,3.1c-0.9,1.8,0.4,4.9-3.2,5c-5.2-6.1-1.3-13.7-3.2-20.3
		C314.4,139.5,313.7,138.6,312.7,137.7z"/>
	<path class="st9" d="M117.1,641.7c-21.4-11.6-45.4-16.6-67.5-26.4c-1.5-1.8-1.5-3.6,0.1-5.3c26.7,6.7,52.2,17,77.8,26.8
		c-0.9,2.4-1.8,4.8-2.6,7.1C121.4,646.3,119.1,644.4,117.1,641.7z"/>
	<path class="st10" d="M148.6,794.9c-0.8,1.8-1.5,3.7-2.3,5.5c-15.9-20.7-31.8-41.4-47.8-62.1c1-1.8,0.1-4.4,2.4-5.7
		C116.7,753.4,132.6,774.2,148.6,794.9z"/>
	<path class="st11" d="M129.9,217.9c-10.7,16.7-19.7,34.1-24.3,53.6c-0.9,0.9-2,1.6-3.3,1.9c-2,0.1-3.8-0.3-5.1-2
		c-0.5-1.9-0.8-3.8,1.1-5.1c5.3-18.2,11.7-35.8,26.5-48.9C126.7,216.1,128.4,216.3,129.9,217.9z"/>
	<path class="st12" d="M422.4,338.6c-6.3-5.8,3.3-17-7.2-21.5c-1.5-3-1-6.1-0.9-9.3c1.1-4.2-0.4-8.5,0.1-12.7
		c0.1-1.9,0.5-3.9,0.9-5.7c2.1-8.5,1.8-17.1,0-25.6c-0.3-1.4-0.3-2.8-0.1-4.2c1.2-3.8,2.8-6.9,7.5-3.8c1.1,5.2,2.1,10.5,3.2,15.7
		c1.7,5.1,0.5,10.4,0.9,15.5c0.2,6.7-1,13.2-3.5,19.4c0,1.8,0,3.5,0,5.3c0.8,7.7,2.8,15.3,1.8,23.2
		C424.6,336.4,423.7,337.6,422.4,338.6z"/>
	<path class="st13" d="M264.3,113.4c1.8,1.8,3.6,3.6,5.5,5.5c2.6,3.5,0.4,5.9-1.9,8.2c-1.3,0.5-2.4,0.2-3.2-0.9
		c-12.1-8.7-18.8-16.3-7.8-26.5c2.5,1.6,5.1,3.3,7.6,4.9C262.5,107.5,261.9,110.4,264.3,113.4z"/>
	<path class="st13" d="M258.9,413.4c1.6,3,6.1,4.3,5.4,8.7c-8.2-1.4-13.6,4.8-20.3,7.3c-2.8,1-7,1.8-8.5-1c-1.7-3.2,1.6-5.4,4.6-6.7
		C246.4,419,252.7,416.1,258.9,413.4z"/>
	<path class="st9" d="M221.5,410.5c6-1.4,10.9-7.4,18-4.1c-3.7,9.5-14.1,8.3-20.7,13.1c-4.5,0.9-9,2.1-13.3-0.7
		c0.5-1.9-5.3-3.6-0.1-5.5C210.4,410.6,215.6,408.7,221.5,410.5z"/>
	<path class="st14" d="M195.1,266.1c1.7,1.6,3.3,3.3,5,4.9c-0.3,6.8-1.1,13.4-5.1,19.2c-1.7,2.7-3.5,5.4-5.2,8.1
		C182.6,286,186.8,275.7,195.1,266.1z"/>
	<path class="st15" d="M516.7,480.8c0,20.9,0.1,41.8,0,62.7c0,4.2,1.7,9.1-2.9,12.3c-4.3-11.3-2.4-22.8-1.4-34.3
		c0.9-13.1-0.1-26.2,0.5-39.3C513.7,480.4,514.9,479.9,516.7,480.8z"/>
	<path class="st16" d="M52.8,674c10,5.4,14.5,15.6,21.2,23.8c1.5,2.9,1.9,5.3-2.4,5.7C65.1,693.8,53.1,687.6,52.8,674z"/>
	<path class="st17" d="M71.6,703.5c0.8-1.9,1.6-3.8,2.4-5.7c6.3,8.1,12.5,16.1,18.8,24.2c1.6,2.9,1.9,5.2-2.4,5.6
		C84.1,719.6,77.9,711.5,71.6,703.5z"/>
	<path class="st18" d="M333.8,89c-1.5,1.8-3,3.6-4.5,5.4c-3.3-2-0.5-6.1-3-8.4c-0.2-1.7-0.4-3.3-0.6-5c-1.1-4.5-2.1-9.1,0.8-13.4
		c0.8,0,1.6-0.2,2.3-0.5c5.6,4.2,5.2,10.6,5.8,16.5C335.9,85.6,335.6,87.4,333.8,89z"/>
	<path class="st19" d="M516.7,480.8c-0.7,0-1.5,0-2.2,0c-1.3-1.1-1.9-2.5-1.7-4.2c-0.8-17.5,1.5-35-1.3-52.4
		c-0.2-0.8-0.1-1.7,0.3-2.4c6.5,1.4,4.8,6.6,4.9,10.8C516.8,448.6,516.7,464.7,516.7,480.8z"/>
	<path class="st9" d="M484.1,268.7c-2.4-1.7-3.2-5.6-7.1-5.3c0.8-5.3,1.6-10.5,2.4-15.8c1.6-1.8,0.9-4.4,2.3-6.3
		c1.1-0.4,2.2-0.3,3.3,0.1c2.5,2.7,2.6,6.1,2.9,9.4c0,0.6-0.1,1.1-0.1,1.7C486.5,257.9,485.3,263.3,484.1,268.7z"/>
	<path class="st20" d="M374.5,155.7c-7.9,0.1-15.9,0.2-23.8,0.2c-1.3-0.8-2.8-1.3-3.9-2.5c-0.3-1.1-0.1-2,0.8-2.7
		C356.4,153.2,367.2,145.2,374.5,155.7z"/>
	<path class="st13" d="M479.6,220.4c-0.8-6.5-5.2-11-8.8-16c0.2-2.4,0.7-4.6,3.1-5.9c5.1,4.4,9.1,9.5,10.7,16.2
		C486.5,219.8,485.7,222.5,479.6,220.4z"/>
	<path class="st21" d="M98.5,271.5c1.6,0,3.3,0,4.9,0c2.1,7.2,2.1,14.3,0,21.5c-1,0.9-2,1.9-3,2.8c-0.7-0.1-1.4-0.2-2.1-0.2
		C95.8,287.5,95.7,279.5,98.5,271.5z"/>
	<path class="st22" d="M336.9,16.1c-8.1,0-16.1,0-24.2,0C320.8,8.1,328.9,8.2,336.9,16.1z"/>
	<path class="st23" d="M487.7,223.3c7,7.6,7,21.7,0,29.3l-0.9,0.2c-1.1-2.3-0.8-4.8-0.7-7.2c1.7-4.8,0.4-9.4-0.6-14
		c-0.5-2.5-0.6-4.9,0.8-7.2C486.7,224,487.2,223.6,487.7,223.3z"/>
	<path class="st9" d="M514.3,563.8c-2.3-0.2-5.1-1-5.1-3.4c0.3-13.2-3.3-26.6,2.1-39.5c2.5,11.7,1.8,23.5,0.5,35.3
		C510.2,559.6,513.4,561.3,514.3,563.8z"/>
	<path class="st24" d="M466.1,947.8c0.6-7.9,5.5-11.8,12.6-13.6c0.8-0.8,1.7-0.9,2.7-0.3l0.7,0.7c-4.5,5.4-8.9,10.7-13.4,16.1
		c-0.4-0.1-0.9-0.3-1.3-0.4C467,949.5,466.6,948.6,466.1,947.8z"/>
	<path class="st25" d="M240.2,151.1l-1.3-0.3c0,0-1.3,0.2-1.3,0.2c7.7-7.8,19,1.4,26.8-5.8c1.3-0.5,2.4-0.2,3.4,0.7
		c1.4,2.5,1.5,4.8-0.7,7c-2.6,0.1-5.2,0.1-7.9,0.2C253.2,150.3,246.4,153.5,240.2,151.1z"/>
	<path class="st26" d="M422.4,338.6c0.3-0.9,0.6-1.8,0.9-2.6c2.5-4.2-1.1-9.5,2.5-13.5c5.1,9.6,1.3,19.9,2.3,29.9
		C423.7,348.7,422.8,343.8,422.4,338.6z"/>
	<path class="st27" d="M251.5,64.8c3.5,7.1,3.5,14.3,0,21.4C249.5,79.1,245.1,71.9,251.5,64.8z"/>
	<path class="st28" d="M511.7,556.2c-0.2-11.8-0.3-23.5-0.5-35.3c0,0,0.4,0.3,0.4,0.3c0.4-1.2,1.1-1.4,2-0.4
		c0,11.6,0.1,23.3,0.1,34.9C513.1,555.9,512.4,556,511.7,556.2z"/>
	<path class="st29" d="M422.7,255.6c-4.6-1.4-5.4,1.5-5.7,5c-7-2.3-7.6-6-2.3-10.9c1.8-1.8,3.5-3.6,5.3-5.5
		C420.9,248,421.8,251.8,422.7,255.6z"/>
	<path class="st18" d="M49.7,610.1c0,1.8-0.1,3.5-0.1,5.3c-4.6-0.4-9.4,0.3-13.2-3.4C39.1,599,45.5,612.4,49.7,610.1z"/>
	<path class="st30" d="M455.4,961.2c-0.2-6.8,3.6-10,9.9-10.9c0.8-0.8,1.6-0.9,2.6-0.3c0,0,0.8,0.7,0.8,0.7
		c-3.7,4.2-7.4,8.5-11.1,12.7C456.7,963,455.9,962.2,455.4,961.2z"/>
	<path class="st31" d="M254.2,499.6c2.2,5.9,5.9,12-2.7,16.1c-1-0.3-1.5-0.8-1.4-1.5c0.1-0.8,0.2-1.2,0.5-1.2
		C251.6,508.5,249.8,503.2,254.2,499.6z"/>
	<path class="st22" d="M98.5,271.5c0,8-0.1,16-0.1,24c-4.9-9.8-4.9-19.5,0-29.3C98.4,267.9,98.5,269.7,98.5,271.5z"/>
	<path class="st31" d="M243.4,574.7c2.2,5.9,5.9,12-2.7,16.1c-1-0.3-1.5-0.8-1.4-1.5c0.1-0.8,0.2-1.2,0.5-1.2
		C240.9,583.7,239.1,578.4,243.4,574.7z"/>
	<path class="st32" d="M473.9,198.6c-0.2,2.4-0.6,4.7-3.1,5.9c-3.5-2-6.3-4.6-8.2-8.2c0.3-0.8,0.6-1.7,0.8-2.6
		C467.7,193.7,471.1,195.6,473.9,198.6z"/>
	<path class="st18" d="M232.7,647.2c3.3,5.5,3.7,10.8-0.5,16.1c-1.1,0.9-2.2,1-3.3,0.2c-0.8-1.9-0.8-3.7,0.2-5.5
		C229.4,654.1,229.9,650.2,232.7,647.2z"/>
	<path class="st33" d="M213.2,392.3c3.6-1.7,7.3-3.4,10.9-5.1c4.1-0.6,8.3,0.2,3.5,4.5C224.1,394.8,218.2,398.3,213.2,392.3z"/>
	<path class="st16" d="M90.4,727.6c0.8-1.9,1.6-3.7,2.4-5.6c2.7,3.6,5.4,7.1,8.1,10.7c-0.8,1.9-1.6,3.8-2.4,5.7
		C96.8,734,91.1,732.7,90.4,727.6z"/>
	<path class="st18" d="M264.9,424.4c2.2,5.9,6,12-2.7,16.1c-2.1-1.5-1.8-3.4-0.9-5.3C261.5,431.3,262.1,427.5,264.9,424.4z"/>
	<path class="st34" d="M321.2,153.2c-0.4-0.7-0.5-1.5-0.3-2.2c2-4.7,1.9-9.4,0-14.1c-1-4.3,1.5-5.3,5.1-5.4c0,6.4,0.1,12.7,0.1,19.1
		c0.7,0.7,0.9,1.4,0.8,2.2c-0.2,0.8-0.4,1.1-0.6,1.1C324.5,154.7,322.7,155,321.2,153.2z"/>
	<path class="st35" d="M423.2,306.3c-2.4-6.7,2.9-12.3,2.7-18.7c0.6-1.3,1.3-1.4,2.1-0.3C427.4,293.9,430.9,301.6,423.2,306.3z"/>
	<path class="st31" d="M256.9,480.8c2.2,5.9,6,12.1-2.7,16.2c-0.1-3.5-0.2-7-0.3-10.5C255.5,484.9,254.3,481.8,256.9,480.8z"/>
	<path class="st31" d="M238.1,612.3c2.2,5.9,6,12.1-2.7,16.2c-2.1-1.5-1.8-3.4-0.9-5.4c0.2-1.7,0.4-3.4,0.6-5.1
		C236.7,616.4,235.5,613.3,238.1,612.3z"/>
	<path class="st31" d="M259.5,462c2.2,5.9,6,12.1-2.7,16.2c-2.1-1.5-1.8-3.4-0.9-5.4c0.2-1.7,0.4-3.4,0.6-5.1
		C258.2,466.1,257,463.1,259.5,462z"/>
	<path class="st36" d="M334.3,94c4,1.6,1.8,5.5,3,8.2c1.4,5.4,1.4,10.9,0,16.3c-0.3,0.9-0.6,1.7-0.9,2.6
		C332,112.4,335.1,103.1,334.3,94z"/>
	<path class="st18" d="M262.2,443.2c2.2,5.9,6,12.1-2.7,16.1c-2.1-1.5-1.8-3.4-0.9-5.4c0.2-1.7,0.4-3.4,0.6-5.1
		C260.9,447.3,259.7,444.3,262.2,443.2z"/>
	<path class="st15" d="M221.5,410.5c-5.6-0.5-10.2,4.8-16.1,2.7C209.4,404.6,215.6,408.3,221.5,410.5z"/>
	<path class="st27" d="M248.8,537.1c2.2,5.9,5.9,12.1-2.7,16.2c-1-0.3-1.5-0.8-1.4-1.5c0.1-0.8,0.2-1.2,0.5-1.2
		c0.2-1.7,0.4-3.4,0.6-5.1C248.3,543.2,245.4,539,248.8,537.1z"/>
	<path class="st27" d="M246.2,555.9c2.1,5.9,6,12.1-2.8,16.2c-0.1-2.6-0.2-5.2-0.3-7.8C245.6,562,242.7,557.8,246.2,555.9z"/>
	<path class="st33" d="M538.2,564.5c-8.1,3.1-16.2,4.4-24-0.8c0.9,0.3,1.7,0.3,2.5-0.1c5.4-1.4,10.9-1.4,16.3,0
		C534.7,563.9,536.4,564.2,538.2,564.5z"/>
	<path class="st23" d="M482.3,242.1c-0.6,2,0,4.8-3,5.5c0-8.3,0-16.5,0-24.8c4.2-0.1,4.6,3,5.1,6.1
		C484.9,233.5,485.7,238.1,482.3,242.1z"/>
	<path class="st31" d="M251.5,518.3c2.2,5.9,5.9,12.1-2.7,16.2c-1-0.3-1.5-0.8-1.4-1.5c0.1-0.8,0.2-1.2,0.5-1.2
		c0.2-1.7,0.4-3.4,0.6-5.1C251,524.5,248.1,520.3,251.5,518.3z"/>
	<path class="st31" d="M240.8,593.5c2.2,5.9,5.9,12.1-2.7,16.2c-2.1-1.5-1.8-3.4-0.9-5.4c0.3-0.8,0.5-1.6,0.6-2.4
		C240.2,599.6,237.4,595.4,240.8,593.5z"/>
	<path class="st37" d="M425.8,322.4c-1.2,4.4,1.4,9.6-2.5,13.5c0-8.1,0-16.2,0-24.3C426.8,314.6,424.9,318.8,425.8,322.4z"/>
	<path class="st27" d="M230,663.3c0.7,0,1.5,0,2.2,0c-1.8,5.4,4.2,13.3-5.3,16.1c0-2.6,0-5.2,0.1-7.8
		C229.5,669.4,226.7,665.2,230,663.3z"/>
	<path class="st38" d="M342.4,1034c7.1-0.3,14.2-0.5,21.3-0.8C356.7,1038.3,349.6,1037.2,342.4,1034z"/>
	<path class="st39" d="M326.1,152.9c0-0.7,0.1-1.5,0.1-2.2c7.1,0,14.3,0,21.4,0.1c0.1,0.7,0.1,1.5,0.2,2.2
		C340.5,155.7,333.3,155.8,326.1,152.9z"/>
	<path class="st40" d="M129.9,217.9c-1.7-0.2-3.4-0.4-5.1-0.5c-0.2-4.1,4.1-4.9,5.5-7.8c1.9,1.8,3.7,3.6,5.6,5.4
		C133.9,215.9,131.9,216.9,129.9,217.9z"/>
	<path class="st18" d="M103.4,292.9c0-7.2,0-14.3,0-21.5c0.7,0,1.5,0,2.2,0c0.3,7.1,0.5,14.2,0.8,21.3
		C105.4,292.8,104.4,292.9,103.4,292.9z"/>
	<path class="st41" d="M17.4,612.8c-2.5,2.9-8.6,2-8.2,7.9C6.9,619,2.7,617,5.1,614C8.1,610.3,13.2,612.6,17.4,612.8z"/>
	<path class="st35" d="M266.7,145.2c-0.8,0.1-1.5,0.1-2.3,0.1c0-6.4,0.1-12.7,0.1-19.1c0.8,0.2,1.6,0.4,2.4,0.6
		c4.8,5.3,4,11,1.4,16.9C267.9,144.2,267.3,144.7,266.7,145.2z"/>
	<path class="st42" d="M482.3,228.4c-0.6-2,0-4.8-3-5.5c-0.2-0.9-0.1-1.7,0.3-2.4c3.6-0.2,4.9-2.4,5.1-5.7c4.3,1.7,1.7,5.8,3,8.5
		l-0.9-0.2c-1.2,1.8-0.6,4.1-1.8,6C483.9,229.5,483,229.3,482.3,228.4z"/>
	<path class="st23" d="M449.2,319.8c0,6.3,0,12.5,0,18.8C445.7,332.3,445.8,326,449.2,319.8z"/>
	<path class="st37" d="M428.1,287.4c-0.7,0.1-1.4,0.2-2.1,0.3c0-5.4,0-10.9,0-16.3C430.2,276.2,427.4,282,428.1,287.4z"/>
	<path class="st37" d="M532.9,563.5c-5.4,0-10.9,0-16.3,0C522.1,560.1,527.5,560,532.9,563.5z"/>
	<path class="st43" d="M234.5,623c0.3,1.8,0.6,3.6,0.9,5.4c-0.3,2.7-0.6,5.3-0.9,8C231.1,632,231.2,627.5,234.5,623z"/>
	<path class="st22" d="M240.8,593.5c-1.3,2.7,1.1,6.7-3.1,8.4c0.4-4.6-1.7-9.6,2.1-13.6c0.3,0.9,0.6,1.8,0.9,2.7
		C240.7,591.7,240.8,592.6,240.8,593.5z"/>
	<path class="st31" d="M452.7,376c-3.5-2.2-8.5-1.4-11-5.6C445.5,372,452.4,367.5,452.7,376z"/>
	<path class="st43" d="M246.2,555.9c-1.3,2.7,1.1,6.7-3.1,8.4c0.4-4.6-1.7-9.6,2.1-13.6c0.3,0.9,0.6,1.8,0.9,2.7
		C246.1,554.1,246.1,555,246.2,555.9z"/>
	<path class="st22" d="M230,663.3c-1.2,2.7,1.1,6.7-3,8.3c0.4-4.6-1.7-9.6,2.1-13.7C229.4,659.7,229.7,661.5,230,663.3z"/>
	<path class="st43" d="M272.6,378.4c4.7,4,1.9,9.1,2.1,13.8C270.9,388.1,273,383.1,272.6,378.4z"/>
	<path class="st15" d="M205.5,418.8c4.4,0.2,8.9,0.5,13.3,0.7C214.2,422.6,209.7,423.4,205.5,418.8z"/>
	<path class="st1" d="M247.9,531.8c0.3,0.9,0.6,1.8,0.9,2.7c0,0.9,0,1.7,0.1,2.6c-1.3,2.7,1.1,6.7-3.1,8.4
		C246.2,540.9,244.1,535.9,247.9,531.8z"/>
	<path class="st1" d="M251.5,518.3c-1.3,2.7,1.1,6.7-3.1,8.4c0.4-4.6-1.7-9.6,2.1-13.6c0.3,0.9,0.6,1.8,0.9,2.7
		C251.5,516.6,251.5,517.5,251.5,518.3z"/>
	<path class="st1" d="M262.2,443.2c-0.7,2.1,0.1,4.9-3,5.7c0.4-4.6-1.7-9.6,2.1-13.7c0.3,1.8,0.6,3.6,0.9,5.3
		C262.2,441.4,262.2,442.3,262.2,443.2z"/>
	<path class="st44" d="M237.2,604.3c0.3,1.8,0.6,3.6,0.9,5.4c0,0.9,0,1.8,0,2.6c-0.7,2.1,0,4.9-3,5.7
		C235.4,613.3,233.4,608.4,237.2,604.3z"/>
	<path class="st15" d="M465.8,352.4c4.4-0.2,8.9-0.5,13.3-0.7C474.9,356.3,470.4,355.5,465.8,352.4z"/>
	<path class="st1" d="M258.6,454c0.3,1.8,0.6,3.6,0.9,5.4c0,0.9,0,1.8,0,2.6c-0.7,2.1,0.1,4.9-3,5.7
		C256.9,463.1,254.8,458.1,258.6,454z"/>
	<path class="st1" d="M255.9,472.8c0.3,1.8,0.6,3.6,0.9,5.4c0,0.9,0,1.8,0,2.6c-0.7,2.1,0.1,4.9-3,5.7
		C254.2,481.8,252.2,476.8,255.9,472.8z"/>
	<path class="st45" d="M227.1,684.9c-1.1-0.1-2.2-0.3-3.3-0.4c0.2-0.8,0.5-1.5,0.7-2.3c0.7-1,1.4-1.1,2.2-0.2l0.3-0.2
		c0.8,0.5,1.1,1.2,0.9,2.2C227.9,684,227.1,684.9,227.1,684.9z"/>
	<path class="st46" d="M455.4,961.2c0.7,0.7,1.5,1.5,2.2,2.2c-0.9,0.2-1.8,0.4-2.7,0.6C455.1,963.1,455.3,962.2,455.4,961.2z"/>
	<path class="st47" d="M452.4,966.2c0.9-0.8,1.9-1.6,2.8-2.4C454.9,965.4,454.3,966.6,452.4,966.2z"/>
	<path class="st28" d="M226.8,682.1c-0.8,0-1.5,0-2.2,0.2c0.6-1,1.3-2.1,1.9-3.1C226.6,680.1,226.7,681.1,226.8,682.1z"/>
	<path class="st48" d="M117.1,641.7c2.6,0.8,5.2,1.6,7.8,2.3c34.5,15.2,67.9,32.5,99.5,53c6.1,3.9,12.4,7.6,18.6,11.4
		c23,15.9,43.2,36,69.8,46.5c-0.9,1.5-1.9,3-2.8,4.5c-5.2,3-10.6,1.9-15.9,0.8c-33.2-23-66-46.6-99.7-68.7
		c-19-12.4-39.5-22.6-59.5-33.5c-7.6-4.2-15.6-7.6-23.4-11.4C111.7,643.2,113.8,641.8,117.1,641.7z"/>
	<path class="st49" d="M294,760.3c5.3-0.3,10.6-0.5,15.9-0.8C304.9,764.4,299.5,763.6,294,760.3z"/>
	<path class="st21" d="M481.4,933.9c-0.9,0.1-1.8,0.2-2.7,0.3c0.2-0.8,0.5-1.7,0.8-2.5C480.2,932.5,480.8,933.2,481.4,933.9z"/>
	<path class="st50" d="M467.9,950c-0.8,0.2-1.7,0.3-2.6,0.3c0.2-0.8,0.5-1.7,0.8-2.5C466.7,948.6,467.3,949.3,467.9,950z"/>
	<path class="st3" d="M463.5,644.5c-22.3,21.7-48,39.3-72.2,58.7c-13.8,11.1-28.6,21.2-43.6,30.8c-20.7,13.3-28.5,21.2-54.5-0.1
		c-3-2.4-6.5-4.2-9.7-6.4c-2.9-5.2-1.8-10.6-0.8-16c13-40,25.5-80.2,39-120.1c17.5-51.7,32.5-104.2,52.3-155.1
		c0.8-2,0.5-4.4,0.8-6.6c8.9-3.2,4.8,5.3,7.2,8c-5.3,11.6,1.9,15.7,11.1,18.7c16,5.1,31.4,11.4,45.9,19.9c7.5,4.4,10.2,10,11,17.7
		c1.8,2.4,2.2,5.1,2.2,7.9c0.3,5.3-3,11,1.9,15.7c0.7,2,0.7,4.1,0.8,6.2c-0.1,5.4-2.6,11.1,2.1,15.8c0.7,2.8,0.6,5.7,0.6,8.5
		c-1.4,7.1-1.7,14.1,2.2,20.7c0.5,2.9,0.4,5.8,0.4,8.7c-1.5,7.3-1.6,14.4,2.3,21.1c0.5,3.7,0.4,7.4,0.4,11.1
		c-0.8,9.5-2.4,19,1.9,28.2C465.3,640.4,464.8,642.5,463.5,644.5z"/>
	<path class="st3" d="M195,290.1c-0.8-7-0.9-13.9,5.1-19.2c10.9-2.7,19.7-11.9,31.9-10.4c7.9,2.7,3.2,11.6,7.8,16
		c0.5,2.9,0.5,5.9,0.4,8.9c-1.6,8.7-2.1,17.5-0.2,26.2c0.2,2.6,0.4,5.2,0.6,7.8c1.6,5.3,2.7,10.4-3,14.1
		c-10.9-8.2-21.3-17-30.7-26.9C202.1,301.6,196.9,297.1,195,290.1z"/>
	<path class="st3" d="M470.6,601.6c10.5-11.3,22.2-21.1,35.4-29.1c6.9,1.9,13.8,1,20.7-0.3c4.7-0.5,8.3,1.5,11.5,4.7
		c0.8,1.5,7.9-0.5,3.1,3.6c-20.3,17.3-41.2,33.9-61.9,50.7c-8.9-1.1-4.8-10.7-9.5-14.5C470,611.7,469.1,606.6,470.6,601.6z"/>
	<path class="st48" d="M245.7,701.3c-4.3-7.5-17.8-4.8-18.5-16.4l0.1,0.3c1.1-2.2,3-1.7,4.8-1.4c5.4,1,10.8,1.7,16.2,1.4
		c13.9,4.5,19.7,15.9,24.9,28.1c0.8,1.8,1.3,2.7-0.2,4.4c-2.7,3-3.6-0.2-5.1-1.2C260.5,711.5,253.1,706.4,245.7,701.3z"/>
	<path class="st29" d="M347.7,352.5c17.7-4.2,36.2-4.8,53.6-10.8c2.7,3.3,2.9,6.6-0.2,9.9l0.3,0.9c-5.4,1.3-10.8,1.3-16.2,0
		c-2.2-0.5-4.5-1.1-5.5,1.9c-4.9,4-11.3-0.5-16.3,2.9c-1.7,0.2-3.4,0.4-5.1,0.6c-2.4,1.2-4.9,0.8-7.4,0.6
		C348.4,357.2,346.8,355.5,347.7,352.5z"/>
	<path class="st48" d="M401.2,351.5c0.1-3.3,0.1-6.6,0.2-9.9c3.5-0.2,7-0.5,10.5-0.7c1.1-1.1,2-1,2.9,0.2l0.2-0.1c0.7,1,1.5,2,2.1,3
		c0,5.1,0,10.2,0,16.7C411.1,357.3,406.1,354.4,401.2,351.5z"/>
	<path class="st51" d="M382.1,437.8c-3.1-2.1-1.5-8.3-7.2-8c1.7-6.5,3.2-13.1,5.2-19.5c0.8-2.3,2.8-5.2,5.8-4.2
		c3.2,1,2.2,4.6,1.8,6.8C386.1,421.2,384,429.5,382.1,437.8z"/>
	<path class="st42" d="M511.5,424.1c5.4,17.8,1.6,35.9,2.1,53.9c-0.5,1.3-1.2,1.4-2.1,0.3C511.5,460.2,511.5,442.2,511.5,424.1z"/>
	<path class="st18" d="M460.5,609.3c-0.2-3.5-0.4-7-0.6-10.5c-0.9-2.8-1.8-5.6,0.9-8.1c9.3,9.1,4.7,19.4,2.7,29.6
		C459.7,617.4,463.5,612.5,460.5,609.3z"/>
	<path class="st52" d="M511.5,478.3c0.7-0.1,1.4-0.2,2.1-0.3c0.3,0.9,0.6,1.9,0.9,2.8c-0.3,13.4-0.6,26.7-0.8,40.1
		c-0.7,0.1-1.3,0.3-2,0.4C511.6,506.9,511.6,492.6,511.5,478.3z"/>
	<path class="st31" d="M457.8,577.1c-0.2-2.6-0.4-5.2-0.6-7.8c-0.9-2.8-1.9-5.6,0.9-8.1c9.1,7.2,4.8,15.8,2.7,24.2
		C457.5,583.5,460.3,579.4,457.8,577.1z"/>
	<path class="st15" d="M471.6,617.6c8.5,1.1,2,11,7.9,13.6c-1.4,2-2.3,5.3-5.5,3.8c-3.9-1.8-2.5-6.1-3.3-9.4
		C469.8,622.9,468.8,620,471.6,617.6z"/>
	<path class="st18" d="M455.1,547.6c-0.2-2.6-0.4-5.2-0.6-7.8c-0.9-2-1.2-3.9,0.9-5.4c9.2,6.1,4.9,14,2.7,21.5
		C454.8,554,457.6,549.8,455.1,547.6z"/>
	<path class="st9" d="M463.5,644.5c-0.3-1.8-0.6-3.6-0.9-5.4c-0.9-3.7-2.2-7.4,0.9-10.7C471,633.8,471.1,639.1,463.5,644.5z"/>
	<path class="st31" d="M538.2,577c-4.2,2.1-6.5-3.6-10.5-2.4c-1.5-1.7-4.6-0.5-5.7-3C528.8,569.3,536.6,564.1,538.2,577z"/>
	<path class="st51" d="M347.7,352.5c0.9,1.5,1.7,2.9,2.6,4.4c-1.5,2.2-3.3,1.8-5.3,0.9c-2.7,0.9-5.4,1.8-8.1,2.7
		c-3.1,1-5.8,1.4-5.8-3.1C335.5,352,342.9,356.4,347.7,352.5z"/>
	<path class="st53" d="M315.4,359.5c0.9,0.3,1.9,0.6,2.8,0.9c-4.4,8.6-10.3,5.5-16.2,2c2.7-4.5,7.4-1.3,10.9-2.9
		C313.7,359.1,314.5,359,315.4,359.5z"/>
	<path class="st54" d="M414.8,309.5c2.5,2.4,0.9,5,0.4,7.6c-0.3,7.2-0.6,14.3-0.9,21.5c-0.7,0.9-1.5,0.9-2.2,0c0-10,0-19.9,0.1-29.9
		C413.3,308.1,414.1,308.4,414.8,309.5z"/>
	<path class="st31" d="M452.4,523.4c-0.2-1.7-0.4-3.4-0.6-5.1c-0.9-2-1.3-3.9,0.9-5.4c8.4,5.2,5.4,12,2.7,18.8
		C452.1,529.8,455,525.7,452.4,523.4z"/>
	<path class="st43" d="M463.5,628.4c-0.3,3.6-0.6,7.2-0.9,10.7c-4.8-9.6-1.2-19.9-2.1-29.8c4.8,2.6,1.3,7.6,3,11.1
		C463.5,623,463.5,625.7,463.5,628.4z"/>
	<path class="st55" d="M237.5,333.5c2.6-4.4,3-9.2,3-14.1c5.1,5.6,1.4,12.5,2.6,18.7C239.9,338.1,238.7,335.8,237.5,333.5z"/>
	<path class="st31" d="M471.6,617.6c-0.3,2.7-0.6,5.4-0.9,8c-3.5-8-3.5-16,0-24.1C470.9,606.9,471.3,612.3,471.6,617.6z"/>
	<path class="st33" d="M449.8,502c0.1-2.6,0.2-5.2,0.3-7.8c8.7,4.1,4.9,10.2,2.8,16.2C449.4,508.4,452.3,504.2,449.8,502z"/>
	<path class="st43" d="M455.1,547.6c4.2,1.6,1.7,5.7,3,8.4c0,1.8,0,3.5,0,5.3c-0.3,2.7-0.6,5.4-0.9,8.1
		C452.8,562.4,455.9,554.8,455.1,547.6z"/>
	<path class="st56" d="M280.6,365.9c5.4-0.9,10.7-1.8,16.1-2.7C292.6,371.8,286.5,368.1,280.6,365.9z"/>
	<path class="st57" d="M331.1,357.3c0.8,3.1,3.7,2.4,5.8,3.1c-4.7,3.2-9.2,3.8-13.5-0.7C325,356,328.4,357.8,331.1,357.3z"/>
	<path class="st22" d="M522.1,571.6c2,0.7,4.9-0.1,5.7,3c-7.2-0.8-14.8,2.4-21.7-2.1C511.4,572.2,516.7,571.9,522.1,571.6z"/>
	<path class="st22" d="M457.8,577.1c4.2,1.7,1.7,5.7,3,8.4c0,1.8,0,3.5,0,5.3c-0.3,2.7-0.6,5.4-0.9,8.1
		C455.5,592,458.6,584.3,457.8,577.1z"/>
	<path class="st58" d="M232.3,685.3c-1.7,0-3.4,0-5,0c-0.1-1.1-0.1-2.3-0.2-3.4c6.1,1.5,13-2.2,18.7,2.5
		C241.5,687.4,236.8,686,232.3,685.3z"/>
	<path class="st43" d="M449.8,502c4.2,1.6,1.8,5.7,3.1,8.4c0,0.9,0,1.7,0,2.6c-0.3,1.8-0.6,3.6-0.9,5.4
		C447.8,513.3,450.3,507.4,449.8,502z"/>
	<path class="st18" d="M385.2,352.4c5.4,0,10.8,0,16.2,0C396.1,355.7,390.6,355.9,385.2,352.4z"/>
	<path class="st27" d="M282.8,711.6c0.3,5.3,0.5,10.6,0.8,16C278.7,722.5,279.7,717.1,282.8,711.6z"/>
	<path class="st18" d="M363.4,357.2c4.6-5.5,11-0.9,16.3-2.9C375.1,359.8,368.9,356.4,363.4,357.2z"/>
	<path class="st22" d="M452.4,523.4c4.2,1.6,1.7,5.7,3,8.4c0,0.9,0,1.8,0,2.6c-0.3,1.8-0.6,3.6-0.9,5.4
		C450.5,534.8,453,528.9,452.4,523.4z"/>
	<path class="st22" d="M232.3,685.3c4.5-0.3,9-0.6,13.5-0.9c0.9,0.3,1.7,0.5,2.5,0.9C243,688.6,237.6,688.6,232.3,685.3z"/>
	<path class="st9" d="M345,357.8c1.8-0.3,3.6-0.6,5.3-0.9c2.7,0.3,5.3,0.6,8,0.9C353.9,361.1,349.4,361.1,345,357.8z"/>
	<path class="st59" d="M412.1,338.6c0.7-0.1,1.5-0.1,2.2,0c0.4,0.8,0.5,1.7,0.4,2.6c-1-0.1-1.9-0.2-2.9-0.2
		C412,340.2,412.1,339.4,412.1,338.6z"/>
	<path class="st60" d="M417.1,344.1c-0.7-1-1.4-2-2.1-3C416.5,341.5,417.4,342.4,417.1,344.1z"/>
	<path class="st61" d="M414.7,249.7c-2.2,4.3-1.1,7.8,2.3,10.9c0.3,0.8,0.5,1.6,0.6,2.4c1.9,9.1,1.9,18.3,0,27.4
		c-0.2,1.7-0.4,3.4-0.6,5.1c-2.4,2.2-4.8,2.2-7.2,0c-5.5-23.2-11.1-46.3-16.6-69.5c-0.9-3.3-3.6-7,2.4-8.2c3.5,7.4,6.8,15,10.6,22.2
		C408.2,243.8,407.6,250.3,414.7,249.7z"/>
	<path class="st62" d="M395.6,217.9c-2.9,2.1-2.1,5.3-2.4,8.2c-7.3-8.2-7.2-18.8-11.3-32C392.6,201.5,393.1,210.2,395.6,217.9z"/>
	<path class="st63" d="M237.7,284.6c-0.2-2.6-0.4-5.2-0.6-7.9c-0.9-2.8-1.9-5.6,0.9-8c9.2,6.1,4.9,14,2.7,21.5
		C238.2,289.2,239.4,286.1,237.7,284.6z"/>
	<path class="st5" d="M267.2,153c-0.2-2.6-0.3-5.2-0.5-7.8l0.9,0.2c3.3-5.1-3.2-13,4.8-16.7c1.8,1.5,2.4,3.5,2.6,5.7
		c1.3,6.3-3,12.6-0.3,19c0.5,2-0.8,2.6-2.3,3.1C270.7,155.3,268.9,154.1,267.2,153z"/>
	<path class="st64" d="M409.8,295.6c2.4,0,4.8,0,7.2,0c-0.4,4.7,2.8,10-2.2,13.9c-0.9-0.2-1.7-0.5-2.6-0.7
		C411.4,304.4,410.6,300,409.8,295.6z"/>
	<path class="st65" d="M326.1,152.9c7.2,0,14.5,0,21.7,0c1,1,1.9,2,2.9,3c-9.8,0-19.6,0.1-29.3,0.1c0-0.9-0.1-1.9-0.1-2.8
		C322.8,153.1,324.4,153,326.1,152.9z"/>
	<path class="st66" d="M237.7,284.6c2.7,1,2.4,3.6,3,5.7c-0.3,7.1-0.6,14.2-0.8,21.4C235.3,302.9,238.5,293.6,237.7,284.6z"/>
	<path class="st67" d="M312.7,137.7c0.8-0.5,1.6-0.6,2.4-0.3c3,7.9,1.6,16,0.8,24c-1,1-2,2-3,3C312.8,155.5,312.8,146.6,312.7,137.7
		z"/>
	<path class="st42" d="M315.9,161.4c-0.3-8-0.5-16-0.8-24c6,7.2,1.6,15.8,3,23.6C317.4,161.3,316.7,161.5,315.9,161.4z"/>
	<path class="st68" d="M238.1,268.7c-0.3,2.7-0.6,5.3-0.9,8c-5-4.4,0.7-12.1-5.2-16.2C237.3,258.8,237.3,258.8,238.1,268.7z"/>
	<path class="st69" d="M240.2,151.1c6.4,0.2,13.2-2.8,19.1,2C253,152.6,246.2,155.4,240.2,151.1z"/>
	<path class="st70" d="M288.7,171.7c5.9-4.3,12.6-1.4,18.9-2.1C301.8,174.6,295.1,171.5,288.7,171.7z"/>
	<path class="st71" d="M315.4,359.5l-1.3,0.3c0,0-1.3-0.3-1.3-0.3C313.6,358,314.5,358,315.4,359.5z"/>
	<path class="st32" d="M272.9,78.3c0,4.4,0.1,8.8,0.1,13.3c2.3,3.5,2.5,7.2,1.3,11.1c-1.8,2.9-3.7,5.2-7.1,1.9
		C272.3,96.6,266.4,86.1,272.9,78.3z"/>
	<path class="st44" d="M267.1,104.6c2.5,0.7,4.8,0.9,5.8-2.2c2.1-0.3,3.7-0.1,2.2,2.6c-2.3,4.5-11,0.6-10.9,8.4
		c-2.5-1.5-5.4-2.9-4.9-6.3c0.4-2.7,3.4-1.7,5.1-2.5C265.3,104.6,266.2,104.6,267.1,104.6z"/>
	<path class="st31" d="M291.3,70.6c-4-1.7-7.3,0.7-10.8,1.8c4.1-8.8,10.2-4.9,16.2-2.7C295.2,71.9,293.3,71.5,291.3,70.6z"/>
	<path class="st43" d="M291.3,70.6c1.8-0.3,3.6-0.6,5.4-0.9c2.6,0,5.3,0.1,7.9,0.1C300.4,74.5,295.9,73.7,291.3,70.6z"/>
	<path class="st9" d="M295.1,108.4c5.9,0,11.6,0,18,0C304.1,118.6,303.4,118.6,295.1,108.4z"/>
	<path class="st32" d="M321.3,83.6c-1.9,2.6-3.2,6.7-7.6,4.7c-2.2-1-3.9-3.3-3.6-6.3c0.6-5.8,4.9-3.1,7.8-3.6
		C319.7,79.6,322.2,80.5,321.3,83.6z"/>
	<path class="st11" d="M289.6,83.6c4.3-1.1,4.3,3,5.6,5.4c1.7,3.5-1.6,4.9-3.6,5c-3.4,0.1-5.3-2.5-5.6-5.9
		C285.7,85.6,286.3,83.7,289.6,83.6z"/>
	<path class="st42" d="M272,129.2c-4.8,4.5,0.3,11.7-4.4,16.2c-0.2-6.2-0.4-12.4-0.6-18.6c0.9-2.6,1.8-5.3,2.8-7.9
		c5.1,0.9,1.5,5.3,3.2,7.6C273.5,127.7,273.2,128.6,272,129.2z"/>
	<path class="st3" d="M326.3,86c4.2,1.7,1.7,5.7,3,8.4c0,1.7-0.1,3.4-0.1,5.1c1.5,5.5,1.5,11.1,0,16.6l-0.5-0.3
		C323.3,106.2,327.4,95.9,326.3,86z"/>
	<path class="st67" d="M272,129.2c0.3-0.9,0.6-1.8,0.9-2.7c8.4,5.2,5.4,12.1,2.7,18.9c-3.9-2.9-0.1-7.9-3.1-11
		C272.4,132.6,272.2,130.9,272,129.2z"/>
	<path class="st36" d="M289.1,137.2c6-3.1,12.1-4.4,18.2-0.3C301.2,135,295.3,145,289.1,137.2z"/>
	<path class="st51" d="M275.2,105c-0.7-0.9-1.5-1.8-2.2-2.6c0-3.6,0-7.2,0-10.8C280.7,94.9,278.9,99.8,275.2,105z"/>
	<path class="st15" d="M321.3,83.6c-1.1-1.7-2.3-3.5-3.4-5.2c7.7,0.3,3.7-8.8,8.7-10.7c-0.3,4.5-0.5,8.9-0.8,13.4
		C324.2,81.8,322.8,82.7,321.3,83.6z"/>
	<path class="st27" d="M272.6,134.3c4.7,2.6,1.4,7.5,3.1,11c-0.3,2.7-0.6,5.3-1,8C270.4,147.4,273.3,140.6,272.6,134.3z"/>
	<path class="st72" d="M320.9,136.9c4.2,4.7,4.1,9.4,0,14.1C320.9,146.3,320.9,141.6,320.9,136.9z"/>
	<path class="st35" d="M417.6,290.5c0-9.1,0-18.3,0-27.4C421.8,272.2,421.7,281.4,417.6,290.5z"/>
	<path class="st5" d="M484.5,228.6c0.7-1.8,1.5-3.7,2.2-5.5c0.2,2.6,0.4,5.2,0.6,7.8c1.8,4.7,1.8,9.4,0,14.1
		c-0.2,2.6-0.4,5.2-0.6,7.8c-3.2-3.1-1.9-7.2-2.2-10.9C482.5,237.4,482.5,233,484.5,228.6z"/>
	<path class="st73" d="M484.5,228.6c0,4.4,0,8.9,0,13.3c-0.7,0-1.5,0.1-2.2,0.2c0-4.6,0-9.1,0-13.7
		C483,228.5,483.8,228.5,484.5,228.6z"/>
	<path class="st42" d="M487.4,244.9c0-4.7,0-9.4,0-14.1C491.6,235.6,491.5,240.2,487.4,244.9z"/>
</g>
</svg>
