<?xml version="1.0" encoding="utf-8"?>
<!-- Generator: Adobe Illustrator 27.1.0, SVG Export Plug-In . SVG Version: 6.00 Build 0)  -->
<svg version="1.1" id="Layer_1" xmlns="http://www.w3.org/2000/svg" xmlns:xlink="http://www.w3.org/1999/xlink" x="0px" y="0px"
	 viewBox="0 0 970 1050" style="enable-background:new 0 0 970 1050;" xml:space="preserve">
<style type="text/css">
	.st0{fill:#12B76A;}
	.st1{fill:#191919;}
	.st2{fill:#1D1D1E;}
	.st3{fill:#1A1A1A;}
	.st4{fill:#1E1F1F;}
	.st5{fill:#1F1F1F;}
	.st6{fill:#202020;}
	.st7{fill:#2B2B2B;}
	.st8{fill:#303030;}
	.st9{fill:#545454;}
	.st10{fill:#949494;}
	.st11{fill:#405C75;}
	.st12{fill:#FFFFFF;}
	.st13{fill:#FEFEFE;}
	.st14{fill:#FBFBFB;}
</style>
<g>
	<path class="st0" d="M464.4,974.5c-16.1,14.7-31.6,30.1-48.4,43.8c-44.4,36.1-63.4,34.7-103.5-6.5c-12.3-12.7-23.7-26.1-35.6-39.2
		c-5.4-1.2-8.5-5-11-9.4c-36-62.9-80.4-119.8-123.8-177.5c-27.4-36.5-56.9-71.4-82.8-109.1c-11.9-17.8-27.5-32.4-41.2-48.7
		c-2.7-3.2-8.6-6.1-5.5-11.1c2.9-4.6,8.2-1.5,12.4-0.3c75.8,21.2,146.1,54,210.3,99.7c19.6,13.9,39.1,28,59,41.6
		c10.1,6.9,20.8,11.6,32.4,2.7C403,724.4,462.3,665.1,526.8,613c56.6-45.7,111.4-93.6,166.9-140.6
		c73.9-62.6,148.1-124.9,222.6-186.8c1.5-1.2,2.4-2.7,2.8-4.5c13.7-10.9,27.3-21.8,41-32.6c1.4,1,2.8,1.9,4.2,2.9
		c-23,40.7-47.7,80.5-72.8,120c-19.3,26-34.2,54.8-51,82.3c-82.3,134.3-170.7,264.3-267.1,389c-32.5,42-66.3,83-99.8,124.2
		C471.1,970,468.7,973.3,464.4,974.5z"/>
	<path class="st1" d="M919.2,281.1c6.4,7.3-2.4,8.1-5.1,10.4c-63.2,53.4-126.6,106.5-190,159.6C621,537.5,519.9,626.4,413.9,709.4
		c-17.9,14-36.3,27.4-55.7,39.3c-9.7,6-19.8,11.1-31.6,11.5c-21.5-6.2-38.3-20.4-55.7-33.4c-47.5-35.5-98.4-64.6-153.5-86.6
		c-3.3-1.3-6.6-2.6-9.9-3.9c-1.5-1.8-1.7-3.6,0.1-5.4c40.6,12.6,78.8,30.3,114.4,53.6c7.8,5.1,11.8,4.6,14.2-5.7
		c6.2-26.9,8.6-54.4,13.3-81.5c5-29.3,7.9-59,13-88.4c4.2-23.7,6.7-47.8,8.8-71.8c0.5-6.1,5.7-11.7,1.5-18.8
		c-6.6,1.5-11.5,7.6-18.9,8.5c-3.2,0.4-7.6,4.4-9.4,0.7c-2.5-5.2,3.8-6.1,7-8c6.2-3.6,12.8-6.5,18.9-10.3
		c18.1-11.5,20.5-32.3,4.3-46.5c-18.1-16-40.2-27-57.5-44.2c-5.2-5.1-11.3-9.6-15.3-15.5c-9.1-13.6-8.9-27.5,1.6-40.6
		c4.4-0.6,5.8,2,6.1,5.8c-5.6,13-2.2,23.3,7.9,33c11.5,11,23.2,21.7,36.2,30.9c7.4,5.9,15.9,10.7,22.4,17.4c9.7,10,20.3,12.5,33,8
		c11.7,0.4,23-3.4,34.6-3.4c16.3-3.1,32.8-4.9,49.2-7.3c7.6-1.1,15.6-1.9,22.7,1.1c10,4.2,11.8,0.2,10.5-8.6
		c0.9-9.5-2.4-19.4,3.4-28.2c0.2-20.6,6.8-41,2.1-62c7.9,14.8,7,30.1,5.2,45.9c-2.3,20.1-4.4,40.2,4.5,59.6
		c2.8,6.1,7.3,10.2,13.1,13.2c19.1,9.9,38.1,19.9,56.6,31c11.9,7.2,16.6,17.6,17,30.2c0.6,16.4-0.1,32.8-0.2,49.2
		c-2.3,14.5-0.4,29.2-1,43.8c0.9,14.5-1.9,29.2,1.5,43.6c9.3,1,18.8-1.5,28,2.7c9.8,4.5,17.1-0.5,24.5-7
		c62.6-53.9,125-107.8,188.2-161c45.2-38.1,91.3-75.1,137.1-112.4C910,285,914.8,283.4,919.2,281.1z"/>
	<path class="st0" d="M306.3,360.9c-9.4,5-17.6,4.3-25.7-3.3c-8.9-8.3-18.7-15.6-28.2-23.4c-6.2-10.1-6.1-21.5-6.5-32.7
		c-0.4-9.9,0.1-19.8-1.8-29.7c-2.6-13.2-4.2-13.9-17.1-8.9c-5.8,2.3-10.8,9.2-18.4,4.5c-1.7-1.7-3.3-3.3-5-5
		c-18.3-20.2-40.3-36.5-60.6-54.4c-6.8-6-8-8.8,0.4-14.1c31.4-20.2,62.9-39.9,100.4-46.7c10.2-1.5,20.5-1.4,30.7,0
		c0.9-0.7,1.9-1.4,2.8-2.1c4.7-0.5,4.4,2.7,4.5,5.7c6.1,11.3,15.4,17,28.3,16.1c7.9-0.6,15-3.1,16.6-12.4c1.8-3.3,4.9-5.1,7.9-7
		c45.5,0,90.2,3.5,131.2,26.2c6.1,3.4,12.2,6.6,10.7,15.2l0.2-0.2c-15.1,10.6-23.4,27.3-35.4,40.6c-5.1,5.7-9.7,11.9-15.8,19.4
		c-8.8-19.9-17-38.4-25.2-57c-1.3,0.5-2.6,0.9-3.8,1.4c10.4,39.4,20.8,78.8,31.2,118.1c2,8,0.7,16,0.8,24.1
		c-3.2,7.6-10.6,7.7-17,8.9c-22.5,4-45.1,7-67.6,11.2C331.2,356.9,318.8,359.3,306.3,360.9z"/>
	<path class="st2" d="M464.4,974.5c57.9-71.9,115.5-143.9,170.1-218.4c88.3-120.3,169.1-245.4,245.3-373.6
		c2.7-4.6,3.5-12.1,11.8-11.1c-3.6,16.7-14.8,29.5-23.2,43.5c-46,76.8-94.2,152.1-144.3,226.3c-33.8,50-69.1,99.1-105.1,147.6
		c-33.5,45.2-68.5,89.1-103.9,132.7c-13.3,16.5-27.2,32.5-40.9,48.7C471.8,973,469.7,977.7,464.4,974.5z"/>
	<path class="st3" d="M281.8,150.8c-1.5-1.9-3-3.8-4.5-5.7c-0.1-4.5-0.7-9.1-0.3-13.6c0.6-7.6-0.9-13-8.2-17.8
		c-5.4-3.5-14-9.4-3.9-18.1c3.5-3-0.8-6.8-1.7-9.9c-6.7-21.8-3.9-29.1,14-42.5c6.7-5,10.5-13.7,16.8-19.3
		C309,10.3,325.7,1.6,347.2,8.1c15.1,4.5,19.8,16.5,9.9,28.7c-14.4,17.9-34.2,24.8-56.1,25.9c-11.6,0.6-17.5,5.1-18.4,16.5
		c1.1,8.2,4.9,17.6-8.7,18.9c-10.9,2.7-2.9,6.9-0.3,9.3C284.7,117.4,288.6,137.1,281.8,150.8z"/>
	<path class="st4" d="M59.3,676.5c1.9,1.2,4.2,2.1,5.5,3.8c64.3,84.8,132.4,166.8,189.8,256.6c7.5,11.8,13.1,24.9,22.4,35.6
		c-3.4,3.8-6.1,9.5-11,0.8c-40.7-71.6-90.3-137-139.5-202.8c-20.8-27.7-42.7-54.6-63.9-82C59.9,685.3,55.9,681.7,59.3,676.5z"/>
	<path class="st5" d="M238.3,390.1c-8.5,2.3-17.2,1.3-25.1-2.4c-35.2-16.4-67.5-36.9-93.3-66.9c-18.9-21.9-19.2-54.8-7.6-77.8
		c6-11.8,11.5-24.4,25.7-34c-2.9,12.5-10.1,19.9-14.4,28.6c-10.6,21.3-15.2,42.6-5.2,65.5c2.8,6.4,7.1,11.3,11.7,16.2
		c29.1,31.4,65.6,51.2,105.2,66.1C237.1,386.1,238.6,386.5,238.3,390.1z"/>
	<path class="st6" d="M476.5,188.8c16.5,0.2,27.2,21.7,27,42.7c-0.3,26.9-9.6,51.7-23.2,74.8c-1.8,3.1-4.1,5.8-5.7,8.9
		c-7,13.2-3.9,19.8,10.8,24.2c3.4,1,6.6,2.4,10.7,4c-9.2,8.5-17.8,7.6-26.6,0.6c-7.2-5.7-9.2-21.4-4.1-31
		c11.5-21.7,24.3-42.4,28.2-67.8c3.1-20.7,1.8-37.9-15.1-51.8c-1.1-0.9-1.2-3.2-1.8-4.8C476.6,188.7,476.5,188.8,476.5,188.8z"/>
	<path class="st3" d="M334.6,147.5c-1.3,3.8-0.7,9.8-7.9,7c-0.2-2.3-0.9-4.6-0.5-6.8c2.6-13.8-2.9-18.7-16.6-16.4
		c-3.1,0.5-9.2,2.7-10.2-2.9c-1.1-6.3,4.9-4.8,8.6-5.5c1.7-0.3,3.3-1.3,5.1-1.7c27.9-7.1,33-15.3,25.8-43.2
		c-1.6-6.3-1.9-11.7-0.2-19.2c11.3,10.7,6.3,23.9,9,35c2.6,10.7,2.8,22.7-9.8,30.9C329.8,129.7,335.8,139.8,334.6,147.5z"/>
	<path class="st7" d="M107.6,631c0,1.8,0,3.6-0.1,5.4c-21-10-44.4-13.5-64.9-24.9C64.8,616.5,87.8,618.3,107.6,631z"/>
	<path class="st8" d="M212.2,414.2c10.4-3.5,20.9-7,31.3-10.6c2.1-0.7,4.1-2.6,5.9,0c1.8,2.6-0.3,4.3-2.1,5.4
		C236.6,415.9,224.8,416.9,212.2,414.2z"/>
	<path class="st9" d="M526,522.4c0.4-14.7-2.9-29.6,2-44.1c0,14.5,0,29.1,0.1,43.6C527.6,523.1,526.9,523.3,526,522.4z"/>
	<path class="st10" d="M526,522.4c0.7-0.2,1.3-0.3,2-0.5c0.2,14.6,0.3,29.2,0.5,43.8c-7.2-8-1.2-17.4-2.6-26
		C524.9,534,525.9,528.1,526,522.4z"/>
	<path class="st3" d="M301.5,76.4c3.1,0.1,5,1.5,5.2,4.8c0.2,3.2-1.6,5.5-4.4,5.7c-3.7,0.4-5.4-2.6-5.9-5.9
		C296,77.4,298.5,76.5,301.5,76.4z"/>
	<path class="st3" d="M324,104.2c-5.8,2.5-11.6,9.5-17.3-0.1C312.5,97.4,318.3,97.5,324,104.2z"/>
	<path class="st3" d="M325.6,71.1c3.5-0.2,6.5,0.3,6.2,4.9c-0.2,3.1-1.8,5.6-4.8,5.1c-2.8-0.5-6.3-1.1-6.4-5.6
		C320.5,71.6,322.5,70.9,325.6,71.1z"/>
	<path class="st0" d="M274.5,147.2c-10.2,0-20.5,0-30.7,0C254.1,143.3,264.3,143.2,274.5,147.2z"/>
	<path class="st11" d="M426.8,337.1c0.2-8.6,0.5-17.3,0.7-25.9c0.7,0.1,1.3,0.1,2,0c0,10.2,0,20.4,0.1,30.6
		C425.9,341.8,425.5,340,426.8,337.1z"/>
	<path class="st3" d="M273.9,98.1c12.7-1.8,6.8-12.2,8.7-18.9C287.7,96.1,286.8,98.2,273.9,98.1z"/>
	<path class="st3" d="M324,104.2c-5.7-4.4-11.5-4.4-17.3-0.1c0.7-5.1,13.5-8.1,18.7-4.1C326.9,101.3,325.5,103.2,324,104.2z"/>
	<path class="st12" d="M292.9,718.8c2.7-19.2,10.5-38.8,17.5-58.4c27.8-78.4,51.2-158.3,78.6-236.8c0.1-0.4,0-1,0.3-1.3
		c4.3-5.1-1.4-17.6,8.9-16.3c3.8,0.5-0.5,12.7-1.9,19.1c-5.7,26-6.2,25.9,17.8,34.1c46.7,16.1,48.7,17.7,53.8,66.1
		c3.9,36.6,5.6,73.4,8.7,110.1c0.8,9.9-2.6,15.6-10.6,22.3c-36.8,31-75.5,59.2-114.9,86.5c-17.2,11.9-44.4,5.9-56.3-11.7
		C292,728.6,294,724.5,292.9,718.8z"/>
	<path class="st13" d="M560.9,577.9c-24.1,20.4-46.6,39.6-69.1,58.7c-4.6,3.9-6.5,3.5-7.3-3c-3.1-25.6,9.3-48.4,33.4-58.4
		c8.4-3.5,18.1-2.1,26.8-0.3C549.4,575.8,554.3,576,560.9,577.9z"/>
	<path class="st0" d="M426.8,337.1c0.9,1.6,1.9,3.1,2.8,4.7c0.3,5.2,0.9,10.4,5.3,18.5c-32-19-60.8-4.9-89.8-2.7
		c-2-0.8-3.3-1.9-2.5-4.3C370.8,347.8,398.8,342.4,426.8,337.1z"/>
	<path class="st14" d="M281.7,723.7c-15.3-10.5-30.6-21-46-31.6C258.9,681.4,284,698.8,281.7,723.7z"/>
	<path class="st0" d="M342.7,353.2c0.8,1.4,1.6,2.9,2.5,4.3c-13,0.6-25.7,5-38.9,3.3C318,356.1,330.5,355.4,342.7,353.2z"/>
</g>
</svg>
