<?xml version="1.0" encoding="utf-8"?>
<!-- Generator: Adobe Illustrator 27.1.0, SVG Export Plug-In . SVG Version: 6.00 Build 0)  -->
<svg version="1.1" id="Layer_1" xmlns="http://www.w3.org/2000/svg" xmlns:xlink="http://www.w3.org/1999/xlink" x="0px" y="0px"
	 viewBox="0 0 820 1050" style="enable-background:new 0 0 820 1050;" xml:space="preserve">
<style type="text/css">
	.st0{fill:#121212;}
	.st1{fill:none;stroke:#0C0C0C;stroke-miterlimit:10;}
	.st2{fill:#020202;}
	.st3{fill:#12B66A;}
	.st4{fill:#FFFFFF;}
	.st5{fill:none;stroke:#C00037;stroke-width:0.5;stroke-miterlimit:10;}
	.st6{fill:#191919;}
	.st7{fill:none;stroke:#0C0C0C;stroke-width:0.5;stroke-miterlimit:10;}
	.st8{fill-rule:evenodd;clip-rule:evenodd;fill:#12B66A;}
	.st9{fill-rule:evenodd;clip-rule:evenodd;fill:#191919;}
</style>
<g>
	<g>
		<path class="st0" d="M155.3,946.1c-0.6-0.5-0.8-1-0.7-1.7c0.1-0.7,0.5-1.4,1.2-2.3c0.7-0.9,1.8-1.8,3.2-2.8
			c0.3-0.2,0.6-0.4,0.8-0.6c0.2-0.2,0.4-0.3,0.5-0.5c0.1-0.1,0.2-0.3,0.2-0.5c0-0.2,0-0.3,0-0.5c0.3,0.3,0.6,0.5,0.7,0.7
			c0.2,0.2,0.2,0.5,0.2,0.7c0,0.2-0.3,0.4-0.7,0.7c0.1-0.4,0.1-0.7,0-0.9c0-0.2-0.2-0.4-0.3-0.5c-0.2-0.2-0.7-0.3-1.3-0.4
			c-0.6,0-1.4,0-2.3,0.2c-0.9,0.1-1.9,0.4-3.1,0.7c-1.1,0.3-2.3,0.7-3.5,1.2c-0.7,0.3-1.2,0.4-1.6,0.3s-0.8-0.2-1.2-0.5
			c-0.6-0.5-0.7-1.1-0.4-1.8c0.3-0.7,1-1.4,1.9-2c0.6-0.5,1.2-0.8,1.7-1.1c0.5-0.3,1-0.6,1.5-0.8c0.5-0.2,1-0.5,1.4-0.7
			c0.5-0.3,1-0.6,1.5-1c0.4-0.3,0.8-0.5,1.3-0.5c0.4,0,0.8,0.2,1.2,0.5c0.4,0.4,0.6,0.8,0.6,1.2c0,0.4-0.4,0.9-1,1.4
			c-0.3,0.3-0.7,0.5-1.1,0.7c-0.3,0.2-0.7,0.4-1.1,0.5c-0.4,0.2-0.8,0.4-1.3,0.7c-0.5,0.3-1.1,0.7-1.7,1.2l0.2-1.3
			c1.8-0.7,3.5-1.1,5-1.3c1.5-0.2,2.8-0.2,4,0c1.1,0.2,2,0.5,2.6,1.1c0.9,0.7,1.3,1.5,1.1,2.3c-0.1,0.8-0.6,1.5-1.6,2.2
			c-1,0.7-1.8,1.3-2.4,1.9c-0.6,0.5-1.1,1-1.4,1.4c-0.3,0.4-0.4,0.8-0.4,1.2c0,0.3,0,0.5-0.2,0.7c-0.1,0.2-0.3,0.4-0.5,0.6
			c-0.4,0.3-0.9,0.4-1.4,0.4C156.2,946.6,155.7,946.4,155.3,946.1z"/>
		<path class="st0" d="M173.1,958c-1.2-0.7-2-1.6-2.6-2.5c-0.5-0.9-0.7-1.9-0.5-2.9c0.2-1,0.7-1.9,1.6-2.8c0.6-0.6,1.3-1,2.1-1.3
			c0.9-0.3,1.8-0.6,2.7-0.7c0.9-0.1,1.8-0.1,2.7,0c0.8,0.1,1.5,0.4,2.1,0.7c0.3,0.2,0.4,0.3,0.6,0.5c0.2,0.2,0.2,0.4,0.2,0.6
			c0,0.2-0.1,0.4-0.3,0.7c-0.4,0.4-0.9,0.7-1.4,0.9c-0.5,0.2-1.2,0.1-2-0.1c-0.4-0.1-0.8-0.1-1.2-0.1c-0.4,0-0.8,0.1-1.2,0.2
			c-0.4,0.1-0.7,0.3-1,0.6c-0.6,0.6-0.8,1.2-0.7,1.8c0.2,0.6,0.7,1.2,1.5,1.8c0.7,0.4,1.5,0.6,2.3,0.5c0.8-0.1,1.5-0.4,2.1-1
			c0.6-0.5,0.8-1.1,0.7-1.6c-0.1-0.5-0.4-1-1-1.4c-0.3-0.2-0.7-0.3-1-0.3c-0.3,0-0.8,0-1.3,0.1c-0.4,0-0.7,0.1-0.9,0.1
			c-0.2,0-0.5,0-0.7-0.1c-0.2-0.1-0.4-0.2-0.6-0.3c-0.3-0.2-0.4-0.4-0.4-0.6c0-0.3,0.2-0.6,0.6-1c0.3-0.3,0.8-0.6,1.3-0.8
			c0.6-0.2,1.2-0.3,1.8-0.3c0.7,0,1.3,0,1.9,0.1c0.6,0.1,1.2,0.3,1.6,0.6c1.2,0.7,2,1.5,2.5,2.3c0.5,0.8,0.6,1.7,0.4,2.6
			c-0.2,0.9-0.7,1.7-1.6,2.6c-0.9,0.8-1.9,1.5-3.1,1.8c-1.2,0.4-2.4,0.5-3.6,0.4C175.3,959.1,174.1,958.7,173.1,958z"/>
		<path class="st0" d="M207.7,977.3c-0.6-0.2-0.9-0.5-1-1c-0.1-0.5-0.1-1,0.1-1.6c0.2-0.6,0.5-1.2,0.8-1.8c0.4-0.6,0.8-1.2,1.2-1.8
			c0.4-0.6,0.9-1.2,1.2-1.8c0.2-0.3,0.4-0.6,0.5-0.9c0.1-0.3,0.3-0.6,0.4-0.9c0.2-0.3,0.4-0.5,0.8-0.6c0.4-0.1,0.8-0.1,1.2,0
			c0.5,0.2,0.8,0.4,0.9,0.7c0.2,0.3,0.2,0.7,0.2,1.1c-0.1,0.4-0.2,0.7-0.4,1.1l-0.9,0c0.5-0.5,1.1-0.9,1.7-1.3
			c0.6-0.3,1.2-0.6,1.9-0.6c0.6-0.1,1.3,0,1.8,0.2c0.6,0.2,1,0.5,1.2,0.9c0.2,0.4,0.3,0.9,0.2,1.4c-0.1,0.6-0.2,1.2-0.4,1.9
			c-0.2,0.7-0.4,1.3-0.6,1.8c-0.2,0.5-0.3,1-0.4,1.3l-0.7-0.4c1.1-1.1,2.3-2,3.3-2.7c1.1-0.7,2.1-1.1,3-1.4c1-0.2,1.8-0.2,2.5,0
			c1.2,0.4,1.8,1.1,1.8,2.1c0.1,1-0.2,2.4-1,4.1c-0.4,0.9-0.6,1.6-0.8,2.1c-0.1,0.5-0.2,0.9-0.2,1.3c0,0.3-0.1,0.6-0.1,0.8
			c0,0.2-0.1,0.4-0.2,0.7c-0.2,0.4-0.6,0.6-1,0.8c-0.4,0.1-0.9,0.1-1.4-0.1c-0.5-0.2-0.9-0.4-1.1-0.8c-0.2-0.3-0.4-0.8-0.3-1.4
			c0-0.6,0.2-1.4,0.6-2.2c0.3-0.8,0.6-1.5,0.8-2c0.2-0.5,0.3-0.9,0.4-1.2c0.1-0.3,0.2-0.6,0.2-0.8c0-0.2,0-0.5,0-0.8l0.8,0.5
			c-0.9,0.2-1.7,0.6-2.4,1.1c-0.8,0.5-1.5,1-2.3,1.7c-0.8,0.7-1.6,1.5-2.6,2.4c-0.4,0.4-0.7,0.6-1.2,0.7c-0.4,0.1-0.8,0.1-1.2-0.1
			c-0.6-0.2-0.9-0.5-1.1-0.9c-0.2-0.4-0.2-0.8-0.2-1.4c0.1-0.6,0.3-1.2,0.6-2c0.4-0.9,0.6-1.7,0.8-2.3c0.2-0.6,0.3-1.1,0.4-1.5
			c0.1-0.4,0.1-0.8,0.1-1.2l0.4,0.6c-0.6,0.3-1.2,0.6-1.7,1c-0.5,0.4-1,0.8-1.5,1.2c-0.5,0.4-0.9,0.9-1.4,1.5
			c-0.4,0.5-0.9,1.1-1.3,1.7c-0.3,0.4-0.6,0.6-1,0.8C208.6,977.5,208.1,977.5,207.7,977.3z"/>
		<path class="st0" d="M252.3,991c-1.4-0.3-2.5-0.8-3.3-1.5c-0.9-0.7-1.4-1.6-1.7-2.7c-0.3-1-0.2-2.1,0.2-3.3
			c0.3-0.7,0.7-1.4,1.3-2.1c0.6-0.6,1.3-1.2,2.1-1.6c0.8-0.4,1.6-0.7,2.4-0.9c0.8-0.2,1.5-0.2,2.2-0.1c0.3,0.1,0.5,0.2,0.8,0.3
			c0.2,0.1,0.4,0.3,0.4,0.5c0.1,0.2,0.1,0.5,0,0.8c-0.2,0.5-0.5,1-0.9,1.4c-0.4,0.4-1,0.6-1.8,0.6c-0.4,0.1-0.7,0.2-1.1,0.4
			c-0.4,0.2-0.7,0.4-1,0.7c-0.3,0.3-0.5,0.6-0.6,0.9c-0.3,0.8-0.2,1.5,0.2,2.1c0.4,0.6,1.1,1,2.1,1.2c0.8,0.2,1.6,0.1,2.3-0.3
			c0.7-0.4,1.2-0.9,1.5-1.7c0.3-0.7,0.2-1.3,0-1.8c-0.3-0.5-0.8-0.8-1.5-1c-0.4-0.1-0.7-0.1-1,0.1c-0.3,0.1-0.7,0.3-1.1,0.5
			c-0.3,0.2-0.6,0.3-0.8,0.4c-0.2,0.1-0.4,0.1-0.6,0.2c-0.2,0-0.4,0-0.7-0.1c-0.3-0.1-0.5-0.2-0.7-0.5c-0.1-0.2-0.1-0.7,0.1-1.2
			c0.2-0.5,0.4-0.9,0.8-1.3c0.4-0.4,0.9-0.7,1.4-1c0.6-0.3,1.1-0.5,1.7-0.6c0.6-0.1,1.2-0.1,1.7,0c1.3,0.3,2.4,0.8,3.2,1.4
			c0.8,0.7,1.3,1.5,1.5,2.4c0.2,0.9,0.1,2-0.3,3.1c-0.4,1.2-1.1,2.1-2,3c-0.9,0.8-1.9,1.4-3,1.7C254.7,991.2,253.5,991.2,252.3,991z
			"/>
		<path class="st0" d="M278,996.2c-0.4,0-0.7-0.2-1-0.5c-0.3-0.3-0.5-0.6-0.6-1.1c-0.1-0.4-0.1-0.9,0-1.4c0.2-1,0.4-2,0.5-2.8
			c0.1-0.8,0.2-1.6,0.2-2.2c0-0.7,0-1.3-0.1-1.8c-0.1-0.4-0.1-0.8-0.1-1c0-0.2,0-0.4,0.1-0.7c0.1-0.3,0.2-0.6,0.5-0.7
			c0.3-0.2,0.6-0.2,1.1-0.2c0.5,0.1,0.9,0.2,1.2,0.4c0.3,0.2,0.6,0.6,0.8,1c0.2,0.5,0.3,1.1,0.3,1.8c0,0.7,0,1.7-0.2,2.8l-1.5,0.2
			c0.5-1,1.1-1.9,1.8-2.7c0.7-0.8,1.4-1.4,2.1-1.9c0.7-0.5,1.5-0.8,2.2-1.1c0.7-0.2,1.4-0.3,2-0.2c0.6,0.1,1.1,0.3,1.2,0.7
			c0.2,0.4,0.2,0.9,0.1,1.5c-0.1,0.4-0.3,0.7-0.6,1c-0.3,0.3-0.8,0.5-1.4,0.7c-1,0.3-1.8,0.6-2.5,1c-0.7,0.4-1.3,0.8-1.8,1.4
			c-0.5,0.5-0.9,1.1-1.2,1.7c-0.3,0.6-0.6,1.3-0.9,2c-0.2,0.6-0.4,1-0.6,1.3c-0.2,0.3-0.5,0.5-0.7,0.6
			C278.6,996.2,278.3,996.2,278,996.2z"/>
		<path class="st0" d="M302.1,999.4c-1.5-0.1-2.7-0.4-3.6-0.9c-0.9-0.5-1.6-1.2-2-2.1c-0.4-0.9-0.6-1.9-0.5-3.1
			c0.1-0.9,0.3-1.9,0.7-2.8c0.4-0.9,1-1.8,1.6-2.6c0.7-0.8,1.5-1.4,2.4-1.8c0.9-0.4,2-0.7,3.1-0.6c1,0,1.8,0.2,2.5,0.6
			c0.7,0.4,1.3,0.9,1.6,1.5c0.4,0.7,0.6,1.5,0.5,2.4c-0.1,1-0.4,1.8-1,2.5c-0.6,0.6-1.4,1.1-2.4,1.4c-1,0.3-2,0.4-3.2,0.4
			c-0.9,0-1.7-0.2-2.1-0.6c-0.5-0.4-0.7-0.8-0.7-1.2c0-0.3,0.1-0.5,0.2-0.6c0.1-0.1,0.3-0.2,0.6-0.2c0.2,0,0.4,0,0.7,0.1
			c0.3,0.1,0.6,0.1,1.1,0.1c0.6,0,1.1,0,1.6-0.2c0.5-0.1,0.9-0.3,1.2-0.6c0.3-0.3,0.5-0.6,0.5-0.9c0-0.4-0.1-0.6-0.3-0.8
			c-0.2-0.2-0.5-0.3-1-0.3c-0.5,0-1,0.1-1.5,0.4c-0.5,0.3-0.9,0.6-1.2,1.1c-0.4,0.5-0.6,1-0.9,1.6c-0.2,0.6-0.3,1.2-0.4,1.8
			c0,0.5,0,0.9,0.2,1.2c0.1,0.3,0.4,0.6,0.7,0.7c0.3,0.2,0.8,0.3,1.4,0.3c1,0,1.8,0,2.5-0.2c0.7-0.2,1.3-0.4,1.7-0.6
			c0.5-0.2,0.9-0.4,1.2-0.6c0.3-0.2,0.7-0.2,1-0.2c0.3,0,0.6,0.1,0.7,0.3c0.1,0.2,0.2,0.5,0.2,0.9c0,0.4-0.2,0.9-0.6,1.3
			c-0.4,0.5-0.9,0.9-1.5,1.2c-0.6,0.4-1.4,0.6-2.3,0.8C304.1,999.4,303.1,999.5,302.1,999.4z"/>
		<path class="st0" d="M352.8,1003.2c-1.5,0.2-2.7,0.2-3.7,0.1c-1-0.1-1.7-0.3-2.3-0.7c-0.6-0.3-1-0.7-1.3-1.1
			c-0.3-0.4-0.4-0.8-0.5-1.2c-0.1-0.6-0.1-1.2,0.2-1.6c0.3-0.5,0.7-0.7,1.4-0.8c0.4,0,0.7,0,0.9,0.1c0.2,0.1,0.3,0.4,0.4,0.6
			c0.1,0.3,0.2,0.5,0.5,0.7c0.3,0.2,0.7,0.3,1.3,0.4c0.6,0.1,1.3,0,2.2-0.1c0.9-0.1,1.4-0.4,1.6-0.8c0.2-0.4,0.3-1,0.1-1.7
			c-0.1-0.6-0.3-1.2-0.5-1.8c-0.2-0.5-0.4-1-0.6-1.5c-0.2-0.5-0.5-1-0.7-1.5c-0.2-0.5-0.5-1.1-0.7-1.8l1.4,0
			c-0.1,0.8-0.2,1.6-0.5,2.2c-0.3,0.6-0.7,1.1-1.2,1.5c-0.5,0.4-1,0.7-1.6,0.9c-0.6,0.2-1.1,0.4-1.7,0.4c-1.1,0.1-2.1,0.1-3-0.2
			c-0.9-0.3-1.6-0.7-2.2-1.4c-0.6-0.7-1-1.5-1.2-2.5c-0.2-0.9-0.2-1.8,0-2.7c0.2-0.9,0.6-1.6,1.1-2.3c0.5-0.7,1.1-1.3,1.9-1.7
			c0.7-0.5,1.6-0.7,2.5-0.9c0.9-0.1,1.6,0,2.2,0.2c0.6,0.2,1.1,0.6,1.4,1c0.3,0.4,0.5,0.9,0.7,1.4c0.1,0.4,0.1,0.7-0.1,1
			c-0.1,0.3-0.3,0.4-0.5,0.5c-0.2,0-0.4,0-0.6-0.1c-0.2-0.1-0.3-0.2-0.5-0.3c-0.2-0.1-0.3-0.2-0.6-0.3c-0.2-0.1-0.5-0.1-0.8-0.1
			c-0.4,0.1-0.8,0.2-1.3,0.4c-0.4,0.2-0.7,0.5-1,0.8c-0.3,0.3-0.5,0.7-0.6,1.1c-0.1,0.4-0.2,0.7-0.1,1.1c0.1,0.4,0.3,0.7,0.6,0.9
			c0.3,0.2,0.7,0.2,1.3,0.2c0.9-0.1,1.6-0.4,2.2-0.8c0.6-0.4,1-1.1,1.2-1.8c0.2-0.8,0.2-1.8,0-2.9c-0.1-0.5-0.1-0.9,0-1.1
			c0.1-0.3,0.4-0.4,0.9-0.5c0.8-0.1,1.4,0.1,1.8,0.4c0.5,0.4,0.7,0.8,0.9,1.3c0.3,1,0.6,1.9,1,2.6c0.3,0.8,0.7,1.5,1,2.2
			c0.3,0.7,0.7,1.5,1,2.4c0.3,0.9,0.6,1.9,0.9,3.1c0.4,1.7,0.2,3.2-0.6,4.3C355.9,1002.3,354.6,1003,352.8,1003.2z"/>
		<path class="st0" d="M379.8,991.5c-1.1,0.3-2.2,0.3-3.2,0.1c-1-0.2-1.9-0.6-2.8-1.2c-0.8-0.6-1.6-1.2-2.2-2
			c-0.6-0.8-1.1-1.6-1.4-2.4c-0.3-0.8-0.5-1.4-0.6-2.1c-0.1-0.6-0.2-1.3-0.1-1.9c0-0.3,0.1-0.6,0.2-0.8c0.2-0.2,0.4-0.4,0.8-0.5
			c0.6-0.1,1.2-0.1,1.7,0.2c0.6,0.3,0.9,0.7,1.2,1.3c0.1,0.2,0.1,0.4,0.2,0.7c0,0.2,0.1,0.4,0.1,0.7c0,0.2,0.1,0.5,0.1,0.8
			c0.1,0.3,0.1,0.6,0.3,0.9c0.3,0.7,0.6,1.3,1.1,1.7c0.5,0.5,1,0.8,1.5,1c0.6,0.2,1.1,0.2,1.7,0.1c0.5-0.1,0.9-0.4,1.1-0.9
			c0.2-0.5,0.3-1.1,0.2-1.8c-0.1-0.7-0.3-1.5-0.6-2.3c-0.1-0.3-0.3-0.6-0.4-0.9c-0.1-0.3-0.2-0.5-0.3-0.7c-0.1-0.2-0.2-0.5-0.3-0.7
			c-0.2-0.5-0.3-0.9-0.2-1.2c0.1-0.3,0.4-0.6,1-0.7c0.5-0.1,0.9-0.1,1.3,0.1c0.4,0.2,0.8,0.4,1.2,0.9c0.4,0.4,0.7,1,1,1.8
			c0.8,1.9,1.1,3.5,1.1,4.9c0,1.4-0.4,2.5-1,3.3C381.9,990.7,381,991.3,379.8,991.5z"/>
		<path class="st0" d="M407.1,984.5c-1.4,0.5-2.7,0.7-3.9,0.5c-1.1-0.1-2.1-0.5-3-1.1s-1.6-1.4-2.2-2.4c-0.5-0.8-0.8-1.7-0.9-2.6
			c-0.1-0.9-0.1-1.8,0.1-2.7c0.2-0.9,0.6-1.7,1.2-2.4c0.6-0.7,1.5-1.3,2.5-1.6c0.9-0.3,1.8-0.5,2.7-0.4c0.9,0,1.6,0.3,2.4,0.7
			c0.7,0.4,1.3,1,1.8,1.9c0.5,0.9,0.6,1.7,0.4,2.4c-0.2,0.8-0.7,1.4-1.5,2c-0.7,0.6-1.7,1.1-2.8,1.5c-0.9,0.3-1.7,0.4-2.3,0.3
			c-0.6-0.1-1.1-0.4-1.3-0.8c-0.1-0.2-0.2-0.4-0.2-0.6c0-0.2,0.2-0.3,0.4-0.4c0.2-0.1,0.4-0.1,0.7-0.2c0.3-0.1,0.6-0.1,1-0.3
			c0.5-0.2,1-0.4,1.4-0.7c0.4-0.3,0.7-0.6,0.8-1c0.2-0.3,0.1-0.7,0-0.9c-0.2-0.3-0.4-0.5-0.7-0.6c-0.3-0.1-0.7-0.1-1.1,0.1
			c-0.5,0.2-0.9,0.5-1.2,0.9c-0.3,0.4-0.5,0.8-0.5,1.4c-0.1,0.5-0.1,1.1,0.1,1.6c0.1,0.6,0.3,1.1,0.7,1.7c0.2,0.4,0.5,0.7,0.8,1
			c0.3,0.2,0.7,0.3,1.1,0.4c0.4,0,0.9-0.1,1.5-0.3c0.9-0.3,1.7-0.7,2.2-1.1c0.5-0.4,1-0.8,1.3-1.1c0.3-0.4,0.6-0.7,0.8-0.9
			c0.2-0.3,0.5-0.5,0.8-0.6c0.3-0.1,0.6-0.1,0.8,0c0.2,0.1,0.5,0.4,0.7,0.7c0.2,0.4,0.3,0.8,0.2,1.4c-0.1,0.5-0.3,1.1-0.7,1.6
			c-0.4,0.5-0.9,1-1.6,1.5C408.9,983.8,408.1,984.2,407.1,984.5z"/>
		<path class="st0" d="M430,974.9c-0.9,0.4-1.7,0.6-2.5,0.7c-0.7,0-1.4-0.1-2-0.3c-0.6-0.2-1-0.6-1.3-1c-0.2-0.3-0.3-0.5-0.2-0.8
			c0.1-0.3,0.3-0.5,0.6-0.7c0.2-0.1,0.4-0.2,0.7-0.2s0.5-0.1,0.8-0.1c0.3,0,0.6-0.1,0.9-0.1c0.3-0.1,0.6-0.2,1-0.4
			c0.8-0.4,1.5-0.8,1.8-1.2c0.4-0.4,0.6-0.8,0.6-1.3c-0.3-0.1-0.7-0.1-1.2,0c-0.5,0.1-1,0.2-1.6,0.4c-0.6,0.1-1.2,0.3-1.8,0.4
			c-0.6,0.1-1.3,0.2-1.9,0.2c-0.6,0-1.2-0.1-1.8-0.3c-0.6-0.2-1.1-0.6-1.5-1.2c-0.5-0.7-0.8-1.3-0.8-2c0-0.7,0.2-1.3,0.6-1.9
			c0.4-0.6,0.9-1.1,1.6-1.6c0.7-0.5,1.4-0.9,2.1-1.3c0.6-0.3,1.1-0.4,1.7-0.4c0.5,0,1,0.1,1.4,0.3c0.4,0.2,0.8,0.5,1,0.8
			c0.3,0.3,0.4,0.7,0.3,0.9c0,0.3-0.2,0.5-0.6,0.6c-0.2,0.1-0.4,0.2-0.5,0.2c-0.2,0-0.3,0.1-0.5,0.2c-0.2,0.1-0.4,0.2-0.7,0.3
			c-0.8,0.4-1.4,0.7-1.8,1.1c-0.4,0.4-0.6,0.8-0.6,1.2c0.3,0.1,0.7,0.2,1.2,0.1c0.5-0.1,1-0.2,1.6-0.3c0.6-0.2,1.2-0.3,1.9-0.5
			c0.6-0.2,1.3-0.2,1.9-0.3c0.6,0,1.2,0,1.8,0.2c0.6,0.2,1,0.5,1.4,1.1c0.7,0.9,0.9,1.7,0.7,2.5c-0.1,0.8-0.6,1.6-1.4,2.3
			C432.2,973.7,431.2,974.3,430,974.9z"/>
		<path class="st0" d="M450.5,964.7c-0.9,0.5-1.7,0.8-2.4,0.9c-0.7,0.1-1.4,0.1-2-0.1c-0.6-0.2-1.1-0.5-1.4-0.8
			c-0.2-0.2-0.4-0.5-0.3-0.8c0-0.3,0.2-0.5,0.6-0.7c0.2-0.1,0.4-0.2,0.7-0.3c0.2-0.1,0.5-0.1,0.8-0.2c0.3-0.1,0.6-0.1,0.9-0.2
			c0.3-0.1,0.6-0.3,1-0.5c0.8-0.5,1.4-0.9,1.7-1.3s0.5-0.9,0.5-1.3c-0.3-0.1-0.7,0-1.2,0.1c-0.5,0.1-1,0.3-1.5,0.5
			c-0.6,0.2-1.2,0.4-1.8,0.6c-0.6,0.2-1.2,0.3-1.9,0.4c-0.6,0.1-1.2,0-1.8-0.2c-0.6-0.2-1.1-0.5-1.6-1c-0.6-0.6-0.9-1.2-1-1.9
			c0-0.6,0.1-1.3,0.4-1.9c0.3-0.6,0.8-1.2,1.4-1.8c0.6-0.6,1.3-1,2-1.4c0.6-0.3,1.1-0.5,1.6-0.6c0.5-0.1,1,0,1.5,0.2
			c0.4,0.2,0.8,0.4,1.1,0.7c0.3,0.3,0.4,0.6,0.4,0.9c0,0.3-0.2,0.5-0.5,0.7c-0.2,0.1-0.4,0.2-0.5,0.3c-0.2,0.1-0.3,0.1-0.5,0.2
			c-0.2,0.1-0.4,0.2-0.6,0.3c-0.7,0.4-1.3,0.9-1.7,1.3c-0.4,0.4-0.5,0.8-0.5,1.3c0.3,0.1,0.7,0.1,1.2,0c0.5-0.1,1-0.3,1.6-0.5
			c0.6-0.2,1.2-0.4,1.8-0.6c0.6-0.2,1.2-0.4,1.9-0.4c0.6-0.1,1.2-0.1,1.8,0.1c0.6,0.1,1.1,0.4,1.6,0.9c0.8,0.8,1.1,1.6,1,2.4
			c-0.1,0.8-0.5,1.6-1.2,2.4C452.7,963.3,451.7,964,450.5,964.7z"/>
		<path class="st0" d="M468.6,952.1c-0.8,0.6-1.6,1-2.3,1.2c-0.7,0.2-1.4,0.2-2,0.1c-0.6-0.1-1.1-0.3-1.5-0.7
			c-0.3-0.2-0.4-0.5-0.4-0.7c0-0.3,0.2-0.5,0.5-0.8c0.2-0.1,0.4-0.2,0.6-0.3c0.2-0.1,0.5-0.2,0.7-0.2c0.3-0.1,0.5-0.2,0.8-0.3
			c0.3-0.1,0.6-0.3,0.9-0.5c0.8-0.5,1.3-1,1.6-1.5c0.3-0.5,0.4-0.9,0.4-1.3c-0.3,0-0.7,0-1.2,0.2c-0.5,0.2-0.9,0.4-1.5,0.7
			c-0.5,0.3-1.1,0.5-1.7,0.8c-0.6,0.3-1.2,0.4-1.8,0.6c-0.6,0.1-1.2,0.1-1.8,0c-0.6-0.1-1.2-0.4-1.7-0.9c-0.7-0.5-1-1.1-1.2-1.7
			c-0.1-0.6,0-1.3,0.2-1.9c0.3-0.7,0.7-1.3,1.2-1.9c0.5-0.6,1.2-1.2,1.8-1.6c0.5-0.4,1-0.6,1.6-0.7c0.5-0.1,1-0.1,1.5,0
			c0.5,0.1,0.9,0.3,1.2,0.6c0.3,0.3,0.5,0.6,0.5,0.8c0,0.3-0.1,0.5-0.4,0.7c-0.2,0.1-0.3,0.2-0.5,0.3c-0.2,0.1-0.3,0.2-0.5,0.3
			c-0.2,0.1-0.4,0.2-0.6,0.4c-0.7,0.5-1.2,1-1.5,1.5c-0.3,0.5-0.5,0.9-0.4,1.3c0.3,0.1,0.7,0,1.2-0.1c0.5-0.2,1-0.4,1.5-0.6
			c0.5-0.3,1.1-0.5,1.7-0.8c0.6-0.3,1.2-0.5,1.8-0.6c0.6-0.2,1.2-0.2,1.8-0.1c0.6,0.1,1.1,0.3,1.7,0.7c0.8,0.7,1.3,1.5,1.3,2.3
			c0,0.8-0.3,1.7-0.9,2.5C470.6,950.5,469.7,951.3,468.6,952.1z"/>
		<path class="st0" d="M485.9,938.8c-0.7,0.7-1.5,1.1-2.2,1.4c-0.7,0.3-1.4,0.4-2,0.3c-0.6-0.1-1.1-0.2-1.6-0.5
			c-0.3-0.2-0.5-0.4-0.5-0.7c0-0.3,0.1-0.5,0.4-0.8c0.2-0.2,0.4-0.3,0.6-0.4c0.2-0.1,0.5-0.2,0.7-0.3c0.3-0.1,0.5-0.3,0.8-0.4
			c0.3-0.2,0.6-0.4,0.9-0.6c0.7-0.6,1.2-1.2,1.4-1.7c0.3-0.5,0.3-0.9,0.2-1.4c-0.3,0-0.7,0.1-1.2,0.3c-0.4,0.2-0.9,0.5-1.4,0.8
			c-0.5,0.3-1.1,0.6-1.6,0.9c-0.6,0.3-1.2,0.6-1.8,0.8c-0.6,0.2-1.2,0.3-1.8,0.2c-0.6-0.1-1.2-0.3-1.8-0.7c-0.7-0.5-1.1-1-1.3-1.6
			c-0.2-0.6-0.2-1.3,0-1.9c0.2-0.7,0.5-1.3,1-2c0.5-0.7,1-1.3,1.7-1.8c0.5-0.4,1-0.7,1.5-0.9c0.5-0.2,1-0.2,1.5-0.1
			c0.5,0.1,0.9,0.2,1.2,0.4c0.4,0.2,0.6,0.5,0.6,0.8c0,0.3-0.1,0.5-0.3,0.8c-0.2,0.1-0.3,0.3-0.4,0.4c-0.2,0.1-0.3,0.2-0.5,0.3
			c-0.1,0.1-0.3,0.3-0.6,0.5c-0.6,0.6-1.1,1.1-1.4,1.6c-0.3,0.5-0.4,0.9-0.2,1.3c0.3,0,0.7,0,1.1-0.2c0.4-0.2,0.9-0.5,1.4-0.8
			c0.5-0.3,1.1-0.7,1.6-1c0.6-0.3,1.1-0.6,1.7-0.8c0.6-0.2,1.2-0.3,1.8-0.3c0.6,0,1.2,0.2,1.7,0.6c0.9,0.6,1.4,1.3,1.5,2.1
			c0.1,0.8-0.1,1.7-0.7,2.6C487.7,937,486.9,937.9,485.9,938.8z"/>
		<path class="st0" d="M498.7,923.6c-0.3,0.3-0.7,0.6-1.1,0.7c-0.4,0.1-0.8,0.2-1.3,0.1c-0.4-0.1-0.8-0.2-1.3-0.4
			c-0.8-0.4-1.5-0.8-2-1.1c-0.5-0.3-1-0.6-1.4-0.8c-0.4-0.2-0.8-0.4-1.2-0.6c-0.4-0.2-0.7-0.4-1.1-0.6c-0.4-0.3-0.8-0.5-1-0.9
			c-0.2-0.3-0.3-0.7-0.3-1.1c0-0.4,0.2-0.8,0.6-1.2c0.4-0.4,0.9-0.7,1.4-0.7c0.6-0.1,1.2,0.1,1.8,0.4c0.3,0.1,0.6,0.4,1,0.6
			c0.4,0.3,0.9,0.6,1.4,0.9c0.5,0.3,1,0.6,1.6,1c0.5,0.3,1,0.6,1.5,0.9c0.5,0.3,0.8,0.5,1.1,0.6c0.5,0.3,0.7,0.6,0.8,1
			C499.2,922.7,499.1,923.1,498.7,923.6z M486.2,916.6c-0.6,0.6-1.2,1-1.9,1.1c-0.7,0.1-1.3,0.1-1.9-0.2c-0.6-0.3-0.9-0.8-0.9-1.3
			c0-0.5,0.2-1.1,0.8-1.6c0.4-0.4,0.8-0.7,1.2-0.8c0.5-0.2,0.9-0.2,1.3-0.2c0.4,0,0.8,0.1,1.1,0.3c0.5,0.3,0.7,0.6,0.8,1.1
			C487,915.5,486.7,916,486.2,916.6z"/>
		<path class="st0" d="M513,907.3c-0.4,0.6-1.1,0.9-1.9,1.1c-0.8,0.2-1.9,0.1-3.1-0.1c-1.2-0.3-2.6-0.8-4.2-1.5
			c-0.4-0.2-0.7-0.3-1-0.4c-0.3-0.1-0.5-0.2-0.7-0.2c-0.2,0-0.4,0-0.6,0c-0.2,0-0.4,0.1-0.6,0.2c0.3-0.3,0.5-0.6,0.7-0.8
			c0.2-0.2,0.5-0.3,0.8-0.4c0.3,0,0.6,0.1,1,0.3c-0.5,0.1-0.9,0.2-1.1,0.3c-0.2,0.1-0.4,0.2-0.6,0.4c-0.2,0.3-0.2,0.6-0.1,1.1
			c0.1,0.5,0.3,1.1,0.7,1.7c0.4,0.7,0.9,1.3,1.5,2.1c0.6,0.7,1.4,1.5,2.2,2.3c0.5,0.4,0.7,0.8,0.8,1.1c0.1,0.3-0.1,0.7-0.4,1.1
			c-0.5,0.6-1.2,0.9-2.1,0.9c-0.9,0-1.9-0.3-3-0.8c-0.7-0.3-1.3-0.6-1.8-0.9c-0.5-0.3-0.9-0.6-1.3-0.8c-0.4-0.3-0.8-0.6-1.2-0.8
			c-0.4-0.3-1-0.5-1.6-0.8c-0.5-0.2-0.8-0.5-0.9-0.8c-0.1-0.3,0-0.7,0.3-1.1c0.3-0.4,0.8-0.7,1.3-0.9c0.5-0.1,1.2,0,1.9,0.3
			c0.4,0.2,0.7,0.4,1.1,0.6c0.3,0.2,0.6,0.4,0.9,0.7c0.3,0.2,0.7,0.5,1.2,0.8c0.5,0.3,1.1,0.6,1.9,0.9l-1.6,0.3
			c-1.2-1.2-2.2-2.3-2.8-3.3c-0.6-1.1-0.9-2.1-0.9-3c0-0.9,0.2-1.7,0.7-2.3c0.7-0.9,1.5-1.4,2.5-1.6c1-0.2,2,0,3.1,0.4
			c1.1,0.5,2.1,0.9,2.9,1.2c0.8,0.3,1.5,0.5,2.1,0.6c0.6,0.1,1.1,0.1,1.6-0.1c0.3-0.1,0.6-0.1,0.9-0.1c0.3,0,0.6,0.1,0.9,0.2
			c0.4,0.2,0.7,0.5,0.8,0.9C513.4,906.5,513.3,906.9,513,907.3z"/>
		<path class="st0" d="M529.7,890.9c-0.7,1.3-1.4,2.3-2.1,3.1c-0.7,0.7-1.3,1.3-1.9,1.6c-0.6,0.3-1.2,0.5-1.7,0.5
			c-0.5,0-0.9,0-1.3-0.1c-0.6-0.2-1-0.5-1.3-1c-0.2-0.5-0.2-1,0.1-1.5c0.2-0.3,0.4-0.6,0.6-0.7c0.2-0.1,0.5-0.1,0.7,0
			c0.3,0.1,0.6,0.1,0.9-0.1c0.3-0.1,0.7-0.4,1.1-0.9c0.4-0.4,0.8-1.1,1.2-1.9c0.4-0.8,0.5-1.3,0.3-1.7c-0.2-0.4-0.7-0.7-1.4-0.9
			c-0.6-0.2-1.2-0.4-1.8-0.4c-0.5-0.1-1.1-0.2-1.6-0.2c-0.5-0.1-1.1-0.1-1.7-0.2c-0.6-0.1-1.2-0.2-1.9-0.3l0.8-1.1
			c0.7,0.5,1.2,1,1.5,1.5c0.3,0.6,0.5,1.1,0.6,1.7c0,0.6,0,1.2-0.2,1.8c-0.1,0.6-0.3,1.1-0.6,1.6c-0.5,1-1.2,1.8-1.9,2.4
			c-0.7,0.6-1.6,1-2.5,1.1c-0.9,0.2-1.8,0.1-2.8-0.2c-0.9-0.3-1.7-0.7-2.3-1.3c-0.6-0.6-1.1-1.3-1.4-2c-0.3-0.8-0.4-1.6-0.3-2.4
			c0-0.8,0.3-1.7,0.7-2.5c0.4-0.8,0.9-1.4,1.5-1.7c0.6-0.4,1.1-0.6,1.7-0.6c0.6-0.1,1.1,0,1.6,0.1c0.4,0.1,0.7,0.3,0.8,0.6
			c0.2,0.2,0.2,0.4,0.1,0.6c-0.1,0.2-0.2,0.4-0.4,0.5c-0.2,0.1-0.3,0.2-0.5,0.3c-0.2,0.1-0.4,0.2-0.6,0.3c-0.2,0.1-0.3,0.3-0.5,0.6
			c-0.2,0.4-0.3,0.8-0.4,1.2c0,0.4,0,0.9,0.1,1.3c0.1,0.4,0.3,0.7,0.5,1c0.2,0.3,0.5,0.5,0.9,0.6c0.4,0.1,0.8,0.1,1.1,0
			c0.3-0.2,0.6-0.5,0.9-1c0.4-0.8,0.6-1.5,0.6-2.2c0-0.7-0.3-1.3-0.8-1.9c-0.5-0.6-1.4-1-2.4-1.4c-0.5-0.2-0.8-0.4-1-0.6
			c-0.2-0.2-0.1-0.6,0.1-0.9c0.4-0.7,0.8-1.1,1.4-1.3c0.6-0.2,1.1-0.2,1.6-0.1c1,0.2,2,0.4,2.8,0.5c0.8,0.1,1.7,0.2,2.5,0.3
			c0.8,0.1,1.7,0.2,2.6,0.4c0.9,0.2,1.9,0.4,3.1,0.8c1.7,0.5,2.8,1.4,3.3,2.6C530.7,887.9,530.5,889.3,529.7,890.9z"/>
		<path class="st0" d="M531.1,871.5c-0.4,0.9-0.8,1.5-1.5,1.9c-0.6,0.4-1.4,0.5-2.2,0.3c-0.7-0.2-1.2-0.5-1.4-1
			c-0.2-0.5-0.2-1.1,0-1.7c0.3-0.6,0.6-1.1,1.1-1.5c0.4-0.3,0.9-0.5,1.4-0.6c0.5-0.1,1-0.1,1.4,0c0.6,0.1,1,0.4,1.2,0.9
			C531.4,870.2,531.3,870.8,531.1,871.5z"/>
		<path class="st0" d="M535,862.8c-0.3,0.9-0.7,1.5-1.4,1.9c-0.6,0.4-1.3,0.5-2.2,0.4c-0.7-0.1-1.2-0.4-1.4-0.9
			c-0.3-0.5-0.3-1.1-0.1-1.7c0.2-0.7,0.5-1.2,1-1.5c0.4-0.4,0.9-0.6,1.4-0.7c0.5-0.1,1-0.1,1.4,0c0.6,0.1,1,0.4,1.3,0.8
			C535.3,861.5,535.3,862,535,862.8z"/>
		<path class="st0" d="M537.2,853.7c-0.2,0.9-0.6,1.6-1.2,2c-0.6,0.4-1.3,0.6-2.1,0.5c-0.7-0.1-1.2-0.4-1.5-0.9
			c-0.3-0.5-0.4-1-0.2-1.7c0.2-0.7,0.5-1.2,0.9-1.6c0.4-0.4,0.8-0.6,1.3-0.8c0.5-0.1,0.9-0.2,1.4-0.1c0.6,0.1,1,0.3,1.3,0.8
			C537.3,852.4,537.4,853,537.2,853.7z"/>
	</g>
	<path class="st1" d="M246.8,668.1c-0.1,8,0.1,16.4,0.6,25.3c0.8,13.9,2.3,26.8,4.2,38.6c-5.8-10.1-11.7-20.1-17.5-30.2
		c1.9-4.4,3.9-8.8,5.8-13.1c-2.5-2-5-4-7.6-5.9c1.6-3.2,3.2-5.7,4.4-7.5c2.1-3,3.5-4.3,4.5-5.1c1-0.9,2-1.5,2.6-1.9
		C244.9,668.1,245.8,668.1,246.8,668.1z"/>
	<g>
		<path class="st2" d="M273.3,910.7l-16.2-2.3l0.1-0.5c0.3-1.8,0.4-3.6,0.5-5.3c0.1-1.3,0.1-2.7,0.1-4l0-0.5l17.1-0.8l0,0.5
			c-0.1,1.6-0.2,3.2-0.3,4.8c-0.3,2.6-0.6,5.1-1.2,7.7L273.3,910.7z M258.3,907.5l14.3,2.1c0.5-2.3,0.8-4.7,1-7.1
			c0.1-1.4,0.2-2.8,0.3-4.2l-15,0.7c0,1.2-0.1,2.4-0.1,3.6C258.7,904.3,258.5,905.9,258.3,907.5z"/>
	</g>
	<g>
		<path class="st2" d="M215.5,907.2l-15-3.6l0.2-0.5c0.5-1.8,1-3.6,1.3-5.4c0.2-1.3,0.4-2.6,0.5-3.9l0-0.5l15.9,2.4l0,0.5
			c-0.1,1.5-0.4,2.9-0.7,4.4c-0.5,2.2-1.1,4.3-2,6.3L215.5,907.2z M201.8,902.9l13.1,3.2c0.8-1.9,1.3-3.8,1.8-5.8
			c0.3-1.2,0.5-2.5,0.6-3.8l-13.9-2.1c-0.1,1.2-0.3,2.3-0.4,3.4C202.7,899.6,202.3,901.3,201.8,902.9z"/>
	</g>
	<g>
		<path class="st2" d="M257.8,954.2c-2.4,0-4.8-0.1-7.3-0.2c-42-2.8-70.8-27.9-84.2-42.6c-13.1-14.4-22.8-31.4-28.9-50.5
			c-2.3-6.4-11.7-28.2-35.2-38.1c-13.3-5.7-25.9-5.4-34.1-4.1l-0.7-2.9c48.4-16.1,89.5-15.6,122,1.4c12.2,6.4,19.5,13.2,28.8,21.9
			c5.2,4.9,11.2,10.5,19.1,16.9c31.1,25.5,68.4,45.6,110.8,59.8l2.5,0.8l-1.9,1.7c-14,12.4-29.9,21.8-47.4,27.9
			C294.1,948.7,278.2,954.2,257.8,954.2z M80.3,814.9c6.9,0.2,14.9,1.6,23.2,5.1c24.6,10.5,34.4,33.2,36.8,39.9
			c6,18.8,15.5,35.4,28.3,49.5c10.6,11.6,39.7,38.8,82.2,41.6c23.3,1.5,41.7-4.9,49.6-7.7c16.3-5.7,31.2-14.3,44.4-25.6
			c-41.7-14.3-78.5-34.3-109.3-59.5c-7.9-6.5-13.9-12.1-19.2-17c-9.1-8.5-16.3-15.2-28.1-21.4C159,804.5,122.7,802.9,80.3,814.9z"/>
	</g>
	<path class="st3" d="M341.5,772.8c1.1,0.6,2.6,1.6,4.1,3.1c7.5,8.1,3.7,22.1,2.1,27.8c-1.8,6.5-4.8,17.7-15,23.4
		c-4.5,2.5-8.4,2.9-14.2,3.4c-6.3,0.6-16.7,0.7-29.6-3.4l-10.3,70.9l-28.8,1.1c-2.6-16.7-4.4-30.6-5.6-40.7
		c-2.1-18.2-3.2-32.5-2.7-49.4c0.5-18.2,1.7-27.2,7.4-33.7c9.6-10.9,26.1-10.5,46.5-10.1C306.7,765.4,322.7,766.9,341.5,772.8z"/>
	<path class="st3" d="M247,771.8c0,0-12.8,4.5-8.1,57.8h-9.7l-5.6,67.7l-25.7-3.6c-2.3-7.1-5.3-17.3-8.1-29.6
		c-8.2-35.8-12.7-55.9-2.2-70c6.5-8.7,16.7-12.3,29.2-16.7C229,773,239.8,772,247,771.8z"/>
	<g>
		<path class="st2" d="M340.3,761.2L340.3,761.2c-0.3,0-27.7-4.4-44.4-28.6c-13.2-19.2-16.2-45.3-9-77.5l0.1-0.2l0.2-0.1
			c0.6-0.3,16-7.5,57.5,2.6c2.4-3.1,22.3-28.7,31.9-32l0.2-0.1l15.1,9.5l-0.1,0.4c-0.1,0.6-15.4,57.5-62.9,62
			c1.5,3.7,10.9,23.5,41.7,45.2l0.3,0.2l-0.2,0.4C370.6,743,362.5,760.1,340.3,761.2L340.3,761.2z M287.8,655.5
			c-7.1,31.9-4.1,57.6,8.9,76.5c16.1,23.4,42.3,28,43.6,28.2c11.2-0.6,18.6-5.4,22.9-9.3c3.8-3.5,5.8-7,6.4-8.1
			c-34-24-41.9-45.8-41.9-46.1l-0.2-0.6l0.6-0.1c45.4-3.7,61.3-56.1,62.6-60.9l-14.1-8.9c-9.8,3.8-31.2,31.6-31.4,31.9l-0.2,0.3
			l-0.3-0.1C305.9,648.9,289.8,654.7,287.8,655.5z"/>
	</g>
	<g>
		<path class="st2" d="M306.6,744.7c-7.1-6.7-12.7-14.3-16.6-22.7c-7.8-16.7-7.1-32.4-6.7-42.7c0.3-8.2,1.5-16.3,3.6-24.3l0.1-0.6
			l0.5,0.2c2.6,1.1,5.2,2.5,7.5,4.1c3.4,2.4,6.4,5.3,8.9,8.7l0.2,0.3l-11.7,18c2.7,0.6,11.1,2.8,12.2,5.2l0.1,0.2l0,0.2
			c0,0.1-2.3,9.2-3.1,20.3c-0.7,10.1-0.3,24,5.7,32.4L306.6,744.7z M287.7,655.8c-1.9,7.7-3,15.6-3.4,23.5
			c-0.4,10.3-1.1,25.8,6.6,42.3c3.3,7.1,7.9,13.7,13.6,19.6c-8.5-17-1.5-46.9-0.8-49.8c-1.1-1.7-8-3.8-12.1-4.7l-0.7-0.2l12.1-18.7
			c-2.4-3.2-5.3-6-8.5-8.2C292.4,658.1,290.1,656.9,287.7,655.8z"/>
	</g>
	<g>
		<path class="st2" d="M330.9,749.8c-0.7,0-1.3-0.2-1.8-0.7c-0.5-0.5-0.9-1.2-0.9-2c0-0.8,0.3-1.6,0.9-2.2l0,0
			c2.1-1.9,4.1-3.8,6.1-5.7c2.4-2.3,4.8-4.7,7.1-7c1.1-0.8,2.6-0.8,3.6,0c1.1,0.9,1.3,2.6,0.4,3.9l-13.5,13.2
			C332.1,749.6,331.5,749.8,330.9,749.8z M329.8,745.6c-0.4,0.4-0.6,0.9-0.6,1.5c0,0.5,0.2,1,0.5,1.3c0.6,0.5,1.6,0.6,2.3,0.1
			l13.4-13.1c0.5-0.7,0.4-1.8-0.3-2.4c-0.6-0.5-1.6-0.5-2.3,0c-2.3,2.3-4.7,4.7-7,7C333.9,741.8,331.8,743.7,329.8,745.6z"/>
	</g>
	<g>
		<path class="st2" d="M254.2,678.2l-0.5-1.2c-1.6-3.8-7.9-10.2-8-10.3l-0.1-0.1l0-0.2c-0.8-5.3,4.1-9.1,4.3-9.3l0.1-0.1l0.1,0
			c3-0.3,8.9,6.8,9.6,7.6l0.3,0.3l-0.3,0.3c-1.4,1.5-3.9,8.3-5.1,11.6L254.2,678.2z M246.5,666.1c0.8,0.8,5.5,5.7,7.6,9.4
			c0.9-2.5,3.1-8.4,4.6-10.5c-2.4-2.8-6.5-6.9-8.3-7C249.7,658.6,246.1,661.9,246.5,666.1z"/>
	</g>
	<g>
		<path class="st2" d="M275.1,676.5l-8.2-12.5l0.3-0.3c0.1-0.1,10-10.4,12.2-14.9l0.3-0.5l0.5,0.3c0.7,0.5,6.7,4.5,7.4,7.2l0.1,0.2
			L275.1,676.5z M268.2,664.1l6.9,10.5l11.4-18.7c-0.7-1.8-4.5-4.8-6.4-6.1C277.5,654.2,269.8,662.4,268.2,664.1z"/>
	</g>
	<g>
		<path class="st2" d="M222.7,761.7c-3.2,0-6.7-0.5-10.6-1.7c-0.2,0-25-6-45.4-27.9l-0.2-0.2l4.3-15.7l41.3,8.3
			c0.6-5.2,6-45.6,31.4-57.3l0.7-0.3l-3.3,87.9l-0.1,0.1C240.8,755.1,234.4,761.7,222.7,761.7z M167.6,731.7
			c20.1,21.4,44.5,27.3,44.7,27.4c16.8,5.3,26.4-3.4,27.6-4.6l3.2-85.9c-25.8,12.6-30.1,56.2-30.1,56.6l-0.1,0.6l-41.5-8.3
			L167.6,731.7z"/>
	</g>
	<g>
		<path class="st4" d="M246.8,668.1c0,0-1.1,79.9,18.4,97.2c-2.5,0.8-5.1,1.5-7.9,2.2c-3.9,0.9-7.6,1.7-11.1,2.3
			c-5.3-8.8-7.4-16.5-8.3-21.5c-1.3-6.9-1.1-12.5-0.8-19.9c0.3-7.6,1.1-14,1.8-18.4c-1.6-2.7-3.1-5.4-4.7-8.1l5.8-13.1l-7.6-5.9
			c0,0,5-11,11.5-14.6H246.8z"/>
		<path class="st2" d="M245.9,770.3l-0.2-0.3c-4.2-6.9-7-14.2-8.3-21.7c-1.3-6.9-1.1-12.7-0.8-20c0.2-6.1,0.8-12.3,1.8-18.3
			l-4.7-8.2l5.7-13l-7.6-5.9l0.2-0.4c0.2-0.5,5.2-11.2,11.7-14.8l0.1-0.1h3.5l0,0.5c0,0.8-0.9,79.9,18.2,96.8l0.7,0.6l-0.9,0.3
			c-2.6,0.8-5.3,1.5-7.9,2.2c-3.7,0.9-7.4,1.7-11.1,2.3L245.9,770.3z M234.7,701.7l4.7,8l0,0.2c-1,6-1.5,12.2-1.8,18.4
			c-0.3,7.5-0.5,13,0.8,19.8c1.3,7.3,4,14.4,8,21.1c3.6-0.6,7.2-1.3,10.7-2.2c2.3-0.6,4.7-1.2,7-1.9c-7.8-7.6-13.2-26.1-16-54.8
			c-1.9-20-1.9-38.4-1.9-41.7H244c-5.6,3.2-10.1,12-11,13.9l7.5,5.9L234.7,701.7z"/>
	</g>
	<path class="st2" d="M258.9,668.2c0,0,2.2,7.8,7,6.8c0,0,4.4-2.1,4.9-6.8c-0.3-1-1.1-3.5-3.2-4.2c-0.2-0.1-0.5-0.1-1.9-0.1
		c-3.6,0-5.4,0-6.3,1C259.1,665.3,258.5,666.2,258.9,668.2z"/>
	<path class="st2" d="M267.8,679.4c0,0,2,41-32.6,43.4c0,0-10.1,0.8-15.7-3.2c0,0-17.2-12.2-29.5-7.2l-16.4-17.5
		c0,0,17.3-19.6,31.7-3.6l11.8,12.6c0,0,9.3,16.2,26.2,4.9c0,0,13.6-6.2,18.6-30.4L267.8,679.4z"/>
	<g>
		<path class="st2" d="M259,665.3L255,661c-3-1.6-5.1-3.7-6.3-6.3c-0.7-1.6-0.9-2.9-1.3-7.4c-0.5-5.7-0.7-8.6-0.7-9.5
			c0-6.9,3-14.5,8.6-21.8l0.1-0.1c4.2-5.6,12-13.1,16.3-11.2c1.1,0.5,1.8,1.7,3.3,4.2c1.4,2.2,2.5,4.6,3.3,7.1
			c0,0.1,1.1,5.8,5.4,7.5c0.9,0.4,1.4,1.3,1.2,2.2l-0.1,0.2c-0.5,0.7-0.8,1.5-1,2.4c-0.2,0.8-0.2,1.6-0.1,2.4l1.5,15.3l-4.4,3.6
			c-0.9,0.9-1.7,1.9-2.6,2.9c-1,1.2-1.6,2-2.3,2.8c-0.7,0.9-1.4,1.8-2.6,3.2c-0.8,1-1.5,1.7-2.4,2.6c-1.2,1.4-2.3,2.5-3.1,3.4
			l-0.2,0.2l-0.2,0c-1.6-0.1-3.3-0.1-4.9,0c-1.1,0.1-2.2,0.3-3.3,0.6L259,665.3z M270.1,605.3c-3.8,0-10.2,6.2-13.9,11.1l-0.1,0.1
			c-5.4,7.2-8.3,14.5-8.4,21.2c0,0.9,0.2,3.7,0.7,9.4c0.4,4.3,0.5,5.6,1.2,7.1c1.1,2.4,3.1,4.4,5.9,5.9l0.1,0.1l3.7,3.9
			c1-0.3,2.1-0.4,3.1-0.6c1.6-0.2,3.2-0.2,4.8-0.1c0.8-0.8,1.8-1.9,3-3.2c0.8-0.9,1.5-1.7,2.3-2.6c1.2-1.4,1.9-2.3,2.6-3.2
			c0.7-0.8,1.3-1.6,2.3-2.8c0.9-1,1.8-2,2.7-2.9l4-3.3l-1.4-14.8c-0.1-0.9-0.1-1.8,0.1-2.7c0.2-0.9,0.5-1.8,1-2.6
			c0.1-0.4-0.2-0.9-0.6-1c-4.8-2-6-7.9-6-8.2c-0.8-2.3-1.9-4.6-3.2-6.8c-1.4-2.3-2.1-3.5-2.9-3.8
			C270.9,605.4,270.5,605.3,270.1,605.3z"/>
	</g>
	<g>
		<path class="st2" d="M267.8,617.3l-1,0c0-0.1,0.1-1.8,1.3-2.6c0.7-0.5,1.6-0.5,2.8-0.1l-0.4,0.9c-0.8-0.3-1.4-0.3-1.8,0
			C267.8,616,267.8,617.3,267.8,617.3z"/>
	</g>
	<circle class="st2" cx="270.3" cy="618" r="0.9"/>
	<path class="st2" d="M247.8,648.6c-0.2,0.2-1.8,1.9-4,1.5c-1-0.2-1.7-0.7-2-1c0,0-6.5,3.4-8.1-2.2l-1.9-6.6c0,0-2.8,4.9-1.6-1.5
		l0.7-3.1c0,0-4,1.5-1.6-2.6c0.5-3,1.2-7.4,1.9-12.8c1-7.5,1-8.5,1.5-10.1c1.4-4.2,6.2-9.4,21.6-12.6c-1.6-0.8-2.7-1.9-2.5-2.8
		c0.2-0.8,1.5-1.5,5.2-1.7c0,0,18.9-2,14.6,12.1c-4.3,1.2-6.6,3.2-7.9,4.9c-3.4,4.2-3,9.5-6.5,10.6c-1.6,0.5-3.2,0-4.2,1.2
		c-0.6,0.8-0.6,1.9-0.5,2.6c0,0-0.4,3,3.3,2.6c-1.5,1-3.4,2.6-5,4.8C245.8,638.7,247.4,646.7,247.8,648.6z"/>
	<path class="st2" d="M252.2,625.3l-4,9.5c1.5,0.3,3.9,1.1,6.1,2.9c4.5,3.9,2.6,8.2,6.3,11.6c3.8,3.5,9.9,2.6,18.2,1.3
		c3.3-0.5,5-1.1,6.2-2.4c2.3-2.3,2.4-5.6,2.4-8.7c0.1-3.6,0.2-6.5-1.9-8.3c-1.8-1.5-4.8-1.9-7.2-0.8c-4.4,2-3.5,8.1-7.8,9.4
		c-2.3,0.7-4.5-0.3-4.8-0.4c-4.1-2-3.2-7-7.5-11C256.4,626.6,254.1,625.7,252.2,625.3z"/>
	<path class="st2" d="M391,640.7c-0.2-2-0.4-4.1-0.6-6.1c5.6-3.4,11.2-6.9,16.8-10.3c2.3,0.9,4.7,1.7,7,2.6
		C406.5,631.4,398.8,636,391,640.7z"/>
	<g>
		<path class="st2" d="M393.3,647.5l-2.5-7.5l23.1-13.8l5.1,5.4L393.3,647.5z M392,640.5l1.8,5.5l23.6-14.6l-3.7-3.9L392,640.5z"/>
	</g>
	<g>
		<path class="st2" d="M402.3,633.6l-7.1-1l-11.1-17.9l0.9,0c1.3-0.1,2.6-0.4,3.7-0.9c3.4-1.6,4.9-4.8,5.3-6.1l0.4-1.1l9.9,20.6
			L402.3,633.6z M395.7,631.6l5.8,0.8l1.6-5.3l-8.7-18.1c-0.8,1.7-2.4,4.2-5.4,5.6c-1,0.5-2.1,0.8-3.3,0.9L395.7,631.6z"/>
	</g>
	<g>
		<path class="st2" d="M383.5,615.8c-2.4,0-4.9-0.5-7.6-1.1c-4.8-1-9.3-2.8-13.5-5.5l-0.1-0.1L350,589l1,0.1
			c1.6,0.2,3.2,0.3,4.7,0.3c23.4,0,33.8-21.7,33.9-22l0.5-1.1l9,25.1l0,0.1c-0.1,4-0.9,7.9-2.3,11.6c-1.7,4.6-3.3,9-7.5,11.4
			C387.5,615.5,385.6,615.8,383.5,615.8z M363.1,608.5c4.1,2.6,8.5,4.3,13.1,5.3c5.1,1,9,1.8,12.8-0.2c3.8-2.1,5.3-6.2,7-10.8
			c1.3-3.6,2.1-7.3,2.2-11.1l-8.2-22.7c-2.6,4.7-14.5,23.5-38,21.3L363.1,608.5z"/>
	</g>
	<g>
		<path class="st2" d="M355.3,590.4c-1.2,0-2.5-0.1-3.7-0.2h0c-0.6-0.1-1.2-0.4-1.5-0.9s-0.4-1.2-0.2-1.8c0.6-1.8,1.4-3.5,2.4-5.1
			c4.6-7.7,12.5-13,23.6-15.6c4.1-1,8.4-1.3,12.8-1c0.6,0,1.2,0.4,1.5,0.9c0.3,0.5,0.3,1.2,0,1.7c-1.5,2.8-3.2,5.4-5.3,7.8
			c-5.6,6.5-12.3,10.8-20.1,12.8C361.7,590,358.5,590.4,355.3,590.4z M351.7,589.2c4.4,0.4,8.7,0.1,12.9-1c7.5-2,14.1-6.2,19.6-12.5
			c2-2.3,3.7-4.9,5.1-7.6c0.1-0.3,0.1-0.5,0-0.8c-0.1-0.3-0.4-0.4-0.7-0.4c-4.3-0.3-8.5,0-12.5,1c-10.8,2.5-18.6,7.6-23,15.1
			c-0.9,1.5-1.7,3.2-2.3,4.9c-0.1,0.3-0.1,0.6,0.1,0.9C351.1,589,351.3,589.2,351.7,589.2L351.7,589.2z"/>
	</g>
	<g>
		<path class="st2" d="M390.4,635.1l-11.5-7.4l0-0.3c0.2-1.7,0.5-3.4,0.8-5.1c0.7-3.2,1-3.9,1.3-4.4c0.2-0.3,0.3-0.5,0.4-1.4
			c0.1-0.5,0.2-1.5,1-1.9c0.5-0.3,0.9-0.2,1.4-0.1c0.2,0,0.5,0.1,0.8,0.1c0.9,0.1,1.7-0.1,2.5-0.3c0.7-0.2,1-0.3,1.4-0.5
			c0.3-0.2,0.6-0.3,1.2-0.5c1.5-0.4,4-0.4,4.8,1c0.5,1-0.1,2.2-0.3,2.6c-1.2,2.3-3.9,3-5.5,3.2l7.2,11.6L390.4,635.1z M380,627.2
			l10.4,6.7l4.1-2.5l-7.6-12.1l0.8-0.1c1-0.1,4.3-0.5,5.5-2.8c0.1-0.3,0.6-1.1,0.3-1.7c-0.4-0.7-2.2-0.9-3.6-0.5
			c-0.5,0.1-0.7,0.2-1,0.4c-0.3,0.2-0.7,0.4-1.6,0.6c-0.9,0.2-1.7,0.4-2.8,0.3c-0.4,0-0.7-0.1-1-0.1c-0.4-0.1-0.6-0.1-0.7,0
			c-0.4,0.2-0.4,0.8-0.5,1.2c-0.2,1.1-0.3,1.4-0.5,1.8c-0.2,0.4-0.5,1.1-1.2,4.2C380.5,624.1,380.2,625.7,380,627.2z"/>
	</g>
	<path class="st5" d="M392.2,611.3"/>
	<g>
		<path class="st2" d="M401.7,622.7l-0.6-0.8c0.8-0.6,1.5-1.4,2-2.2c0.7-1.1,1.2-1.9,1-2.8c-0.2-0.8-1-1.3-1.4-1.5l-0.5-0.2l0.3-0.5
			c0,0,0.6-1.1,0.2-1.8c-0.2-0.3-0.6-0.6-1-0.7c-0.7-0.2-1.6-0.1-2.3,0.4l-2.1,1.3l1.4-2c0.1-0.1,0.6-0.9,0.3-1.8
			c0-0.1-0.2-0.6-0.7-0.9c-0.7-0.5-2-0.4-3,0.4l-0.6-0.8c1.4-1,3-1.1,4.1-0.4c0.7,0.5,1,1.2,1,1.4c0.2,0.5,0.2,1.1,0.1,1.5
			c0.6-0.2,1.3-0.2,1.9,0c0.7,0.2,1.3,0.6,1.6,1.2c0.5,0.8,0.2,1.8,0,2.4c0.6,0.4,1.3,1,1.5,1.9c0.3,1.3-0.4,2.4-1.2,3.6
			C403.3,621.2,402.6,622,401.7,622.7z"/>
	</g>
	<g>
		<polygon class="st2" points="397.4,613.6 397.1,613.2 399.1,611.7 399.4,612.1 		"/>
	</g>
	<g>
		
			<rect x="398.7" y="615.9" transform="matrix(0.7657 -0.6433 0.6433 0.7657 -302.3953 402.4959)" class="st2" width="4.9" height="0.7"/>
	</g>
	<g>
		<path class="st2" d="M278.5,749.8c-3.3-8.4-6-17.2-7.9-26c-1.6-7.2-2.8-14.5-3.4-21.9l1-0.1c0.7,7.3,1.8,14.6,3.4,21.8
			c2,8.8,4.6,17.5,7.9,25.9L278.5,749.8z"/>
	</g>
	<circle class="st6" cx="273.3" cy="708.5" r="0.7"/>
	<circle class="st6" cx="277.3" cy="726.1" r="0.8"/>
	<circle class="st6" cx="282" cy="744.7" r="0.9"/>
	<g>
		<path class="st2" d="M163.1,728.7c-4.3,0-7.9-2.5-8-2.7c-0.8-0.4-1.7-0.9-2.5-1.3c-0.8-0.4-1.6-0.9-2.4-1.3
			c-1.3-0.3-2.4-1.4-2.4-2.8c0-1,0.5-2,1.3-2.5c-0.7-0.7-1.1-1.6-1-2.6c0.2-1.2,1.1-2.1,2.2-2.4c-0.4-0.6-0.6-1.2-0.4-1.9
			c0.3-1.3,1.6-2.3,3-2l8.7,0.8c1.8-0.5,3.2-0.4,4.2,0.3c0.3,0.3,0.5,0.5,0.9,1.3l0.3,0.5c1.6,2.8,2.1,3.4,2.5,3.7
			c0.5,0.5,1.1,0.9,1.8,1.2l0.4,0.2l-3,10.9l-3.4,0.3C164.5,728.7,163.8,728.7,163.1,728.7z M151.1,714.1c-1,0-1.9,0.7-2.1,1.6
			c-0.1,0.8,0.4,1.7,1.2,2.1l1.2,0.6l-1.3,0.4c-0.9,0.2-1.5,1.1-1.4,1.9c0,0.9,0.7,1.7,1.7,1.8l0.2,0.1c0.8,0.4,1.6,0.9,2.5,1.3
			c0.9,0.5,1.7,0.9,2.6,1.4c0.1,0.1,4.7,3.3,9.5,2.3l2.7-0.3l2.6-9.4c-0.6-0.3-1.2-0.7-1.7-1.2c-0.5-0.4-1-1-2.7-4l-0.3-0.5
			c-0.4-0.8-0.5-0.9-0.7-1c-0.7-0.5-1.8-0.6-3.4-0.2l-0.1,0l-8.9-0.9c-0.9-0.1-1.8,0.4-1.9,1.2c-0.1,0.7,0.3,1.4,0.9,1.7l3,1.4
			l-3.3-0.5C151.4,714.1,151.2,714.1,151.1,714.1z"/>
	</g>
	<g>
		
			<rect x="154.5" y="711" transform="matrix(0.2802 -0.9599 0.9599 0.2802 -574.4285 663.1036)" class="st2" width="1" height="7.1"/>
	</g>
	<g>
		
			<rect x="153.3" y="715.7" transform="matrix(0.3099 -0.9508 0.9508 0.3099 -577.8677 642.735)" class="st2" width="1" height="7.5"/>
	</g>
	<g>
		<path class="st2" d="M150,730.1c-0.7,0-1.5-0.1-3-0.5c-2.3-0.5-4.6-1.1-6.9-1.8l-1-0.3l8.6-28l8.8,1.9c3.2,0.9,4.3,2.6,4.6,3.9
			c0.2,0.6,0.2,1.3,0,1.9c-0.6,3.8-1.3,7.6-2.1,11.3c-1.1,5.5-2.1,6.7-2.7,7.5l-0.1,0.2c-0.7,0.9-2.4,3.2-5.2,3.7
			C150.6,730,150.3,730.1,150,730.1z M141.6,726.2c1.9,0.6,3.9,1.1,5.8,1.5c2.1,0.5,2.6,0.5,3.2,0.4c2-0.4,3.3-2.1,3.9-2.9l0.2-0.2
			c0.5-0.7,1.3-1.7,2.4-6.7c0.8-3.7,1.5-7.5,2.1-11.3c0.1-0.5,0.1-0.9,0-1.1c-0.3-1.1-1.4-1.9-3.1-2.4l-7-1.5L141.6,726.2z"/>
	</g>
	<path class="st2" d="M113.8,681.8c1.3-5.3,2.5-10.6,3.8-15.8c6.4,0.9,17.9,2.9,28.1,5.9c1.5,0.5,4,1.2,5.9,3.5
		c4.1,4.7,2.6,12,2,14.5c-6.6,20.7-13.2,41.4-19.8,62c-2.8-0.8-5.1-1.4-6.6-1.9c-4-1.2-5-1.7-7.1-1.8c-2.3-0.1-2.5,0.4-5.1,0.4
		c-2.9,0-5.1-0.7-6.8-1.3c-2-0.6-5-1.8-8.1-4C104.6,722.8,109.2,702.3,113.8,681.8z"/>
	<g>
		<path class="st2" d="M121.6,754.8c-1.6,0-3.2-0.1-5.2-0.2c-0.9,0-1.8-0.1-2.8-0.1c-5-0.2-7.4-0.1-9.1-0.1
			c-1.8,0.1-2.9,0.1-5.5-0.3c-4.2-0.5-8.2-1-12.5-3c-5.4-2.4-10.3-6.5-14.1-12l-0.5-0.7l0.8-0.1c2.8-0.4,5.7-0.6,8.4-0.6
			c4.8,0,10.7,0,16.4,3.2c0.8,0.4,1.1,0.7,1.5,1c0.4,0.3,0.9,0.7,2.2,1.5c2.8,1.7,5.7,3.4,9.4,4.2c3,0.7,6.1,0.7,9.3,0.1l0.1,0
			l0.1,0l14.9,3.8l-1.3,0.6c-1.4,0.6-2.8,1.2-4.3,1.6C126.6,754.5,124.3,754.8,121.6,754.8z M107.5,753.3c1.5,0,3.4,0,6.2,0.1
			c1,0,2,0.1,2.8,0.1c5.2,0.3,8.4,0.4,12.7-0.9c1-0.3,1.9-0.6,2.9-1l-12-3c-3.3,0.6-6.5,0.6-9.6-0.1c-3.9-0.9-6.8-2.6-9.7-4.3
			c-1.3-0.8-1.9-1.2-2.3-1.5c-0.4-0.3-0.7-0.5-1.4-0.9c-5.5-3.1-11.3-3.1-15.9-3.1c-2.5,0-5,0.2-7.5,0.5c3.6,5,8.2,8.8,13.2,11
			c4.2,1.9,8.1,2.4,12.3,2.9c2.6,0.3,3.6,0.3,5.4,0.3C105.3,753.3,106.2,753.3,107.5,753.3z"/>
	</g>
	<path class="st2" d="M115.3,665.6c-1.4-0.6-8-2.9-15.4,0.1c-7.9,3.2-11,10.1-11.5,11.4l-16,61.5c0,0,13.3-2.2,25.2,2.7
		C103.5,716.1,109.4,690.9,115.3,665.6z"/>
	<path class="st4" d="M113.6,707.1l-10.5-2.1c-1.5-0.3-2.4-1.7-2.1-3.1l0.8-3.9c0.3-1.5,1.7-2.4,3.1-2.1l10.5,2.1
		c1.5,0.3,2.4,1.7,2.1,3.1l-0.8,3.9C116.4,706.4,115,707.4,113.6,707.1z"/>
	<g>
		<path class="st2" d="M311.6,968.8c-22.4,0-45-4.2-66.5-12.5l-6.4-2.4l6.8-0.5c17.6-1.2,34.8-4.6,51.2-10.2
			c49.4-16.9,81.9-49.8,100.4-74.4c0.3-0.4,31.4-46,35.9-76.9l-41.9-14l3.3-1.6c1.1-0.5,106.3-52.7,135.9-110.4l1.8-3.6l38.7,156.7
			l-35.4-5c-2.1,5.2-11.8,27.6-32.5,53.7c-21.7,27.4-60.3,64.6-120.9,86.5c-14.9,6.5-30.6,10.9-46.5,13.1
			C327.6,968.2,319.6,968.8,311.6,968.8z M252.5,955.8c26.9,9.2,55.3,12.1,82.6,8.3c15.7-2.2,31.1-6.5,45.8-12.9
			c59.9-21.6,98.1-58.4,119.5-85.4c23.3-29.3,32.5-53.8,32.6-54.1l0.4-1.1l33.4,4.7l-35.8-144.7C502,722.1,416.6,768.2,399,777.3
			l37.4,12.5l-0.2,1.2c-4,31.7-35.3,77.6-36.6,79.5c-18.8,25-51.7,58.4-101.9,75.5C283.2,951,268,954.3,252.5,955.8z"/>
	</g>
	<g>
		<path class="st2" d="M49.3,1031.9l-0.5-0.5c-0.1-0.1-13.9-14.4-25.8-36.8c-11-20.7-22.6-52.9-15.7-88.4c0.1-1.4,1.6-16.4,9.4-34.8
			c7.4-17.5,22.2-41.3,50.5-55.6l0.3-0.1c5.7-1.5,17.1-3.2,29.9,1.4c10.3,3.7,17.2,10,21.2,14.7l1.1,1.3l-1.4,0.9
			c-11.8,7.7-22.3,16.9-31.4,27.3c-22.5,25.9-31.5,54.4-35.1,73.8c-0.1,0.5-6.1,56,39.4,90.7l3.1,2.4L49.3,1031.9z M68.4,818.5
			c-52.5,26.7-58,87.4-58.1,88l0,0.2c-6.8,34.7,4.6,66.1,15.3,86.4c10.4,19.7,22.3,33,24.8,35.7l35.8-3
			c-22.3-18.3-31.4-41.5-35.1-57.9c-4.1-18.6-2.5-32.6-2.5-33.2c3.7-19.9,12.9-48.9,35.8-75.3c8.9-10.2,19.2-19.3,30.6-26.9
			c-3.9-4.2-10-9.4-18.8-12.5C84.5,815.6,73.8,817.2,68.4,818.5z"/>
	</g>
	<path class="st7" d="M340.3,760.7c1.2,4.5,2.4,8.9,3.6,13.4"/>
	<g>
		<path class="st2" d="M404,594.9c-2.5,0-4.9-1.6-5.8-4.1l-0.3-0.9c-1.2-3.5,0.1-7.3,3.2-9.4l1.5-1c3-2,3.9-5.9,2.2-9
			c-0.4-0.6-1.4-2.1-3.4-2.8c-2.1-0.8-4-0.1-4.7,0.2c-0.8,0.3-1.6,0.7-2.3,1.1c-1,0.5-1.9,1.2-2.8,1.9l-0.6-0.8
			c0.9-0.7,1.9-1.4,2.9-2c0.8-0.4,1.6-0.8,2.4-1.1c0.8-0.3,3-1.1,5.4-0.2c2.2,0.8,3.4,2.3,3.9,3.2c2,3.6,0.9,8.1-2.5,10.3l-1.5,1
			c-2.7,1.8-3.8,5.2-2.8,8.2l0.3,0.9c0.9,2.6,3.7,4.1,6.4,3.2c1-0.3,1.8-1.1,2.3-2.1s0.4-2.1,0-3.1l-0.4-1l0.9-0.4l0.4,1
			c0.6,1.2,0.6,2.6,0,3.9c-0.5,1.2-1.6,2.2-2.9,2.6C405.2,594.8,404.6,594.9,404,594.9z"/>
	</g>
	<g>
		<path class="st2" d="M359.2,618.8c-0.4,0-0.8-0.1-1.2-0.2c-1.3-0.4-2.4-1.3-3-2.5l-0.5-0.9l0.9-0.5l0.5,0.9c0.5,1,1.4,1.7,2.4,2
			c1,0.3,2.1,0.1,3-0.5c1.1-0.7,1.9-1.8,2.1-3.1c0.3-1.3,0-2.6-0.7-3.7l-0.5-0.8c-1.7-2.7-5.1-3.9-8.1-3l-1.7,0.5
			c-3.9,1.2-8-0.8-9.6-4.6c-0.4-1-0.8-2.9-0.1-5c0.9-2.4,2.7-3.6,3.5-4c0.7-0.4,1.5-0.8,2.3-1.1c1.1-0.4,2.2-0.7,3.3-1l0.2,1
			c-1.1,0.2-2.1,0.5-3.2,0.9c-0.8,0.3-1.5,0.7-2.2,1.1c-0.7,0.4-2.3,1.4-3,3.5c-0.7,1.9-0.2,3.5,0.1,4.3c1.3,3.2,5,5,8.3,4l1.7-0.5
			c3.5-1,7.3,0.4,9.3,3.5l0.5,0.8c0.9,1.3,1.2,2.9,0.9,4.5c-0.3,1.6-1.2,2.9-2.6,3.7C360.9,618.5,360.1,618.8,359.2,618.8z"/>
	</g>
	<g>
		<path class="st2" d="M392.3,780.1l-4.3-9c28.8-13.6,55.9-30.7,80.6-50.9c21.1-17.2,40.4-36.8,57.4-58l7.8,6.3
			c-17.5,21.8-37.3,41.8-58.9,59.5C449.6,748.5,421.8,766.1,392.3,780.1z"/>
	</g>
	<g>
		<path class="st2" d="M44.9,1034.4c-14.1-14.8-24.8-31.6-31.9-49.9c-22-57.2-8.3-128.9,29.9-156.6c4.4-3.2,16.1-11.7,33.2-12.9
			c10-0.7,25.5,0.9,42.3,12.9c15.9,11.3,21.7,25.5,27.4,39.3c2.1,5,4.2,10.3,6.9,15.4c18,34.9,55,58.1,81.6,64.9
			c27.1,6.9,58,0.7,89.4-18.2c34.2-20.5,57.3-48.2,65.7-59.2c17.7-23.2,30.2-49.9,37.1-79.4l6.8,1.6c-7.2,30.5-20.1,58.1-38.4,82.1
			c-28.8,37.7-95.4,97-162.4,79.9c-28.1-7.2-67.1-31.7-86.1-68.5c-2.8-5.4-5-10.7-7.1-15.9c-5.6-13.5-10.8-26.2-25-36.3
			c-15.1-10.8-28.9-12.3-37.8-11.6c-15.1,1.1-25.6,8.7-29.6,11.6c-16.8,12.1-29.4,35.1-34.8,63.1C6.9,925,9.5,956.1,19.5,982
			c6.7,17.4,16.9,33.4,30.4,47.6L44.9,1034.4z"/>
	</g>
	<path class="st2" d="M273.6,908.3c0.5,1.9,1.2,4,2.1,6.2c0.8,1.8,1.6,3.5,2.4,4.9c0,0-8.2,1.4-9.9,1.4c0,0-0.7-3.5-2.2-3.7
		c0,0-5.1,10.6-28.3,3.1c0,0-2.1-2,1.6-2.4c0,0,15.2-5.1,18.3-10.2L273.6,908.3z"/>
	<path class="st2" d="M216.4,906.5c0.2,1.9,0.5,3.9,0.8,5.8c0.2,1.7,0.5,3.5,0.8,5.1l-9.5-1c0,0,0.1-3.7-2.1-4c0,0-8.6,7.2-26-4.9
		c0,0-1.2-1.9,1.2-2.2c0,0,12.4,1.6,18.9-2.5L216.4,906.5z"/>
	<path class="st2" d="M377.7,589.4l3.5,2.4c0.1,0.1,0.2,0.1,0.4,0l4-1.5c0.3-0.1,0.6,0.2,0.5,0.5l-1.2,4.1c0,0.1,0,0.3,0.1,0.4
		l2.6,3.3c0.2,0.3,0,0.6-0.3,0.6l-4.2,0.1c-0.1,0-0.2,0.1-0.3,0.2l-2.3,3.5c-0.2,0.3-0.6,0.2-0.7-0.1l-1.4-4c0-0.1-0.1-0.2-0.3-0.3
		l-4.1-1.1c-0.3-0.1-0.4-0.5-0.1-0.7l3.4-2.6c0.1-0.1,0.2-0.2,0.2-0.3l-0.2-4.2C377.1,589.4,377.5,589.2,377.7,589.4z"/>
	<path class="st4" d="M388.3,619.2c-0.5,0.1-1.1,0.1-1.6,0.2c-0.7-1.2-1.3-2.3-2-3.5c0.4-0.1,0.9-0.1,1.3-0.2
		C386.8,616.8,387.6,618,388.3,619.2z"/>
	<g>
		<path class="st4" d="M158.9,714.3c0,0,2-1-0.4-1.9c0,0-5.9-2.4,0.6-4c0,0,4.1-1.5,6.1,1.9c0.4,0.7,0.9,1.4,1.3,2.1
			c0.3,0.5,0.7,1.1,1,1.6"/>
		<path class="st2" d="M159.1,714.8l-0.4-0.9c0.3-0.1,0.5-0.4,0.5-0.5c0,0-0.1-0.2-0.8-0.5c-0.5-0.2-2.9-1.2-2.8-2.7
			c0.1-1,1.2-1.7,3.4-2.2c1.5-0.6,4.9-0.9,6.6,2.1l2.3,3.7l-0.9,0.5l-2.3-3.8c-1.7-3-5.3-1.7-5.5-1.7c-2.6,0.6-2.7,1.2-2.7,1.4
			c0,0.5,1.2,1.3,2.2,1.7c0.3,0.1,1.4,0.5,1.5,1.4C160.2,714.2,159.3,714.7,159.1,714.8z"/>
	</g>
	<path class="st4" d="M265.2,766.1c-2.8,0.9-5.9,1.7-9.1,2.4c-3.2,0.7-6.3,1.3-9.2,1.8c-0.2-0.4-0.4-0.8-0.6-1.3
		c3-0.4,6.2-1,9.6-1.8c2.9-0.7,5.5-1.5,8-2.3C264.4,765.3,264.8,765.7,265.2,766.1z"/>
</g>
<g>
	<g>
		<path class="st3" d="M604.4,648.5c20.3,111.3,26.3,114.5,17.7,113.7c-50.1-5-49-2.3-50-8.7c-2.6-15.5-17.5-104.5-21.8-119.7
			c-1.6-5.8-0.5-3.2,47.7-0.2C602.6,633.9,602,634.9,604.4,648.5z"/>
		<path class="st3" d="M565,753c1.1,5.8,2,4-44.2-0.2c-2.1-0.2-3.5-0.7-3.9-3.2c-3.8-24.4-9.2-48.6-14-72.8
			c-10.1-50.8-13.1-51.4-6.3-50.8c15,1.3,30,2.5,45.1,3.6C546.9,630,542.4,629.4,565,753L565,753z"/>
		<path class="st3" d="M675.2,596.2c-10.8,4.8-21.5-0.3-53.1,0.3c-9.1,0.2,16.4-9.2,31.9-19.7c1.4-0.9,2.8-0.8,4.2-0.8
			C742.3,575.8,732.5,570.6,675.2,596.2z"/>
		<path class="st3" d="M607,602.1c4.7-2.5,50.3,1.6,50.4,1.6c-56,24.5-54.1,24.1-56.3,23.9c-12.2-0.8-24.4-1.8-36.7-2.7
			C563.8,623.1,564.3,624.8,607,602.1L607,602.1z"/>
		<path class="st8" d="M631.6,761c2.1,1.9,10.5-3.4,56.5-23.8c2.2-1,3.8-1.6,4.8-2.8c4.3-5.2-3.8-20.6-21.9-121.4
			c-0.2-0.9-0.3-1.7-0.4-2.5c-0.6-4.4-1-6.4-5.7-4.1c-4.1,2.1-8.4,3.9-12.7,5.7c-1.4,0.6-2.8,1.2-4.2,1.8
			c-34.3,14.8-40.7,16.3-41.3,19.1c-0.1,0.6,0.1,1.3,0.3,2.2c0.3,1.3,17.8,86.9,23.7,123.1C630.9,759.5,631,760.5,631.6,761z
			 M645.1,745.4l23.7-11c3.9-1.8,3.5-4.2,0.5-18c-0.7-3.4-1.6-7.4-2.5-12.2c-0.6-3.3-4.2-5.1-7.2-3.7l-23.7,11
			c-3.9,1.8-3.5,4.2-0.5,18c0.7,3.4,1.6,7.4,2.5,12.2C638.5,745,642.1,746.8,645.1,745.4z"/>
		<path class="st8" d="M700.4,730.6c2.4,1.9,11-3.9,52.4-21.5l0,0c6.4-2.7,6.1-4.1,0.2-31.6c-3.6-16.6-9.2-42.7-16.6-84.3
			c-0.3-1.9-0.7-3.7-1.1-5.6c-0.5-2.4-1-4.6-1.3-6.8c-0.2-1.2-0.3-2.1-0.7-2.6c-1.9-1.8-10.2,3.5-55.4,22.6
			c-0.3,0.1-0.5,0.2-0.8,0.4c-2.3,1.8,0.5,10.5,22.2,125.5C699.5,728.6,699.7,730,700.4,730.6z M714.6,635.5l17.6-9.8
			c2.9-1.6,2.3-4.5-0.5-18.2c-0.7-3.3-1.5-7.2-2.4-11.9c-0.6-3.3-3.5-5.2-5.7-4l-17.6,9.8c-2.9,1.6-2.3,4.5,0.5,18.2
			c0.7,3.3,1.5,7.2,2.4,11.9C709.6,634.8,712.4,636.7,714.6,635.5z"/>
		<path class="st8" d="M567.5,592c-28,12.3-62,27.6-64.2,29.1c44.1,4.1,47.9,3.5,57.7-1.9c16.3-9.1,32.7-17.6,46.4-24.7
			c-0.4,0-0.9-0.1-1.3-0.1c-1.1-0.1-2.2-0.4-3.2-0.8c-1.9,1.8-5.2,2.9-7.5,3c-3.9,6-11,7.3-16.7,3.3L567.5,592z M615.9,590
			c1.6-2.5,2.5-5.9,3.3-9.4c0.6-2.6,0.8-4,1-4.8l0.8,0c5.9,0.1,12.8,0.3,20.2,0C641.6,576.7,631.3,582.1,615.9,590z"/>
		<path class="st9" d="M376.6,196.9C500.9,84.6,700.6,133,743.3,275.2l0,0l0.2,0.5c1.3,3.9,1.7,5.1-40.5,103.8
			c-7.2,16.9-14.3,33.8-21.3,50.7c-1.7-1.8-3.9-3.2-6.3-3.9c16.9-40.4,33.8-80.8,50.5-121.3c-20.9,10.9-46.1,12.6-62.7-4.3
			c-9.2,57.3-22,123.7-33.5,183.7c-4.9,25.3-8.5,44.3-11.2,58.7l0,0v0c-7.1,37.5-8.1,42.9-10.2,43.4c-0.4,0.1-0.7,0-1.2,0l0,0
			l-0.2,0c-0.4,0-0.8-0.1-1.2-0.3c-2-1.2-0.7-7.6,8-54c2.1-11.2,4.6-24.6,7.6-40.9c16.1-86.7,25-131.6,29.7-155.2
			c4.7-23.7,5.1-25.8,4.3-27.1c-0.1-0.1-0.2-0.3-0.3-0.4c-20.1,29.1-58.1,30.4-82.9,11.4c-0.5,1.5-0.4,1.6,1.9,19.1l0,0
			c2.7,20.4,8.5,64.3,20.3,161.6c2.1,17.3,3.7,30.1,5,39.7c3,23.1,3.5,27.2,2,28.2c-0.3,0.2-0.8,0.3-1.3,0.4l0,0
			c-4,0.7-17.6-114.2-26-185.8c-3.5-29.6-6.1-51.8-6.8-55.4c-20.4,31.2-47.7,40-82.9,26.2c36.6,75,61.6,125.9,78.6,160.5
			c32.4,66.1,35.7,72.7,34.5,73.6c-0.1,0.1-0.3,0.1-0.5,0.2c-0.2,0-0.4,0.1-0.6,0.2c-2.4,1.1-3.2-0.7-3.9-2.3
			c-0.1-0.3-0.2-0.5-0.4-0.8C490.5,380.8,477.5,353,475.7,349.2c-0.3-0.6-0.3-0.6-0.3-0.6c-16.2,34.6-44.5,43.4-80.5,37.6
			c40.7,41.3,81.5,82.5,122.3,123.7c59.2,59.8,64.4,64.9,63.3,67c-0.1,0.2-0.3,0.4-0.4,0.5l0,0c-0.2,0.2-0.3,0.4-0.4,0.6
			c-0.1,0.2-0.2,0.4-0.4,0.6c-1.6,1-8.1-5.6-71.1-69.7c-28.3-28.8-68-69.1-123.7-125.6c-8.3,19.5-22.6,31.1-45.2,32.8
			C391.5,452.6,443.8,489,496,525.3l0,0v0c86.4,60.1,93.5,65,92.8,66.7c-0.1,0.2-0.2,0.3-0.3,0.4c-0.1,0.1-0.2,0.2-0.3,0.3
			c-1.3,1.8-3.2,1.9-5,0.6c-80.3-56.5-135.4-94.5-173.2-120.7c-72.7-50.3-82.1-56.8-86-65.7c-0.6-1.4-1.1-2.8-1.6-4.3l-0.6-1.7
			c-21.1-62-6.7-123.1,23.9-168.4c2.6,2.8,5.3,5.7,8,8.4c-2.1,2.7-3.5,4.5-3.8,5c-33,51.7-35.5,112.6-15.7,158.5
			c1.1,2.5,2.2,3.2,4.9,3c14-0.7,24.2-7.9,32.1-18.9c1.6-2.3,3.2-4.6,4.7-6.9c5-7.5,6.8-10.3,14-7.5c34.2,13.1,67.2-5.3,76.1-31.2
			c3-8.7,7.3-9.2,11.4-5.7c29.8,25.3,72.2,10.7,82.3-22.4c3.6-11.6,7.7-8.3,13.7-3.4c2.4,1.9,5.1,4.1,8.2,5.7
			c21.5,11,51.3,9.6,68.6-18.5c7.8-12.7,9.1-14.3,14.7-7.7c14.3,17,38.8,14.4,53,5.3l0,0c17.3-11,14.8-17.6,9.5-31
			c-26.9-67.3-102.5-123.7-204-118.6c-3.2,0.2-10.8,1.2-12.5,1.6l0.6,0.9C600.6,207,628.2,290.8,616.4,274l-3.8-5.4
			c-31.3-44.5-52.4-74.5-106-113.8c-5.6-4.1-10.5-5.4-16.8-3.4c-5.3,1.6-9.2,2.5-11.9,3c-5.1,1.1-6.2,1.3-5.4,4.7
			c1.6,6.7,3.2,13.1,4.6,19.2c-2.7-2.6-5.6-3.7-8.6-3.2c-1.4-6.6-2.5-11.8-2.8-14.3c-0.4-3.3-0.8-3.1-12.6,1.7
			c-2.7,1.1-6.1,2.5-10.1,4.1c-2.8,1.1-4.6,3.1-5.9,6c-40.7,86.2-38,142.4-36.8,165.4c0.4,7.4,0.6,11.4-0.9,11.8
			c-5.8,1.8-16.4-50.7,8.5-128c6.7-20.8,13.9-34.1,18-41.7c1.1-2.1,2-3.7,2.6-5c-3.6-1.3-31.3,15.9-44.8,30.8
			c-2.3,2.6-4.6,5.1-6.8,7.6c-2.5-1.8-4.4-3.3-6-4.5c-1.5-1.1-2.6-2.1-3.7-2.8C370.2,202.9,373.3,199.8,376.6,196.9z M662.9,456.1
			l-8.1,19.3c-33.9,81-37.2,88.8-35.1,90.8c0.3,0.2,0.5,0.4,0.8,0.5l0,0c4,2.1,23.2-44.7,47.4-103.5l2.4-5.8
			C668.4,457.5,665.6,457.3,662.9,456.1z M483.6,222c1.3-1,2.5-1.9,3.6-2.7c6.5,25.8,11.4,44.2,15,58.1v0
			c5.1,19.2,7.9,29.9,9.7,39.8c2.5,13.8-13.9-15.3-31.6-90.6l-0.6-2.7C481.1,223.5,482.5,222.9,483.6,222z"/>
		<path class="st3" d="M811.9,272.6c-5.6,15.9-41.2,5.8-35.6-17.1c1.2-4.8-9-3.6-9.7-21.8c0-1.3-0.2-2.1-1.4-2.8
			c-10.5-6.1-10.9-17.9-8.1-26.6c6.2-19.2,16-13,10.9-9.4c-7.1,5.1-9.2,21.8-3.7,28.4c2,2.3,3.6,3.6,5-0.6
			c2.9-8.5,13.2-13.2,18.1-8.2c4.9,5.1-1.8,16.3-12.2,17.6c-7.6,1-2.2,11.1,0.9,14.6c4.5,5.1,4.9-8.6,16.7-8.3
			c10.2,0.2,5.8,14-7,16.2c-4.4,0.8-5.3,1.9-4.4,6.4c2.2,11.1,20.3,19.4,28.1,10.4C812.8,267.6,812.1,272.2,811.9,272.6L811.9,272.6
			z M784.5,218.8c-0.8-2.4-5-1.4-7,0.1c-2.7,1.9-5.6,7.9-4.2,8.4C777.4,228.8,783.4,223.6,784.5,218.8z M792.8,245.3
			c2.1-3.5-2-4.7-8.2,2.4C781.4,251.4,789.6,250.6,792.8,245.3z"/>
		<path class="st3" d="M433.8,46.6c-10.8,7.9-15.2,28.7-8.6,29.2c1.3,0.1,4.1-11.6,14.2-13.3c11.9-1.9,11,15-5.8,19.2
			c-1.2,0.3-3.5-0.1-3.2,2.1c0.3,2.9,1.8,5.3,4.5,6.6c2,1,2.5-0.9,3.3-2c3.1-4.3,7.4-6.6,12.2-8.1c6-1.8,9.9,2.9,6.4,8.1
			c-10,15.1-19.3,3.1-18.3,13.8c0.9,9.4,11.2,14.8,20.7,10.9c1.5-0.6,2.8-1.5,4.6-1.4c-4.9,12.9-32.1,10-30.2-12.6
			c0.6-7.7-32.5-25.1-5.4-51.8C429.3,46.4,431,46,433.8,46.6L433.8,46.6z M432,76.1c3.2-1.1,6.4-2.2,8.5-4.9c0.7-0.9,2.4-1.9,1-3.3
			C439.6,65.8,433.4,70.4,432,76.1L432,76.1z M453.3,84.4c-5.9,0.2-11.8,5.8-11,7.3C443.3,93.4,450.9,90.8,453.3,84.4z"/>
		<path class="st3" d="M699.9,108.9c-10.3-0.2-29.5-1.2-24.5-10.1c16.4-29.1,9-38.3,19.9-35.2c20.2,5.7,15.1,3.6,10.3,40.2
			C705.2,107.4,702.9,108.3,699.9,108.9z M694.7,71.2c-2.8,0.2-1.8,6.2-10.1,24.8c-1.6,3.6,0.3,2.6,10.8,5.2c4.6,1.2,3.6-1.1,7-23
			C703.1,73.8,699.1,70.2,694.7,71.2z"/>
		<path class="st3" d="M481.3,218.8c-2.8,2.1-5.5,2.1-8.3-0.4c-32.9-28.1-31.8-19.4-6.9-38c3.1-2.4,5.6-2.1,8.4,0.7
			C501.3,208.4,503.7,202,481.3,218.8L481.3,218.8z M488,204.2c-2.6-2.9-6-6.1-8.9-8.8c-11.7-10.9-6.7-10.3-20.2-1.6
			c-3.7,2.4-3.3,1.4,17.1,18.5c1.4,1.2,2.4,0,3.4-0.8C482.3,209.2,485.7,207.4,488,204.2z"/>
		<path class="st3" d="M347.9,229c-6.4-6.8-0.5-6.2,9.2-17.6c3.1-3.6,5.8-4.1,9.3-0.9c9.7,8.8,31.6,18.5,23.7,25.6
			C369.7,254,372.7,255.7,347.9,229L347.9,229z M361.9,215.6c-7.9,8-10.5,8.9-6.7,12.1c17.6,14.6,14.7,18,27.8,6
			c5.1-4.7-10.5-9.9-19-17.2C363.5,216,362.7,215.9,361.9,215.6L361.9,215.6z"/>
		<path class="st3" d="M356.4,132.8c0.5,5.5-0.9,7.5-6.3,8.6c-28.7,6-16.1,0.4-19.9-32c-1.3-11.2,1.7-7.9,16.6-10.7
			c3.3-0.6,3.8,0.2,4.9,6C357.6,136.5,356,128.7,356.4,132.8L356.4,132.8z M347.9,135.9c1.3-0.2,2.3-0.8,2.1-3
			c-0.8-8.3-2.2-16.5-3.5-24.7c-0.5-3-2.6-3.7-5.3-2.8c-2.3,0.8-6.2-0.8-5.7,4.4c0.6,6.8,2,13.5,1.5,20.5c-0.3,4.9-0.3,6.5,2.3,6.6
			C340.6,137,341.6,136.8,347.9,135.9z"/>
		<path class="st3" d="M400.1,508.8c5.2,1.3,3.8,2.8,4.2,34.9c0.1,6.2-5.2,4.5-24.9,2.5c-5.2-0.5-3.4-1.3,1.7-38.6
			C382,500.8,391.9,506.8,400.1,508.8L400.1,508.8z M398.9,515.2c-1.5-3.1-5.8-1.8-8.5-3.6c-5.9-3.8-4.3,4.1-7.8,25.2
			c-0.9,5.1,1.3,3.1,12.3,4.7C399.5,542.2,398.3,540.8,398.9,515.2L398.9,515.2z"/>
		<path class="st3" d="M532.7,89.9c1.2,1.7,1.6,3.9-0.8,5.4c-8.4,5.5-15.2,13.8-20.3,6.7c-11.7-16.3-15.5-22-7.7-26.7
			C512.8,70.2,512.6,61.4,532.7,89.9z M518.2,98.4c10.5-7,11.6-4.8,0.4-17.6c-5.1-5.8-6.5-5.7-11.9-0.1c-2.3,2.4-1.5,2.1,8.4,16.4
			C515.9,98.2,516.8,98.8,518.2,98.4L518.2,98.4z"/>
		<path class="st3" d="M740.3,391.9c-1.6-0.8-1.2-2.7-0.7-4.3c7-20.7,6.7-21.3,7.5-22c4.7-4.6,9.3,0.3,13.9,0.5
			c5.7,0.2,3.2,7,0.1,27.3C760.1,399.9,744.3,393.8,740.3,391.9L740.3,391.9z M753.5,390.4c3.2,0.3,1.8-0.9,4.7-16.6
			c0.7-3.6-2.3-2.6-3.9-3.3c-1.7-0.7-3.3-0.8-4,1.7C745.1,390.9,742.4,387.4,753.5,390.4z"/>
		<path class="st3" d="M269.3,249c17.5-3,22.4,20.1,5.6,23.1C257.9,275.2,252.2,252,269.3,249z M274,266.6c3.1-0.5,5.6-3.7,5.2-6.6
			c-0.5-3.5-5.1-6.2-9.3-5.5C261.6,256,264.6,268.2,274,266.6z"/>
		<path class="st3" d="M672.4,453.4c-16.2,3-21.8-20.1-5.6-23.5C683.7,426.3,688.8,450.4,672.4,453.4z M676.1,440.5
			c-1.6-7.9-14.8-5.7-13.1,2.1c0.6,2.8,5.2,5.4,8.4,4.8C674.3,446.9,676.7,443.4,676.1,440.5L676.1,440.5z"/>
		<path class="st3" d="M548.9,30c-2.8-14.9,19.6-16.3,22.1-1.7C573.3,41.6,551.9,46.2,548.9,30z M564.7,29.5
			c-1.2-7.1-11.5-7.1-10.5-0.3C555.1,34.6,564.6,36.3,564.7,29.5z"/>
		<path class="st3" d="M321.5,457.8c-13.9,2.7-18.3-17.8-4.8-20.6C330.3,434.4,335.2,455.1,321.5,457.8z M317.9,443.2
			c-6.6,1.2-3.6,8.8,1.8,8.3C324.6,451.1,323.7,442.8,317.9,443.2z"/>
		<path class="st3" d="M653.6,249.5c2.9,14.1-18.2,17.2-20.9,3.9C629.9,240.4,650.7,235.2,653.6,249.5z M648.2,250.7
			c-1.1-6.4-11.5-4.3-10.3,1.4C639.2,257.7,649.2,256.3,648.2,250.7z"/>
		<path class="st3" d="M264.1,106.7c-2.5-12.3,15-15,17.2-4.5C283.8,114.2,266.5,118.3,264.1,106.7z M275.1,103.6
			c-1.3-2.9-6.6-1.3-5.8,1.7C270.1,108.7,275.5,107.6,275.1,103.6z"/>
		<path class="st3" d="M436.7,314.6c-3.5,0.6-5.6-0.6-6.4-4.2c-0.7-3.6,0.9-5.7,4.1-6.6C441,302.1,444.6,313.1,436.7,314.6z"/>
		<path class="st3" d="M390.8,139.1c1.2,6-8.9,7.9-9.8,1.3C380,133.6,389.5,132.6,390.8,139.1z"/>
		<path class="st3" d="M299.1,177.4c-6.4,1.4-8.9-8-2.2-9.6C303.6,166.3,305.2,176,299.1,177.4z"/>
		<path class="st3" d="M396.1,444.7c-6.8,1.3-7.3-8.9-1.6-9.9C400.3,433.8,402.7,443.4,396.1,444.7z"/>
		<path class="st3" d="M600.4,109.2c0.6,6.4-8,7.9-9.5,1.6C589.4,104.6,598.9,102.4,600.4,109.2z"/>
		<path class="st3" d="M762.9,282.1c-5.7,1-7.9-8-1.4-9.2C768,271.7,769.4,280.9,762.9,282.1z"/>
		<path class="st3" d="M610.3,57.8c-7,1.4-7.8-7.7-2.1-8.8C614.4,47.9,615.3,56.8,610.3,57.8z"/>
		<path class="st3" d="M385.1,66.9c-2.4,0.1-4.7-0.1-5.2-3.2c-0.5-3,0.5-5.2,3.7-5.8C389,56.9,391.7,65.3,385.1,66.9z"/>
		<path class="st3" d="M714.1,153.9c-1-6.6,7.3-8.4,8.7-1.9C724,157.4,716.4,160.4,714.1,153.9z"/>
		<path class="st3" d="M423.7,550c-0.4-3.4,0.2-5.6,3.3-5.8c2.6-0.2,4.7,0.8,5.1,3.7C433,553.6,425.2,555,423.7,550L423.7,550z"/>
		<path class="st3" d="M528.8,482.3c0.3,4-5.7,5.9-6.7,1.4C521,479,527.7,477.1,528.8,482.3z"/>
	</g>
</g>
</svg>
