<?xml version="1.0" encoding="utf-8"?>
<!-- Generator: Adobe Illustrator 27.1.0, SVG Export Plug-In . SVG Version: 6.00 Build 0)  -->
<svg version="1.1" id="Layer_1" xmlns="http://www.w3.org/2000/svg" xmlns:xlink="http://www.w3.org/1999/xlink" x="0px" y="0px"
	 viewBox="0 0 960 1050" style="enable-background:new 0 0 960 1050;" xml:space="preserve">
<style type="text/css">
	.st0{fill:#12B76A;}
	.st1{fill:#191919;}
	.st2{fill:#FFFFFF;}
	.st3{fill:#1B1B1B;}
	.st4{fill:#343434;}
	.st5{fill:#EBF4FA;}
	.st6{fill:#FDFDFD;}
</style>
<g>
	<path class="st0" d="M653.1,241.5c3.5,30.8,15.7,57.7,36.7,80.5c5,5.4,6.3,9.2,2.1,16.2c-17.4,28.2-18.2,57.4-1,86
		c4.4,7.4,2.8,11.9-1.3,18.2c-9.5,14.5-16.7,30.1-17.1,48c-11.8,3.3-23.6,1.8-35.5,0.9c-42.6-3.9-82.9-16.6-122.9-30.8
		c-0.7-0.6-1.7-1.3-1.6-2.1c3.3-23.8-3.9-45-16.1-65c-1.2-2-2-4.4-1.4-6.6c4.3-15.7-5.8-26.3-14-36.7c-14.8-18.6-32.3-34.5-53-46.9
		c-15.3-9.2-32.7-10.7-49.3-15.3c-7.4-2.1-11.7-5.2-8.4-11.8c9.8-19.9,12.9-40.5,10.9-62.3c-0.4-4.4,3-7.5,6.3-10.1
		c43.2-33.8,88.8-64,136.3-91.5c2.8-1.6,5.8-2.7,9.2-2.1c23.7-12.1,47.4-24.2,72.2-36.9c3.4,16.1,6,30.9,9.9,45.5
		c5,19.1,13.4,37.1,26.9,51.3c10.2,10.7,13,22,11.3,35.6C651.3,217.6,651.5,229.6,653.1,241.5z"/>
	<path class="st1" d="M363,515.7c21.9-5.5,43.8-10.7,65.5-16.6c19.5-5.4,39.2-10.5,57.5-19.7c3.2-5.2,8.1-7.6,14-8.3
		c34.8,63.5,69.7,126.8,104.3,190.4c15.7,28.9,30.9,58.1,46.3,87.2l-0.1-0.1c6,19.4,15.1,37.5,24.5,55.4c4.7,9,3.9,14.1-6,19.2
		c-22.2,11.4-22.6,12.5-38.5-6.6c-50.5-60.4-97.1-123.7-139.2-190.3c-8.2-13-16.4-26-24.8-38.9c-1.3-1.9-1.8-2.8,0.4-3.9
		c10.3-6.7,22.2-9.8,32.5-14.6c-11.5,3.4-22.3,11-35.2,12.3c-28.7,8-56.5,19.1-86.2,23.1c-16.4,2.2-32.7,5.6-52.5,4
		c11.6,12.3,21.4,22.5,31,33c25.4,27.6,47,58,66.2,90.2c3.6,6,3.4,9.9-1.8,15.2c-18.6,18.9-18.7,19.1-40,4.7
		c-18.3-12.3-35.6-25.9-52.2-40.3c-26.7-23.1-54.4-45.4-75.2-74.2c-15.2-21-24.4-44.3-11.8-70.4c5.3-10.8,14.2-18.6,25-23.5
		c22.5-10.2,46.8-13.7,71-16.8c3.6-3.3,7.6-5.7,12.7-5.2c4.3-0.7,8.8,0.5,12.8-1.7C362.9,518.1,362,517,363,515.7z"/>
	<path class="st0" d="M349.4,150.6c29-47.2,67.1-86.2,110.1-120.6c9.6-7.7,19.8-14.7,29.8-21.8c3.8-2.8,6.8-4.3,8.1,2.9
		c3.9,22.8,12.5,43.4,28.5,60.8c8.2,8.9,7.1,20.9,6.9,32.2c-2.5,5.3-7.6,7.7-12.3,10.4c-36.9,21.5-72.8,44.6-106.9,70.4
		c-2.9,2.2-5.9,4.3-10,3.4c-2-0.7-3.5-2.1-4.5-3.9c-2.1-9.2-7.3-14.8-17.1-16.2C369.1,166.3,361,155.2,349.4,150.6z"/>
	<path class="st0" d="M324.3,756.1c-40.6,25.1-82,49.1-122.1,78.8c32.6,15.3,63.4,29.8,94.3,44.2c112,52,224.1,103.8,336,156
		c9,4.2,14.3,3.7,20.8-4.5c41.2-52.4,82.8-104.4,124.2-156.5c2.1-2.6,6.3-5.3,4.1-9.3c-2.2-4.1-5.7-5.9-11.3-4.5
		c-8.4,2.2-11.6-11.8-21.2-8c-1.6-12.6-23.2-6.5-21.1-25.7c4.2,11.4,9.4,15.8,17.8,7c2.5,17.9,3.1,18.2,18.9,9.3
		c2.1,4.7-1.9,18,10.8,9.9c0.3-0.2,1.1-0.3,1.3-0.1c14.9,16.7,18.7-2.1,23.7-8.7c9-12,17-15,31.9-9.1c37.8,14.8,75.3,30,111.1,49.2
		c3.7,2,9,2.5,10,8.4c-6.3,2.3-10.5-2.4-15-4.7c-36.4-19-74-35.2-112.8-48.9c-7.8-2.7-11.9-1.8-17.1,4.8
		c-48,61-96.4,121.6-144.7,182.3c-1.7,2.1-3.6,4.1-5.1,6.4c-7.8,12-16.6,13.4-30,7.1c-75.8-35.9-152-70.8-228-106.2
		C335.5,902.9,270.3,872.4,205,842c-13.5-6.3-13.5-6.4-1.8-14.5c38.4-26.3,77.2-52,118.4-73.7C324.5,752.3,324.8,753.8,324.3,756.1z
		"/>
	<path class="st2" d="M404.7,187c41.7-29.2,83.6-58.1,128.1-82.8c0.1,2,0.1,4,0.2,6c-48.2,29.3-96,59.3-140.5,94.1
		c-6.5,5.1-8.6,9.4-7.8,17.9c1.7,16.3,1.1,32.7-9,47.2c-2.6,3.8-2.8,9.3-4.3,14.4c59,5.5,98.7,37.9,126.9,87c0.9,1.5,2.3,3.8,1.8,5
		c-6.5,14.7,5,24.4,9.8,35.8c6.7,16,9,32.1,4.2,49c-2,0-4,0.1-6,0.1c3-25.6-3.9-48.5-19-69.2c-1.9-1.6-3.8-3.3-5.8-4.9
		c10.5-10.2,4-18.9-2.3-27.8c-16.9-23.8-38.6-42-64-56.2c-7.4-4.2-15.6-4.2-23.7-5.3c-8.7-5.6-17.1-7.1-25.3,1
		c-2.3,2.3-5.4,3.1-8.7,1.5c-7-7-2-10.7,1.4-18.3c6.4-14.1,15-28.4,15.3-45.1c0.4-17.5-5.5-31.7-18.9-42.9c-0.7-1.3-0.7-2.7,0-4
		c1-0.8,2-1.5,3-2.3c3.9-8.1,8.8-12.3,17.9-6.1c3.6,2.5,8.3,3.5,14.4-3.3c-19.8,0.1-30.3-14.9-45.8-20.7c0.9-2.1,1.8-4.3,2.7-6.4
		c7.5-0.1,14.6,1.4,19.6,7.4c4,4.9,8.8,6.5,15,7.2c10.3,1.1,17.9,6.3,17.2,18.4c-5.6,12.1-11.2,14.7-24.2,11.4
		c6.6,4.4,6.6,4.5,11.7,1.9C394.4,194.3,398.8,189.5,404.7,187z"/>
	<path class="st3" d="M290.8,488.4c-1.8-2.2-4.1-3.7-4.3-5.4c-1.1-14-10.6-19.6-22.4-21.9c-12.5-2.5-21.5,3.7-28.9,13.6
		c-4.3,5.8-3.3,16.9-10.6,17.4c-3.5,0.2-7.5-11.2-11.9-16.8c-11.2-14.2-24.2-25.3-43-28.9c-18.5-3.5-37.2,8.9-39.5,28.1
		c-0.4,3.6-0.9,7.3-0.4,10.9c1.3,10.6-0.8,13.4-11.2,7.1c-7.6-4.7-15.4-2.5-21,5.6c-10.6,15.2-15,31.4-9.1,49.6
		c0.7,2,0.1,4.5,0.1,7.8c-20.1-8.9-40.3-9.7-60.7-4.3c-10.5,2.7-17.3,8.5-15,20.2c1.9,9.9,18.4,20.7,27.6,17.3
		c5-1.8,10.6-0.9,15.2-4.7c4.1-3.4,9.3-5.5,15.1-8.7c6.5,15.4,18,25.6,36.2,29c-8.8,4-23.5-0.2-30.3-11.1
		c-6.6-10.7-11.3-7.6-20.5-4.3c-20,7.2-33.9,6.3-45.8-10.6c-5.7-8.1-5.7-15.6,1.3-22.9c16-16.6,37.1-15.1,56.1-11.5
		c13.5,2.6,13.9-1.5,12.9-11c-1.2-11.9,3.4-22.1,8.9-31.9c8.8-15.9,15.8-18.5,34.1-13.3c2.1-8.1,1.2-16.4,5-24.5
		c12.1-26.2,38.5-27.1,58.6-16.3c15.8,8.4,28.4,20.7,37.4,37.7c5-9.2,8.7-18.4,17.7-23.8c9.1-5.5,18.6-5.4,28.2-2.7
		C283.6,461.9,291.2,473.3,290.8,488.4z"/>
	<path class="st0" d="M360.6,299.2c5.1-0.4,6.5-5.6,10.4-7.7c8.9-4.7,16.9-6.2,21.9,5.2c0,0.5-0.1,1-0.1,1.5
		c-18.6,31.1-17.5,63-2.3,95.5c-16.3-4.2-31.3-26-33.1-47.4c-1.1-13.2-0.4-26.4,2.5-39.4C357.8,304.2,357.9,301.6,360.6,299.2z"/>
	<path class="st3" d="M267.6,372.8c-13.1-23.8-26.4-47.4-49.4-63.7c-7.8-5.6-10.5-11.2-2.6-20.3c11.2-13.1,20.4-27.9,30.6-41.9
		c4-5.5,5.1-9.2-1.4-14.5c-12-9.8-20.7-22.8-29.5-35.4c-12-17.2-28.3-29.5-46.6-39c-21.7-11.3-40.4-26.3-57.4-43.7
		C94.7,97,87,98.3,75.6,120c-1.9,3.5-2.7,6.4-7.5,6c0.7-13.9,11.7-20.1,20.1-28c3.7-3.5,8.6-2.9,12.6,0c4.4,3.2,9,6.5,12.6,10.5
		c18,19.8,39.1,35.6,62.8,47.8c19.9,10.3,34.7,26.1,47.5,44.1c6,8.5,12.7,16.7,19.7,24.5c3.8,4.2,6.4,11.5,15.8,4.1
		c4.8-3.8,11.7,5.9,16.8,11c-1.1,0.8-2.2,1.7-2.3,1.6c-10.4-9.6-16-5.9-22.6,5.5c-9,15.7-20.5,29.9-31.1,44.7
		c-2.5,3.6-6.8,6.3-0.7,10.9c23.1,17.3,37.8,41.4,52.7,65.4C272.6,371.5,271,373,267.6,372.8z"/>
	<path class="st3" d="M779.5,644.7c17.2-6.8,21.4-12.5,19-26.3c-1.9-11.2-12.2-18-27.9-17.8c-6.5,0.1-13-1.6-19.2,4.1
		c-4.8,4.5-8.1,1.4-7.5-5.2c0.9-11.9-3.5-23.1-6.9-34c-3.2-10.4-11.5-18.3-23.7-20c-12.7-1.7-22,3.3-28.7,13.8
		c-1.7,2.6-3.1,5.4-4.8,8.3c-29.1-32.6-62.2-25.2-70.3,23.5c-6.7-12,1.3-19.9,5.2-27.9c12.3-25.2,35.4-26.5,54.1-11.7
		c5.8,4.6,9.2,6.7,15.6,0.1c20.7-21.1,51.9-11.8,59.3,17.1c2.4,9.5,4.5,19.1,6.8,28.9c14.5-5.4,28.3-3.7,41.2,3.2
		c11.3,6.1,15.5,17,12,29c-3.3,11.2-10.4,19.5-24.2,16.6C779.5,645.9,779.5,645.3,779.5,644.7z"/>
	<path class="st3" d="M357.2,189.4c0,0.8,0.1,1.6,0.4,2.4c1.3,3.3,0.9,6.7,0.8,10.1c-0.5,16-6.2,31.1-7.7,47c-0.5,2.1-1.1,4.2-4,3.3
		c-15.2-8.2-30.5-16.1-47.2-21c-2.7-0.8-4.2-0.5-5.5,1.8c-0.9,0.9-1.8,0.9-2.7,0c1.6-2.7-4.6-11.4,6.6-6.7c9.2,3.9,18.8,3,24.6-8.6
		c5.3-10.6,15.3-17.6,23.8-25.6c-0.3-5.2,2.4-4.7,5.7-3.1C353.7,189.3,355.5,189.4,357.2,189.4z"/>
	<path class="st0" d="M267.6,372.8c2.7-0.4,3.7-2.5,4.5-4.8c8.6-11.7,14.4-24.5,17.1-38.8c3.4-8.8-1.4-18.5,2.9-27.2
		c11.4-1.8,16.2,2.1,16.4,14.5c0.3,26.9-11.1,47.7-30.1,65.3c-1.2,0.9-2,2.5-3.8,2.1C269.2,382,265.2,379.4,267.6,372.8z"/>
	<path class="st3" d="M239.3,97.7c18.1-19.4,30.9-22.8,45.2-13.1c18.2,12.2,24.1,38.7,12.8,63.1c0-10.2,0-18.6,0-27
		c0-16.5-8.7-31-20.9-35c-12.9-4.2-23.4,1.4-34,17.8c-0.9,1.4-2.3,2.6-3.7,4.1c-5.8-5.3-5.8-12.7-8.8-18.6
		c-11.8-23.5-30.8-26-46.8-5.8c-2,2.5-4.3,7.1-6.9,3.9c-14.6-17.6-28-11.2-42.2,2.9c6.3-18.7,20.8-23.8,36.9-14.5
		c3.8,2.2,6.8,6.8,11,0.5c14.6-21.9,43.1-10.3,51.9,9.9C235.4,89.3,237.1,92.8,239.3,97.7z"/>
	<path class="st1" d="M658.9,845.4c5-4.3,7.8-10.1,12.1-14.5c4.9-5.2,11.1-4.6,16.9-0.1c10.4,8,13.5,23.8,5.8,35.1
		c-9,13.4-16.7,26.7-18.8,43.4c-1.5,12.2-10.8,19.7-24,20.1c-6.8,0.2-13.8,0.9-20.5-0.3c-5.9-1-13.4-2.2-15.4-9.1
		c-2.4-8.2,5.2-10.9,10.6-13.6c12.5-6.1,19.7-15,19.9-29.6c0.1-6.5,3.6-12.7,3-19.6c6.2,27.2,0.6,40-23.4,54.9
		c-2.3,1.4-5.3,2-4.6,5.5c0.5,2.9,2.4,4.8,5.1,5.8c22.3,8.9,40.5,0.4,45.9-22.7c2.7-11.3,6.9-21.2,13.8-30.3
		c5.7-7.5,8-16.2,6.5-25.5c-0.8-5-3.2-9.7-8.7-11.3c-5-1.4-8.8,0.2-10.8,5.6C670,845.6,663.9,844,658.9,845.4z"/>
	<path class="st1" d="M398.6,787c4.8-2.8,1.7-9.8,6.9-12.7c-1,21.7-2.5,42.9-17.6,60.5c-2.6,3-8.4,6.9-3.8,12.6
		c4.4,5.5,9.4,1,13.7-0.3c17.6-5.3,27.8-18.4,32.6-35.2c3.1-10.8,7.9-20.1,14.9-28.5c12.6-15.5,11.3-22.3-6.2-32.7
		c-1.5-0.9-2.9-2-5-3.5c9.9-0.8,18,3.1,22.5,10.7c4.3,7.3,3.8,14.8-1.1,21.7c-4.7,6.7-11.3,12-14.4,19.9c-0.9,3-0.8,6.5-3.5,8.7
		c-5.1,15.5-11.4,29.8-26.4,39.1c-7.7,4.8-16.2,4.7-24.1,7.8c-4.2,1.7-6.8-2.3-8.8-5.1c-2.9-3.9-2.2-7.9,0.6-12.4
		c7-10.9,16.1-20.7,18.5-34.4c0.8-4.6,0.6-8.9,0.9-13.3C396.9,788.9,397,787.9,398.6,787z"/>
	<path class="st3" d="M392.8,298.2c0.3-0.5,0.3-1,0.1-1.5c23.7-4.2,38.8,12.1,55.5,23.8c16.4,11.6,28.3,27.7,39.8,44.1
		c6.9,9.9,6.9,16.8-5,21.8c-22.2,6.9-41.7,18.2-57.2,35.8c3.3,4.8,11.6-3.3,13.5,5.2c-11.8-0.1-23.6-0.2-35.4-0.2
		c-1.6-1.5-1.6-2.9,0-4.4c8.3,0,15.1-2.3,21.4-8.8c15-15.3,34.4-24.4,53.7-33.1c7-3.1,9.1-6.6,4.4-13.3
		C460.7,334.8,433.6,307.5,392.8,298.2z"/>
	<path class="st3" d="M346.6,252.3c0.8-0.7,1.7-1.4,2.5-2.1c0.7-0.7,1.6-1.2,2.4-0.9c15.3,5.1,17.6,3.8,18.6-12.7
		c0.9-14.4-3.1-27-15.3-36c0.9-2.9,1.8-5.8,2.7-8.7c25.3,10.1,28.3,53.6,13.4,72c-6.3,7.8-1.6,22-15.3,24.6
		c1.6,3.6,3.3,7.2,4.9,10.7c-0.2,2.6-0.4,5.2-0.7,7.8c-16.4,12.4-20.2,13.3-43.6,9.8c8.5-3.1,16.7-1.4,24.4-4
		c12.6-4.2,15.8-9.1,10.4-21.2c-1.6-3.6-3.4-6.1,0.9-8.8c11.7-7.1,12.2-13.7,1.6-24.3C351.5,256.3,349,254.3,346.6,252.3z"/>
	<path class="st0" d="M492.5,942.2c3.8,12.4,18.6,4.3,19.3,6.1c4.4,11.7,10.5,12.4,20.4,5.1c0,18.1,10.5,10.8,18.2,8.9
		c3.8,4.4-0.9,9.4,2.2,13.5c5.9,1.7,8.7-6.4,14.5-4.9c4.7,4.4-4.3,11.2,2.3,14.8c6.9,3.7,9.7-4.9,15.1-6.5c3.6,4-6.5,22.3,12.7,10.1
		c-0.8,7.2-1.2,14.5,9.6,12.4c-11.9,9.3-16.4-5.7-25-6.7c-11.3-1.3-17.3-15.3-30.2-13.6c-1.1,0.1-2.9-0.8-3.5-1.7
		c-10.2-16.6-28.8-17.2-44.5-22.4C494.9,954.3,491.8,950.5,492.5,942.2z"/>
	<path class="st3" d="M229.2,266.2c-10.6-16.9-23.5-25.7-37.2-33.8c-16.3-9.6-29.6-22.5-40.9-37.7c-7.3-9.9-14.9-19.6-23-28.8
		c-8.6-9.8-18.5-17.5-33.1-14.8c-5.9,1.1-11.2-1.5-16.6-4.8c24.5-5.2,43.4,2.4,58.1,21.7c6.3,8.3,13.2,16.3,19.2,24.9
		c13.2,18.7,31.4,31.3,50.7,42.9C216.5,241.9,227.4,248.3,229.2,266.2z"/>
	<path class="st1" d="M779.5,644.7c0,0.6,0,1.2,0,1.8c-3.4,2.1-6.8,5.4-10.9,2c-2.9-2.4-4.3-1.1-6.7,0.9
		c-24.4,21.2-43.3,20.5-68.6-2.3c-24.9,26.8-44.4,31.6-65.5,14.5c12.5,1.3,22.8,6,34.8,2.4c11.2-3.4,18.6-8.9,23.8-18.3
		c4-7.2,6-10,12.9-1.7c18.9,23,39.8,21.9,59.2-2c2.3-2.8,3.9-1.9,6.6-0.9C769.7,642.9,774.7,643.6,779.5,644.7z"/>
	<path class="st0" d="M351.2,878c-6.9,6.9-13.2,6.5-19.3,2.4c-8.4-5.6-17-10.4-26.3-14.5c-7.3-3.2-12.3-10.6-20.5-14.4
		c-9.1-4.2-20.2-4.5-27.7-13.5c-2.6-3.1-9.6-3.5-9.3-9.6c0.3-7.2,5.5-10.7,11.8-13.2c2.3,4.9-2.2,5.8-3.7,8
		c-1.3,1.9-2.7,3.7-1.9,6.1c12.3-6.4,12.7,20.5,26.7,9.6c1.8-1.4,4.6-1.8,4.9,1.8c1.4,14,9.3,6.5,16.4,4.4c2,6.9-2.6,21.2,13.9,14.7
		c0.5-0.2,13.1,6.6,14.5,9.6C335.3,878.8,342.8,877.1,351.2,878z"/>
	<path class="st3" d="M274.4,384c1.3-0.7,2.6-1.4,3.8-2.1c17.9,38.8,35.8,77.5,53.7,116.3c9.4,20.5,9.4,20.5,31,17.6
		c0.9,0.8,1.9,1.7,2.8,2.5c-1.8,8.4-9.7,1.3-13.3,5.1c-4.9,0.9-9.8,1.9-14.7,2.8c-19.8-44.1-39.5-88.1-59.3-132.2
		C277.1,390.7,275.8,387.3,274.4,384z"/>
	<path class="st0" d="M578.5,781.9c-12.5,10.9-17.1,10.9-34.4-4c-5.7-4.9-11.3-5.5-17.5-7.7c-19-6.5-37.3-15.3-53.4-27.6
		c-7.6-5.8-6.3-12.1,1-18.2c1.6,5.1-4.8,9.9,0.7,14.3c5,4,7.7-3.5,12.1-2.3c-0.8,14.9,0.9,16,15,10.1c1.2,8.8,3,17.1,15,10.4
		c2-1.2,4.6-1.9,5,1.7c0.7,8,6.7,6.2,11.3,6c6-0.3,9.9-0.9,12.3,7.3c2.2,7.5,8.8,2.3,14.5-2C558.8,786.6,567.3,786.1,578.5,781.9z"
		/>
	<path class="st3" d="M442.4,468.5c-11.4-0.6-20.7-7.3-31.1-10.8c-17.5-5.8-35.4-5.4-53.3-5.4c-10.1,0-19.8-1.7-22.6-13.1
		c-2.4-10.1,10.4-28,23.1-30.8c-7.4,6.6-11.7,13-14.5,20.2c-5.1,13.1-1.8,18.8,12.3,18.1c21.4-1,42.2,0.7,62.2,8.5
		c8.2,3.2,17.4,4,24.2,10.5c0.9,0.7,1.2,1.3,0.9,1.9C443.1,468.2,442.8,468.5,442.4,468.5z"/>
	<path class="st0" d="M340.1,834.4c3.9,4.9,6,10.8,13.8,6c1.7-1.1,4.9-2.7,4.7,1.1c-0.4,9.3,3.7,10.2,10.9,6.7
		c2.7,9.2,12.3,9.9,18.2,15c2.3,1.9,4.7,6.1,6.8,4.3c7.4-6,8.2-3.4,10.7,4.4c2.3,7.1,6.4-4.2,11.4-1.2c1.3,7.2,0.8,17,13.3,16.7
		c-22.2-2.2-40.1-15.5-57.6-25.6C361.5,855.5,341.8,853.2,340.1,834.4z"/>
	<path class="st0" d="M650.6,748.7c3.3-5,8.1-3.5,12.2-2.1c41.5,13.5,81.8,30.1,120.9,49.7c1.5,0.7,2.7,2.1,5.3,4.2
		c-7.2,2.3-11.5-1.5-15.8-3.6c-35.9-17.9-73-32.5-110.8-45.8c-3.9-1.4-7.6-3.1-11.9-2.5C650.5,748.5,650.6,748.7,650.6,748.7z"/>
	<path class="st0" d="M592.6,828.8c-0.7,11.8,3.3,16.6,14.4,10c4.1-2.5,7.5-2.1,7.7,3c0.3,13.5,8.2,10.8,18.6,6.7
		c-8.6,11.1-15.5,11.7-21.7,2c-2.9-4.5-4.9-7-10.4-4.3c-1.7,0.8-5,0.5-6.4-0.7c-14-11.9-33.9-10.8-48.2-22.8
		c-7.5-6.2-8.6-10-1.7-18.4c0.6,7.1-3,13.7,8.5,12.8c5.2-0.4,10,13.2,20.3,7.1C575.1,840.8,584.3,830.1,592.6,828.8z"/>
	<path class="st4" d="M114.7,605.1c16.2-2.3,28.4-10.1,36.6-24c2.6-4.4,3.8-8,9.4-1.7c24.2,27.4,36,29.4,69.8,13.2
		c0.6-0.3,1.7,0.2,2.6,0.4c-17.1,21.4-51.7,17.8-77-9.2c-4.6,7.9-11,14-18.6,18.3C130.6,606,123.1,610.2,114.7,605.1z"/>
	<path class="st0" d="M685,983.5c-6,6.6-12.9,6.6-16.9-0.1c-6.9-11.4-18.8-11.4-28.5-16.5c-10-5.3-23.7-4.8-30.2-16.2
		c-2.2-3.9-5.5-3.8-9-4.8c-7.6-2.2-11.4-6.9-6.8-18.1c2.4,12.4,6.8,19.2,17.7,10.8c2.4,9.7,3.2,20.7,17.1,12.4
		c4.9,9.3,13.5,11,22.9,11.3c0.1,0,0.1,1.2,0.3,1.2c11,2.8,19.4,8,23.4,19.6C676.2,986.3,681.2,979.8,685,983.5z"/>
	<path class="st3" d="M442.4,468.5c0-0.9,0.1-1.9,0.1-2.8c13.7,3.5,27.7,3.4,41.6,3.1c13.5-0.3,20.3-7.7,21.3-20.9
		c1.5-19.7-6.2-36.1-16.6-51.7c-1.3-1.9-3.5-3.3,0.1-4.8c18.2,16.3,26.7,47.4,19,69.2c-2.6,3-5.1,6-7.7,9.1
		c-9.1,8.4-19.9,6.6-30.6,5.2C460.3,473.9,450.8,473.6,442.4,468.5z"/>
	<path class="st3" d="M346.7,157c3.6,0.1,8.3-1.3,10.6,0.4c10.2,8.1,19.7,16.7,34.1,16.6c2.6,0,4.9,4.2,3.8,7.8
		c-0.8,2.6-2.4,5-5.8,4.8c-4-0.3-10.3,0.9-11.7-1.2c-7.5-11-12.1-2.4-17.5,1.7c4-10.6-2.9-12.3-10.8-15
		C340.9,169.4,337.7,163.8,346.7,157z"/>
	<path class="st0" d="M437.5,808.3c1.2-2.9,2.4-5.9,3.5-8.8c2.6,7.4,1.3,19.1,15.6,13.1c2.4-1,1.8,3.3,2.7,5.1
		c1.6,3.5,4.9,7.8,7.9,6c8-4.8,8.6-0.7,8.9,5.5c0,0.7,1.2,2.2,1.5,2.1c11.5-3.9,19.6,17.2,34.1,0.5c-2.5,12.2-10.1,15.3-14.5,12.3
		c-8-5.3-18.6-2.9-25.7-12.1c-4-5.2-13.2-9.3-20.4-11.9C444,817.8,440.7,813.8,437.5,808.3z"/>
	<path class="st0" d="M422.1,705.5c0.3-0.4,0.5-0.8,0.8-1.1c20.4-20.1,43.3-25.6,70.3-13.3c11.7,5.3,24.8,7.6,36.9,13.9
		c-3.6,4.2-6.5,2.4-9.3,1.5c-16.4-5.3-33-10.2-49.1-16.3c-8.5-3.3-15.6-2.7-23,2.1c-8.3,5.3-16.9,10.1-25.4,15.1
		C422.9,706.7,422.5,706.1,422.1,705.5z"/>
	<path class="st0" d="M509.4,887c3.1,4.4,3.7,12.7,12.2,7.6c1.8-1.1,3.7-0.9,3.8,1.6c0.3,11,7.1,10,14.1,7.5
		c4.7-1.7,3.2,2.9,4.6,3.7c8.7,4.5,18.1,7.5,24.5,15.9c0.6,0.8,6.2-2.2,10.2-3.8c-7.7,11.7-14.8,12.6-21.1,2.8
		c-5-7.8-15.2-9.3-20.9-10.6c-10.6-2.3-15.3-12-25.2-13.9C507.7,896.9,506.8,891.6,509.4,887z"/>
	<path class="st1" d="M644.4,872.3c-7.7-1.1-11.9-5.4-16.8-2.2c1.8,2.7,8,3.4,6.3,7.3c-2.8,6-9.9,0.6-14.4,3.6
		c4.6,5,11.5,3.5,19.4,5.8c-11.4,2.9-21.2,3.3-24.8-5.9c-2.4-6.1,6.2-12.6,10.5-16.4C629.5,860.1,638,863.1,644.4,872.3z"/>
	<path class="st3" d="M352,189.3c-2.1,0.7-4.6,0.6-5.7,3.1c-24.7-3.8-39.7,12.4-56.7,29.9C299.9,195.6,329.8,181,352,189.3z"/>
	<path class="st1" d="M464.2,581.1c14.5-6.2,28.9-12.5,43.4-18.7c0.5,1.2,1,2.4,1.5,3.6c-13,8.1-27.1,13.8-42.2,17.5
		C466,582.7,465.1,581.9,464.2,581.1z"/>
	<g>
		<path d="M304.7,284.4c-3.5,0-7.6-3-14.5-9l-0.7-0.6l0-0.9c0-0.8,0-1.5,0-2.3l0.1-2.1l2.1,0.2c6.8,0.5,13.4-0.8,20.1-4.1l4.1-2
			l-1.1,4.5c-2.5,10-4.4,15-8.3,16.3C306,284.3,305.4,284.4,304.7,284.4z M295,273.9c4.2,3.5,8.4,6.7,10.2,6.1
			c1.7-0.5,3.2-4.9,4.4-9C304.8,272.9,300,273.8,295,273.9z"/>
	</g>
	<path class="st3" d="M404.1,422.8c0,1.5,0,2.9,0,4.4c-9.6,0-14.8-7.2-20.8-13.1c-5-4.9-8.3-12.2-17.4-11.5
		c7.7-5.4,12.2-0.2,16.7,4.3C388.9,413.4,394.7,420.6,404.1,422.8z"/>
	<path class="st3" d="M297.5,293.2c14.9,1.7,28.2-6.6,44.4-8.2c-15.3,12-31.1,12.3-47.2,10.7C294.2,293.4,294.5,291.8,297.5,293.2z"
		/>
	<path class="st3" d="M439.5,427.4c-3.8-5.3-10,0-14.2-3.3c-0.2-0.2-0.3-0.7-0.2-1c0.2-0.4,0.6-0.6,0.9-0.9
		c13.9,1.4,28.1-3,41.8,2.3c-2,3.7-6.4,0.5-8.8,3C452.5,427.5,446,427.4,439.5,427.4z"/>
	<path class="st3" d="M291.3,233.1c0.9-0.2,1.8-0.3,2.7,0c0.2,2.5,0.1,5.9-1.7,9.4c-0.8,1.6-0.9,1.1-2,3c-2.4,4.4-3.3,9.3-3.8,12
		c-0.1,0.8-0.4,1.6-0.6,2.4c-0.3,1.5-0.3,2-0.8,2.4c-0.6,0.5-1.3,0.4-1.8,0.4c-0.3,0-1.4-0.1-2-0.7c-0.4-0.5-0.6-1.2-0.2-2.7
		C281.8,256.8,285.7,246.7,291.3,233.1z"/>
	<path class="st3" d="M299,264.8c-3.3-2.1-6.5-4.1-9.8-6.2c0-1.1,0.3-8.1,5.8-12.1c1.8-1.3,3.6-1.9,5-2.2c1.7,0.9,4.8-5.8,4.9,0.5
		c0,2.8-3.5,6.1-6.1,8.3c-4.3,3.7-7.4,5.5,1.2,8c0.5,0.1,1.1,0.3,1.2,0.7C301.5,262.7,300.2,263.9,299,264.8z"/>
	<path class="st3" d="M459,427.5c2.1-3.5,5.9-1.9,8.8-3c7-0.1,12.9,2.4,17.4,9C476.5,431.5,467.7,429.5,459,427.5z"/>
	<path class="st0" d="M349.7,180.9c-5.9,0-11.6,0-17.5,0C335.4,168.5,335.4,168.5,349.7,180.9z"/>
	<path class="st2" d="M300,244.4c-3.8,4.5-7.5,8.9-11.3,13.4c0,0-0.8,0.2-0.8,0.2l-0.9,0c2.1-5.7,0.6-13,7.4-16.5
		C296.7,241.4,298.9,241.8,300,244.4z"/>
	<path class="st0" d="M324.3,756.1c-0.9-0.8-1.8-1.6-2.6-2.4c7.5-4.7,15.1-9.3,22.6-14C340.1,748.9,331.7,751.9,324.3,756.1z"/>
	<path class="st2" d="M469.7,474.8c10.5-0.1,21,0,30.6-5.2c0.4,0.6,0.3,1.1-0.3,1.4c-3.2,5.2-8.7,6.6-14,8.3
		C481.5,474.5,474.2,479.7,469.7,474.8z"/>
	<path class="st0" d="M637,491.2c11.8-0.3,23.7-0.6,35.5-0.9C660.8,496.1,648.9,494.5,637,491.2z"/>
	<path class="st0" d="M653.1,241.5c-4-12-4-23.9,0.1-35.8C653.2,217.6,653.2,229.6,653.1,241.5z"/>
	<path class="st3" d="M393.7,395.8c6.2,4.2,12.8,8.3,17.5,18.6C401,409.1,397.4,402.4,393.7,395.8z"/>
	<path class="st0" d="M292,302.1c-2.4,8.9,2.9,18.6-2.9,27.2C290.9,320.2,285,310.5,292,302.1z"/>
	<path class="st5" d="M637.8,193c-64.7,18.1-127.1,42.2-188.2,70C508.8,230,571.1,205.5,637.8,193z"/>
	<path class="st2" d="M685.4,433.6c-51.3-14.7-105.5-16.2-156.7-32.1C581.1,411.6,635.4,412,685.4,433.6z"/>
	<path class="st2" d="M658.8,332.2c-8.1-0.2-16.2-0.5-24.2-0.7c-13.7-3-27.8,0.8-41.5-2.1c-13.6,0-27.2,0.1-40.9,0.1
		c-12.8,2.6-26-0.9-38.8,1.9c-3.4-0.3-7.2,1.4-10.8-2.8c8-4.4,16.5-1.2,24.4-2.5c33.2-1.8,66.3-1.7,99.5,0c17.2-1.4,34,3.7,51.1,3.4
		C672.3,337.2,665.2,332,658.8,332.2z"/>
	<path class="st0" d="M626.5,326c-33.2,0-66.3,0-99.5,0c2.2-3.1,5.6-2.6,8.7-2.5C565.9,324.8,596.3,320.8,626.5,326z"/>
	<path class="st0" d="M593,329.4c13.9-0.1,27.8-2.1,41.5,2.1C620.7,331.3,606.7,334,593,329.4z"/>
	<path class="st0" d="M513.4,331.4c12.8-3.9,25.8-2.2,38.8-1.9C539.4,333.8,526.3,331.5,513.4,331.4z"/>
	<path class="st0" d="M658.8,332.2c6.1-2.1,13.1,2.3,18.8-2.7c2.8-0.6,6-0.5,6.6,2.6c0.6,3.1-2.7,2.8-4.7,2.6
		C672.5,333.9,665.3,336.2,658.8,332.2z"/>
	<path class="st1" d="M352.5,523.4c3.3-4.7,9.9-0.8,13.3-5.1c2.6,0.9,7.1-2.6,7.6,2.4c0.4,3.9-3.8,2.9-6.1,2.9
		C362.4,523.8,357.4,523.5,352.5,523.4z"/>
	<path class="st2" d="M407.5,163.1c33-35.4,70.4-64.6,115.5-82.7C482.5,105.2,442.8,131.1,407.5,163.1z"/>
	<path class="st0" d="M404.7,187c-3.1,2.7-6,5.5-9.2,7.9c-15.9,12-15.9,12-28-8c13.8,9,25.3,11.3,33.8-3.2
		C402.4,184.8,403.5,185.9,404.7,187z"/>
	<path class="st6" d="M354.8,200.6c11.2-1.4,13.1,8.3,15.8,15c2.6,6.2,5.1,13.4,3.5,20.7c-1.8,8.1-0.7,19-7.3,23.2
		c-6.1,3.9-10.8-7.4-17.6-9.3c-3.3-3.8-2.8-7.4-1.2-12.2C352.2,225.9,354.3,213.3,354.8,200.6z"/>
	<path class="st2" d="M366.9,173.4c-8.9-2.4-15-4-21-9.4C355.5,159.7,361.4,162.1,366.9,173.4z"/>
	<path class="st2" d="M375.2,176.3c5.5-0.4,10.8-2.9,14.4,3c1,1.7-0.3,3.5-2.2,4C381.7,184.6,378.1,182,375.2,176.3z"/>
</g>
<circle class="st3" cx="298.2" cy="241.5" r="2.5"/>
<circle class="st3" cx="315.7" cy="248.7" r="2.4"/>
<g>
	<path class="st3" d="M295.2,295.9c-1.9-0.5-4.4-1.4-6.8-3.2c-1.6-1.1-5.3-4.3-7.2-9.7c-0.6-1.6-0.9-3.4-0.7-12.1
		c0.1-4.1,0.3-8.1,0.7-12.1l4.2,0.4c-0.4,3.9-0.6,7.9-0.7,11.8c-0.1,5.7-0.2,8.5,0.5,10.7c0.6,2.1,2.9,7.5,12.2,11.6
		C296.7,294.1,295.9,295,295.2,295.9z"/>
</g>
<path class="st1" d="M398.9,786.6c-7.7-1.1-11.9-5.4-16.8-2.2c1.8,2.7,8,3.4,6.3,7.3c-2.8,6-9.9,0.6-14.4,3.6
	c4.6,5,11.5,3.5,19.4,5.8c-11.4,2.9-21.2,3.3-24.8-5.9c-2.4-6.1,6.2-12.6,10.5-16.4C384,774.3,392.4,777.4,398.9,786.6z"/>
</svg>
