<svg width="124" height="22" viewBox="0 0 124 22" fill="none" xmlns="http://www.w3.org/2000/svg">
<g clip-path="url(#clip0_289_96)">
<mask id="mask0_289_96" style="mask-type:luminance" maskUnits="userSpaceOnUse" x="0" y="0" width="124" height="22">
<path d="M123.525 0.423096H0.020813V21.0071H123.525V0.423096Z" fill="white"/>
</mask>
<g mask="url(#mask0_289_96)">
<path d="M48.5258 2.51918C48.5258 2.03221 48.7226 1.56518 49.0731 1.22083C49.4235 0.876494 49.8987 0.683044 50.3943 0.683044C50.8899 0.683044 51.3651 0.876494 51.7154 1.22083C52.0659 1.56518 52.2627 2.03221 52.2627 2.51918C52.2447 2.99429 52.0399 3.44403 51.6915 3.77389C51.343 4.10376 50.8781 4.28806 50.3943 4.28806C49.9105 4.28806 49.4455 4.10376 49.0971 3.77389C48.7487 3.44403 48.5439 2.99429 48.5258 2.51918Z" fill="#858E9D"/>
<path d="M78.0066 14.7639C78.0066 13.7448 78.8419 12.9213 79.8711 12.9213C80.368 12.9213 80.8446 13.1153 81.196 13.4606C81.5474 13.8059 81.7447 14.2742 81.7447 14.7626C81.7447 15.2509 81.5474 15.7192 81.196 16.0646C80.8446 16.4099 80.368 16.6039 79.8711 16.6039C78.8432 16.6039 78.0066 15.7791 78.0066 14.7626" fill="#858E9D"/>
<path d="M17.861 13.9681C16.2528 13.9681 15.1338 12.7124 15.1338 10.9173C15.1338 9.12331 16.2528 7.86896 17.8623 7.86896C19.4796 7.86896 20.6103 9.12331 20.6103 10.9173C20.6103 12.7406 19.5043 13.9681 17.861 13.9681ZM17.861 5.18764C14.4572 5.18764 11.9863 7.59789 11.9863 10.9173C11.9863 14.2379 14.4585 16.6469 17.861 16.6469C21.2791 16.6469 23.7591 14.2379 23.7591 10.9185C23.7591 7.59789 21.2791 5.18764 17.8623 5.18764H17.861ZM44.9067 11.2049C44.7882 10.9798 44.6385 10.772 44.4616 10.5873L44.3575 10.4813L44.4669 10.3789C44.6231 10.2165 44.7831 10.0248 44.9366 9.80225L47.9422 5.41396H44.2939L42.0363 8.84712C41.9088 9.03122 41.6512 9.12331 41.2648 9.12331H40.7508V2.63291C40.7508 1.33508 39.9272 1.15863 39.0385 1.15863H37.5161L37.52 16.4781H40.752V11.8826H41.0553C41.4235 11.8826 41.6733 11.9249 41.7891 12.1218L43.5716 15.4283C44.0699 16.3259 44.5657 16.4781 45.4999 16.4781H47.976L46.131 13.481L44.908 11.2049H44.9067ZM60.5959 5.16207C58.9512 5.16207 57.9025 5.88066 57.3144 6.48802L57.1193 6.68237L57.049 6.4177C56.8772 5.76687 56.2943 5.41013 55.4187 5.41013H53.9704L53.9795 16.4742H57.1894V11.375C57.1894 10.8763 57.2545 10.4442 57.3898 10.049C57.7463 8.85351 58.7431 8.11062 59.9882 8.11062C60.9901 8.11062 61.3818 8.63103 61.3818 9.97357V14.7928C61.3818 15.9384 61.9217 16.4742 63.0889 16.4742H64.6164L64.6112 9.43657C64.6112 6.64146 63.2229 5.16334 60.5959 5.16334V5.16207ZM50.4326 5.41396H48.9116L48.9219 13.9694V16.4781H50.5445L50.6017 16.4806L51.359 16.4781H52.1111V16.4742H52.1163L52.1228 7.09538C52.1228 5.96378 51.5724 5.41524 50.434 5.41524L50.4326 5.41396ZM30.4678 13.9681C28.8595 13.9681 27.7393 12.7124 27.7393 10.9173C27.7393 9.12331 28.8596 7.86896 30.4691 7.86896C32.0825 7.86896 33.2172 9.12331 33.2172 10.9173C33.2172 12.7406 32.1111 13.9681 30.4691 13.9681H30.4678ZM30.4678 5.18764C27.0613 5.18764 24.5892 7.59789 24.5892 10.9173C24.5892 14.2379 27.0614 16.6469 30.4691 16.6469C33.8821 16.6469 36.3672 14.2379 36.3672 10.9185C36.3672 7.59789 33.8821 5.18764 30.4691 5.18764" fill="#858E9D"/>
<path d="M99.2644 13.9684C97.6564 13.9684 96.5346 12.7128 96.5346 10.9175C96.5346 9.12363 97.6564 7.86924 99.2644 7.86924C100.88 7.86924 102.014 9.12363 102.014 10.9175C102.014 12.7409 100.908 13.9684 99.2644 13.9684ZM99.2644 5.18793C95.8582 5.18793 93.387 7.59816 93.387 10.9175C93.387 14.2382 95.8582 16.6471 99.2644 16.6471C102.679 16.6471 105.162 14.2382 105.162 10.9188C105.162 7.59816 102.677 5.18793 99.2644 5.18793Z" fill="#858E9D"/>
<path d="M71.378 13.4803C69.6227 13.4803 68.9982 11.9766 68.9982 10.5662C68.9982 9.94485 69.1582 7.92075 71.2101 7.92075C72.229 7.92075 73.586 8.20717 73.586 10.6698C73.586 12.9932 72.385 13.4803 71.378 13.4803ZM75.2527 5.38392C74.6438 5.38392 74.1754 5.62303 73.9399 6.05904L73.8515 6.22783L73.7032 6.09997C73.1853 5.66011 72.2562 5.13715 70.7483 5.13715C67.7465 5.13715 65.7258 7.35303 65.7258 10.6481C65.7258 13.9419 67.8167 16.2434 70.8081 16.2434C71.8295 16.2434 72.6375 16.0082 73.2776 15.5325L73.5248 15.3497V15.6566C73.5248 17.1347 72.5529 17.9504 70.7899 17.9504C69.9324 17.9504 69.153 17.7458 68.63 17.5592C67.9508 17.3571 67.55 17.5246 67.2755 18.196L67.0205 18.8148L66.66 19.7201L66.8825 19.8365C68.0119 20.4246 69.481 20.7762 70.8081 20.7762C73.5405 20.7762 76.7335 19.4017 76.7335 15.5325L76.7452 5.38392H75.2527Z" fill="#858E9D"/>
<path d="M6.10779 13.8411L3.49508 13.8386V10.7699C3.49508 10.1126 3.75401 9.77246 4.32521 9.69322H6.10779C7.379 9.69322 8.20131 10.4809 8.20261 11.7557C8.20131 13.065 7.39982 13.8399 6.10779 13.8399V13.8411ZM3.49508 5.56064V4.75254C3.49508 4.04546 3.79957 3.70917 4.46705 3.66569H5.80465C6.95097 3.66569 7.63796 4.33954 7.63796 5.46859C7.63796 6.32783 7.16693 7.33157 5.84627 7.33157H3.49508V5.56064ZM9.44398 8.62428L8.97161 8.36343L9.38404 8.01692C9.8642 7.61159 10.667 6.69992 10.667 5.12719C10.667 2.71822 8.76735 1.16339 5.82546 1.16339H2.08593C1.66515 1.17846 1.26643 1.35206 0.972359 1.64818C0.678285 1.94431 0.511415 2.34028 0.506348 2.75402V16.4227H5.89177C9.16153 16.4227 11.272 14.6735 11.272 11.9641C11.272 10.5051 10.5902 9.25848 9.44398 8.62428Z" fill="#858E9D"/>
<path d="M119.702 5.19867C119.038 5.20107 118.385 5.34973 117.788 5.63367C117.192 5.91762 116.668 6.32959 116.256 6.83917L116.024 7.12814L115.842 6.80465C115.246 5.73954 114.224 5.19867 112.802 5.19867C111.309 5.19867 110.308 6.017 109.843 6.50289L109.54 6.82638L109.422 6.4006C109.253 5.78684 108.698 5.45056 107.857 5.45056H106.508L106.495 16.4725H109.559V11.6072C109.559 11.1802 109.613 10.7595 109.721 10.3183C110.014 9.14205 110.818 7.87743 112.17 8.00401C113.003 8.08329 113.412 8.71622 113.412 9.93857V16.4725H116.498V11.6072C116.498 11.074 116.549 10.6751 116.671 10.2762C116.918 9.15356 117.759 8.00274 119.062 8.00274C120.007 8.00274 120.356 8.52699 120.356 9.93857V14.8614C120.356 15.9738 120.861 16.4725 121.994 16.4725H123.435L123.438 9.4361C123.438 6.62436 122.179 5.19867 119.702 5.19867ZM91.8128 12.6455C91.803 12.657 90.4855 14.0226 88.7483 14.0226C87.1661 14.0226 85.5683 13.0687 85.5683 10.9398C85.5683 9.10105 86.807 7.81606 88.5819 7.81606C89.1565 7.81606 89.8126 8.01808 89.9153 8.35948L89.9295 8.41702C89.995 8.65206 90.1376 8.85925 90.3359 9.00649C90.5333 9.15383 90.7751 9.23289 91.023 9.23148L92.7008 9.23404V7.79176C92.7008 5.88914 90.2385 5.19867 88.5819 5.19867C85.0374 5.19867 82.4663 7.62298 82.4663 10.9628C82.4663 14.3 85.0088 16.7218 88.5167 16.7218C91.5587 16.7218 93.2135 14.7566 93.2294 14.7374L93.318 14.63L91.9881 12.4626L91.8128 12.6455Z" fill="#858E9D"/>
</g>
</g>
<defs>
<clipPath id="clip0_289_96">
<rect width="123.958" height="21.25" fill="white" transform="translate(0.020813)"/>
</clipPath>
</defs>
</svg>
