<svg width="115" height="14" viewBox="0 0 115 14" fill="none" xmlns="http://www.w3.org/2000/svg">
<g clip-path="url(#clip0_289_151)">
<mask id="mask0_289_151" style="mask-type:luminance" maskUnits="userSpaceOnUse" x="0" y="0" width="115" height="14">
<path d="M0.5 0.0976562H114.5V13.9027H0.5V0.0976562Z" fill="white"/>
</mask>
<g mask="url(#mask0_289_151)">
<path d="M74.332 13.3697H71.214V0.648658L81.24 0.655658C81.24 0.655658 83.076 0.587658 84.244 1.74166C84.244 1.74166 85.436 2.73666 85.436 5.16966V13.3687H82.326V4.95766C82.326 4.95766 82.365 4.09966 82.072 3.79766C82.072 3.79766 81.814 3.47166 81.322 3.47166H74.324L74.331 13.3657V13.3707L74.332 13.3697ZM87.602 13.3687V0.656658H100.113V3.48466H90.701V5.64466H97.24V8.37566H90.7V10.5447H100.172V13.3727H87.595L87.602 13.3687ZM65.782 13.3687V0.656658H68.886V13.3727H65.782V13.3687ZM104.582 13.3687V3.47966H101.651V0.653658H113.307V3.48066H107.688V13.3687H104.582ZM55.529 13.3687V3.47966H52.599V0.653658H64.254V3.48066H58.635V13.3687H55.529ZM46.168 5.63666C46.926 5.63066 47.38 5.63666 47.563 5.52666C47.563 5.52666 47.882 5.34966 47.885 4.97166L47.886 4.13966C47.886 3.75966 47.563 3.58566 47.563 3.58566C47.321 3.45366 46.911 3.47866 45.938 3.47766H39.89V5.63666H46.307H46.168ZM47.84 13.3687V9.02866C47.84 8.63866 47.514 8.47566 47.514 8.47566C47.367 8.38366 46.927 8.36766 46.279 8.36766H46.429H39.889V13.3677H36.785V0.655658H46.475C48.149 0.661658 49.305 0.907658 50.1 1.68066C50.882 2.47666 50.986 3.51866 50.99 4.60366V5.50866C51 6.43066 50.516 7.27066 49.938 7.76066L50.055 7.81766C50.29 7.93166 50.419 8.09366 50.419 8.09366C50.859 8.65466 50.853 9.13766 50.852 9.73066V13.3707H47.841L47.84 13.3687ZM0.896043 0.652658V13.3647H4.00004V8.36866H13.405V5.63766H4.00004V3.47766H14.932V0.649658H0.894043L0.896043 0.652658ZM112.259 11.1197V11.7037H112.802C112.949 11.7037 113.092 11.6637 113.114 11.4447C113.145 11.1547 112.935 11.1197 112.802 11.1197H112.259ZM112.04 10.9277H112.797C113.06 10.9277 113.314 10.9777 113.336 11.3597C113.345 11.5797 113.279 11.6587 113.113 11.7837C113.288 11.8957 113.292 11.9217 113.319 12.2157C113.336 12.4387 113.305 12.4747 113.399 12.6217H113.141L113.105 12.4077C113.069 12.2067 113.167 11.8957 112.816 11.8957H112.258V12.6217H112.04V10.9277ZM112.61 10.4607C111.862 10.4607 111.252 11.0707 111.257 11.8237C111.258 12.0927 111.338 12.3555 111.489 12.5788C111.639 12.802 111.852 12.9757 112.101 13.0778C112.35 13.18 112.623 13.206 112.887 13.1526C113.151 13.0992 113.393 12.9687 113.582 12.7778C113.772 12.5868 113.9 12.3439 113.952 12.0798C114.003 11.8157 113.975 11.5423 113.871 11.2941C113.767 11.046 113.592 10.8342 113.368 10.6857C113.143 10.5371 112.88 10.4585 112.611 10.4597L112.61 10.4607ZM112.615 13.3557C111.765 13.3557 111.078 12.6697 111.078 11.8197C111.078 11.6177 111.117 11.4176 111.194 11.2309C111.271 11.0441 111.384 10.8745 111.527 10.7316C111.67 10.5887 111.84 10.4754 112.026 10.3982C112.213 10.321 112.413 10.2814 112.615 10.2817C113.462 10.2817 114.153 10.9717 114.153 11.8197C114.153 12.6697 113.462 13.3527 112.615 13.3557ZM32.517 13.4947C33.525 13.1527 34.31 11.9907 34.499 10.5307V10.1087H29.329V13.4947H32.517ZM34.5 3.89966V3.51766C34.3 1.99466 33.458 0.793658 32.383 0.511658H29.33V3.89966H34.5ZM16.303 10.1097V10.5277C16.491 11.9887 17.275 13.1527 18.287 13.4947H21.458V10.1097H16.303ZM18.42 0.512658C17.347 0.795658 16.501 1.99666 16.304 3.52266V3.90166H21.459V0.514658H18.42V0.512658ZM34.504 5.31166H29.334V8.69966H34.504V5.31266V5.31166ZM22.87 13.4967H27.928V10.1107H22.87V13.4967ZM27.927 0.511658H22.87V3.89866H27.928L27.927 0.511658ZM16.307 8.69566H21.463V5.30766H16.308V8.69566H16.307Z" fill="#858E9D"/>
</g>
</g>
<defs>
<clipPath id="clip0_289_151">
<rect width="115" height="14" fill="white"/>
</clipPath>
</defs>
</svg>
