<svg width="63" height="25" viewBox="0 0 63 25" fill="none" xmlns="http://www.w3.org/2000/svg">
<g clip-path="url(#clip0_289_109)">
<path d="M0 23.2588H12.2493V24.9934H0V23.2588Z" fill="#858E9D"/>
<path d="M0 19.9316H12.2493V21.6723H0V19.9316Z" fill="#858E9D"/>
<path d="M3.49451 16.6111H8.74865V18.3519H3.49451V16.6111Z" fill="#858E9D"/>
<path d="M3.49451 13.2901H8.74865V15.0309H3.49451V13.2901Z" fill="#858E9D"/>
<path d="M3.49438 9.96875H8.74852V11.7095H3.49438V9.96875Z" fill="#858E9D"/>
<path d="M3.49438 6.6416H8.74852V8.38235H3.49438V6.6416Z" fill="#858E9D"/>
<path d="M12.2493 3.32129H0V5.06204H12.2493V3.32129Z" fill="#858E9D"/>
<path d="M12.2493 0H0V1.74075H12.2493V0Z" fill="#858E9D"/>
<path d="M13.9966 21.6723H32.8354C33.1537 21.1353 33.3908 20.5488 33.5344 19.9316H13.9966V21.6723Z" fill="#858E9D"/>
<path d="M31.369 13.2901H17.4972V15.0309H32.8354C32.436 14.3642 31.943 13.7778 31.369 13.2901Z" fill="#858E9D"/>
<path d="M17.4973 9.96875V11.7095H31.3691C31.9556 11.2218 32.4486 10.6354 32.8355 9.96875H17.4973Z" fill="#858E9D"/>
<path d="M32.8355 3.32129H13.9966V5.06204H33.5344C33.3721 4.44475 33.135 3.85838 32.8355 3.32129Z" fill="#858E9D"/>
<path d="M27.0446 0H13.9965V1.74075H31.5437C30.3705 0.666647 28.7793 0 27.0446 0Z" fill="#858E9D"/>
<path d="M22.7452 6.6416H17.4973V8.38235H22.7452V6.6416Z" fill="#858E9D"/>
<path d="M27.9993 8.38235H33.4906C33.6465 7.82682 33.7277 7.24038 33.7277 6.6416H27.9993V8.38235Z" fill="#858E9D"/>
<path d="M17.4972 16.6111H22.7451V18.3519H17.4972V16.6111Z" fill="#858E9D"/>
<path d="M27.9993 16.6111V18.3519H33.7277C33.7277 17.7531 33.6465 17.1667 33.4906 16.6111H27.9993Z" fill="#858E9D"/>
<path d="M13.9966 24.9811L27.0447 24.9996C28.7919 24.9996 30.3706 24.3329 31.55 23.2588H13.9966V24.9811Z" fill="#858E9D"/>
<path d="M35.0007 23.2588H43.7493V24.9934H35.0007V23.2588Z" fill="#858E9D"/>
<path d="M35.0007 19.9316H43.7493V21.6723H35.0007V19.9316Z" fill="#858E9D"/>
<path d="M38.4951 16.6111H43.7493V18.3519H38.4951V16.6111Z" fill="#858E9D"/>
<path d="M38.4951 13.2901H43.7493V15.0309H38.4951V13.2901Z" fill="#858E9D"/>
<path d="M46.183 3.32129H35.0007V5.06204H46.7882L46.183 3.32129Z" fill="#858E9D"/>
<path d="M45.0223 0H35.0007V1.74075H45.6276L45.0223 0Z" fill="#858E9D"/>
<path d="M54.2451 23.2588H63V24.9934H54.2451V23.2588Z" fill="#858E9D"/>
<path d="M54.2451 19.9316H63V21.6723H54.2451V19.9316Z" fill="#858E9D"/>
<path d="M54.2451 16.6111H59.4993V18.3519H54.2451V16.6111Z" fill="#858E9D"/>
<path d="M54.2451 13.2901H59.4993V15.0309H54.2451V13.2901Z" fill="#858E9D"/>
<path d="M54.2451 11.7095H59.4993V9.96875H54.2451H49.4902L48.9972 11.3762L48.5043 9.96875H43.7493H38.4951V11.7095H43.7493V10.1107L44.3047 11.7095H53.6898L54.2451 10.1107V11.7095Z" fill="#858E9D"/>
<path d="M59.4994 6.6416H50.651L50.0457 8.38235H59.4994V6.6416Z" fill="#858E9D"/>
<path d="M52.9783 0L52.373 1.74075H62.9999V0H52.9783Z" fill="#858E9D"/>
<path d="M48.9971 24.9811L49.6024 23.2588H48.3918L48.9971 24.9811Z" fill="#858E9D"/>
<path d="M47.8366 21.6723H50.1579L50.7818 19.9316H47.2188L47.8366 21.6723Z" fill="#858E9D"/>
<path d="M46.6572 18.3519H51.3372L51.955 16.6111H46.0394L46.6572 18.3519Z" fill="#858E9D"/>
<path d="M45.484 15.0309H52.5166L53.1157 13.2901H44.8787L45.484 15.0309Z" fill="#858E9D"/>
<path d="M38.4951 8.38235H47.9488L47.3436 6.6416H38.4951V8.38235Z" fill="#858E9D"/>
<path d="M51.2124 5.06204H63V3.32129H51.8115L51.2124 5.06204Z" fill="#858E9D"/>
</g>
<defs>
<clipPath id="clip0_289_109">
<rect width="63" height="25" fill="white"/>
</clipPath>
</defs>
</svg>
