<svg width="75" height="24" viewBox="0 0 75 24" fill="none" xmlns="http://www.w3.org/2000/svg">
<g clip-path="url(#clip0_289_148)">
<path d="M0.515625 16.4901V0.936931H3.24754V16.4901H0.515625ZM10.242 5.20739C6.73886 5.20739 4.31466 7.89986 4.31466 10.9829C4.31466 14.4249 6.95189 16.7948 10.2687 16.7948C13.4168 16.7948 16.1487 14.4673 16.1487 10.976C16.1487 8.0399 13.8852 5.20641 10.241 5.20641L10.242 5.20739ZM10.2095 7.84265C12.0429 7.84265 13.3921 9.26976 13.3921 10.9927C13.3955 11.8273 13.0674 12.6291 12.4798 13.2219C11.8923 13.8146 11.0934 14.1498 10.2588 14.1537C8.31489 14.1537 7.09095 12.6122 7.09095 10.9977C7.09095 9.22833 8.4717 7.84265 10.2095 7.84265ZM23.014 5.20739C19.5108 5.20739 17.0866 7.89986 17.0866 10.9829C17.0866 14.4249 19.7238 16.7948 23.0416 16.7948C26.1897 16.7948 28.9216 14.4673 28.9216 10.976C28.9216 8.91964 28.031 8.00736 28.031 8.00736L28.7885 7.74797V5.5299H24.9076C24.9076 5.5299 24.0663 5.20739 23.014 5.20739ZM22.9814 7.84265C24.8158 7.84265 26.164 9.26976 26.164 10.9927C26.1675 11.8272 25.8394 12.6288 25.2521 13.2215C24.6648 13.8142 23.8661 14.1495 23.0317 14.1537C21.0868 14.1537 19.8639 12.6122 19.8639 10.9977C19.8639 9.22833 21.2446 7.84265 22.9814 7.84265ZM26.1453 17.2515C26.1487 18.0869 25.8209 18.8896 25.2336 19.4838C24.6463 20.0779 23.8474 20.415 23.012 20.4213C21.0681 20.4213 19.8392 18.866 19.8392 17.2515H17.0679C17.0679 20.6915 19.7041 23.0625 23.0218 23.0625C26.17 23.0625 28.9019 20.7428 28.9019 17.2515H26.1453ZM30.0153 16.4901V5.53088H32.7473V16.4921H30.0153V16.4901ZM35.4013 16.4901V7.98665H33.9357V5.53088H35.4013V2.16481H38.1332V5.5299H39.6382V7.98566H38.1332V16.4911H35.4013V16.4901ZM33.1852 2.41631C33.1852 2.89616 32.9945 3.35635 32.6552 3.69566C32.3159 4.03496 31.8557 4.22558 31.3759 4.22558C30.896 4.22558 30.4358 4.03496 30.0965 3.69566C29.7572 3.35635 29.5666 2.89616 29.5666 2.41631C29.5666 1.93633 29.7573 1.476 30.0967 1.13661C30.4361 0.797208 30.8964 0.606537 31.3764 0.606537C31.8564 0.606537 32.3167 0.797208 32.6561 1.13661C32.9955 1.476 33.1852 1.93633 33.1852 2.41631ZM45.7806 5.1995C42.2606 5.1995 39.9913 7.89492 39.9913 11.0825C39.9913 14.3766 42.2685 16.8017 45.8378 16.8017C49.1673 16.8017 50.8045 14.7227 50.8045 14.7227L48.978 12.8942C48.978 12.8942 47.5992 14.3815 45.8713 14.3815C44.4324 14.3815 43.2814 13.5777 42.88 12.1042H51.3933V11.3517C51.3933 8.35057 49.6545 5.1995 45.7806 5.1995ZM45.6938 7.60595C46.9522 7.60595 48.2403 8.27858 48.5273 9.88715H42.806C43.0329 8.75592 44.0211 7.60497 45.6938 7.60497V7.60595ZM58.228 16.8027C54.6982 16.8027 52.2928 14.1152 52.2928 10.9444C52.2928 7.674 55.0109 5.19753 58.2162 5.19753C61.315 5.19753 62.9009 7.38503 62.9009 7.38503L60.9954 9.28258C60.9954 9.28258 59.8908 7.85547 58.2043 7.85547C56.3334 7.85547 55.0543 9.28554 55.0543 10.9868C55.0543 12.7828 56.4153 14.1606 58.1826 14.1606C59.8977 14.1606 60.9925 12.7364 60.9925 12.7364L62.9176 14.633C62.9176 14.633 61.3465 16.8027 58.228 16.8027ZM63.9118 16.499V0.896494H66.6437V6.62957C66.6437 6.62957 67.6891 5.19753 69.9654 5.19753C72.8265 5.19753 74.4844 7.32389 74.4844 10.044V16.499H71.7525V10.4572C71.7525 8.62968 70.6143 7.87224 69.3539 7.87224C67.9179 7.87224 66.6437 8.68886 66.6437 10.5982V16.499H63.9118Z" fill="#858E9D"/>
</g>
<defs>
<clipPath id="clip0_289_148">
<rect width="74.955" height="23.67" fill="white" transform="translate(0.0224609)"/>
</clipPath>
</defs>
</svg>
