<svg width="93" height="28" viewBox="0 0 93 28" fill="none" xmlns="http://www.w3.org/2000/svg">
<g clip-path="url(#clip0_289_162)">
<mask id="mask0_289_162" style="mask-type:luminance" maskUnits="userSpaceOnUse" x="0" y="0" width="93" height="28">
<path d="M0.5 0.174988H92.5V27.824H0.5V0.174988Z" fill="white"/>
</mask>
<g mask="url(#mask0_289_162)">
<path d="M14.324 0.220001C6.71299 0.220001 0.541992 6.392 0.541992 14.004C0.541992 21.616 6.71199 27.786 14.324 27.786C21.937 27.786 28.107 21.616 28.107 14.004C28.107 6.393 21.937 0.223001 14.324 0.223001V0.220001ZM20.644 20.099C20.5252 20.2931 20.3342 20.4322 20.113 20.4856C19.8917 20.5391 19.6583 20.5025 19.464 20.384C16.227 18.407 12.154 17.959 7.35599 19.055C7.13849 19.0937 6.91443 19.0472 6.73028 18.9252C6.54612 18.8031 6.41599 18.6149 6.36687 18.3995C6.31775 18.1841 6.3534 17.9581 6.46643 17.7683C6.57947 17.5785 6.76121 17.4394 6.97399 17.38C12.224 16.18 16.727 16.697 20.36 18.917C20.4564 18.9758 20.5402 19.0531 20.6068 19.1444C20.6733 19.2356 20.7211 19.3391 20.7476 19.4489C20.7741 19.5587 20.7786 19.6726 20.761 19.7842C20.7434 19.8957 20.704 20.0027 20.645 20.099H20.644ZM22.332 16.346C22.1829 16.5889 21.9434 16.7626 21.6663 16.829C21.3891 16.8954 21.097 16.849 20.854 16.7C17.149 14.423 11.502 13.764 7.11999 15.094C6.84722 15.1766 6.55282 15.1476 6.30141 15.0133C6.05 14.8791 5.86212 14.6506 5.77899 14.378C5.69675 14.1052 5.72605 13.811 5.86047 13.5598C5.99488 13.3086 6.22343 13.1209 6.49599 13.038C11.501 11.519 17.724 12.255 21.978 14.869C22.483 15.18 22.643 15.842 22.332 16.346ZM22.477 12.438C18.035 9.8 10.706 9.558 6.46499 10.844C6.30301 10.8932 6.13292 10.91 5.96445 10.8934C5.79597 10.8769 5.6324 10.8273 5.48309 10.7475C5.18153 10.5864 4.95632 10.3121 4.85699 9.985C4.75767 9.65786 4.79237 9.30466 4.95346 9.0031C5.11456 8.70154 5.38885 8.47632 5.71599 8.377C10.585 6.9 18.678 7.185 23.792 10.221C23.9376 10.3073 24.0647 10.4215 24.1661 10.557C24.2676 10.6925 24.3414 10.8466 24.3832 11.0106C24.4251 11.1746 24.4343 11.3452 24.4102 11.5127C24.3862 11.6803 24.3293 11.8414 24.243 11.987C24.1566 12.1326 24.0425 12.2597 23.907 12.3612C23.7715 12.4626 23.6174 12.5364 23.4534 12.5783C23.2894 12.6201 23.1188 12.6293 22.9512 12.6052C22.7837 12.5812 22.6226 12.5243 22.477 12.438ZM38.039 12.944C35.659 12.376 35.236 11.978 35.236 11.141C35.236 10.351 35.98 9.819 37.088 9.819C38.161 9.819 39.224 10.223 40.34 11.054C40.3565 11.0665 40.3754 11.0754 40.3955 11.0804C40.4156 11.0854 40.4365 11.0863 40.457 11.083C40.4777 11.0801 40.4976 11.073 40.5155 11.0622C40.5334 11.0514 40.5488 11.037 40.561 11.02L41.722 9.382C41.745 9.34951 41.7547 9.30945 41.7491 9.27004C41.7435 9.23063 41.7231 9.19484 41.692 9.17C40.365 8.104 38.87 7.586 37.122 7.586C34.553 7.586 32.758 9.128 32.758 11.334C32.758 13.7 34.306 14.538 36.983 15.184C39.259 15.709 39.643 16.149 39.643 16.934C39.643 17.804 38.867 18.346 37.616 18.346C36.227 18.346 35.093 17.877 33.826 16.781C33.7943 16.7541 33.7535 16.7405 33.712 16.743C33.6915 16.7444 33.6714 16.7499 33.653 16.7592C33.6346 16.7684 33.6183 16.7813 33.605 16.797L32.302 18.347C32.2757 18.3782 32.2625 18.4184 32.2653 18.459C32.2681 18.4997 32.2867 18.5377 32.317 18.565C33.7537 19.8667 35.6253 20.584 37.564 20.576C40.332 20.576 42.121 19.064 42.121 16.722C42.126 14.746 40.942 13.652 38.044 12.946L38.039 12.944ZM48.385 10.597C47.185 10.597 46.201 11.07 45.388 12.038V10.948C45.3881 10.9276 45.3842 10.9073 45.3765 10.8884C45.3688 10.8695 45.3574 10.8523 45.3429 10.8378C45.3285 10.8233 45.3114 10.8117 45.2925 10.8039C45.2737 10.796 45.2534 10.792 45.233 10.792H43.102C43.0816 10.792 43.0613 10.796 43.0424 10.8039C43.0236 10.8117 43.0064 10.8233 42.992 10.8378C42.9776 10.8523 42.9662 10.8695 42.9585 10.8884C42.9508 10.9073 42.9469 10.9276 42.947 10.948V23.061C42.947 23.147 43.017 23.218 43.102 23.218H45.233C45.319 23.218 45.388 23.147 45.388 23.061V19.238C46.201 20.148 47.185 20.594 48.385 20.594C50.615 20.594 52.873 18.878 52.873 15.596C52.876 12.314 50.618 10.596 48.386 10.596L48.385 10.597ZM50.395 15.597C50.395 17.267 49.365 18.433 47.891 18.433C46.434 18.433 45.335 17.213 45.335 15.596C45.335 13.978 46.435 12.759 47.891 12.759C49.341 12.759 50.394 13.952 50.394 15.596L50.395 15.597ZM58.658 10.597C55.786 10.597 53.536 12.808 53.536 15.632C53.536 18.425 55.771 20.612 58.623 20.612C61.505 20.612 63.761 18.409 63.761 15.596C63.761 12.793 61.52 10.597 58.658 10.597ZM58.658 18.45C57.13 18.45 55.978 17.222 55.978 15.595C55.978 13.961 57.091 12.775 58.623 12.775C60.16 12.775 61.319 14.003 61.319 15.631C61.319 17.265 60.199 18.45 58.658 18.45ZM69.894 10.792H67.548V8.395C67.5481 8.37465 67.5442 8.35446 67.5366 8.33561C67.5289 8.31675 67.5176 8.29959 67.5033 8.28511C67.489 8.27062 67.472 8.25909 67.4532 8.25118C67.4345 8.24327 67.4143 8.23913 67.394 8.239H65.262C65.2207 8.23926 65.1812 8.25578 65.152 8.28498C65.1228 8.31418 65.1063 8.35371 65.106 8.395V10.792H64.082C64.0616 10.7921 64.0415 10.7963 64.0228 10.8042C64.004 10.8121 63.987 10.8236 63.9727 10.8381C63.9584 10.8526 63.9471 10.8698 63.9394 10.8886C63.9317 10.9075 63.9279 10.9276 63.928 10.948V12.779C63.928 12.865 63.997 12.935 64.082 12.935H65.106V17.675C65.106 19.589 66.059 20.56 67.94 20.56C68.704 20.56 69.337 20.402 69.935 20.063C69.9592 20.0498 69.9793 20.0302 69.9932 20.0064C70.0071 19.9827 70.0143 19.9556 70.014 19.928V18.183C70.0138 18.1567 70.0069 18.1308 69.9939 18.1079C69.981 18.085 69.9624 18.0658 69.94 18.052C69.9176 18.0374 69.8917 18.029 69.8649 18.0278C69.8382 18.0266 69.8117 18.0325 69.788 18.045C69.4018 18.2449 68.9729 18.3482 68.538 18.346C67.855 18.346 67.548 18.035 67.548 17.34V12.936H69.894C69.979 12.936 70.048 12.866 70.048 12.78V10.95C70.0487 10.9296 70.0452 10.9092 70.0378 10.8902C70.0304 10.8712 70.0192 10.8538 70.0049 10.8393C69.9906 10.8247 69.9735 10.8131 69.9546 10.8054C69.9357 10.7976 69.9154 10.7937 69.895 10.794L69.894 10.793V10.792ZM78.064 10.802V10.507C78.064 9.641 78.396 9.254 79.14 9.254C79.584 9.254 79.941 9.343 80.341 9.476C80.3644 9.48379 80.3893 9.4859 80.4136 9.48214C80.438 9.47839 80.4611 9.46888 80.481 9.45441C80.501 9.43994 80.5172 9.42093 80.5283 9.39894C80.5394 9.37696 80.5451 9.35264 80.545 9.328V7.531C80.5455 7.49743 80.5351 7.4646 80.5152 7.43752C80.4953 7.41044 80.4672 7.39059 80.435 7.381C79.8612 7.20583 79.2639 7.12015 78.664 7.127C76.697 7.127 75.656 8.235 75.656 10.331V10.781H74.632C74.5904 10.781 74.5504 10.7975 74.521 10.827C74.4915 10.8564 74.475 10.8964 74.475 10.938V12.778C74.475 12.864 74.546 12.934 74.632 12.934H75.655V20.243C75.655 20.33 75.726 20.399 75.812 20.399H77.942C78.029 20.399 78.098 20.329 78.098 20.243V12.935H80.088L83.136 20.243C82.79 21.01 82.449 21.163 81.986 21.163C81.61 21.163 81.213 21.051 80.81 20.829C80.7719 20.8097 80.728 20.8054 80.687 20.817C80.6667 20.8239 80.648 20.8349 80.6322 20.8494C80.6163 20.8638 80.6037 20.8814 80.595 20.901L79.872 22.486C79.8553 22.5219 79.8529 22.5628 79.8653 22.6003C79.8778 22.6379 79.9042 22.6692 79.939 22.688C80.693 23.097 81.373 23.271 82.214 23.271C83.787 23.271 84.658 22.537 85.424 20.565L89.12 11.014C89.1297 10.9902 89.1333 10.9643 89.1303 10.9388C89.1273 10.9133 89.1179 10.8889 89.103 10.868C89.0891 10.8474 89.0703 10.8305 89.0483 10.8188C89.0264 10.8071 89.0019 10.801 88.977 10.801H86.758C86.7256 10.8008 86.6939 10.8107 86.6674 10.8294C86.6409 10.848 86.6208 10.8744 86.61 10.905L84.337 17.395L81.849 10.901C81.8378 10.8716 81.818 10.8463 81.7921 10.8284C81.7662 10.8105 81.7355 10.801 81.704 10.801H78.064V10.802ZM73.327 10.792H71.195C71.1537 10.7923 71.1142 10.8088 71.085 10.838C71.0558 10.8672 71.0393 10.9067 71.039 10.948V20.244C71.039 20.331 71.109 20.4 71.195 20.4H73.327C73.412 20.4 73.483 20.33 73.483 20.244V10.949C73.483 10.9285 73.479 10.9082 73.4711 10.8893C73.4633 10.8704 73.4518 10.8532 73.4373 10.8387C73.4228 10.8242 73.4056 10.8127 73.3867 10.8049C73.3678 10.797 73.3475 10.793 73.327 10.793V10.792ZM72.273 6.559C72.0723 6.55887 71.8736 6.59826 71.6882 6.67493C71.5027 6.7516 71.3342 6.86404 71.1922 7.00584C71.0503 7.14763 70.9376 7.316 70.8607 7.50134C70.7838 7.68667 70.7441 7.88534 70.744 8.086C70.7439 8.28666 70.7833 8.48538 70.8599 8.67082C70.9366 8.85625 71.049 9.02477 71.1908 9.16675C71.3326 9.30873 71.501 9.4214 71.6863 9.49831C71.8717 9.57522 72.0703 9.61487 72.271 9.615C72.6762 9.61527 73.065 9.45454 73.3517 9.16817C73.6385 8.8818 73.7997 8.49325 73.8 8.088C73.8003 7.68275 73.6395 7.29399 73.3532 7.00725C73.0668 6.72051 72.6782 6.55927 72.273 6.559ZM90.94 13.781C90.097 13.781 89.44 13.103 89.44 12.281C89.44 11.459 90.106 10.774 90.948 10.774C91.791 10.774 92.448 11.451 92.448 12.273C92.448 13.095 91.783 13.781 90.94 13.781ZM90.948 10.923C90.18 10.923 89.598 11.533 89.598 12.281C89.598 13.028 90.176 13.631 90.94 13.631C91.709 13.631 92.29 13.021 92.29 12.273C92.2927 12.0957 92.2598 11.9196 92.1935 11.7551C92.1271 11.5906 92.0284 11.4411 91.9034 11.3153C91.7783 11.1895 91.6294 11.09 91.4653 11.0226C91.3012 10.9553 91.1254 10.9214 90.948 10.923ZM91.281 12.427L91.705 13.021H91.347L90.965 12.476H90.637V13.021H90.337V11.447H91.039C91.406 11.447 91.646 11.634 91.646 11.949C91.648 12.207 91.497 12.364 91.281 12.427ZM91.027 11.717H90.637V12.214H91.027C91.222 12.214 91.338 12.119 91.338 11.965C91.338 11.803 91.221 11.717 91.027 11.717Z" fill="#858E9D"/>
</g>
</g>
<defs>
<clipPath id="clip0_289_162">
<rect width="93" height="28" fill="white"/>
</clipPath>
</defs>
</svg>
