<svg width="71" height="20" viewBox="0 0 71 20" fill="none" xmlns="http://www.w3.org/2000/svg">
<g clip-path="url(#clip0_289_158)">
<path d="M8.36 4.69955V18.8436H6.18V4.69955H0.5V2.62355H14.044V4.69955H8.36ZM16.636 18.8436V2.62355H18.816V18.8436H16.636ZM34.2 14.2486C34.2 16.9996 32.359 18.8406 28.181 18.8406H22.653V2.62355H28.024C31.941 2.62355 33.681 4.38555 33.681 6.92955C33.681 8.58855 32.721 9.81255 30.901 10.5026C33.073 11.0286 34.2 12.4296 34.2 14.2486ZM28.206 4.64655H24.858V9.73155H27.868C30.201 9.73155 31.476 8.69455 31.476 7.11155C31.476 5.52855 30.333 4.64655 28.206 4.64655ZM28.049 11.7326H24.875V16.8176H28.389C30.801 16.8176 31.997 15.9606 31.997 14.2736C31.997 12.4076 30.333 11.7326 28.049 11.7326ZM48.579 5.59555C47.2818 4.68107 45.7311 4.19507 44.144 4.20555C40.614 4.20555 38.232 6.64655 38.232 10.6706C38.232 14.6936 40.613 17.2606 44.186 17.2606C45.8466 17.2321 47.455 16.6755 48.778 15.6716L49.14 17.8796C47.6218 18.7701 45.8921 19.2364 44.132 19.2296C39.369 19.2296 36.01 15.9346 36.01 10.7716C36.01 5.60755 39.42 2.23655 44.14 2.23655C45.9416 2.22462 47.7141 2.69044 49.277 3.58655L48.579 5.59555ZM62.641 3.37955C62.3985 3.23318 62.1481 3.10031 61.891 2.98155C59.769 7.04755 55.936 11.8816 50.822 14.6316C51.1058 15.2756 51.4773 15.8773 51.926 16.4196C56.309 13.3966 60.366 8.37555 62.641 3.37955Z" fill="#858E9D"/>
<path d="M61.6971 2.88964C60.5841 2.41498 59.385 2.17531 58.1751 2.18564C53.4121 2.18564 50.0411 5.86564 50.0411 10.7096C50.0381 11.4856 50.1231 12.2596 50.2911 13.0156C55.1661 11.0286 59.5031 6.64664 61.6971 2.88964ZM62.8431 3.49164C60.3411 9.64464 57.2871 13.9966 53.3981 17.7396C54.8129 18.6926 56.4865 19.1876 58.1921 19.1576C62.9551 19.1576 66.3261 15.4536 66.3261 10.6056C66.3091 7.39764 64.9811 4.90364 62.8431 3.49164ZM66.3091 2.95664C66.3004 2.67607 66.3482 2.39662 66.4496 2.13487C66.551 1.87312 66.7039 1.6344 66.8993 1.43287C67.0947 1.23134 67.3286 1.07112 67.5871 0.961699C67.8456 0.85228 68.1234 0.795898 68.4041 0.795898C68.6848 0.795898 68.9626 0.85228 69.2211 0.961699C69.4796 1.07112 69.7135 1.23134 69.9089 1.43287C70.1043 1.6344 70.2572 1.87312 70.3586 2.13487C70.46 2.39662 70.5078 2.67607 70.4991 2.95664C70.5078 3.2372 70.46 3.51665 70.3586 3.7784C70.2572 4.04015 70.1043 4.27888 69.9089 4.4804C69.7135 4.68193 69.4796 4.84215 69.2211 4.95157C68.9626 5.06099 68.6848 5.11737 68.4041 5.11737C68.1234 5.11737 67.8456 5.06099 67.5871 4.95157C67.3286 4.84215 67.0947 4.68193 66.8993 4.4804C66.7039 4.27888 66.551 4.04015 66.4496 3.7784C66.3482 3.51665 66.3004 3.2372 66.3091 2.95664ZM70.2601 2.95664C70.2412 2.47794 70.0379 2.02511 69.6927 1.69296C69.3474 1.36081 68.8871 1.17509 68.408 1.17471C67.929 1.17432 67.4683 1.35929 67.1226 1.69088C66.7768 2.02247 66.5727 2.47497 66.5531 2.95364V2.95664C66.5546 3.44861 66.7514 3.91986 67.1003 4.26671C67.4492 4.61356 67.9216 4.80759 68.4136 4.80614C68.9056 4.80468 69.3768 4.60784 69.7237 4.25893C70.0705 3.91002 70.2646 3.43761 70.2631 2.94564V2.95664H70.2601ZM67.5901 1.84664H68.5541C69.0221 1.84664 69.3721 2.07664 69.3721 2.52264C69.378 2.67133 69.332 2.81745 69.2421 2.93601C69.1522 3.05457 69.0239 3.13822 68.8791 3.17264L69.4471 3.96564H68.9541L68.4421 3.21164H68.0041V3.96564H67.6061V1.83564L67.5901 1.84664ZM68.5171 2.90864C68.5691 2.91781 68.6225 2.91575 68.6736 2.90257C68.7248 2.8894 68.7725 2.86543 68.8136 2.83228C68.8548 2.79912 68.8883 2.75754 68.912 2.71034C68.9357 2.66314 68.949 2.61142 68.9511 2.55864C68.9508 2.50553 68.9388 2.45314 68.9159 2.40524C68.8929 2.35735 68.8596 2.31514 68.8184 2.28166C68.7772 2.24818 68.729 2.22426 68.6775 2.21164C68.6259 2.19901 68.5721 2.19798 68.5201 2.20864H68.0071V2.89464H68.5231L68.5171 2.90864Z" fill="#858E9D"/>
</g>
<defs>
<clipPath id="clip0_289_158">
<rect width="71" height="20" fill="white"/>
</clipPath>
</defs>
</svg>
