<svg width="24" height="24" viewBox="0 0 24 24" fill="none" xmlns="http://www.w3.org/2000/svg">
<g clip-path="url(#clip0_315_176)">
<path fill-rule="evenodd" clip-rule="evenodd" d="M10.742 3.03001C10.8695 3.06182 10.9894 3.11843 11.095 3.19661C11.2006 3.2748 11.2897 3.37302 11.3573 3.48567C11.4249 3.59832 11.4697 3.72318 11.489 3.85313C11.5084 3.98308 11.5019 4.11556 11.47 4.24301L10.656 7.50001H15.594L16.53 3.75801C16.56 3.62868 16.6154 3.50661 16.6931 3.39893C16.7708 3.29125 16.8691 3.20011 16.9823 3.13083C17.0956 3.06155 17.2215 3.01552 17.3527 2.99542C17.484 2.97531 17.6179 2.98154 17.7467 3.01374C17.8755 3.04594 17.9966 3.10347 18.1029 3.18296C18.2093 3.26246 18.2987 3.36233 18.366 3.47676C18.4334 3.59118 18.4772 3.71787 18.4951 3.84943C18.5129 3.98099 18.5044 4.11478 18.47 4.24301L17.656 7.50001H21C21.2652 7.50001 21.5196 7.60537 21.7071 7.79291C21.8946 7.98044 22 8.2348 22 8.50001C22 8.76523 21.8946 9.01958 21.7071 9.20712C21.5196 9.39466 21.2652 9.50001 21 9.50001H17.156L15.906 14.5H19C19.2652 14.5 19.5196 14.6054 19.7071 14.7929C19.8946 14.9804 20 15.2348 20 15.5C20 15.7652 19.8946 16.0196 19.7071 16.2071C19.5196 16.3947 19.2652 16.5 19 16.5H15.406L14.47 20.243C14.44 20.3723 14.3846 20.4944 14.3069 20.6021C14.2292 20.7098 14.1309 20.8009 14.0177 20.8702C13.9044 20.9395 13.7785 20.9855 13.6473 21.0056C13.516 21.0257 13.3821 21.0195 13.2533 20.9873C13.1245 20.9551 13.0034 20.8976 12.8971 20.8181C12.7907 20.7386 12.7013 20.6387 12.634 20.5243C12.5666 20.4098 12.5228 20.2832 12.5049 20.1516C12.4871 20.02 12.4956 19.8862 12.53 19.758L13.344 16.5H8.406L7.47 20.243C7.40204 20.4963 7.23731 20.7128 7.01129 20.8458C6.78526 20.9787 6.51604 21.0176 6.26162 20.954C6.0072 20.8904 5.78795 20.7294 5.6511 20.5057C5.51426 20.282 5.47077 20.0135 5.53 19.758L6.344 16.5H3C2.73478 16.5 2.48043 16.3947 2.29289 16.2071C2.10536 16.0196 2 15.7652 2 15.5C2 15.2348 2.10536 14.9804 2.29289 14.7929C2.48043 14.6054 2.73478 14.5 3 14.5H6.844L8.094 9.50001H5C4.73478 9.50001 4.48043 9.39466 4.29289 9.20712C4.10536 9.01958 4 8.76523 4 8.50001C4 8.2348 4.10536 7.98044 4.29289 7.79291C4.48043 7.60537 4.73478 7.50001 5 7.50001H8.594L9.53 3.75801C9.56181 3.63054 9.61842 3.51059 9.6966 3.40501C9.77478 3.29942 9.87301 3.21028 9.98565 3.14267C10.0983 3.07507 10.2232 3.03032 10.3531 3.01099C10.4831 2.99166 10.6156 2.99812 10.743 3.03001H10.742ZM10.156 9.50001L8.906 14.5H13.844L15.094 9.50001H10.156Z" fill="#FFC800"/>
</g>
<defs>
<clipPath id="clip0_315_176">
<rect width="24" height="24" fill="white"/>
</clipPath>
</defs>
</svg>
