<svg width="18" height="18" viewBox="0 0 18 18" fill="none" xmlns="http://www.w3.org/2000/svg">
<g clip-path="url(#clip0_315_166)">
<path fill-rule="evenodd" clip-rule="evenodd" d="M11.515 0H4C2.93913 0 1.92172 0.421427 1.17157 1.17157C0.421427 1.92172 0 2.93913 0 4L0 14C0 15.0609 0.421427 16.0783 1.17157 16.8284C1.92172 17.5786 2.93913 18 4 18H14C15.0609 18 16.0783 17.5786 16.8284 16.8284C17.5786 16.0783 18 15.0609 18 14V10.485L16 12.485V14C16 14.5304 15.7893 15.0391 15.4142 15.4142C15.0391 15.7893 14.5304 16 14 16H4C3.46957 16 2.96086 15.7893 2.58579 15.4142C2.21071 15.0391 2 14.5304 2 14V4C2 3.46957 2.21071 2.96086 2.58579 2.58579C2.96086 2.21071 3.46957 2 4 2H9.515L11.515 0Z" fill="#7B68EE"/>
<path fill-rule="evenodd" clip-rule="evenodd" d="M17.707 2.293C17.8945 2.48053 17.9998 2.73484 17.9998 3C17.9998 3.26516 17.8945 3.51947 17.707 3.707L9.70701 11.707C9.51948 11.8945 9.26517 11.9998 9.00001 11.9998C8.73485 11.9998 8.48054 11.8945 8.29301 11.707L4.29301 7.707C4.11085 7.5184 4.01006 7.2658 4.01234 7.0036C4.01461 6.7414 4.11978 6.49059 4.30519 6.30518C4.4906 6.11977 4.74141 6.0146 5.00361 6.01233C5.26581 6.01005 5.51841 6.11084 5.70701 6.293L9.00001 9.586L16.293 2.293C16.4805 2.10553 16.7348 2.00021 17 2.00021C17.2652 2.00021 17.5195 2.10553 17.707 2.293Z" fill="#7B68EE"/>
</g>
<defs>
<clipPath id="clip0_315_166">
<rect width="18" height="18" fill="white"/>
</clipPath>
</defs>
</svg>
