<svg width="24" height="24" viewBox="0 0 24 24" fill="none" xmlns="http://www.w3.org/2000/svg">
<g clip-path="url(#clip0_315_179)">
<path fill-rule="evenodd" clip-rule="evenodd" d="M7 3C6.73478 3 6.48043 3.10536 6.29289 3.29289C6.10536 3.48043 6 3.73478 6 4V5H4C3.46957 5 2.96086 5.21071 2.58579 5.58579C2.21071 5.96086 2 6.46957 2 7V9C2 10.0609 2.42143 11.0783 3.17157 11.8284C3.92172 12.5786 4.93913 13 6 13H6.803C7.24491 13.765 7.85019 14.4231 8.57566 14.9273C9.30113 15.4315 10.1289 15.7695 11 15.917V17H10.854C10.1111 16.9999 9.38289 17.2067 8.75094 17.5973C8.11898 17.9878 7.60825 18.5466 7.276 19.211L7.106 19.553C7.04243 19.6709 7.00319 19.8003 6.99061 19.9336C6.97802 20.067 6.99234 20.2015 7.03272 20.3292C7.0731 20.4569 7.13872 20.5751 7.22569 20.677C7.31265 20.7788 7.41918 20.8622 7.53897 20.9221C7.65875 20.982 7.78934 21.0172 7.923 21.0256C8.05666 21.0341 8.19065 21.0156 8.31703 20.9713C8.44341 20.927 8.5596 20.8578 8.65872 20.7677C8.75783 20.6776 8.83784 20.5686 8.894 20.447L9.065 20.106C9.23113 19.7735 9.48662 19.4939 9.8028 19.2986C10.119 19.1032 10.4833 18.9998 10.855 19H13.146C13.5175 19 13.8816 19.1035 14.1976 19.2988C14.5136 19.4942 14.7689 19.7737 14.935 20.106L15.105 20.447C15.1637 20.5645 15.245 20.6694 15.3442 20.7555C15.4434 20.8416 15.5586 20.9073 15.6832 20.9489C15.8078 20.9905 15.9394 21.0072 16.0705 20.9979C16.2015 20.9887 16.3295 20.9537 16.447 20.895C16.5645 20.8363 16.6694 20.755 16.7555 20.6558C16.8416 20.5566 16.9073 20.4414 16.9489 20.3168C16.9905 20.1922 17.0072 20.0606 16.9979 19.9295C16.9887 19.7985 16.9537 19.6705 16.895 19.553L16.724 19.211C16.3917 18.5466 15.881 17.9878 15.2491 17.5973C14.6171 17.2067 13.8889 16.9999 13.146 17H13V15.917C13.8711 15.7695 14.6989 15.4315 15.4243 14.9273C16.1498 14.4231 16.7551 13.765 17.197 13H18C19.0609 13 20.0783 12.5786 20.8284 11.8284C21.5786 11.0783 22 10.0609 22 9V7C22 6.46957 21.7893 5.96086 21.4142 5.58579C21.0391 5.21071 20.5304 5 20 5H18V4C18 3.73478 17.8946 3.48043 17.7071 3.29289C17.5196 3.10536 17.2652 3 17 3H7ZM8 10C8 11.0609 8.42143 12.0783 9.17157 12.8284C9.92172 13.5786 10.9391 14 12 14C13.0609 14 14.0783 13.5786 14.8284 12.8284C15.5786 12.0783 16 11.0609 16 10V5H8V10ZM6 7H4V9C4 9.53043 4.21071 10.0391 4.58579 10.4142C4.96086 10.7893 5.46957 11 6 11V7ZM18 10V7H20V9C20 9.53043 19.7893 10.0391 19.4142 10.4142C19.0391 10.7893 18.5304 11 18 11V10Z" fill="#00B884"/>
</g>
<defs>
<clipPath id="clip0_315_179">
<rect width="24" height="24" fill="white"/>
</clipPath>
</defs>
</svg>
