<svg width="24" height="24" viewBox="0 0 24 24" fill="none" xmlns="http://www.w3.org/2000/svg">
<g clip-path="url(#clip0_315_170)">
<path fill-rule="evenodd" clip-rule="evenodd" d="M18.142 4.29098C18.7062 3.736 19.4669 3.42646 20.2583 3.42977C21.0497 3.43309 21.8077 3.749 22.3673 4.30868C22.9268 4.86836 23.2426 5.62648 23.2457 6.41789C23.2488 7.2093 22.9391 7.96989 22.384 8.53398L17.929 12.989C17.6166 13.3017 17.2094 13.5022 16.771 13.559L15.147 13.768C14.8435 13.8072 14.5351 13.7763 14.2454 13.6776C13.9558 13.5789 13.6926 13.4151 13.4763 13.1987C13.2599 12.9823 13.096 12.7192 12.9974 12.4295C12.8987 12.1399 12.8677 11.8315 12.907 11.528L13.117 9.90498C13.1736 9.46624 13.374 9.05864 13.687 8.74598L18.142 4.29098ZM20.97 5.70498C20.7825 5.51751 20.5282 5.41219 20.263 5.41219C19.9978 5.41219 19.7435 5.51751 19.556 5.70498L15.1 10.161L14.89 11.784L16.514 11.574L20.97 7.11998C21.063 7.0271 21.1367 6.91682 21.1871 6.79542C21.2374 6.67402 21.2633 6.54389 21.2633 6.41248C21.2633 6.28106 21.2374 6.15093 21.1871 6.02954C21.1367 5.90814 21.063 5.79785 20.97 5.70498ZM4.56999 5.58498C3.87899 5.58498 3.31999 6.14398 3.31999 6.83498V9.35698L4.90499 7.94798C5.52036 7.41197 6.32242 7.14051 7.13684 7.1926C7.95125 7.2447 8.71219 7.61614 9.25425 8.22619C9.79631 8.83623 10.0757 9.63558 10.0316 10.4505C9.98757 11.2654 9.62366 12.0299 9.01899 12.578L8.11599 13.381C8.00893 13.4748 7.92186 13.5892 7.86 13.7174C7.79814 13.8456 7.76276 13.9849 7.75597 14.1271C7.74918 14.2692 7.77112 14.4113 7.82048 14.5448C7.86984 14.6783 7.94561 14.8005 8.04325 14.9041C8.1409 15.0076 8.25841 15.0905 8.38879 15.1476C8.51916 15.2047 8.6597 15.2349 8.80203 15.2365C8.94436 15.2381 9.08554 15.211 9.21715 15.1568C9.34875 15.1025 9.46808 15.0223 9.56799 14.921L10.612 13.877C10.7995 13.6893 11.0539 13.5839 11.3191 13.5838C11.5844 13.5837 11.8389 13.689 12.0265 13.8765C12.2141 14.064 12.3196 14.3184 12.3197 14.5836C12.3198 14.8489 12.2145 15.1033 12.027 15.291L10.982 16.335C10.6929 16.6256 10.3483 16.8552 9.96871 17.01C9.58912 17.1649 9.18229 17.2418 8.77238 17.2363C8.36246 17.2308 7.95783 17.143 7.58253 16.9781C7.20722 16.8131 6.8689 16.5744 6.58766 16.2762C6.30642 15.9779 6.08801 15.6262 5.94539 15.2418C5.80277 14.8575 5.73886 14.4484 5.75745 14.0389C5.77604 13.6293 5.87676 13.2277 6.05363 12.8579C6.23049 12.488 6.47988 12.1575 6.78699 11.886L7.69099 11.083C7.90847 10.8896 8.04024 10.6178 8.0573 10.3273C8.07437 10.0368 7.97534 9.75146 7.78199 9.53398C7.58865 9.3165 7.31683 9.18473 7.02634 9.16767C6.73585 9.1506 6.45047 9.24963 6.23299 9.44298L3.31899 12.033V17.334C3.31899 18.024 3.87899 18.584 4.56899 18.584H18.069C18.759 18.584 19.319 18.024 19.319 17.334V14.21C19.319 13.9448 19.4244 13.6904 19.6119 13.5029C19.7994 13.3153 20.0538 13.21 20.319 13.21C20.5842 13.21 20.8386 13.3153 21.0261 13.5029C21.2136 13.6904 21.319 13.9448 21.319 14.21V17.335C21.319 18.1969 20.9766 19.0236 20.3671 19.6331C19.7576 20.2426 18.9309 20.585 18.069 20.585H4.56999C3.70804 20.585 2.88139 20.2426 2.2719 19.6331C1.6624 19.0236 1.31999 18.1969 1.31999 17.335V11.59C1.31997 11.5866 1.31997 11.5833 1.31999 11.58V6.83498C1.31999 5.97302 1.6624 5.14637 2.2719 4.53688C2.88139 3.92739 3.70804 3.58498 4.56999 3.58498H13.593C13.8582 3.58498 14.1126 3.69033 14.3001 3.87787C14.4876 4.06541 14.593 4.31976 14.593 4.58498C14.593 4.85019 14.4876 5.10455 14.3001 5.29208C14.1126 5.47962 13.8582 5.58498 13.593 5.58498H4.56999Z" fill="#FD71AF"/>
</g>
<defs>
<clipPath id="clip0_315_170">
<rect width="24" height="24" fill="white"/>
</clipPath>
</defs>
</svg>
